<?xml version="1.0" encoding="utf-8"?>
<!-- Generator: Adobe Illustrator 27.4.0, SVG Export Plug-In . SVG Version: 6.00 Build 0)  -->
<svg version="1.1" id="textblock" xmlns:svgjs="http://svgjs.dev/svgjs"
	 xmlns="http://www.w3.org/2000/svg" xmlns:xlink="http://www.w3.org/1999/xlink" x="0px" y="0px" viewBox="0 0 1594.2 434.7"
	 style="enable-background:new 0 0 1594.2 434.7;" xml:space="preserve">
<style type="text/css">
	.st0{fill:#EA2025;}
	.st1{fill:#BD212D;}
	.st2{fill:#231F20;}
	.st3{fill:none;stroke:#FFFFFF;stroke-width:3;}
	.st4{fill:#BF2130;}
	.st5{fill:#BF212E;}
	.st6{fill:#D72129;}
	.st7{fill:#F1E5DF;}
	.st8{fill:#F3F4F6;stroke:#000000;stroke-width:5;stroke-miterlimit:10;}
	.st9{display:none;fill:none;stroke:#000000;stroke-miterlimit:10;}
</style>
<g>
	<path class="st0" d="M1149.2,399.3c-16,0.3-31.9-0.9-47.8-1.5c-42.5-1.6-85-3.2-127.5-4.8c-1.8-0.1-3.6-0.4-5.4-0.6
		c2.9-1.2,6-0.3,8.5-0.5c1.1-0.1,0.1-1.1,0.4-0.5c0.1,0.2,0,0.3-0.3,0.3c-3.7,0.1-7.5,0.7-11.1-0.4c-2.5-2.3-1.7-5.3-1.7-8
		c0-44.8,0-89.5,0-134.3c0-35.3,0-70.5,0-105.8c0-1.8,0-3.7,0.1-5.5c0.2-3.6,2.1-5.4,5.7-5.6c2.3-0.1,4.7-0.1,7-0.1
		c12.6-0.1,25.2-0.3,37.7,0.3c7.6,0.4,9.5,2.9,7,8.9c-1.9,1-5.2,0.9-4.8,4c0.4,2.6,3.3,2.8,5.6,3.2c4.7,0.7,9.4,1.5,13.8-1.2
		c-0.4-1,2.2-1.3,0.5-2.7c-4.4-3.6-4.3-3.7-0.5-8.6c2-1.9,4.5-2,7-1.9c6.1,0.3,12.2,0.5,18.3,1.5c5.9,1,11.9,0.2,17.9,0.4
		c12.9,0.5,25.9-0.2,38.8,1c9.3,0.9,11.1,2.4,10.2,11.6c-0.1,2.3-4.2,3.2-2.5,5.8c1.6,2.5,4.7,1.9,7.4,1.9c3.4,0,7,0.5,10.1-1.6
		c0.9-1,0.4-1.6-0.5-2.3c-5.3-3.8-6-6.4-3.4-12.6c4.4-2.9,9.5-2.4,14-1.3c10.4,2.5,20.9,1.4,31.3,1.1c6-0.2,8.6,1.6,9,7.7
		c0.1,1.2,0,2.3,0,3.5c0,78.8,0,157.5,0,236.3c0,13.5,0,13.8-13.5,13.3C1170.1,399.7,1159.6,400.2,1149.2,399.3z"/>
	<path class="st1" d="M965.9,390.8c4,0,8,0,12,0c0,0.4,0,0.8,0,1.2c-3.4,0-6.8,0-10.1,0c-7.6,0.5-14.6-3-21.9-4.2
		c-1.7-0.3-1.6-1.9-1.6-3.2c0-3.2,0-6.3,0-9.5c0-81.4,0-162.8-0.1-244.2c0-3.8,0.7-5.2,4.9-5c24.1,1.1,48.2,2,72.3,2.7
		c3.8,0.1,4.3,1.7,3.1,4.5c-1.2,2.5,0.9,6.6-3.6,7.6c0-6.9-0.1-6.5-9.2-7.2c-11.6-1-23.2-0.2-34.8-0.6c-3.3-1.8-6.8-0.8-10.3-0.8
		c-1.7,0-2.6,1.3-2.7,3c-0.1,1.5-0.1,3-0.1,4.5c0,81.3,0,162.7,0,244C963.9,386.1,962.8,389.1,965.9,390.8z"/>
	<g>
		<path class="st2" d="M1139.2,141.7c-0.2,4.6-0.3,8.9,5.7,10.5c4.2,1.1,0.8,2.4-0.6,3.4c-4.6,1.8-9.2,1.7-14,1
			c-1.5-0.2-3-0.8-3.4-2.4c-0.5-1.8,0.7-2.8,2.1-3.4c2.2-0.9,3.1-2.2,2.2-4.6c-1.4-3.9-2.1-8-3-12.1c-4.9-13.1-10.4-25.5-16.9-34.5
			c-9.3-6.2-18.2-10.6-38.3-11.7c1.8-0.8-13,4.9-19.3,11c-8.3,9.8-13.1,19.3-16.2,31.4c-0.9,2.4-0.6,5.2-2.3,7.3
			c-1.4,3.1-2.5,6.1,2.9,6c0.8,0,3.7,0.9,3.5,1.9c-0.5,1.7-5.1,4.9-3.9,5.4c1.6,0.7-7.5-0.6-7.2-0.6c0.5,0-6.3-0.5-11.7-5.3
			c1-0.7,1.5-1.4,2.1-1.4c6.4,0.2,6.5-4.6,7.3-8.9c2.3-12.2,6.1-23.8,12.4-34.6c15.8-26.9,45.9-32.2,70.2-12.5
			c11.7,9.6,18.7,22.2,23.6,36.3c1.1,3.1,2,6.3,3,9.5C1139.4,136.1,1139.1,139,1139.2,141.7z"/>
		<path class="st3" d="M1139.2,141.7c-0.2,4.6-0.3,8.9,5.7,10.5c4.2,1.1,0.8,2.4-0.6,3.4c-4.6,1.8-9.2,1.7-14,1
			c-1.5-0.2-3-0.8-3.4-2.4c-0.5-1.8,0.7-2.8,2.1-3.4c2.2-0.9,3.1-2.2,2.2-4.6c-1.4-3.9-2.1-8-3-12.1c-4.9-13.1-10.4-25.5-16.9-34.5
			c-9.3-6.2-18.2-10.6-38.3-11.7c1.8-0.8-13,4.9-19.3,11c-8.3,9.8-13.1,19.3-16.2,31.4c-0.9,2.4-0.6,5.2-2.3,7.3
			c-1.4,3.1-2.5,6.1,2.9,6c0.8,0,3.7,0.9,3.5,1.9c-0.5,1.7-5.1,4.9-3.9,5.4c1.6,0.7-7.5-0.6-7.2-0.6c0.5,0-6.3-0.5-11.7-5.3
			c1-0.7,1.5-1.4,2.1-1.4c6.4,0.2,6.5-4.6,7.3-8.9c2.3-12.2,6.1-23.8,12.4-34.6c15.8-26.9,45.9-32.2,70.2-12.5
			c11.7,9.6,18.7,22.2,23.6,36.3c1.1,3.1,2,6.3,3,9.5C1139.4,136.1,1139.1,139,1139.2,141.7z"/>
	</g>
	<path class="st4" d="M1140.8,141c-1.3-2.5-1.9-5.2-1.8-8c16.2,0.6,32.4,1.2,48.6,1.7c4.8,0.1,4.8,4.2,5.8,7.2c0.6,1.8,0.2,4,0.2,6
		c0,82.4,0,164.8,0,247c0,6.4,0,6.4-6.5,5.6c-5.1-0.8-10.3,0.5-15.3-0.7c-7.2,0.1-14.5,0.2-21.6-1c12.1,0,24.1-0.2,36.2,0
		c3.8,0.1,5.1-1.4,5.8-4.8c0.5-2.8,1-5.5,1-8.4c0-78.3,0-156.5,0-234.7c0-2.5,0.3-5-1.1-7.3c-1.4-2.5-2.7-3.3-6.1-3.2
		c-10.2,0.1-20.5,1.9-30.9-1.1C1150.6,138.3,1145.1,136.9,1140.8,141z"/>
	<path class="st0" d="M1170.9,399.9c5.3,0.4,10.7-0.9,15.9,0.7C1181.5,400.7,1176.1,401,1170.9,399.9z"/>
	<path class="st5" d="M1036.4,136.9c-0.4-2.8,0.2-5.4,1.2-8c1.4-1,3-1.3,4.6-1.2c17.3,0.8,34.5,1.6,51.9,1.8
		c7.7,0.1,15.3,0.9,23,0.9c9.4,0,11.7,2.3,12.3,12c0.1,0.8,0.2,1.7,0.1,2.5c-0.4,1.7,1.4,4.9-2.8,4.2c0-1.7,0.1-3.3,0.1-5
		c-0.1-4.1-1.8-5.9-6.2-6.3c-16.1-1.6-32.3-0.9-48.3-1.1c-9.2-0.1-18.1-1.9-27.3-1.8C1042,134.9,1039,134.9,1036.4,136.9z"/>
	<path class="st6" d="M965.9,390.8c-1.7,0.1-3-0.2-3-2.3c0-1.3,0-2.7,0-4c0-82.2,0-164.5,0-246.7c0-6.8,0-7,7.1-6.7
		c2.3,0.1,5.5-1.9,6.9,1.9c-12,0.1-12,0.1-12,12.3c0,79.6,0,159.2,0,238.8C964.9,386.3,964.5,388.7,965.9,390.8z"/>
	<path class="st7" d="M1126.7,149c3.9,0.4,1.4-1.9,1.3-3.2c1.1-0.9,3.2,1.3,3.9-1.1c1.4,3.2,2,6.1-3,6.4c-0.9,0.1-2.2,0.4-2.2,1.6
		c0,1.6,1.5,1.6,2.5,1.9c4.9,1.3,9.8,0.8,14.8,0.2c-5.2,3.4-10.8,2.1-16.3,1.5c-1.9-0.2-4.5-0.7-4.8-3.4
		C1122.7,150.1,1125.4,150.3,1126.7,149z"/>
</g>
<g>
	<path class="st0" d="M60.3,326.4c0.6-6.1,1.5-12.2,1.9-18.3c1.7-29.7-5.1-58-14.1-85.9c-3.2-9.8-3.1-9.8,5.5-15.3
		c5.5-3.4,10.9-6.8,16.3-11.5c-5.7,0-11.5-0.2-17.2,0.1c-3.8,0.2-7.7,0.7-11.2,1.9c-3.9,1.4-5.6-0.3-6.8-3.4
		c-5.2-13.3-7.3-12.6,6.4-21.1c10.6-6.5,22.1-11.1,34.4-16.5c-11.6-1.1-21.6,1.7-31.7,4.2c-5.1,1.3-10.2,2.8-15.3,4.2
		c-3.2,0.9-4.7,0.5-5.4-3.6c-1.2-7.1,1.1-12.1,6.5-16.6c11-9.2,23.1-16.8,34.5-25.5c1.1-0.8,2.2-1.6,3.2-2.4
		c10.1-8.2,10.4-10.6,2.8-21.4c-1.1-1.6-2.3-3.2-3.5-4.9c2.2-2,4.9-0.4,7.4-1.5c-1.9-3.6-6.3-4.4-8.9-8c5.3-1.7,10.3-3.2,15.2-5
		c9.7-3.5,18.8-8.4,27.9-13.1c2-1,4.5-3,6.4-1.2c1.7,1.6,0.8,4.4,0.3,6.7c-2.8,12.8-7.4,25.1-11.1,37.6c-1.6,5.6-1.7,10.9,0.1,16.5
		c3.4,10.2,7.2,20.3,8.7,31c1.7,12.2-2.2,23.3-7.1,34.3c4.9-18.6,0.6-36.1-6.5-53c-5.6-13.3-2.5-26-0.5-39.1
		c0.8-5.4,1.6-10.8,2.2-16.3c0.2-2.2,0.1-4.4-4.6-1.8c-3.4,1.9-7.1,3.2-10.9,4c-4.3,0.9-6.1,2.1-3.9,5c1,1.3,2,2.7,2.7,4.2
		c0.8,1.7,3.3,3.5,1.8,5.2c-1.1,1.2-3.6,0-5.5-0.7c-0.4-0.2-1-0.1-1.4-0.2c-0.2,0.3-0.5,0.7-0.4,0.8c4.4,10.4,0.5,18.5-8.5,25.1
		c-7.3,5.4-14.3,11.2-21,17.4c-1.8,1.7-3.9,3.1-5.6,5c-2,2.2-2.1,5.1-1.1,7.5c1,2.5,3.2,0.3,4.8,0.1c14.2-2.4,28.5-2.5,42.8-2.2
		c4.5,0.1,6.6,3.5,10.5,5.8c-6.2,2.1-11.6,3.9-16.9,5.8c-9.6,3.4-18.7,8.2-27.1,14c-4.2,2.9-7.4,4-6.3,7.9c0.8,2.8,2.8,2.7,5.1,2.8
		c6.3,0.2,12.6,0.6,18.9,1c4.8,0.3,10.4,7.1,10.1,11.8c-0.1,1.9-1.3,1.9-2.7,2.3c-6.7,2.1-12.9,5.3-18.2,9.9
		c-2.4,2.1-3.5,4.1-2.6,7.7c5.2,21.1,9.8,42.4,9.2,64.4C69.7,297.5,67,312.4,60.3,326.4z"/>
	<path class="st0" d="M103.9,10.4c-7.4,5.7-12.1,12.9-15.3,21.4c-0.4,1.1-0.9,2.2-1.1,3.3c-0.6,4.2-2.6,9.1,2.5,11.5
		c4.6,2.1,7.7-1.2,10.1-4.9c0.6-0.9,1.5-1.4,3.2-2.9c-2.7,9.4-7.4,16-15,20.2c-7.2,4-13.5,1.9-16.7-5.8c-4.8-11.8-2.5-22.8,4.7-32.9
		C83.2,10.8,93.2,9.4,103.9,10.4z"/>
</g>
<g transform="matrix(1,0,0,1,-0.9090909090909918,0.24414472757989358)">
	<g id="tight-bounds" transform="matrix(1,0,0,1,0.2400000000000091,-0.06449106011544359)">
		<g>
			<g>
				<g id="textblocktransform">
					<g>
						<g transform="matrix(1,0,0,1,0,0)">
							<g id="text-0">
								<path class="st8" d="M185.8,290v-28.4c0-2.6-2.1-4.7-4.7-4.7h-33.7c-2.6,0-4.7-2.1-4.7-4.7v-12c0-2.6,2.1-4.7,4.7-4.7h38.2
									c2.3,0,4.2-1.7,4.6-3.9l4.9-31.2c0.4-2.8-1.7-5.4-4.6-5.4H96.8c-2.6,0-4.7,2.1-4.7,4.7v148.8c0,2.6,2.1,4.7,4.7,4.7h41.3
									c2.6,0,4.7-2.1,4.7-4.7v-49.3c0-2.6,2.1-4.7,4.7-4.7h33.7C183.7,294.7,185.8,292.6,185.8,290z M270.9,223L270.9,223
									c40.5,0,60.7,13.9,60.7,41.7l0,0v83.9c0,2.6-2.1,4.7-4.7,4.7h-18.7c-1.2,0-2.4-0.5-3.3-1.4l-9.7-9.7
									c-1.8-1.8-4.6-1.8-6.4-0.1c-1.8,1.6-3.7,3.1-5.8,4.5c-3.4,2.2-7.1,4.1-11,5.7c-3.9,1.5-7.9,2.7-12,3.6
									c-4.1,0.8-8,1.3-11.8,1.3l0,0c-7.2,0-13.6-0.7-19.3-2.2s-10.5-3.9-14.4-7.1s-7-7.5-9.1-12.9c-2.1-5.3-3.2-11.9-3.2-19.6l0,0
									c0-30.4,22.9-45.5,68.7-45.5l0,0h5.5c2.6,0,4.7-2.1,4.7-4.7l0,0c0-2.5-1.9-4.5-4.4-4.7c-1-0.1-2-0.1-2.9-0.2
									c-2.2-0.1-4.2-0.2-6-0.2l0,0c-19,0-35.3,2.3-49.1,7l0,0l-5.4-32.2c-0.4-2.4,1-4.6,3.3-5.3C232.5,225.2,250.6,223,270.9,223z
									 M253.2,309.8L253.2,309.8v5.7c0,2.6,2.1,4.7,4.7,4.7h5.9c7.3,0,12.1-0.8,14.3-2.5l0,0c2-1.8,3-4,3-6.5l0,0v-7.4
									c0-2.6-2.1-4.7-4.7-4.7h-5.7c-6,0-10.5,0.6-13.3,1.9C254.6,302.3,253.2,305.2,253.2,309.8z M366.6,231.8L366.6,231.8
									c10.8-5.9,25.6-8.9,44.5-8.9l0,0c19,0,36.3,2.6,52.1,7.8l0,0l-5,29.3c-0.5,2.7-3.1,4.4-5.8,3.7c-4.9-1.3-9.8-2.2-14.7-2.9
									c-6.5-0.8-13.1-1.3-19.8-1.3l0,0c-2,0-4.4,0.1-7.3,0.2s-6.1,0.4-9.8,0.8l0,0v3.4c0,2.5,2,4.6,4.5,4.7
									c6.3,0.1,12.7,0.5,19.3,1.1c8.2,0.8,15.6,2.6,22.2,5.5c6.7,2.9,12.2,7.2,16.4,12.9c4.3,5.7,6.5,13.5,6.5,23.3l0,0
									c0,6.9-0.8,13-2.3,18.4s-3.9,9.8-7.2,13l0,0c-3.4,3.2-6.9,5.8-10.5,7.8s-8.2,3.4-14,4.2l0,0c-4.5,0.7-9.3,1.2-14.5,1.6
									c-5.1,0.3-10.6,0.5-16.5,0.5l0,0c-20.7,0-39.6-2.5-56.7-7.4l0,0l5.4-30.8c0.5-2.7,3.1-4.4,5.8-3.7
									c5.6,1.5,11.4,2.6,17.3,3.5c7.6,1.1,15.5,1.7,23.8,1.7l0,0c3.8,0,7.4-0.1,10.8-0.2c3.5-0.1,6.8-0.4,10-0.8l0,0v-3.4
									c0-2.5-2.1-4.6-4.6-4.7c-11.5-0.2-21.2-1.1-29.3-2.6c-9.1-1.7-16.4-4.4-21.9-8.1s-9.5-8.4-11.8-14.3S350,273.2,350,265l0,0
									C350.2,248.8,355.7,237.7,366.6,231.8z M538,275.3L538,275.3v73.3c0,2.6-2.1,4.7-4.7,4.7H492c-2.6,0-4.7-2.1-4.7-4.7V193.2
									c0-2.4,1.9-4.5,4.3-4.6l41.3-3.1c2.7-0.2,5,1.9,5,4.6v34.1c0,3.3,3.3,5.6,6.3,4.3c9.1-3.7,18.9-5.5,29.5-5.5l0,0
									c13.2,0,23.2,2.6,29.9,7.7c6.7,5.1,10.1,12.3,10.1,21.4l0,0v96.5c0,2.6-2.1,4.7-4.7,4.7h-41.3c-2.6,0-4.7-2.1-4.7-4.7v-79.2
									c0-2.6-2.1-4.7-4.7-4.7h-3.1c-6.2,0-10.6,0.6-13.4,1.9C539.3,267.9,538,270.8,538,275.3z M688.5,232.1v116.5
									c0,2.6-2.1,4.7-4.7,4.7h-41.3c-2.6,0-4.7-2.1-4.7-4.7V237.2c0-2.3,1.7-4.3,4.1-4.6l41.3-5.2
									C686,227.1,688.5,229.3,688.5,232.1z M635.1,203L635.1,203c0-3.8,0.4-7,1.3-9.6c0.8-2.6,2.3-4.7,4.4-6.3
									c2.1-1.6,5-2.8,8.6-3.5c3.7-0.7,8.3-1.1,13.9-1.1l0,0c5.6,0,10.2,0.4,13.8,1.1c3.6,0.7,6.5,1.9,8.6,3.5s3.6,3.7,4.4,6.3
									c0.8,2.6,1.3,5.8,1.3,9.6l0,0c0,3.8-0.4,7-1.3,9.5c-0.8,2.5-2.3,4.6-4.4,6.2c-2.1,1.6-5,2.8-8.6,3.4c-3.6,0.6-8.2,1-13.8,1
									l0,0c-4.1,0-7.8-0.1-11.3-0.4c-3.4-0.3-6.4-1.1-8.9-2.4c-2.5-1.3-4.5-3.3-5.9-6C635.8,211.5,635.1,207.7,635.1,203z
									 M708.7,290L708.7,290c0-22.6,5.3-39.5,15.8-50.5s27.6-16.5,51.2-16.5l0,0c23.6,0,40.7,5.5,51.2,16.5s15.8,27.9,15.8,50.5
									l0,0c0,22.6-5.3,39.4-15.8,50.5c-10.5,11-27.6,16.6-51.2,16.6l0,0c-23,0-40-5.4-50.8-16.2S708.7,313.1,708.7,290z
									 M763.1,270.6L763.1,270.6v44.9c0,2.6,2.1,4.7,4.7,4.7h3.1c6.2,0,10.6-0.6,13.4-1.9c2.8-1.3,4.1-4.2,4.1-8.9l0,0v-44.9
									c0-2.6-2.1-4.7-4.7-4.7h-3.1c-6.2,0-10.7,0.6-13.4,1.9C764.5,263,763.1,266,763.1,270.6z M863,348.6V231.4
									c0-2.6,2.1-4.7,4.7-4.7h18.7c1.2,0,2.4,0.5,3.3,1.4l8.6,8.6c1.6,1.6,4,1.8,5.8,0.6c14.7-9.6,30.5-14.3,47.5-14.3l0,0
									c11.9,0,21.2,2.6,27.9,7.7c6.7,5.1,10,12.3,10,21.4l0,0v96.5c0,2.6-2.1,4.7-4.7,4.7h-41.3c-2.6,0-4.7-2.1-4.7-4.7v-79.2
									c0-2.6-2.1-4.7-4.7-4.7H931c-5.8,0-10.1,0.6-13.1,1.8c-3,1.2-4.4,3.9-4.4,7.9l0,0v74.2c0,2.6-2.1,4.7-4.7,4.7h-41.3
									C865.1,353.3,863,351.2,863,348.6z M1007.2,350.5L1007.2,350.5l6.3-36.9c0.5-2.6,3-4.3,5.6-3.8c13.6,3,26,4.6,37.2,4.6l0,0
									c6.3,0,11.9-0.1,16.8-0.3c4.8-0.2,9.1-0.6,12.9-1.1l0,0v-8.4c0-2.4-1.9-4.4-4.3-4.6l-18.5-1.5c-10.3-1-18.8-2.7-25.7-5.1
									c-6.9-2.4-12.4-5.7-16.5-9.8c-4.2-4.1-7.1-9.1-8.9-15c-1.8-5.8-2.7-12.7-2.7-20.5l0,0c0-10.8,1.1-19.9,3.4-27.1
									c2.2-7.2,5.8-13,10.8-17.5c4.9-4.4,11.3-7.6,19.1-9.4c7.8-1.8,17.3-2.7,28.5-2.7l0,0c22.3,0,42.6,2.1,60.7,6.3l0,0
									l-5.6,35.9c-0.4,2.5-2.8,4.3-5.3,3.9c-13.6-2.1-24.7-3.1-33.1-3.1l0,0c-9.4,0-17.4,0.4-24,1.3l0,0v8.2
									c0,2.4,1.8,4.4,4.2,4.6l13.9,1.3c11.1,1.1,20.4,3,27.8,5.6c7.4,2.6,13.5,6,18,10.2c4.6,4.2,7.8,9.2,9.7,15
									c1.9,5.8,2.8,12.4,2.8,19.8l0,0c0,10.7-1.4,19.7-4.2,27c-2.8,7.3-6.2,12.9-10.1,16.7l0,0c-3.2,3.1-7.2,5.5-12,7.3
									s-9.8,3.1-15.2,3.9s-10.7,1.4-16.1,1.6s-10.3,0.3-14.7,0.3l0,0c-11,0-21.5-0.6-31.6-1.7
									C1026.4,354.3,1016.6,352.6,1007.2,350.5z M1210,275.3L1210,275.3v73.3c0,2.6-2.1,4.7-4.7,4.7H1164c-2.6,0-4.7-2.1-4.7-4.7
									V193.2c0-2.4,1.9-4.5,4.3-4.6l41.3-3.1c2.7-0.2,5,1.9,5,4.6v34.1c0,3.3,3.3,5.6,6.3,4.3c9.1-3.7,18.9-5.5,29.5-5.5l0,0
									c13.2,0,23.2,2.6,29.9,7.7c6.7,5.1,10.1,12.3,10.1,21.4l0,0v96.5c0,2.6-2.1,4.7-4.7,4.7h-41.3c-2.6,0-4.7-2.1-4.7-4.7v-79.2
									c0-2.6-2.1-4.7-4.7-4.7h-3.1c-6.2,0-10.6,0.6-13.4,1.9C1211.3,267.9,1210,270.8,1210,275.3z M1304.8,290L1304.8,290
									c0-22.6,5.3-39.5,15.8-50.5s27.6-16.5,51.2-16.5l0,0c23.6,0,40.7,5.5,51.2,16.5s15.8,27.9,15.8,50.5l0,0
									c0,22.6-5.3,39.4-15.8,50.5c-10.5,11-27.6,16.6-51.2,16.6l0,0c-23,0-40-5.4-50.8-16.2C1310.2,330,1304.8,313.1,1304.8,290z
									 M1359.2,270.6L1359.2,270.6v44.9c0,2.6,2.1,4.7,4.7,4.7h3.1c6.2,0,10.6-0.6,13.4-1.9s4.1-4.2,4.1-8.9l0,0v-44.9
									c0-2.6-2.1-4.7-4.7-4.7h-3.1c-6.2,0-10.7,0.6-13.4,1.9C1360.6,263,1359.2,266,1359.2,270.6z M1505.4,391.5l-41.3,3.1
									c-2.7,0.2-5-1.9-5-4.6V231.4c0-2.6,2.1-4.7,4.7-4.7h18.3c1.5,0,2.9,0.7,3.8,1.9l4.4,5.9c1.7,2.3,5.1,2.5,7.1,0.4
									c7.9-8.1,20.5-12.1,37.7-12.1l0,0c10.1,0,18.6,1.8,25.5,5.5s12.5,8.5,16.7,14.6c4.3,6.1,7.4,13.3,9.3,21.4
									c1.9,8.2,2.9,16.7,2.9,25.5l0,0c0,8.6-0.8,16.7-2.5,24.2c-1.7,7.6-4.5,14.3-8.4,20.1c-3.9,5.8-9.1,10.5-15.6,13.8
									c-6.5,3.4-14.5,5.1-24,5.1l0,0h-24.4c-2.6,0-4.7,2.1-4.7,4.7v29C1509.7,389.3,1507.8,391.4,1505.4,391.5z M1509.7,269.4
									L1509.7,269.4v46.1c0,2.6,2.1,4.7,4.7,4.7h3.1c6.2,0,10.6-0.6,13.4-1.9s4.1-4.2,4.1-8.9l0,0v-44.9c0-2.6-2.1-4.7-4.7-4.7
									h-3.1c-3.7,0-6.6,0.1-8.9,0.4c-2.2,0.3-4.2,1.2-5.9,2.7l0,0C1510.8,264.4,1509.9,266.6,1509.7,269.4z"/>
							</g>
						</g>
					</g>
				</g>
			</g>
		</g>
		<path class="st9" d="M117.1,608.9h1488c2.6,0,4.7,2.1,4.7,4.7v203.2c0,2.6-2.1,4.7-4.7,4.7h-1488c-2.6,0-4.7-2.1-4.7-4.7V613.6
			C112.4,611,114.5,608.9,117.1,608.9z"/>
	</g>
</g>
</svg>
