<?xml version="1.0" standalone="no"?>
<!DOCTYPE svg PUBLIC "-//W3C//DTD SVG 1.1//EN" "http://www.w3.org/Graphics/SVG/1.1/DTD/svg11.dtd" >
<svg xmlns="http://www.w3.org/2000/svg" xmlns:xlink="http://www.w3.org/1999/xlink" version="1.1">
<metadata>
Created by FontForge 20190801 at Sun May 22 20:20:23 2016
 By Jimmy Wärting
HTF Gotham  Copr. 2002 The Hoefler Type Foundry, Inc. Info: www.typography.com
</metadata>
<defs>
<font id="SVN-GothamLightItalic" horiz-adv-x="846" >
  <font-face 
    font-family="SVN-Gotham Light"
    font-weight="300"
    font-style="italic"
    font-stretch="normal"
    units-per-em="1000"
    panose-1="2 0 6 3 4 0 0 9 0 4"
    ascent="800"
    descent="-200"
    x-height="510"
    cap-height="700"
    bbox="-121 -200 1206 1069"
    underline-thickness="20"
    underline-position="-133"
    slope="-12"
    unicode-range="U+0020-FB02"
  />
<missing-glyph horiz-adv-x="500" 
 />
    <glyph glyph-name="fi" unicode="fi" horiz-adv-x="612" 
d="M394 0l137 510h49l-137 -510h-49zM55 0l125 465h-74l12 45h74l20 74c26 97 80 146 163 146c39 0 74 -9 102 -24l-12 -44c-35 16 -59 24 -92 24c-53 0 -95 -33 -115 -113l-17 -63h184l-12 -45h-184l-125 -465h-49zM561 643l18 67h61l-18 -67h-61z" />
    <glyph glyph-name="fl" unicode="fl" horiz-adv-x="612" 
d="M55 0l125 465h-74l12 45h74l20 74c26 97 80 146 163 146c39 0 74 -9 102 -24l-12 -44c-35 16 -59 24 -92 24c-53 0 -95 -33 -115 -113l-17 -63h184l-12 -45h-184l-125 -465h-49zM394 0l196 730h49l-196 -730h-49z" />
    <glyph glyph-name=".notdef" horiz-adv-x="500" 
 />
    <glyph glyph-name="NUL" horiz-adv-x="0" 
 />
    <glyph glyph-name="CR" horiz-adv-x="300" 
 />
    <glyph glyph-name="space" unicode=" " horiz-adv-x="300" 
 />
    <glyph glyph-name="exclam" unicode="!" horiz-adv-x="251" 
d="M24 0l23 85h66l-23 -85h-66zM92 183l105 447l19 70h58l-19 -70l-135 -447h-28z" />
    <glyph glyph-name="quotedbl" unicode="&#x22;" horiz-adv-x="410" 
d="M101 446l93 254h63v-5l-127 -249h-29zM281 446l93 254h63v-5l-127 -249h-29z" />
    <glyph glyph-name="numbersign" unicode="#" horiz-adv-x="678" 
d="M221 234h206l83 236h-207zM91 0l65 187h-121l12 47h125l83 236h-133l12 47h137l64 183h48l-64 -183h207l64 183h48l-64 -183h121l-12 -47h-125l-83 -236h133l-12 -47h-137l-65 -187h-48l65 187h-207l-65 -187h-48z" />
    <glyph glyph-name="dollar" unicode="$" horiz-adv-x="618" 
d="M353 325l-75 -278c120 -5 208 56 208 146c0 55 -33 93 -133 132zM325 389l71 262c-116 16 -210 -48 -210 -133c0 -60 40 -92 139 -129zM190 -98l28 103c-92 15 -168 58 -219 117l38 33c47 -56 113 -92 198 -104l77 288c-128 48 -179 92 -179 174c0 108 100 187 232 187
c15 0 29 -1 44 -2l16 60h49l-18 -67c73 -15 129 -46 172 -89l-36 -36c-39 39 -89 67 -153 80l-73 -272c121 -44 173 -93 173 -176c0 -114 -103 -198 -255 -198h-19l-26 -98h-49z" />
    <glyph glyph-name="percent" unicode="%" horiz-adv-x="821" 
d="M592 36c77 0 138 88 138 171c0 64 -32 105 -92 105c-77 0 -138 -88 -138 -171c0 -64 32 -105 92 -105zM234 389c77 0 138 88 138 171c0 64 -32 105 -92 105c-77 0 -138 -88 -138 -171c0 -64 32 -105 92 -105zM588 -7c-81 0 -137 63 -137 143c0 112 84 219 191 219
c81 0 137 -63 137 -143c0 -112 -84 -219 -191 -219zM65 0l682 700h60l-682 -700h-60zM230 346c-81 0 -137 63 -137 143c0 112 84 219 191 219c81 0 137 -63 137 -143c0 -112 -84 -219 -191 -219z" />
    <glyph glyph-name="ampersand" unicode="&#x26;" horiz-adv-x="690" 
d="M237 36c84 0 152 36 223 105l-159 225c-151 -36 -217 -112 -217 -195c0 -84 60 -135 153 -135zM326 411c155 40 200 98 200 154c0 61 -44 103 -115 103c-70 0 -131 -58 -131 -131c0 -43 14 -77 46 -126zM572 -14l-85 121c-78 -78 -150 -117 -256 -117
c-112 0 -200 63 -200 175c0 113 82 197 245 238c-28 45 -47 88 -47 133c0 100 85 176 184 176c100 0 164 -57 164 -145c0 -76 -53 -144 -226 -192l142 -201c40 45 79 102 116 167l39 -23c-43 -72 -84 -130 -127 -178l90 -128z" />
    <glyph glyph-name="quotesingle" unicode="'" horiz-adv-x="230" 
d="M101 446l93 254h63v-5l-127 -249h-29z" />
    <glyph glyph-name="parenleft" unicode="(" horiz-adv-x="430" 
d="M301 -111l-28 -29c-93 82 -174 197 -174 358c0 196 123 389 396 501l17 -37c-262 -112 -361 -292 -361 -463c0 -150 68 -245 150 -330z" />
    <glyph glyph-name="parenright" unicode=")" horiz-adv-x="430" 
d="M-47 -139l-17 37c262 112 361 292 361 463c0 150 -68 245 -150 330l28 29c90 -83 174 -197 174 -358c0 -196 -123 -389 -396 -501z" />
    <glyph glyph-name="asterisk" unicode="*" horiz-adv-x="430" 
d="M270 406l-41 10l42 121l-121 -42l-12 41l129 24l-100 84l31 30l84 -97l24 125l41 -10l-42 -121l121 42l12 -41l-129 -24l100 -84l-31 -30l-84 97z" />
    <glyph glyph-name="plus" unicode="+" horiz-adv-x="639" 
d="M256 113l58 215h-217l13 48h217l57 215h50l-57 -215h217l-13 -48h-217l-58 -215h-50z" />
    <glyph glyph-name="comma" unicode="," horiz-adv-x="231" 
d="M-32 -106l-7 24c49 17 73 43 80 82h-27l23 85h66l-20 -74c-21 -69 -48 -98 -115 -117z" />
    <glyph glyph-name="hyphen" unicode="-" horiz-adv-x="409" 
d="M74 269l15 56h268l-15 -56h-268z" />
    <glyph glyph-name="hyphen" unicode="&#xad;" horiz-adv-x="409" 
d="M74 269l15 56h268l-15 -56h-268z" />
    <glyph glyph-name="period" unicode="." horiz-adv-x="231" 
d="M14 0l23 85h66l-23 -85h-66z" />
    <glyph glyph-name="slash" unicode="/" horiz-adv-x="500" 
d="M-121 -128l716 926h54l-716 -926h-54z" />
    <glyph glyph-name="zero" unicode="0" horiz-adv-x="709" 
d="M320 35c164 0 303 210 303 415c0 119 -61 215 -184 215c-164 0 -303 -210 -303 -415c0 -119 61 -215 184 -215zM317 -12c-155 0 -235 113 -235 262c0 228 154 462 360 462c155 0 235 -113 235 -262c0 -228 -152 -462 -360 -462z" />
    <glyph glyph-name="one" unicode="1" horiz-adv-x="334" 
d="M93 0l173 645l-147 -46l-2 47l176 59h41l-189 -705h-52z" />
    <glyph glyph-name="two" unicode="2" horiz-adv-x="588" 
d="M-19 0l9 39l418 325c81 64 123 113 123 178c0 69 -54 121 -150 121c-84 0 -149 -47 -200 -100l-37 32c61 63 138 115 239 115c119 0 202 -67 202 -167c0 -83 -56 -144 -145 -213l-362 -280h404l-13 -50h-488z" />
    <glyph glyph-name="three" unicode="3" horiz-adv-x="606" 
d="M250 -12c-120 0 -201 53 -240 137l43 24c37 -72 100 -114 200 -114c123 0 215 73 215 176c0 91 -77 133 -196 133h-29l-11 26l312 281h-375l14 49h450l-10 -37l-307 -277c112 -5 207 -62 207 -171c0 -132 -126 -227 -273 -227z" />
    <glyph glyph-name="four" unicode="4" horiz-adv-x="645" 
d="M99 216h328l109 406zM369 0l46 171h-379l-8 39l533 495h48l-131 -489h114l-12 -45h-114l-46 -171h-51z" />
    <glyph glyph-name="five" unicode="5" horiz-adv-x="601" 
d="M252 -12c-119 0 -191 57 -236 125l43 27c44 -65 104 -107 196 -107c137 0 226 95 226 196c0 96 -73 150 -168 150c-48 0 -105 -13 -161 -44l-33 26l111 339h378l-14 -50h-332l-86 -257c29 16 96 33 137 33c136 0 222 -75 222 -195c0 -131 -113 -243 -283 -243z" />
    <glyph glyph-name="six" unicode="6" horiz-adv-x="640" 
d="M320 34c122 0 209 92 209 197c0 74 -54 156 -173 156c-128 0 -214 -93 -214 -186c0 -51 17 -89 46 -118c35 -35 81 -49 132 -49zM317 -12c-68 0 -127 25 -166 64c-43 43 -68 102 -68 193c0 155 60 287 140 367c67 67 141 100 224 100c93 0 157 -37 204 -93l-38 -33
c-41 47 -93 79 -169 79c-66 0 -126 -27 -181 -82c-64 -64 -114 -166 -122 -266c42 63 116 118 218 118c142 0 224 -97 224 -204c0 -131 -112 -243 -266 -243z" />
    <glyph glyph-name="seven" unicode="7" horiz-adv-x="578" 
d="M80 0l471 650h-403l14 50h464l-11 -38l-475 -662h-60z" />
    <glyph glyph-name="eight" unicode="8" horiz-adv-x="641" 
d="M298 37c132 0 218 65 218 156c0 76 -77 144 -202 144c-137 0 -220 -74 -220 -158c0 -83 80 -142 204 -142zM375 380c132 0 199 76 199 148c0 79 -73 135 -178 135c-117 0 -195 -64 -195 -147c0 -77 70 -136 174 -136zM295 -10c-155 0 -255 83 -255 183
c0 113 94 179 214 198c-59 21 -107 73 -107 149c0 108 110 190 249 190c135 0 232 -74 232 -179c0 -99 -83 -164 -181 -182c61 -21 123 -78 123 -158c0 -117 -119 -201 -275 -201z" />
    <glyph glyph-name="nine" unicode="9" horiz-adv-x="640" 
d="M335 304c124 0 212 96 212 196c0 46 -15 84 -46 115c-35 35 -81 50 -132 50c-122 0 -210 -94 -210 -201c0 -77 52 -160 176 -160zM243 -13c-89 0 -161 39 -210 99l38 33c47 -52 99 -85 175 -85c65 0 125 27 180 82c64 64 114 163 122 263c-40 -59 -108 -123 -220 -123
c-143 0 -223 99 -223 208c0 132 114 247 268 247c68 0 126 -25 165 -64c43 -43 68 -102 68 -193c0 -155 -60 -287 -140 -367c-67 -67 -139 -100 -223 -100z" />
    <glyph glyph-name="colon" unicode=":" horiz-adv-x="241" 
d="M19 0l23 85h66l-23 -85h-66zM133 425l23 85h66l-23 -85h-66z" />
    <glyph glyph-name="semicolon" unicode=";" horiz-adv-x="241" 
d="M-27 -106l-7 24c49 17 73 43 80 82h-27l23 85h66l-20 -74c-21 -69 -48 -98 -115 -117zM133 425l23 85h66l-23 -85h-66z" />
    <glyph glyph-name="semicolon" unicode="&#x37e;" horiz-adv-x="241" 
d="M-27 -106l-7 24c49 17 73 43 80 82h-27l23 85h66l-20 -74c-21 -69 -48 -98 -115 -117zM133 425l23 85h66l-23 -85h-66z" />
    <glyph glyph-name="less" unicode="&#x3c;" horiz-adv-x="640" 
d="M478 91l-400 241l11 40l529 241l-15 -59l-458 -206l347 -208z" />
    <glyph glyph-name="equal" unicode="=" horiz-adv-x="640" 
d="M81 214l14 51h454l-14 -51h-454zM142 439l13 51h454l-13 -51h-454z" />
    <glyph glyph-name="greater" unicode="&#x3e;" horiz-adv-x="640" 
d="M51 91l15 59l458 206l-347 208l14 49l400 -241l-11 -40z" />
    <glyph glyph-name="question" unicode="?" horiz-adv-x="534" 
d="M128 0l23 85h66l-23 -85h-66zM194 183l30 162l7 5c147 11 250 76 250 183c0 84 -68 129 -152 129c-81 0 -151 -43 -196 -88l-32 34c54 54 130 101 232 101c124 0 201 -74 201 -175c0 -131 -124 -207 -265 -226l-43 -125h-32z" />
    <glyph glyph-name="at" unicode="@" horiz-adv-x="980" 
d="M445 118c101 0 206 102 206 207c0 76 -48 130 -128 130c-104 0 -189 -100 -189 -216c0 -77 47 -121 111 -121zM486 -161c-255 0 -420 156 -420 392c0 258 221 481 491 481c248 0 391 -156 391 -353c0 -189 -117 -286 -206 -286c-72 0 -112 39 -121 100
c-53 -68 -115 -102 -186 -102c-87 0 -157 63 -157 166c0 146 122 265 243 265c85 0 133 -52 154 -108l30 98l47 -13l-75 -242c-21 -69 2 -127 70 -127c67 0 166 78 166 249c0 179 -132 321 -356 321c-251 0 -456 -209 -456 -449c0 -216 152 -360 385 -360
c76 0 139 14 207 45l14 -29c-72 -33 -140 -48 -221 -48z" />
    <glyph glyph-name="A" unicode="A" horiz-adv-x="759" 
d="M200 243h369l-75 405zM-34 0l515 705h50l137 -705h-53l-36 196h-413l-142 -196h-58z" />
    <glyph glyph-name="B" unicode="B" horiz-adv-x="717" 
d="M101 48h253c144 0 235 59 235 158c0 83 -79 123 -185 123h-228zM189 377h216c142 0 234 65 234 159c0 77 -61 116 -161 116h-215zM36 0l188 700h259c127 0 210 -59 210 -159c0 -103 -83 -170 -185 -189c73 -19 134 -63 134 -146c0 -120 -111 -206 -291 -206h-315z" />
    <glyph glyph-name="C" unicode="C" horiz-adv-x="738" 
d="M378 -13c-155 0 -286 107 -286 284c0 227 187 441 418 441c128 0 214 -66 257 -151l-45 -24c-46 78 -104 128 -215 128c-203 0 -361 -195 -361 -392c0 -147 101 -238 237 -238c104 0 173 41 237 105l35 -32c-64 -66 -148 -121 -277 -121z" />
    <glyph glyph-name="D" unicode="D" horiz-adv-x="771" 
d="M101 48h171c127 0 233 43 310 120c60 60 94 141 94 234c0 72 -22 129 -65 171c-52 52 -133 79 -233 79h-115zM36 0l188 700h157c109 0 208 -30 272 -94c49 -49 77 -113 77 -200c0 -108 -38 -200 -109 -271c-84 -84 -211 -135 -356 -135h-229z" />
    <glyph glyph-name="E" unicode="E" horiz-adv-x="649" 
d="M36 0l188 700h493l-13 -48h-441l-74 -275h396l-13 -48h-396l-75 -281h446l-13 -48h-498z" />
    <glyph glyph-name="F" unicode="F" horiz-adv-x="656" 
d="M36 0l188 700h493l-13 -48h-441l-77 -287h396l-13 -48h-396l-85 -317h-52z" />
    <glyph glyph-name="G" unicode="G" horiz-adv-x="786" 
d="M396 -13c-174 0 -302 115 -302 295c0 216 183 430 427 430c144 0 213 -63 256 -130l-41 -27c-40 61 -97 110 -220 110c-211 0 -368 -192 -368 -381c0 -156 103 -250 251 -250c84 0 151 24 202 57l64 224h-233l13 48h284l-86 -301c-76 -49 -151 -75 -247 -75z" />
    <glyph glyph-name="H" unicode="H" horiz-adv-x="756" 
d="M36 0l188 700h52l-87 -324h443l87 324h52l-188 -700h-52l88 328h-443l-88 -328h-52z" />
    <glyph glyph-name="I" unicode="I" horiz-adv-x="274" 
d="M43 0l188 700h52l-188 -700h-52z" />
    <glyph glyph-name="J" unicode="J" horiz-adv-x="538" 
d="M196 -10c-117 0 -177 72 -201 161l46 16c27 -85 72 -130 153 -130c50 0 92 17 127 52c36 36 59 86 78 153l123 458h52l-125 -465c-21 -80 -49 -135 -93 -179c-43 -43 -103 -66 -160 -66z" />
    <glyph glyph-name="K" unicode="K" horiz-adv-x="714" 
d="M36 0l188 700h52l-122 -455l560 455h77l-389 -313l212 -387h-60l-195 357l-224 -182l-47 -175h-52z" />
    <glyph glyph-name="L" unicode="L" horiz-adv-x="600" 
d="M36 0l188 700h52l-175 -652h411l-13 -48h-463z" />
    <glyph glyph-name="M" unicode="M" horiz-adv-x="869" 
d="M36 0l188 700h43l170 -414l392 414h55l-188 -700h-52l163 608l-385 -403h-4l-169 403l-163 -608h-50z" />
    <glyph glyph-name="N" unicode="N" horiz-adv-x="786" 
d="M36 0l188 700h48l315 -613l165 613h50l-188 -700h-38l-322 626l-168 -626h-50z" />
    <glyph glyph-name="O" unicode="O" 
d="M398 34c196 0 349 185 349 377c0 143 -100 254 -248 254c-196 0 -349 -185 -349 -377c0 -143 100 -254 248 -254zM398 -13c-176 0 -302 133 -302 301c0 219 180 424 403 424c176 0 302 -133 302 -301c0 -219 -180 -424 -403 -424z" />
    <glyph glyph-name="P" unicode="P" horiz-adv-x="663" 
d="M171 309h168c189 0 292 72 292 201c0 38 -12 69 -36 93c-33 33 -84 49 -154 49h-178zM36 0l188 700h218c84 0 150 -20 193 -63c32 -32 48 -74 48 -125c0 -160 -135 -250 -346 -250h-178l-71 -262h-52z" />
    <glyph glyph-name="Q" unicode="Q" 
d="M398 34c72 0 135 24 190 63l-117 130l38 33l114 -134c77 72 124 177 124 285c0 143 -100 254 -248 254c-196 0 -349 -185 -349 -377c0 -143 100 -254 248 -254zM692 -24l-72 85c-64 -47 -139 -74 -222 -74c-176 0 -302 133 -302 301c0 219 180 424 403 424
c176 0 302 -133 302 -301c0 -123 -57 -241 -146 -321l75 -82z" />
    <glyph glyph-name="R" unicode="R" horiz-adv-x="713" 
d="M178 337h210c104 0 177 28 220 71c31 31 47 69 47 113c0 35 -10 62 -31 83c-31 31 -79 48 -151 48h-210zM36 0l188 700h251c84 0 147 -21 188 -62c29 -29 44 -67 44 -114c0 -59 -23 -107 -62 -146c-47 -47 -121 -74 -206 -83l154 -295h-60l-150 290h-217l-78 -290h-52z
" />
    <glyph glyph-name="S" unicode="S" horiz-adv-x="638" 
d="M299 -10c-128 0 -220 51 -279 134l40 29c60 -77 132 -116 244 -116c115 0 202 65 202 153c0 62 -40 95 -153 141c-144 56 -200 100 -200 186c0 106 100 193 251 193c105 0 192 -44 243 -107l-40 -32c-51 60 -120 92 -208 92c-120 0 -193 -68 -193 -142
c0 -64 52 -100 167 -143c130 -48 186 -99 186 -184c0 -114 -110 -204 -260 -204z" />
    <glyph glyph-name="T" unicode="T" horiz-adv-x="615" 
d="M209 0l175 652h-244l13 48h540l-13 -48h-244l-175 -652h-52z" />
    <glyph glyph-name="U" unicode="U" horiz-adv-x="756" 
d="M348 -11c-169 0 -252 96 -252 220c0 39 5 73 14 108l102 383h52l-108 -407c-5 -20 -9 -49 -9 -80c0 -100 65 -177 205 -177c63 0 123 24 171 72c39 39 75 101 98 186l109 406h52l-112 -417c-24 -89 -62 -157 -111 -206c-57 -57 -130 -88 -211 -88z" />
    <glyph glyph-name="V" unicode="V" horiz-adv-x="714" 
d="M259 -5l-117 705h54l99 -644l446 644h59l-495 -705h-46z" />
    <glyph glyph-name="W" unicode="W" horiz-adv-x="1074" 
d="M215 -5l-65 705h54l53 -623l372 625h40l38 -625l387 623h58l-443 -705h-42l-42 608l-368 -608h-42z" />
    <glyph glyph-name="X" unicode="X" horiz-adv-x="692" 
d="M-23 0l366 362l-186 338h56l167 -308l310 308h67l-352 -347l192 -353h-56l-173 323l-324 -323h-67z" />
    <glyph glyph-name="Y" unicode="Y" horiz-adv-x="668" 
d="M234 0l76 284l-183 416h57l161 -376l364 376h70l-421 -429l-72 -271h-52z" />
    <glyph glyph-name="Z" unicode="Z" horiz-adv-x="662" 
d="M-19 0l8 29l636 624h-452l13 47h533l-8 -29l-636 -624h472l-13 -47h-553z" />
    <glyph glyph-name="bracketleft" unicode="[" horiz-adv-x="430" 
d="M16 -130l223 830h273l-11 -38h-227l-202 -754h227l-10 -38h-273z" />
    <glyph glyph-name="backslash" unicode="\" horiz-adv-x="500" 
d="M368 -128l-221 926h44l221 -926h-44z" />
    <glyph glyph-name="bracketright" unicode="]" horiz-adv-x="430" 
d="M-67 -130l11 38h227l202 754h-227l10 38h273l-223 -830h-273z" />
    <glyph glyph-name="asciicircum" unicode="^" horiz-adv-x="500" 
d="M129 493l214 210h44l102 -210h-47l-83 167l-173 -167h-57z" />
    <glyph glyph-name="underscore" unicode="_" horiz-adv-x="600" 
d="M-114 -160l12 44h605l-12 -44h-605z" />
    <glyph glyph-name="grave" unicode="`" horiz-adv-x="500" 
d="M368 595l-79 103l62 30l52 -133h-35z" />
    <glyph glyph-name="a" unicode="a" horiz-adv-x="571" 
d="M199 33c96 0 199 67 228 170l12 45c-52 13 -117 24 -193 24c-101 0 -171 -56 -171 -135c0 -64 48 -104 124 -104zM190 -12c-85 0 -167 48 -167 143c0 113 96 185 230 185c73 0 145 -14 196 -29l4 14c4 15 7 36 7 51c0 77 -54 120 -154 120c-56 0 -99 -10 -148 -27l-9 44
c51 19 97 29 161 29c125 0 198 -60 198 -159c0 -19 -3 -44 -10 -67l-78 -292h-48l23 88c-49 -59 -116 -100 -205 -100z" />
    <glyph glyph-name="b" unicode="b" horiz-adv-x="654" 
d="M310 33c139 0 237 127 237 268c0 105 -65 175 -158 175c-127 0 -255 -129 -255 -265c0 -99 71 -178 176 -178zM312 -13c-115 0 -176 70 -203 143l-35 -130h-49l196 730h49l-87 -320c51 61 121 112 212 112c117 0 205 -90 205 -215c0 -181 -136 -320 -288 -320z" />
    <glyph glyph-name="c" unicode="c" horiz-adv-x="563" 
d="M272 -12c-112 0 -222 80 -222 220c0 167 139 314 300 314c105 0 168 -59 200 -123l-41 -23c-32 54 -75 100 -162 100c-130 0 -244 -125 -244 -265c0 -115 84 -177 172 -177c67 0 118 29 165 73l33 -32c-52 -51 -117 -87 -201 -87z" />
    <glyph glyph-name="d" unicode="d" horiz-adv-x="654" 
d="M265 33c127 0 255 129 255 265c0 99 -71 178 -176 178c-139 0 -237 -127 -237 -268c0 -105 65 -175 158 -175zM259 -13c-117 0 -205 90 -205 215c0 181 136 320 288 320c115 0 176 -70 203 -143l94 351h49l-195 -730h-49l26 99c-51 -61 -120 -112 -211 -112z" />
    <glyph glyph-name="e" unicode="e" horiz-adv-x="583" 
d="M114 282h370c3 9 4 23 4 42c0 82 -45 153 -144 153c-115 0 -200 -90 -230 -195zM524 238h-419c-1 -11 -2 -23 -2 -34c0 -103 69 -170 169 -170c77 0 125 28 174 68l29 -35c-53 -44 -111 -79 -203 -79c-130 0 -222 88 -222 214c0 160 129 320 295 320
c128 0 193 -90 193 -195c0 -33 -5 -62 -14 -89z" />
    <glyph glyph-name="f" unicode="f" horiz-adv-x="362" 
d="M55 0l125 465h-74l12 45h74l20 74c26 97 80 146 163 146c39 0 74 -9 102 -24l-12 -44c-35 16 -59 24 -92 24c-53 0 -95 -33 -115 -113l-17 -63h184l-12 -45h-184l-125 -465h-49z" />
    <glyph glyph-name="g" unicode="g" horiz-adv-x="654" 
d="M282 84c128 0 244 113 244 228c0 81 -67 163 -179 163c-119 0 -234 -96 -234 -236c0 -101 84 -155 169 -155zM236 -162c-91 0 -180 36 -241 95l36 36c55 -51 123 -85 207 -85c72 0 124 24 157 57c35 35 54 77 70 134l18 64c-51 -54 -119 -101 -210 -101
c-109 0 -213 74 -213 198c0 170 145 286 289 286c117 0 170 -69 199 -136l33 124h49l-119 -447c-19 -71 -45 -117 -80 -152c-48 -48 -110 -73 -195 -73z" />
    <glyph glyph-name="h" unicode="h" horiz-adv-x="609" 
d="M25 0l196 730h49l-85 -315c52 60 106 107 193 107c101 0 167 -63 167 -162c0 -23 -4 -48 -11 -72l-76 -288h-49l78 292c5 19 8 44 8 63c0 76 -50 123 -131 123c-87 0 -184 -79 -213 -190l-77 -288h-49z" />
    <glyph glyph-name="i" unicode="i" horiz-adv-x="250" 
d="M32 0l137 510h49l-137 -510h-49zM199 643l18 67h61l-18 -67h-61z" />
    <glyph glyph-name="j" unicode="j" horiz-adv-x="249" 
d="M-52 -163c-23 0 -39 2 -63 10l12 44c15 -4 32 -8 47 -8c35 0 62 21 75 69l150 558h49l-151 -562c-19 -71 -62 -111 -119 -111zM199 643l18 67h61l-18 -67h-61z" />
    <glyph glyph-name="k" unicode="k" horiz-adv-x="560" 
d="M25 0l196 730h49l-145 -541l396 321h71l-284 -228l152 -282h-57l-136 252l-160 -128l-33 -124h-49z" />
    <glyph glyph-name="l" unicode="l" horiz-adv-x="250" 
d="M32 0l196 730h49l-196 -730h-49z" />
    <glyph glyph-name="m" unicode="m" horiz-adv-x="951" 
d="M25 0l136 510h49l-25 -95c51 61 100 107 183 107c92 0 138 -64 149 -125c47 76 118 125 214 125c92 0 159 -67 159 -162c0 -23 -6 -48 -13 -72l-76 -288h-49l78 292c5 19 8 44 8 63c0 76 -46 123 -121 123c-82 0 -174 -82 -203 -190l-76 -288h-49l78 292c5 19 8 44 8 63
c0 76 -46 123 -121 123c-82 0 -174 -82 -203 -190l-77 -288h-49z" />
    <glyph glyph-name="n" unicode="n" horiz-adv-x="611" 
d="M25 0l136 510h49l-25 -95c52 60 106 107 193 107c101 0 167 -63 167 -162c0 -23 -4 -48 -11 -72l-76 -288h-49l78 292c5 19 8 44 8 63c0 76 -50 123 -131 123c-87 0 -184 -79 -213 -190l-77 -288h-49z" />
    <glyph glyph-name="o" unicode="o" horiz-adv-x="633" 
d="M283 34c124 0 245 120 245 260c0 116 -72 182 -179 182c-129 0 -245 -124 -245 -260c0 -116 72 -182 179 -182zM278 -12c-135 0 -227 95 -227 226c0 161 140 308 303 308c135 0 227 -95 227 -226c0 -165 -145 -308 -303 -308z" />
    <glyph glyph-name="p" unicode="p" horiz-adv-x="654" 
d="M310 33c139 0 237 127 237 268c0 105 -65 175 -158 175c-127 0 -255 -129 -255 -265c0 -99 71 -178 176 -178zM-18 -160l179 670h49l-27 -100c51 61 121 112 212 112c117 0 205 -90 205 -215c0 -181 -136 -320 -288 -320c-115 0 -176 70 -203 143l-78 -290h-49z" />
    <glyph glyph-name="q" unicode="q" horiz-adv-x="654" 
d="M265 33c127 0 255 130 255 266c0 98 -71 177 -176 177c-139 0 -237 -127 -237 -268c0 -105 65 -175 158 -175zM391 -200l80 300c-51 -61 -121 -113 -212 -113c-117 0 -205 90 -205 215c0 181 136 320 288 320c115 0 176 -69 203 -142l35 130h49l-189 -710h-49z" />
    <glyph glyph-name="r" unicode="r" horiz-adv-x="396" 
d="M25 0l136 510h49l-38 -145c67 94 153 158 262 153l-14 -54h-4c-118 0 -243 -92 -286 -255l-56 -209h-49z" />
    <glyph glyph-name="s" unicode="s" horiz-adv-x="495" 
d="M217 -11c-80 0 -157 29 -216 88l35 35c56 -55 119 -78 187 -78c65 0 132 40 132 101c0 39 -23 69 -111 101c-97 36 -143 70 -143 137c0 81 74 148 189 148c72 0 141 -32 184 -68l-32 -37c-39 32 -97 60 -157 60c-86 0 -132 -47 -132 -95c0 -39 20 -63 115 -100
c101 -40 139 -78 139 -138c0 -89 -86 -154 -190 -154z" />
    <glyph glyph-name="t" unicode="t" horiz-adv-x="396" 
d="M206 -9c-68 0 -122 30 -122 101c0 16 3 36 6 49l87 324h-74l12 45h74l44 163h49l-44 -163h176l-12 -45h-176l-87 -325c-3 -13 -5 -31 -5 -43c0 -43 32 -61 83 -61c21 0 46 5 74 16l-13 -48c-27 -11 -45 -13 -72 -13z" />
    <glyph glyph-name="u" unicode="u" horiz-adv-x="609" 
d="M231 -12c-101 0 -167 63 -167 162c0 23 4 48 11 72l76 288h49l-78 -292c-5 -19 -8 -44 -8 -63c0 -76 50 -123 131 -123c87 0 184 79 213 190l77 288h49l-136 -510h-49l25 95c-50 -61 -107 -107 -193 -107z" />
    <glyph glyph-name="v" unicode="v" horiz-adv-x="557" 
d="M179 -4l-90 514h53l71 -455l313 455h59l-364 -514h-42z" />
    <glyph glyph-name="w" unicode="w" horiz-adv-x="845" 
d="M148 -4l-49 514h50l37 -444l273 446h39l35 -446l275 444h54l-325 -514h-43l-35 437l-270 -437h-41z" />
    <glyph glyph-name="x" unicode="x" horiz-adv-x="559" 
d="M-29 0l284 264l-135 246h56l112 -215l224 215h66l-268 -250l141 -260h-56l-118 229l-240 -229h-66z" />
    <glyph glyph-name="y" unicode="y" horiz-adv-x="568" 
d="M20 -163c-39 0 -75 12 -108 35l27 40c21 -17 60 -29 87 -29c52 0 100 29 163 120l-104 507h52l89 -456l307 456h59l-363 -528c-75 -107 -136 -145 -209 -145z" />
    <glyph glyph-name="z" unicode="z" horiz-adv-x="546" 
d="M-17 0l8 28l475 438h-344l12 44h424l-8 -28l-475 -438h361l-12 -44h-441z" />
    <glyph glyph-name="braceleft" unicode="{" horiz-adv-x="480" 
d="M326 -110l-14 -31c-117 24 -158 96 -158 167c0 34 7 58 23 120c6 21 9 39 9 55c0 43 -26 67 -95 67h-26l10 38h26c104 0 142 51 169 184c27 132 82 214 271 225l-3 -37c-148 -8 -199 -78 -220 -193c-27 -141 -67 -184 -153 -200c46 -14 69 -42 69 -83
c0 -15 -2 -37 -9 -57c-11 -35 -22 -80 -22 -115c0 -67 32 -115 123 -140z" />
    <glyph glyph-name="bar" unicode="|" horiz-adv-x="286" 
d="M141 -128v926h44v-926h-44z" />
    <glyph glyph-name="braceright" unicode="}" horiz-adv-x="480" 
d="M-44 -141l3 37c147 8 199 77 220 193c27 141 66 184 153 200c-46 14 -69 42 -69 83c0 15 2 37 9 57c11 35 22 80 22 115c0 65 -32 115 -123 140l14 31c116 -24 158 -96 158 -167c0 -34 -7 -58 -23 -120c-6 -21 -9 -40 -9 -55c0 -43 26 -67 95 -67h26l-10 -38h-26
c-104 0 -142 -51 -169 -184c-26 -132 -84 -214 -271 -225z" />
    <glyph glyph-name="asciitilde" unicode="~" horiz-adv-x="460" 
d="M125 245l-38 15c32 65 61 96 104 96c31 0 44 -14 67 -35s31 -30 48 -30c21 0 36 20 59 60l38 -15c-32 -65 -61 -96 -104 -96c-31 0 -44 14 -67 35s-31 30 -48 30c-21 0 -36 -20 -59 -60z" />
    <glyph glyph-name="Adieresis" unicode="&#xc4;" horiz-adv-x="759" 
d="M412 765l22 80h69l-22 -80h-69zM575 765l22 80h69l-22 -80h-69zM200 243h369l-75 405zM-34 0l515 705h50l137 -705h-53l-36 196h-413l-142 -196h-58z" />
    <glyph glyph-name="Aring" unicode="&#xc5;" horiz-adv-x="759" 
d="M210 243h369l-75 405zM524 702c39 0 70 31 70 70c0 29 -21 50 -60 50s-70 -31 -70 -70c0 -29 21 -50 60 -50zM-24 0l498 681c-31 15 -46 38 -46 71c0 57 49 102 106 102s96 -35 96 -82c0 -49 -36 -89 -83 -100l131 -672h-53l-36 196h-413l-142 -196h-58z" />
    <glyph glyph-name="Ccedilla" unicode="&#xc7;" horiz-adv-x="738" 
d="M374 -13l-103 -135l-48 26l107 113c-133 19 -238 123 -238 280c0 227 187 441 418 441c128 0 214 -66 257 -151l-45 -24c-46 78 -104 128 -215 128c-203 0 -361 -195 -361 -392c0 -147 101 -238 237 -238c104 0 173 41 237 105l35 -32c-64 -66 -148 -121 -277 -121h-4z
" />
    <glyph glyph-name="Eacute" unicode="&#xc9;" horiz-adv-x="649" 
d="M413 765l124 133l62 -30l-135 -103h-51zM36 0l188 700h493l-13 -48h-441l-74 -275h396l-13 -48h-396l-75 -281h446l-13 -48h-498z" />
    <glyph glyph-name="Ntilde" unicode="&#xd1;" horiz-adv-x="786" 
d="M407 763l-38 15c32 65 61 96 104 96c31 0 44 -14 67 -35s31 -30 48 -30c21 0 36 20 59 60l38 -15c-32 -65 -61 -96 -104 -96c-31 0 -44 14 -67 35s-31 30 -48 30c-21 0 -36 -20 -59 -60zM36 0l188 700h48l315 -613l165 613h50l-188 -700h-38l-322 626l-168 -626h-50z" />
    <glyph glyph-name="Odieresis" unicode="&#xd6;" 
d="M421 765l22 80h69l-22 -80h-69zM584 765l22 80h69l-22 -80h-69zM398 34c196 0 349 185 349 377c0 143 -100 254 -248 254c-196 0 -349 -185 -349 -377c0 -143 100 -254 248 -254zM398 -13c-176 0 -302 133 -302 301c0 219 180 424 403 424c176 0 302 -133 302 -301
c0 -219 -180 -424 -403 -424z" />
    <glyph glyph-name="Udieresis" unicode="&#xdc;" horiz-adv-x="756" 
d="M392 765l22 80h69l-22 -80h-69zM555 765l22 80h69l-22 -80h-69zM348 -11c-169 0 -252 96 -252 220c0 39 5 73 14 108l102 383h52l-108 -407c-5 -20 -9 -49 -9 -80c0 -100 65 -177 205 -177c63 0 123 24 171 72c39 39 75 101 98 186l109 406h52l-112 -417
c-24 -89 -62 -157 -111 -206c-57 -57 -130 -88 -211 -88z" />
    <glyph glyph-name="aacute" unicode="&#xe1;" horiz-adv-x="571" 
d="M342 595l124 133l62 -30l-135 -103h-51zM199 33c96 0 199 67 228 170l12 45c-52 13 -117 24 -193 24c-101 0 -171 -56 -171 -135c0 -64 48 -104 124 -104zM190 -12c-85 0 -167 48 -167 143c0 113 96 185 230 185c73 0 145 -14 196 -29l4 14c4 15 7 36 7 51
c0 77 -54 120 -154 120c-56 0 -99 -10 -148 -27l-9 44c51 19 97 29 161 29c125 0 198 -60 198 -159c0 -19 -3 -44 -10 -67l-78 -292h-48l23 88c-49 -59 -116 -100 -205 -100z" />
    <glyph glyph-name="agrave" unicode="&#xe0;" horiz-adv-x="571" 
d="M392 595l-79 103l62 30l52 -133h-35zM199 33c96 0 199 67 228 170l12 45c-52 13 -117 24 -193 24c-101 0 -171 -56 -171 -135c0 -64 48 -104 124 -104zM190 -12c-85 0 -167 48 -167 143c0 113 96 185 230 185c73 0 145 -14 196 -29l4 14c4 15 7 36 7 51
c0 77 -54 120 -154 120c-56 0 -99 -10 -148 -27l-9 44c51 19 97 29 161 29c125 0 198 -60 198 -159c0 -19 -3 -44 -10 -67l-78 -292h-48l23 88c-49 -59 -116 -100 -205 -100z" />
    <glyph glyph-name="acircumflex" unicode="&#xe2;" horiz-adv-x="571" 
d="M257 595l133 122h40l67 -122h-44l-52 68l-96 -68h-48zM199 33c96 0 199 67 228 170l12 45c-52 13 -117 24 -193 24c-101 0 -171 -56 -171 -135c0 -64 48 -104 124 -104zM190 -12c-85 0 -167 48 -167 143c0 113 96 185 230 185c73 0 145 -14 196 -29l4 14c4 15 7 36 7 51
c0 77 -54 120 -154 120c-56 0 -99 -10 -148 -27l-9 44c51 19 97 29 161 29c125 0 198 -60 198 -159c0 -19 -3 -44 -10 -67l-78 -292h-48l23 88c-49 -59 -116 -100 -205 -100z" />
    <glyph glyph-name="adieresis" unicode="&#xe4;" horiz-adv-x="571" 
d="M248 595l22 80h69l-22 -80h-69zM411 595l22 80h69l-22 -80h-69zM199 33c96 0 199 67 228 170l12 45c-52 13 -117 24 -193 24c-101 0 -171 -56 -171 -135c0 -64 48 -104 124 -104zM190 -12c-85 0 -167 48 -167 143c0 113 96 185 230 185c73 0 145 -14 196 -29l4 14
c4 15 7 36 7 51c0 77 -54 120 -154 120c-56 0 -99 -10 -148 -27l-9 44c51 19 97 29 161 29c125 0 198 -60 198 -159c0 -19 -3 -44 -10 -67l-78 -292h-48l23 88c-49 -59 -116 -100 -205 -100z" />
    <glyph glyph-name="atilde" unicode="&#xe3;" horiz-adv-x="571" 
d="M199 33c96 0 199 67 228 170l12 45c-52 13 -117 24 -193 24c-101 0 -171 -56 -171 -135c0 -64 48 -104 124 -104zM190 -12c-85 0 -167 48 -167 143c0 113 96 185 230 185c73 0 145 -14 196 -29l4 14c4 15 7 36 7 51c0 77 -54 120 -154 120c-56 0 -99 -10 -148 -27l-9 44
c51 19 97 29 161 29c125 0 198 -60 198 -159c0 -19 -3 -44 -10 -67l-78 -292h-48l23 88c-49 -59 -116 -100 -205 -100zM272 600l-34 13c29 59 55 87 94 87c25 0 38 -13 61 -33c20 -19 27 -27 43 -27c20 0 33 19 54 55l34 -13c-29 -59 -55 -87 -94 -87c-28 0 -37 12 -58 32
c-20 19 -30 30 -46 30c-20 0 -33 -21 -54 -57z" />
    <glyph glyph-name="aring" unicode="&#xe5;" horiz-adv-x="571" 
d="M384 627c39 0 70 31 70 70c0 29 -21 50 -60 50s-70 -31 -70 -70c0 -29 21 -50 60 -50zM384 595c-57 0 -96 35 -96 82c0 57 49 102 106 102s96 -35 96 -82c0 -57 -49 -102 -106 -102zM199 33c96 0 199 67 228 170l12 45c-52 13 -117 24 -193 24c-101 0 -171 -56 -171 -135
c0 -64 48 -104 124 -104zM190 -12c-85 0 -167 48 -167 143c0 113 96 185 230 185c73 0 145 -14 196 -29l4 14c4 15 7 36 7 51c0 77 -54 120 -154 120c-56 0 -99 -10 -148 -27l-9 44c51 19 97 29 161 29c125 0 198 -60 198 -159c0 -19 -3 -44 -10 -67l-78 -292h-48l23 88
c-49 -59 -116 -100 -205 -100z" />
    <glyph glyph-name="ccedilla" unicode="&#xe7;" horiz-adv-x="563" 
d="M118 -122l108 114c-93 19 -176 95 -176 216c0 167 139 314 300 314c105 0 168 -59 200 -123l-41 -23c-32 54 -75 100 -162 100c-130 0 -244 -125 -244 -265c0 -115 84 -177 172 -177c67 0 118 29 165 73l33 -32c-52 -51 -117 -87 -201 -87h-3l-103 -136z" />
    <glyph glyph-name="eacute" unicode="&#xe9;" horiz-adv-x="583" 
d="M310 595l124 133l62 -30l-135 -103h-51zM114 282h370c3 9 4 23 4 42c0 82 -45 153 -144 153c-115 0 -200 -90 -230 -195zM524 238h-419c-1 -11 -2 -23 -2 -34c0 -103 69 -170 169 -170c77 0 125 28 174 68l29 -35c-53 -44 -111 -79 -203 -79c-130 0 -222 88 -222 214
c0 160 129 320 295 320c128 0 193 -90 193 -195c0 -33 -5 -62 -14 -89z" />
    <glyph glyph-name="egrave" unicode="&#xe8;" horiz-adv-x="583" 
d="M367 595l-79 103l62 30l52 -133h-35zM114 282h370c3 9 4 23 4 42c0 82 -45 153 -144 153c-115 0 -200 -90 -230 -195zM524 238h-419c-1 -11 -2 -23 -2 -34c0 -103 69 -170 169 -170c77 0 125 28 174 68l29 -35c-53 -44 -111 -79 -203 -79c-130 0 -222 88 -222 214
c0 160 129 320 295 320c128 0 193 -90 193 -195c0 -33 -5 -62 -14 -89z" />
    <glyph glyph-name="ecircumflex" unicode="&#xea;" horiz-adv-x="583" 
d="M244 595l133 122h40l67 -122h-44l-52 68l-96 -68h-48zM114 282h370c3 9 4 23 4 42c0 82 -45 153 -144 153c-115 0 -200 -90 -230 -195zM524 238h-419c-1 -11 -2 -23 -2 -34c0 -103 69 -170 169 -170c77 0 125 28 174 68l29 -35c-53 -44 -111 -79 -203 -79
c-130 0 -222 88 -222 214c0 160 129 320 295 320c128 0 193 -90 193 -195c0 -33 -5 -62 -14 -89z" />
    <glyph glyph-name="edieresis" unicode="&#xeb;" horiz-adv-x="583" 
d="M252 595l22 80h69l-22 -80h-69zM415 595l22 80h69l-22 -80h-69zM114 282h370c3 9 4 23 4 42c0 82 -45 153 -144 153c-115 0 -200 -90 -230 -195zM524 238h-419c-1 -11 -2 -23 -2 -34c0 -103 69 -170 169 -170c77 0 125 28 174 68l29 -35c-53 -44 -111 -79 -203 -79
c-130 0 -222 88 -222 214c0 160 129 320 295 320c128 0 193 -90 193 -195c0 -33 -5 -62 -14 -89z" />
    <glyph glyph-name="iacute" unicode="&#xed;" horiz-adv-x="250" 
d="M181 595l124 133l62 -30l-135 -103h-51zM32 0l137 510h49l-137 -510h-49z" />
    <glyph glyph-name="igrave" unicode="&#xec;" horiz-adv-x="250" 
d="M200 595l-79 103l62 30l52 -133h-35zM32 0l137 510h49l-137 -510h-49z" />
    <glyph glyph-name="icircumflex" unicode="&#xee;" horiz-adv-x="250" 
d="M87 595l133 122h40l67 -122h-44l-52 68l-96 -68h-48zM32 0l137 510h49l-137 -510h-49z" />
    <glyph glyph-name="idieresis" unicode="&#xef;" horiz-adv-x="250" 
d="M96 595l22 80h69l-22 -80h-69zM259 595l22 80h69l-22 -80h-69zM32 0l137 510h49l-137 -510h-49z" />
    <glyph glyph-name="ntilde" unicode="&#xf1;" horiz-adv-x="611" 
d="M278 593l-38 15c32 65 61 96 104 96c31 0 44 -14 67 -35s31 -30 48 -30c21 0 36 20 59 60l38 -15c-32 -65 -61 -96 -104 -96c-31 0 -44 14 -67 35s-31 30 -48 30c-21 0 -36 -20 -59 -60zM25 0l136 510h49l-25 -95c52 60 106 107 193 107c101 0 167 -63 167 -162
c0 -23 -4 -48 -11 -72l-76 -288h-49l78 292c5 19 8 44 8 63c0 76 -50 123 -131 123c-87 0 -184 -79 -213 -190l-77 -288h-49z" />
    <glyph glyph-name="oacute" unicode="&#xf3;" horiz-adv-x="633" 
d="M333 595l124 133l62 -30l-135 -103h-51zM283 34c124 0 245 120 245 260c0 116 -72 182 -179 182c-129 0 -245 -124 -245 -260c0 -116 72 -182 179 -182zM278 -12c-135 0 -227 95 -227 226c0 161 140 308 303 308c135 0 227 -95 227 -226c0 -165 -145 -308 -303 -308z" />
    <glyph glyph-name="ograve" unicode="&#xf2;" horiz-adv-x="633" 
d="M378 595l-79 103l62 30l52 -133h-35zM283 34c124 0 245 120 245 260c0 116 -72 182 -179 182c-129 0 -245 -124 -245 -260c0 -116 72 -182 179 -182zM278 -12c-135 0 -227 95 -227 226c0 161 140 308 303 308c135 0 227 -95 227 -226c0 -165 -145 -308 -303 -308z" />
    <glyph glyph-name="ocircumflex" unicode="&#xf4;" horiz-adv-x="633" 
d="M278 595l133 122h40l67 -122h-44l-52 68l-96 -68h-48zM283 34c124 0 245 120 245 260c0 116 -72 182 -179 182c-129 0 -245 -124 -245 -260c0 -116 72 -182 179 -182zM278 -12c-135 0 -227 95 -227 226c0 161 140 308 303 308c135 0 227 -95 227 -226
c0 -165 -145 -308 -303 -308z" />
    <glyph glyph-name="odieresis" unicode="&#xf6;" horiz-adv-x="633" 
d="M269 595l22 80h69l-22 -80h-69zM432 595l22 80h69l-22 -80h-69zM283 34c124 0 245 120 245 260c0 116 -72 182 -179 182c-129 0 -245 -124 -245 -260c0 -116 72 -182 179 -182zM278 -12c-135 0 -227 95 -227 226c0 161 140 308 303 308c135 0 227 -95 227 -226
c0 -165 -145 -308 -303 -308z" />
    <glyph glyph-name="otilde" unicode="&#xf5;" horiz-adv-x="633" 
d="M283 34c124 0 245 120 245 260c0 116 -72 182 -179 182c-129 0 -245 -124 -245 -260c0 -116 72 -182 179 -182zM278 -12c-135 0 -227 95 -227 226c0 161 140 308 303 308c135 0 227 -95 227 -226c0 -165 -145 -308 -303 -308zM292 600l-34 13c29 59 55 87 94 87
c25 0 38 -13 61 -33c20 -19 27 -27 43 -27c20 0 33 19 54 55l34 -13c-29 -59 -55 -87 -94 -87c-28 0 -37 12 -58 32c-20 19 -30 30 -46 30c-20 0 -33 -21 -54 -57z" />
    <glyph glyph-name="uacute" unicode="&#xfa;" horiz-adv-x="609" 
d="M330 595l124 133l62 -30l-135 -103h-51zM231 -12c-101 0 -167 63 -167 162c0 23 4 48 11 72l76 288h49l-78 -292c-5 -19 -8 -44 -8 -63c0 -76 50 -123 131 -123c87 0 184 79 213 190l77 288h49l-136 -510h-49l25 95c-50 -61 -107 -107 -193 -107z" />
    <glyph glyph-name="ugrave" unicode="&#xf9;" horiz-adv-x="609" 
d="M370 595l-79 103l62 30l52 -133h-35zM231 -12c-101 0 -167 63 -167 162c0 23 4 48 11 72l76 288h49l-78 -292c-5 -19 -8 -44 -8 -63c0 -76 50 -123 131 -123c87 0 184 79 213 190l77 288h49l-136 -510h-49l25 95c-50 -61 -107 -107 -193 -107z" />
    <glyph glyph-name="ucircumflex" unicode="&#xfb;" horiz-adv-x="609" 
d="M263 595l133 122h40l67 -122h-44l-52 68l-96 -68h-48zM231 -12c-101 0 -167 63 -167 162c0 23 4 48 11 72l76 288h49l-78 -292c-5 -19 -8 -44 -8 -63c0 -76 50 -123 131 -123c87 0 184 79 213 190l77 288h49l-136 -510h-49l25 95c-50 -61 -107 -107 -193 -107z" />
    <glyph glyph-name="udieresis" unicode="&#xfc;" horiz-adv-x="609" 
d="M268 595l22 80h69l-22 -80h-69zM431 595l22 80h69l-22 -80h-69zM231 -12c-101 0 -167 63 -167 162c0 23 4 48 11 72l76 288h49l-78 -292c-5 -19 -8 -44 -8 -63c0 -76 50 -123 131 -123c87 0 184 79 213 190l77 288h49l-136 -510h-49l25 95c-50 -61 -107 -107 -193 -107z
" />
    <glyph glyph-name="dagger" unicode="&#x2020;" horiz-adv-x="410" 
d="M160 238l81 286l-126 -7l12 45l122 -7l32 145h50l-46 -145l126 7l-12 -45l-124 7l-71 -286h-44z" />
    <glyph glyph-name="degree" unicode="&#xb0;" horiz-adv-x="366" 
d="M219 453c61 0 116 57 116 121c0 56 -35 89 -86 89c-61 0 -116 -57 -116 -121c0 -56 35 -89 86 -89zM214 411c-74 0 -126 54 -126 126c0 89 76 168 166 168c74 0 126 -54 126 -126c0 -89 -76 -168 -166 -168z" />
    <glyph glyph-name="cent" unicode="&#xa2;" horiz-adv-x="558" 
d="M223 148l168 427h-14c-139 0 -249 -123 -249 -271c0 -72 35 -129 95 -156zM160 -6l44 111c-79 33 -129 107 -129 198c0 172 137 318 305 318c9 0 18 0 27 -1l34 86h50l-38 -94c71 -19 112 -64 135 -113l-41 -23c-24 43 -55 78 -114 93l-170 -433c11 -2 23 -3 36 -3
c73 0 128 28 179 73l33 -32c-56 -52 -122 -87 -215 -87c-15 0 -30 2 -47 5l-39 -98h-50z" />
    <glyph glyph-name="sterling" unicode="&#xa3;" horiz-adv-x="624" 
d="M-2 0l7 25l91 20l70 260h-86l13 48h86l35 131c17 64 45 120 80 155c44 44 95 68 163 68c92 0 151 -46 186 -110l-43 -26c-35 56 -74 89 -146 89c-47 0 -88 -17 -121 -50c-31 -31 -54 -76 -70 -135l-33 -122h298l-13 -48h-298l-69 -258h374l-13 -47h-511z" />
    <glyph glyph-name="section" unicode="&#xa7;" horiz-adv-x="632" 
d="M392 245c84 0 146 41 146 89c0 39 -37 67 -133 100c-41 15 -70 21 -117 21c-84 0 -146 -41 -146 -89c0 -39 37 -67 133 -100c40 -15 70 -21 117 -21zM288 -10c-92 0 -178 39 -221 82l33 37c40 -39 111 -74 195 -74c68 0 122 31 122 78c0 43 -43 68 -139 103
c-125 44 -188 81 -188 146c0 78 86 128 198 128c-41 19 -77 51 -77 96c0 77 82 124 181 124c93 0 176 -39 221 -82l-33 -37c-40 39 -111 74 -195 74c-68 0 -122 -31 -122 -78c0 -43 43 -68 139 -103c125 -44 188 -81 188 -146c0 -78 -86 -128 -198 -128
c41 -19 77 -51 77 -96c0 -77 -82 -124 -181 -124z" />
    <glyph glyph-name="bullet" unicode="&#x2022;" horiz-adv-x="470" 
d="M232 222c-61 0 -105 41 -105 109c0 81 66 151 143 151c61 0 105 -41 105 -109c0 -81 -66 -151 -143 -151z" />
    <glyph glyph-name="paragraph" unicode="&#xb6;" horiz-adv-x="486" 
d="M260 0l70 263c-123 8 -228 57 -228 183c0 159 123 254 326 254h73l-188 -700h-53z" />
    <glyph glyph-name="germandbls" unicode="&#xdf;" horiz-adv-x="620" 
d="M220 -2l12 44c184 3 261 77 261 160c0 76 -65 119 -181 140l12 45c157 37 222 99 222 187c0 68 -50 117 -138 117c-99 0 -169 -77 -204 -206l-130 -485h-49l134 500c19 68 48 128 87 167c45 45 102 70 166 70c108 0 187 -68 187 -161c0 -120 -97 -179 -212 -211
c88 -24 159 -73 159 -164c0 -115 -121 -206 -326 -203z" />
    <glyph glyph-name="registered" unicode="&#xae;" horiz-adv-x="830" 
d="M344 364h114c56 0 97 24 97 71c0 43 -35 67 -92 67h-119v-138zM301 177v366h164c79 0 135 -41 135 -106c0 -60 -40 -95 -100 -106l122 -154h-56l-116 147h-106v-147h-43zM439 16c189 0 333 151 333 335s-142 333 -331 333s-333 -151 -333 -335s142 -333 331 -333z
M439 -12c-203 0 -361 163 -361 361c0 197 159 363 363 363c203 0 361 -163 361 -361c0 -197 -159 -363 -363 -363z" />
    <glyph glyph-name="copyright" unicode="&#xa9;" horiz-adv-x="830" 
d="M444 166c-103 0 -182 85 -182 189s79 190 183 190c65 0 104 -26 141 -61l-30 -31c-29 28 -65 52 -112 52c-81 0 -138 -67 -138 -149s62 -150 139 -150c49 0 80 19 115 52l28 -28c-39 -39 -79 -64 -144 -64zM439 16c189 0 333 151 333 335s-142 333 -331 333
s-333 -151 -333 -335s142 -333 331 -333zM439 -12c-203 0 -361 163 -361 361c0 197 159 363 363 363c203 0 361 -163 361 -361c0 -197 -159 -363 -363 -363z" />
    <glyph glyph-name="trademark" unicode="&#x2122;" horiz-adv-x="690" 
d="M154 392l78 274h-101l10 34h237l-10 -34h-101l-78 -274h-35zM360 392l88 308h32l72 -183l168 183h41l-88 -308h-35l71 246l-167 -178h-5l-71 178l-71 -246h-35z" />
    <glyph glyph-name="acute" unicode="&#xb4;" horiz-adv-x="500" 
d="M251 595l124 133l62 -30l-135 -103h-51z" />
    <glyph glyph-name="dieresis" unicode="&#xa8;" horiz-adv-x="500" 
d="M213 595l22 80h69l-22 -80h-69zM376 595l22 80h69l-22 -80h-69z" />
    <glyph glyph-name="AE" unicode="&#xc6;" horiz-adv-x="1068" 
d="M242 243h272l110 410h-27zM-32 0l611 700h541l-13 -48h-431l-74 -275h386l-13 -48h-386l-75 -281h436l-13 -48h-488l53 196h-301l-170 -196h-63z" />
    <glyph glyph-name="Oslash" unicode="&#xd8;" 
d="M398 34c196 0 349 185 349 377c0 51 -11 96 -34 136l-509 -425c43 -56 110 -88 194 -88zM180 159l508 424c-44 51 -109 82 -189 82c-196 0 -349 -185 -349 -377c0 -48 10 -91 30 -129zM398 -13c-97 0 -177 39 -232 103l-114 -95h-69l157 131c-28 47 -44 102 -44 162
c0 219 180 424 403 424c95 0 172 -37 227 -97l107 90h69l-149 -125c31 -48 48 -105 48 -169c0 -219 -180 -424 -403 -424z" />
    <glyph glyph-name="plusminus" unicode="&#xb1;" horiz-adv-x="600" 
d="M260 -12c-121 0 -208 53 -253 126l45 27c40 -61 102 -106 211 -106c120 0 202 69 202 154c0 99 -97 141 -216 141h-30l12 46h40c165 0 265 59 265 158c0 80 -71 129 -164 129c-81 0 -138 -28 -190 -69l-32 35c55 44 123 81 222 81c116 0 219 -62 219 -173
c0 -105 -83 -167 -211 -188c75 -21 140 -71 140 -158c0 -115 -115 -203 -260 -203z" />
    <glyph glyph-name="yen" unicode="&#xa5;" horiz-adv-x="700" 
d="M251 0l33 125h-210l12 45h210l26 98h-210l12 45h190l-170 387h59l161 -376l364 376h68l-380 -387h184l-12 -45h-214l-26 -98h214l-12 -45h-214l-33 -125h-52z" />
    <glyph glyph-name="mu" unicode="&#xb5;" 
d="M398 34c72 0 135 24 190 63l-117 130l38 33l114 -134c77 72 124 177 124 285c0 143 -100 254 -248 254c-196 0 -349 -185 -349 -377c0 -143 100 -254 248 -254zM692 -24l-72 85c-64 -47 -139 -74 -222 -74c-176 0 -302 133 -302 301c0 219 180 424 403 424
c176 0 302 -133 302 -301c0 -123 -57 -241 -146 -321l75 -82z" />
    <glyph glyph-name="mu" unicode="&#x3bc;" 
d="M398 34c72 0 135 24 190 63l-117 130l38 33l114 -134c77 72 124 177 124 285c0 143 -100 254 -248 254c-196 0 -349 -185 -349 -377c0 -143 100 -254 248 -254zM692 -24l-72 85c-64 -47 -139 -74 -222 -74c-176 0 -302 133 -302 301c0 219 180 424 403 424
c176 0 302 -133 302 -301c0 -123 -57 -241 -146 -321l75 -82z" />
    <glyph glyph-name="pi" unicode="&#x3c0;" horiz-adv-x="830" 
d="M365 344h91c64 0 104 28 104 79c0 53 -38 77 -101 77h-94v-156zM321 175v366h141c87 0 143 -40 143 -116c0 -83 -71 -122 -150 -122h-90v-128h-44zM439 16c189 0 333 151 333 335s-142 333 -331 333s-333 -151 -333 -335s142 -333 331 -333zM439 -12
c-203 0 -361 163 -361 361c0 197 159 363 363 363c203 0 361 -163 361 -361c0 -197 -159 -363 -363 -363z" />
    <glyph glyph-name="ordfeminine" unicode="&#xaa;" horiz-adv-x="390" 
d="M201 442c50 0 109 42 122 92l4 14c-25 7 -55 12 -90 12c-52 0 -89 -28 -89 -71c0 -28 21 -47 53 -47zM58 293l10 40h244l-10 -40h-244zM191 410c-47 0 -85 28 -85 75c0 64 55 106 131 106c35 0 70 -8 97 -15l2 6c3 7 4 19 4 27c0 39 -26 58 -78 58c-31 0 -55 -6 -80 -15
l-7 35c28 11 57 17 94 17c72 0 111 -33 111 -88c0 -12 -3 -26 -6 -39l-43 -161h-40l14 50c-29 -32 -66 -56 -114 -56z" />
    <glyph glyph-name="ordmasculine" unicode="&#xba;" horiz-adv-x="390" 
d="M248 444c67 0 121 61 121 130c0 57 -37 94 -90 94c-68 0 -122 -63 -122 -130c0 -57 38 -94 91 -94zM60 293l10 40h268l-10 -40h-268zM245 407c-79 0 -130 54 -130 129c0 89 75 169 167 169c77 0 130 -55 130 -129c0 -89 -75 -169 -167 -169z" />
    <glyph glyph-name="Omega" unicode="&#x3a9;" horiz-adv-x="724" 
d="M55 0l125 465h-74l12 45h74l20 74c26 97 80 146 163 146c39 0 74 -9 102 -24l-12 -44c-35 16 -59 24 -92 24c-53 0 -95 -33 -115 -113l-17 -63h184l-12 -45h-184l-125 -465h-49zM417 0l125 465h-74l12 45h74l20 74c26 97 80 146 163 146c39 0 74 -9 102 -24l-12 -44
c-35 16 -59 24 -92 24c-53 0 -94 -33 -115 -113l-17 -63h184l-12 -45h-184l-125 -465h-49z" />
    <glyph glyph-name="Omega" unicode="&#x2126;" horiz-adv-x="724" 
d="M55 0l125 465h-74l12 45h74l20 74c26 97 80 146 163 146c39 0 74 -9 102 -24l-12 -44c-35 16 -59 24 -92 24c-53 0 -95 -33 -115 -113l-17 -63h184l-12 -45h-184l-125 -465h-49zM417 0l125 465h-74l12 45h74l20 74c26 97 80 146 163 146c39 0 74 -9 102 -24l-12 -44
c-35 16 -59 24 -92 24c-53 0 -94 -33 -115 -113l-17 -63h184l-12 -45h-184l-125 -465h-49z" />
    <glyph glyph-name="ae" unicode="&#xe6;" horiz-adv-x="965" 
d="M441 249c-47 13 -123 23 -191 23c-102 0 -175 -55 -175 -130c0 -67 46 -109 129 -109c87 0 166 46 238 125c-3 15 -4 32 -4 48c0 15 1 29 3 43zM498 282h370c3 9 4 23 4 42c0 82 -45 153 -144 153c-115 0 -200 -90 -230 -195zM455 113c-69 -72 -159 -125 -255 -125
c-100 0 -177 51 -177 148c0 111 100 180 234 180c71 0 143 -14 192 -29l4 14c4 15 7 36 7 51c0 77 -54 120 -154 120c-56 0 -99 -10 -148 -27l-9 44c51 19 97 29 161 29c108 0 177 -45 194 -121c53 72 133 125 225 125c128 0 193 -90 193 -195c0 -33 -5 -62 -14 -89h-419
c-1 -11 -2 -23 -2 -34c0 -103 69 -170 169 -170c77 0 125 28 174 68l29 -35c-53 -44 -116 -79 -200 -79c-104 0 -173 50 -204 125z" />
    <glyph glyph-name="oslash" unicode="&#xf8;" horiz-adv-x="633" 
d="M283 34c124 0 245 120 245 260c0 36 -7 65 -19 92l-363 -298c32 -36 78 -54 137 -54zM123 124l363 298c-33 36 -78 54 -137 54c-129 0 -245 -124 -245 -260c0 -36 7 -65 19 -92zM278 -12c-72 0 -129 27 -169 70l-77 -63h-67l118 96c-21 35 -32 76 -32 123
c0 161 140 308 303 308c72 0 129 -26 169 -69l79 64h67l-120 -98c21 -35 32 -76 32 -123c0 -165 -145 -308 -303 -308z" />
    <glyph glyph-name="questiondown" unicode="&#xbf;" horiz-adv-x="534" 
d="M252 -9c-124 0 -201 74 -201 175c0 133 124 205 265 226l43 125h32l-30 -162l-7 -5c-147 -11 -250 -76 -250 -183c0 -84 68 -129 152 -129c81 0 151 43 196 88l32 -34c-54 -54 -130 -101 -232 -101zM368 615l23 85h66l-23 -85h-66z" />
    <glyph glyph-name="exclamdown" unicode="&#xa1;" horiz-adv-x="251" 
d="M28 0l19 70l135 447h28l-105 -447l-19 -70h-58zM189 615l23 85h66l-23 -85h-66z" />
    <glyph glyph-name="radical" unicode="&#x221a;" horiz-adv-x="974" 
d="M55 0l125 465h-74l12 45h74l20 74c26 97 80 146 163 146c39 0 74 -9 102 -24l-12 -44c-35 16 -59 24 -92 24c-53 0 -95 -33 -115 -113l-17 -63h184l-12 -45h-184l-125 -465h-49zM417 0l125 465h-74l12 45h74l20 74c26 97 80 146 163 146c39 0 74 -9 102 -24l-12 -44
c-35 16 -59 24 -92 24c-53 0 -94 -33 -115 -113l-17 -63h184l-12 -45h-184l-125 -465h-49zM756 0l196 730h49l-196 -730h-49z" />
    <glyph glyph-name="florin" unicode="&#x192;" horiz-adv-x="526" 
d="M33 -10c-27 0 -43 4 -56 8l13 43c9 -3 24 -7 47 -7c47 0 80 32 113 107l107 243h-107l12 45h114l59 134c43 100 98 147 178 147c32 0 59 -6 83 -15l-15 -42c-20 7 -43 13 -70 13c-56 0 -96 -35 -131 -115l-54 -122h162l-12 -45h-169l-112 -255
c-46 -105 -96 -139 -162 -139z" />
    <glyph glyph-name="approxequal" unicode="&#x2248;" horiz-adv-x="974" 
d="M756 0l137 510h49l-137 -510h-49zM55 0l125 465h-74l12 45h74l20 74c26 97 80 146 163 146c39 0 74 -9 102 -24l-12 -44c-35 16 -59 24 -92 24c-53 0 -95 -33 -115 -113l-17 -63h184l-12 -45h-184l-125 -465h-49zM417 0l125 465h-74l12 45h74l20 74c26 97 80 146 163 146
c39 0 74 -9 102 -24l-12 -44c-35 16 -59 24 -92 24c-53 0 -94 -33 -115 -113l-17 -63h184l-12 -45h-184l-125 -465h-49zM923 643l18 67h61l-18 -67h-61z" />
    <glyph glyph-name="guillemotleft" unicode="&#xab;" horiz-adv-x="515" 
d="M149 42l-104 209l2 8l216 209l36 -28l-192 -192l83 -184zM353 42l-104 209l2 8l216 209l36 -28l-192 -192l83 -184z" />
    <glyph glyph-name="guillemotright" unicode="&#xbb;" horiz-adv-x="515" 
d="M47 41l-36 28l192 192l-83 184l41 22l104 -209l-2 -8zM251 41l-36 28l192 192l-83 184l41 22l104 -209l-2 -8z" />
    <glyph glyph-name="ellipsis" unicode="&#x2026;" horiz-adv-x="683" 
d="M14 0l23 85h66l-23 -85h-66zM240 0l23 85h66l-23 -85h-66zM466 0l23 85h66l-23 -85h-66z" />
    <glyph glyph-name="nbspace" unicode="&#xa0;" horiz-adv-x="300" 
 />
    <glyph glyph-name="Agrave" unicode="&#xc0;" horiz-adv-x="759" 
d="M517 765l-79 103l62 30l52 -133h-35zM200 243h369l-75 405zM-34 0l515 705h50l137 -705h-53l-36 196h-413l-142 -196h-58z" />
    <glyph glyph-name="Atilde" unicode="&#xc3;" horiz-adv-x="759" 
d="M413 763l-34 13c29 59 55 87 94 87c25 0 38 -13 61 -33c20 -19 27 -27 43 -27c20 0 33 19 54 55l34 -13c-29 -59 -55 -87 -94 -87c-28 0 -37 12 -58 32c-20 19 -30 30 -46 30c-20 0 -33 -21 -54 -57zM200 243h369l-75 405zM-34 0l515 705h50l137 -705h-53l-36 196h-413
l-142 -196h-58z" />
    <glyph glyph-name="Otilde" unicode="&#xd5;" 
d="M398 34c196 0 349 185 349 377c0 143 -100 254 -248 254c-196 0 -349 -185 -349 -377c0 -143 100 -254 248 -254zM398 -13c-176 0 -302 133 -302 301c0 219 180 424 403 424c176 0 302 -133 302 -301c0 -219 -180 -424 -403 -424zM441 763l-34 13c29 59 55 87 94 87
c25 0 38 -13 61 -33c20 -19 27 -27 43 -27c20 0 33 19 54 55l34 -13c-29 -59 -55 -87 -94 -87c-28 0 -37 12 -58 32c-20 19 -30 30 -46 30c-20 0 -33 -21 -54 -57z" />
    <glyph glyph-name="OE" unicode="&#x152;" horiz-adv-x="1154" 
d="M444 48h105l162 604h-161c-127 0 -233 -43 -310 -120c-60 -60 -94 -141 -94 -234c0 -72 24 -130 65 -171c52 -52 133 -79 233 -79zM1023 0h-582c-109 0 -208 30 -272 94c-49 49 -77 113 -77 200c0 108 38 200 109 271c84 84 211 135 356 135h649l-13 -48h-430l-74 -275
h385l-13 -48h-385l-75 -281h435z" />
    <glyph glyph-name="oe" unicode="&#x153;" horiz-adv-x="1046" 
d="M283 34c124 0 245 119 245 255c0 121 -72 187 -179 187c-129 0 -245 -124 -245 -260c0 -116 72 -182 179 -182zM579 282h370c3 9 4 23 4 42c0 82 -45 153 -144 153c-115 0 -200 -90 -230 -195zM989 238h-419c-1 -11 -2 -23 -2 -34c0 -103 69 -170 169 -170
c77 0 125 28 174 68l29 -35c-53 -44 -116 -79 -200 -79c-109 0 -190 62 -211 155c-51 -83 -136 -155 -254 -155c-131 0 -224 95 -224 226c0 161 140 308 303 308c118 0 188 -74 210 -163c45 85 125 163 246 163c128 0 193 -90 193 -195c0 -33 -5 -62 -14 -89z" />
    <glyph glyph-name="endash" unicode="&#x2013;" horiz-adv-x="528" 
d="M74 271l14 52h388l-14 -52h-388z" />
    <glyph glyph-name="emdash" unicode="&#x2014;" horiz-adv-x="898" 
d="M74 271l14 52h758l-14 -52h-758z" />
    <glyph glyph-name="quotedblleft" unicode="&#x201c;" horiz-adv-x="411" 
d="M146 513l20 74c19 69 48 98 115 117l7 -24c-49 -17 -73 -43 -80 -82h27l-23 -85h-66zM326 513l20 74c19 69 48 98 115 117l7 -24c-49 -17 -73 -43 -80 -82h27l-23 -85h-66z" />
    <glyph glyph-name="quotedblright" unicode="&#x201d;" horiz-adv-x="411" 
d="M127 509l-7 24c49 17 73 43 80 82h-27l23 85h66l-20 -74c-21 -69 -48 -98 -115 -117zM307 509l-7 24c49 17 73 43 80 82h-27l23 85h66l-20 -74c-21 -69 -48 -98 -115 -117z" />
    <glyph glyph-name="quoteleft" unicode="&#x2018;" horiz-adv-x="231" 
d="M147 513l20 74c19 69 48 98 115 117l7 -24c-49 -17 -73 -43 -80 -82h27l-23 -85h-66z" />
    <glyph glyph-name="quoteright" unicode="&#x2019;" horiz-adv-x="231" 
d="M138 509l-7 24c49 17 73 43 80 82h-27l23 85h66l-20 -74c-21 -69 -48 -98 -115 -117z" />
    <glyph glyph-name="ydieresis" unicode="&#xff;" horiz-adv-x="568" 
d="M242 595l22 80h69l-22 -80h-69zM405 595l22 80h69l-22 -80h-69zM20 -163c-39 0 -75 12 -108 35l27 40c21 -17 60 -29 87 -29c52 0 100 29 163 120l-104 507h52l89 -456l307 456h59l-363 -528c-75 -107 -136 -145 -209 -145z" />
    <glyph glyph-name="Ydieresis" unicode="&#x178;" horiz-adv-x="668" 
d="M343 765l22 80h69l-22 -80h-69zM506 765l22 80h69l-22 -80h-69zM234 0l76 284l-183 416h57l161 -376l364 376h70l-421 -429l-72 -271h-52z" />
    <glyph glyph-name="fraction" unicode="&#x2044;" horiz-adv-x="550" 
d="M-83 -98l697 856h59l-697 -856h-59z" />
    <glyph glyph-name="fraction" unicode="&#x2215;" horiz-adv-x="550" 
d="M-83 -98l697 856h59l-697 -856h-59z" />
    <glyph glyph-name="currency" unicode="&#xa4;" horiz-adv-x="684" 
d="M372 -12c-136 0 -235 97 -243 257h-92l13 48h80c2 43 9 84 21 123h-69l13 48h73c56 142 175 248 325 248c117 0 190 -71 219 -159l-45 -18c-32 80 -85 130 -183 130c-112 0 -210 -84 -261 -201h301l-13 -48h-306c-12 -39 -19 -80 -22 -123h296l-13 -48h-283
c5 -123 75 -210 190 -210c87 0 145 37 201 98l35 -30c-61 -66 -130 -115 -237 -115z" />
    <glyph glyph-name="guilsinglleft" unicode="&#x2039;" horiz-adv-x="311" 
d="M149 42l-104 209l2 8l216 209l36 -28l-192 -192l83 -184z" />
    <glyph glyph-name="guilsinglright" unicode="&#x203a;" horiz-adv-x="311" 
d="M47 41l-36 28l192 192l-83 184l41 22l104 -209l-2 -8z" />
    <glyph glyph-name="daggerdbl" unicode="&#x2021;" horiz-adv-x="430" 
d="M103 0l46 145l-126 -7l12 45l123 -7l42 174l51 174l-126 -7l12 45l122 -7l32 145h50l-46 -145l126 7l-12 -45l-124 7l-41 -174l-52 -174l127 7l-12 -45l-122 7l-32 -145h-50z" />
    <glyph glyph-name="periodcentered" unicode="&#xb7;" horiz-adv-x="231" 
d="M82 255l23 85h66l-23 -85h-66z" />
    <glyph glyph-name="periodcentered" unicode="&#x2219;" horiz-adv-x="231" 
d="M82 255l23 85h66l-23 -85h-66z" />
    <glyph glyph-name="quotesinglbase" unicode="&#x201a;" horiz-adv-x="231" 
d="M-32 -106l-7 24c49 17 73 43 80 82h-27l23 85h66l-20 -74c-21 -69 -48 -98 -115 -117z" />
    <glyph glyph-name="quotedblbase" unicode="&#x201e;" horiz-adv-x="412" 
d="M-32 -106l-7 24c49 17 73 43 80 82h-27l23 85h66l-20 -74c-21 -69 -48 -98 -115 -117zM149 -106l-7 24c49 17 73 43 80 82h-27l23 85h66l-20 -74c-21 -69 -48 -98 -115 -117z" />
    <glyph glyph-name="perthousand" unicode="&#x2030;" horiz-adv-x="1203" 
d="M592 36c77 0 138 88 138 171c0 64 -32 105 -92 105c-77 0 -138 -88 -138 -171c0 -64 32 -105 92 -105zM974 36c77 0 138 88 138 171c0 64 -32 105 -92 105c-77 0 -138 -88 -138 -171c0 -64 32 -105 92 -105zM234 389c77 0 138 88 138 171c0 64 -32 105 -92 105
c-77 0 -138 -88 -138 -171c0 -64 32 -105 92 -105zM588 -7c-81 0 -137 63 -137 143c0 112 84 219 191 219c81 0 137 -63 137 -143c0 -112 -84 -219 -191 -219zM970 -7c-81 0 -137 63 -137 143c0 112 84 219 191 219c81 0 137 -63 137 -143c0 -112 -84 -219 -191 -219zM65 0
l682 700h60l-682 -700h-60zM230 346c-81 0 -137 63 -137 143c0 112 84 219 191 219c81 0 137 -63 137 -143c0 -112 -84 -219 -191 -219z" />
    <glyph glyph-name="Acircumflex" unicode="&#xc2;" horiz-adv-x="759" 
d="M401 765l133 122h40l67 -122h-44l-52 68l-96 -68h-48zM200 243h369l-75 405zM-34 0l515 705h50l137 -705h-53l-36 196h-413l-142 -196h-58z" />
    <glyph glyph-name="Ecircumflex" unicode="&#xca;" horiz-adv-x="649" 
d="M355 765l133 122h40l67 -122h-44l-52 68l-96 -68h-48zM36 0l188 700h493l-13 -48h-441l-74 -275h396l-13 -48h-396l-75 -281h446l-13 -48h-498z" />
    <glyph glyph-name="Aacute" unicode="&#xc1;" horiz-adv-x="759" 
d="M489 765l124 133l62 -30l-135 -103h-51zM200 243h369l-75 405zM-34 0l515 705h50l137 -705h-53l-36 196h-413l-142 -196h-58z" />
    <glyph glyph-name="Edieresis" unicode="&#xcb;" horiz-adv-x="649" 
d="M365 765l22 80h69l-22 -80h-69zM528 765l22 80h69l-22 -80h-69zM36 0l188 700h493l-13 -48h-441l-74 -275h396l-13 -48h-396l-75 -281h446l-13 -48h-498z" />
    <glyph glyph-name="Egrave" unicode="&#xc8;" horiz-adv-x="649" 
d="M480 765l-79 103l62 30l52 -133h-35zM36 0l188 700h493l-13 -48h-441l-74 -275h396l-13 -48h-396l-75 -281h446l-13 -48h-498z" />
    <glyph glyph-name="Iacute" unicode="&#xcd;" horiz-adv-x="274" 
d="M232 765l124 133l62 -30l-135 -103h-51zM43 0l188 700h52l-188 -700h-52z" />
    <glyph glyph-name="Icircumflex" unicode="&#xce;" horiz-adv-x="274" 
d="M148 765l133 122h40l67 -122h-44l-52 68l-96 -68h-48zM43 0l188 700h52l-188 -700h-52z" />
    <glyph glyph-name="Idieresis" unicode="&#xcf;" horiz-adv-x="274" 
d="M159 765l22 80h69l-22 -80h-69zM322 765l22 80h69l-22 -80h-69zM43 0l188 700h52l-188 -700h-52z" />
    <glyph glyph-name="Igrave" unicode="&#xcc;" horiz-adv-x="274" 
d="M264 765l-79 103l62 30l52 -133h-35zM43 0l188 700h52l-188 -700h-52z" />
    <glyph glyph-name="Oacute" unicode="&#xd3;" 
d="M469 765l124 133l62 -30l-135 -103h-51zM398 34c196 0 349 185 349 377c0 143 -100 254 -248 254c-196 0 -349 -185 -349 -377c0 -143 100 -254 248 -254zM398 -13c-176 0 -302 133 -302 301c0 219 180 424 403 424c176 0 302 -133 302 -301c0 -219 -180 -424 -403 -424z
" />
    <glyph glyph-name="Ocircumflex" unicode="&#xd4;" 
d="M420 765l133 122h40l67 -122h-44l-52 68l-96 -68h-48zM398 34c196 0 349 185 349 377c0 143 -100 254 -248 254c-196 0 -349 -185 -349 -377c0 -143 100 -254 248 -254zM398 -13c-176 0 -302 133 -302 301c0 219 180 424 403 424c176 0 302 -133 302 -301
c0 -219 -180 -424 -403 -424z" />
    <glyph glyph-name="Ograve" unicode="&#xd2;" 
d="M546 765l-79 103l62 30l52 -133h-35zM398 34c196 0 349 185 349 377c0 143 -100 254 -248 254c-196 0 -349 -185 -349 -377c0 -143 100 -254 248 -254zM398 -13c-176 0 -302 133 -302 301c0 219 180 424 403 424c176 0 302 -133 302 -301c0 -219 -180 -424 -403 -424z
" />
    <glyph glyph-name="Uacute" unicode="&#xda;" horiz-adv-x="756" 
d="M439 765l124 133l62 -30l-135 -103h-51zM348 -11c-169 0 -252 96 -252 220c0 39 5 73 14 108l102 383h52l-108 -407c-5 -20 -9 -49 -9 -80c0 -100 65 -177 205 -177c63 0 123 24 171 72c39 39 75 101 98 186l109 406h52l-112 -417c-24 -89 -62 -157 -111 -206
c-57 -57 -130 -88 -211 -88z" />
    <glyph glyph-name="Ucircumflex" unicode="&#xdb;" horiz-adv-x="756" 
d="M387 765l133 122h40l67 -122h-44l-52 68l-96 -68h-48zM348 -11c-169 0 -252 96 -252 220c0 39 5 73 14 108l102 383h52l-108 -407c-5 -20 -9 -49 -9 -80c0 -100 65 -177 205 -177c63 0 123 24 171 72c39 39 75 101 98 186l109 406h52l-112 -417
c-24 -89 -62 -157 -111 -206c-57 -57 -130 -88 -211 -88z" />
    <glyph glyph-name="Ugrave" unicode="&#xd9;" horiz-adv-x="756" 
d="M506 765l-79 103l62 30l52 -133h-35zM348 -11c-169 0 -252 96 -252 220c0 39 5 73 14 108l102 383h52l-108 -407c-5 -20 -9 -49 -9 -80c0 -100 65 -177 205 -177c63 0 123 24 171 72c39 39 75 101 98 186l109 406h52l-112 -417c-24 -89 -62 -157 -111 -206
c-57 -57 -130 -88 -211 -88z" />
    <glyph glyph-name="dotlessi" unicode="&#x131;" horiz-adv-x="250" 
d="M32 0l137 510h49l-137 -510h-49z" />
    <glyph glyph-name="circumflex" unicode="&#x2c6;" horiz-adv-x="500" 
d="M222 595l133 122h40l67 -122h-44l-52 68l-96 -68h-48z" />
    <glyph glyph-name="tilde" unicode="&#x2dc;" horiz-adv-x="500" 
d="M233 593l-38 15c32 65 61 96 104 96c31 0 44 -14 67 -35s31 -30 48 -30c21 0 36 20 59 60l38 -15c-32 -65 -61 -96 -104 -96c-31 0 -44 14 -67 35s-31 30 -48 30c-21 0 -36 -20 -59 -60z" />
    <glyph glyph-name="macron" unicode="&#xaf;" horiz-adv-x="500" 
d="M190 600l14 53h300l-14 -53h-300z" />
    <glyph glyph-name="macron" unicode="&#x2c9;" horiz-adv-x="500" 
d="M190 600l14 53h300l-14 -53h-300z" />
    <glyph glyph-name="breve" unicode="&#x2d8;" horiz-adv-x="500" 
d="M339 593c-64 0 -104 32 -104 91c0 11 1 22 4 33h40c0 -45 14 -73 71 -73c52 0 85 28 109 73h46c-27 -79 -91 -124 -166 -124z" />
    <glyph glyph-name="dotaccent" unicode="&#x2d9;" horiz-adv-x="500" 
d="M307 593l23 85h66l-23 -85h-66z" />
    <glyph glyph-name="ring" unicode="&#x2da;" horiz-adv-x="500" 
d="M359 627c39 0 70 31 70 70c0 29 -21 50 -60 50s-70 -31 -70 -70c0 -29 21 -50 60 -50zM359 595c-57 0 -96 35 -96 82c0 57 49 102 106 102s96 -35 96 -82c0 -57 -49 -102 -106 -102z" />
    <glyph glyph-name="cedilla" unicode="&#xb8;" horiz-adv-x="500" 
d="M118 -148l-48 26l125 132h43z" />
    <glyph glyph-name="hungarumlaut" unicode="&#x2dd;" horiz-adv-x="500" 
d="M192 595l125 133l47 -29l-129 -104h-43zM344 595l125 133l47 -29l-129 -104h-43z" />
    <glyph glyph-name="ogonek" unicode="&#x2db;" horiz-adv-x="500" 
d="M234 -133l-8 -31c-100 -3 -144 31 -144 82c0 27 17 65 36 92h43c-12 -23 -25 -63 -25 -82c0 -37 33 -58 98 -61z" />
    <glyph glyph-name="caron" unicode="&#x2c7;" horiz-adv-x="500" 
d="M321 595l-67 122h44l52 -68l96 68h48l-133 -122h-40z" />
    <glyph glyph-name="Lslash" unicode="&#x141;" horiz-adv-x="650" 
d="M86 0l85 316l-80 -23l12 48l81 23l90 336h52l-86 -320l243 69l-13 -48l-243 -69l-76 -284h411l-13 -48h-463z" />
    <glyph glyph-name="lslash" unicode="&#x142;" horiz-adv-x="309" 
d="M62 0l90 335l-81 -23l13 50l81 23l93 345h49l-89 -330l84 24l-14 -50l-83 -24l-94 -350h-49z" />
    <glyph glyph-name="Scaron" unicode="&#x160;" horiz-adv-x="638" 
d="M420 765l-67 122h44l52 -68l96 68h48l-133 -122h-40zM299 -10c-128 0 -220 51 -279 134l40 29c60 -77 132 -116 244 -116c115 0 202 65 202 153c0 62 -40 95 -153 141c-144 56 -200 100 -200 186c0 106 100 193 251 193c105 0 192 -44 243 -107l-40 -32
c-51 60 -120 92 -208 92c-120 0 -193 -68 -193 -142c0 -64 52 -100 167 -143c130 -48 186 -99 186 -184c0 -114 -110 -204 -260 -204z" />
    <glyph glyph-name="scaron" unicode="&#x161;" horiz-adv-x="495" 
d="M308 595l-67 122h44l52 -68l96 68h48l-133 -122h-40zM217 -11c-80 0 -157 29 -216 88l35 35c56 -55 119 -78 187 -78c65 0 132 40 132 101c0 39 -23 69 -111 101c-97 36 -143 70 -143 137c0 81 74 148 189 148c72 0 141 -32 184 -68l-32 -37c-39 32 -97 60 -157 60
c-86 0 -132 -47 -132 -95c0 -39 20 -63 115 -100c101 -40 139 -78 139 -138c0 -89 -86 -154 -190 -154z" />
    <glyph glyph-name="Yacute" unicode="&#xdd;" horiz-adv-x="668" 
d="M395 765l124 133l62 -30l-135 -103h-51zM234 0l76 284l-183 416h57l161 -376l364 376h70l-421 -429l-72 -271h-52z" />
    <glyph glyph-name="yacute" unicode="&#xfd;" horiz-adv-x="568" 
d="M295 595l124 133l62 -30l-135 -103h-51zM20 -163c-39 0 -75 12 -108 35l27 40c21 -17 60 -29 87 -29c52 0 100 29 163 120l-104 507h52l89 -456l307 456h59l-363 -528c-75 -107 -136 -145 -209 -145z" />
    <glyph glyph-name="Thorn" unicode="&#xde;" horiz-adv-x="668" 
d="M137 182h168c189 0 292 72 292 201c0 38 -12 69 -36 93c-33 33 -84 49 -154 49h-178zM36 0l188 700h51l-33 -127h166c84 0 150 -20 193 -63c32 -32 48 -74 48 -125c0 -160 -135 -250 -346 -250h-178l-37 -135h-52z" />
    <glyph glyph-name="thorn" unicode="&#xfe;" horiz-adv-x="654" 
d="M310 33c139 0 237 127 237 268c0 105 -65 175 -158 175c-127 0 -255 -129 -255 -265c0 -99 71 -178 176 -178zM-18 -160l239 890h49l-87 -320c51 61 121 112 212 112c117 0 205 -90 205 -215c0 -181 -136 -320 -288 -320c-115 0 -176 70 -203 143l-78 -290h-49z" />
    <glyph glyph-name="Zcaron" unicode="&#x17d;" horiz-adv-x="662" 
d="M426 765l-67 122h44l52 -68l96 68h48l-133 -122h-40zM-19 0l8 29l636 624h-452l13 47h533l-8 -29l-636 -624h472l-13 -47h-553z" />
    <glyph glyph-name="zcaron" unicode="&#x17e;" horiz-adv-x="546" 
d="M330 595l-67 122h44l52 -68l96 68h48l-133 -122h-40zM-17 0l8 28l475 438h-344l12 44h424l-8 -28l-475 -438h361l-12 -44h-441z" />
    <glyph glyph-name="eth" unicode="&#xf0;" horiz-adv-x="616" 
d="M276 35c129 0 238 106 238 237c0 91 -69 169 -186 169c-124 0 -228 -109 -228 -236c0 -104 74 -170 176 -170zM271 -11c-128 0 -224 93 -224 213c0 157 136 283 280 283c73 0 121 -25 154 -53l-82 195l-154 -68l-22 40l158 70l-26 61h59l16 -40l111 49l22 -40l-116 -51
l73 -184c32 -83 47 -133 47 -190c0 -143 -123 -285 -296 -285z" />
    <glyph glyph-name="apple" horiz-adv-x="967" 
d="M417 64c0 -9 -3 -17 -12 -17c-8 0 -12 8 -12 17c0 11 4 16 12 16s12 -5 12 -16zM352 74v-10h-3c-5 0 -8 3 -8 8c0 4 2 6 7 6c3 0 4 -1 4 -4zM553 79c3 0 3 -3 0 -9c-3 6 -3 9 0 9zM384 217l9 -35c0 -5 -1 -7 -4 -7h-5c-15 0 -26 16 -26 32c0 11 5 17 14 17h6
c4 -1 3 0 6 -7zM716 187c0 -9 -4 -13 -11 -13c-12 0 -25 18 -25 38c0 9 4 14 11 14c12 0 25 -18 25 -39zM280 200h-5c-11 0 -15 8 -15 15c0 6 3 9 8 9s8 -2 9 -5zM392 384h-11c-9 0 -13 4 -13 11s4 11 13 11h11v-22zM684 535c0 -9 -4 -13 -11 -13c-12 0 -25 18 -25 38
c0 9 4 14 11 14c12 0 25 -18 25 -39zM272 553c-2 -3 -4 -4 -7 -4s-4 1 -4 2c0 2 1 3 4 3s6 0 7 -1zM566 553c-2 -3 -4 -4 -7 -4s-4 1 -4 2c0 2 1 3 4 3s6 0 7 -1zM176 548h-5c-11 0 -15 8 -15 15c0 6 3 9 8 9s8 -2 9 -5zM441 -88c0 9 -4 13 -11 13s-11 -4 -11 -12
c0 -9 4 -13 11 -13s11 4 11 12zM800 -88c0 9 -4 13 -11 13s-11 -4 -11 -12c0 -9 4 -13 11 -13s11 4 11 12zM564 -92l-5 12l-5 -12h10zM394 -83c0 5 -4 8 -11 7v-13c7 0 11 2 11 6zM525 -82c0 5 -4 7 -11 6v-12c7 -1 11 1 11 6zM606 -83c0 5 -4 8 -11 7v-13c7 0 11 2 11 6z
M309 46v2c-1 0 -2 0 -3 1c-2 1 -3 2 -3 5v20c0 1 1 3 3 4c1 1 2 1 3 1v2h-18v-2c1 0 2 0 3 -1c2 -2 3 -3 3 -4v-9c-1 0 -3 1 -4 2l-8 8c-2 1 -2 2 -1 3s1 1 2 1v2h-14v-2c1 0 2 0 3 -1c3 -1 2 -2 5 -3l10 -9l-13 -13c-1 -1 -3 -2 -4 -3s-2 -1 -3 -2v-2h17v2c-1 0 -2 0 -3 1
s0 2 1 4l8 8c1 1 3 2 4 2v-9c0 -1 -1 -3 -3 -5c-1 -1 -2 -1 -3 -1v-2h18zM364 46v2c-1 0 -2 0 -3 1s-2 3 -2 4v20c0 2 1 4 2 5s2 1 3 1v2h-18c-9 0 -13 -3 -13 -9c0 -3 3 -6 9 -9l-7 -10c-3 -3 -5 -3 -6 -4l-2 -1v-2h11l7 12c2 3 4 4 7 4v-9c0 -3 -2 -3 -3 -4s-1 -1 -2 -1
v-2h17zM425 64c0 11 -7 18 -20 18s-20 -7 -20 -18s7 -19 20 -19s20 8 20 19zM480 79v2h-15v-2c1 0 1 0 2 -1s0 -2 -1 -4l-6 -9l-6 9c-1 1 -1 3 0 4s2 1 3 1v2h-15v-2c1 0 2 0 3 -1s3 -2 5 -4l8 -12v-8c0 -1 -1 -3 -3 -5c-1 -1 -1 -1 -2 -1v-2h17v2c-1 0 -2 0 -3 1s-2 3 -2 5
v8l8 12c1 3 4 3 5 4s1 1 2 1zM583 81h-15v-2c1 0 1 0 2 -1s1 -2 0 -4l-9 -19l-5 10l4 8c1 3 3 3 4 4l2 2v2h-26l1 -2c1 0 1 0 2 -1l5 -5l3 -5l-7 -13l-8 18c-1 2 -1 4 0 5s1 1 2 1v2h-13v-2c1 0 1 0 2 -1c2 -2 3 -4 4 -5l13 -27h1c1 -1 1 -1 1 0l8 16l9 -16h1l12 27
c1 3 4 4 5 5s1 1 2 1v2zM633 46v2c-1 -1 -2 -1 -3 0c-1 0 -2 2 -2 5v21c0 2 1 4 2 5h3v2h-29l-2 -10l2 -1c0 1 1 3 2 4c1 3 4 4 7 4h4c3 0 4 -1 4 -3v-10h-4c-2 0 -4 1 -5 2s-1 2 -1 3h-2v-13h2c0 1 0 2 1 3c2 2 4 3 5 3h4v-11c0 -2 -1 -3 -4 -3h-4c-3 0 -5 1 -8 4
c-1 1 -2 3 -2 5l-2 -1l2 -11h30zM694 46v2c-1 0 -2 0 -3 1c-2 1 -3 2 -3 4v20c0 1 1 3 3 4c1 1 2 1 3 2v2h-10l-24 -26v18c0 2 1 4 3 5c1 1 2 1 3 1v2h-15v-2c1 0 2 0 3 -1c2 -2 3 -4 3 -5v-28h3l25 28v-20c0 -1 -1 -2 -3 -4c-1 -1 -1 -1 -2 -1v-2h14zM827 127v6h-685v-6
h685zM307 171l-1 3c-1 0 -3 0 -4 1c-3 1 -5 2 -6 7l-7 35c-1 3 0 6 3 7c1 1 3 1 4 1l-1 3h-27c-13 0 -20 -5 -20 -15c0 -8 8 -14 19 -15l-9 -16c-3 -5 -6 -6 -9 -7c-2 -1 -4 -1 -5 -1l1 -3h19l12 23c1 2 2 3 5 3l3 -15c1 -3 0 -6 -3 -7c-1 -1 -3 -1 -4 -1l1 -3h29zM414 171
l-1 4c-1 -1 -3 -1 -4 0c-3 1 -5 4 -6 9l-8 31c-2 6 1 9 8 10l-1 3h-30c-12 0 -25 -7 -25 -22c0 -21 18 -35 35 -35h32zM523 171l-1 3c-1 0 -2 0 -3 1c-3 1 -5 4 -6 9l-7 32c-1 4 0 7 3 8c1 1 3 1 5 1l-1 3h-14l-29 -42l-5 30c-1 4 0 7 3 8c1 1 3 1 4 1l-1 3h-21l1 -3
c1 0 3 0 4 -1c2 -1 4 -4 5 -8l8 -45l3 -1l30 44l6 -30c1 -5 0 -8 -2 -9c-1 -1 -3 -1 -4 -1l1 -3h21zM621 225l-1 3h-29l1 -3c1 0 3 0 4 -1c3 -1 5 -4 6 -8l5 -21c3 -13 4 -20 -11 -20c-11 0 -17 10 -20 22l-4 19c-1 5 0 8 3 9c1 1 3 1 4 0v3h-24l1 -3c1 0 3 0 5 -1
c3 -1 5 -4 6 -8l4 -19c3 -11 9 -27 28 -27c23 0 22 13 19 24l-5 22c-3 5 0 8 3 9c1 1 3 1 5 0zM823 171l-1 3c-1 0 -3 0 -4 1c-3 1 -5 2 -6 7l-7 35c-1 3 0 6 3 7c1 1 3 1 4 1l-1 3h-45v-10v-7h4c-1 2 0 4 1 6c1 5 5 7 12 7h4c3 0 5 -2 6 -6l3 -16h-4c-3 0 -6 1 -9 4
c-1 1 -2 3 -3 5h-3l5 -23h3c0 1 0 3 1 5c1 4 4 6 7 6h4l3 -17c1 -3 0 -6 -3 -7c-1 -1 -3 -1 -4 -1l1 -3h29zM201 215l2 2c-4 7 -7 13 -18 13c-10 0 -15 -8 -14 -23c-4 13 -10 23 -21 23c-7 0 -12 -4 -12 -12l3 -1c0 4 3 6 8 6c13 0 20 -17 24 -33c3 -9 1 -11 -2 -14
c-1 -1 -3 -2 -4 -1l1 -4h28l-1 4c-1 -1 -3 -1 -4 0c-3 1 -5 4 -6 9c-3 11 -5 20 -5 25c0 9 3 13 9 13c7 0 9 -4 12 -7zM728 192c0 20 -18 38 -37 38c-9 0 -23 -6 -23 -22c0 -21 18 -38 37 -38c9 0 23 6 23 22zM827 271v6h-685v-6h685zM283 308v33h-14v65h14v34h-141v-62h41
v28h33v-20h-24v-24h24v-21h-33v28h-41v-61h141zM458 308v33h-14v65h14v34h-96c-29 0 -47 -17 -47 -40s18 -40 47 -40h30v-19h-15v-33h81zM648 406v34h-81v-34h11l-15 -23l-15 23h10v34h-62v-34h12l37 -46v-19h-14v-33h81v33h-15v20l37 45h14zM827 378v62h-147v-62h36v28h11
v-65h-14v-33h81v33h-14v65h11v-28h36zM827 475v6h-685v-6h685zM400 521c0 3 -4 8 -13 9c-10 7 2 48 -29 48c-7 0 -13 -6 -13 -10c0 -3 2 -5 5 -5s4 2 4 6s2 6 5 6c12 0 5 -29 21 -45c-15 0 -16 -13 -23 -13c-3 0 -5 1 -5 4s2 2 2 5s-2 5 -5 5s-5 -2 -5 -7c0 -7 8 -12 15 -12
c17 0 14 13 25 13c2 -5 6 -7 12 -7c3 0 4 1 4 3zM203 519l-1 3c-1 0 -3 0 -4 1c-3 1 -5 2 -6 7l-7 35c-1 3 0 6 3 7c1 1 3 1 4 1l-1 3h-27c-13 0 -20 -5 -20 -15c0 -8 8 -14 19 -15l-9 -16c-3 -5 -6 -6 -9 -7c-2 -1 -4 -1 -5 -1l1 -3h19l12 23c1 2 2 3 5 3l3 -15
c1 -3 0 -6 -3 -7c-1 -1 -3 -1 -4 -1l1 -3h29zM498 519l-1 3c-1 0 -3 0 -4 1c-3 1 -5 2 -6 7l-7 35c-1 3 0 6 3 7c1 1 3 1 4 1l-1 3h-45v-10v-7h4c-1 2 0 4 1 6c1 5 5 7 12 7h4c3 0 5 -2 6 -6l3 -16h-4c-3 0 -6 1 -9 4c-1 1 -2 3 -3 5h-3l5 -23h3c0 1 0 3 1 5c1 4 4 6 7 6h4
l3 -17c1 -3 0 -6 -3 -7c-1 -1 -3 -1 -4 -1l1 -3h29zM821 519l-1 3c-1 0 -3 0 -4 1c-3 1 -5 2 -6 7l-7 35c-1 3 0 6 3 7c1 1 3 1 4 1l-1 3h-28l1 -3c1 0 3 0 4 -1c3 -1 4 -4 5 -7l3 -15h-24l-3 15c-1 3 0 6 3 7c1 1 3 1 4 1l-1 3h-29l1 -3c1 0 3 0 4 -1c3 -1 5 -4 6 -7l7 -35
c1 -3 0 -6 -3 -7c-1 -1 -3 -1 -4 -1l1 -3h29l-1 3c-1 0 -3 0 -4 1c-3 1 -5 2 -6 7l-3 16h24l3 -16c1 -3 0 -6 -3 -7c-1 -1 -3 -1 -4 -1l1 -3h29zM295 537c0 8 -5 14 -14 17c3 2 5 5 5 9c0 7 -6 15 -21 15c-9 0 -13 -4 -13 -11c0 -4 2 -6 5 -6s4 1 4 3c0 4 -3 3 -3 6s2 5 7 5
c7 0 10 -4 10 -12c0 -3 -1 -5 -2 -6c-11 1 -16 -1 -16 -6c0 -4 3 -6 8 -6c4 0 8 2 11 5c4 -3 6 -8 6 -15c0 -9 -4 -14 -12 -14s-12 3 -12 9c0 2 1 3 3 3c1 0 2 -2 5 -2s4 2 4 5s-2 5 -7 5c-6 0 -9 -3 -9 -10c0 -9 5 -13 16 -13c17 0 25 8 25 19zM589 537c0 8 -5 14 -14 17
c3 2 5 5 5 9c0 7 -6 15 -21 15c-9 0 -13 -4 -13 -11c0 -4 2 -6 5 -6s4 1 4 3c0 4 -3 3 -3 6s2 5 7 5c7 0 10 -4 10 -12c0 -3 -1 -5 -2 -6c-11 1 -16 -1 -16 -6c0 -4 3 -6 8 -6c4 0 8 2 11 5c4 -3 6 -8 6 -15c0 -9 -4 -14 -12 -14s-12 3 -12 9c0 2 1 3 3 3c1 0 2 -2 5 -2
s4 2 4 5s-2 5 -7 5c-6 0 -9 -3 -9 -10c0 -9 5 -13 16 -13c17 0 25 8 25 19zM696 540c0 20 -18 38 -37 38c-9 0 -23 -6 -23 -22c0 -21 18 -38 37 -38c9 0 23 6 23 22zM827 618v6h-685v-6h685zM439 662v2c-1 -1 -2 -1 -3 0c-1 0 -2 2 -2 5v21c0 2 1 4 2 5h3v2h-29l-2 -10l2 -1
c0 1 1 3 2 4c1 3 4 4 7 4h4c3 0 4 -1 4 -3v-10h-4c-2 0 -4 1 -5 2s-1 2 -1 3h-2v-13h2c0 1 0 2 1 3c2 2 4 3 5 3h4v-11c0 -2 -1 -3 -4 -3h-4c-3 0 -5 1 -8 4c-1 1 -2 3 -2 5l-2 -1l2 -11h30zM504 662v2c-1 -1 -2 -1 -3 0c-2 0 -3 2 -3 5v21c0 2 1 4 3 5h3v2h-18v-1v-1h2
c2 -2 3 -4 3 -5v-9h-17v9c0 2 1 4 2 5h3v1v1h-17v-2h2c2 -2 3 -4 3 -5v-21c0 -3 -2 -3 -3 -4s-1 -1 -2 -1v-2h17v2c-1 0 -2 0 -3 1s-2 3 -2 4v10h17v-10c0 -3 -1 -5 -3 -5c-1 -1 -1 -1 -2 0v-2h18zM557 686h2v4c0 3 -1 5 -1 8c-1 -1 -7 -1 -17 -1s-16 0 -18 1
c0 -3 -1 -5 -1 -8v-4h2c1 1 2 3 3 4c3 3 6 5 7 5c2 0 3 -1 3 -3v-23c0 -3 -1 -5 -3 -5c-1 -1 -1 -1 -2 0v-2h17v2c-1 -1 -2 -1 -3 0c-1 0 -2 2 -2 5v23c0 2 1 3 3 3s5 -2 8 -5c1 -1 2 -3 2 -4zM284 -101c0 -3 -1 -4 -4 -4s-4 1 -4 4s1 4 4 4s4 -1 4 -4zM716 -101
c0 -3 -1 -4 -4 -4s-4 1 -4 4s1 4 4 4s4 -1 4 -4zM155 -71l-12 -34h-1l-11 23l-10 -23h-1l-12 34l6 1l7 -23l10 23h1l10 -23l7 22h6zM211 -71l-12 -34h-1l-11 23l-10 -23h-1l-12 34l6 1l7 -23l10 23h1l10 -23l7 22h6zM267 -71l-12 -34h-1l-11 23l-10 -23h-1l-12 34l6 1l7 -23
l10 23h1l10 -23l7 22h6zM323 -71v-5h-12v-28h-6v28h-12v5h30zM364 -71l-13 -19v-14h-6v14l-14 19l6 1l11 -15l9 14h7zM400 -82c0 -8 -6 -12 -17 -12v-10h-6v33c19 3 23 -4 23 -11zM447 -87c0 -11 -6 -18 -17 -18s-17 8 -17 17c0 11 7 18 18 18c9 0 16 -8 16 -17zM491 -86
v-15c-4 -3 -8 -4 -13 -4c-11 0 -18 6 -18 17s8 18 19 18c4 0 8 -1 12 -4l-2 -5c-3 3 -6 4 -11 4c-8 0 -12 -4 -12 -13c0 -8 4 -12 13 -12c1 0 3 1 6 2v7h-9v5h15zM534 -104h-7l-8 11h-5v-11h-6v33c19 3 23 -3 23 -10c0 -5 -2 -8 -7 -10zM576 -104h-6l-4 8h-14l-3 -8h-6
l15 34h2zM612 -82c0 -8 -6 -12 -17 -12v-10h-6v33c19 3 23 -4 23 -11zM656 -104h-6v15h-16v-15h-6v33h6v-13h16v13h6v-33zM702 -71l-13 -19v-14h-6v14l-14 19l6 1l11 -15l9 14h7zM758 -96l-1 -6c-2 -2 -5 -3 -10 -3c-12 0 -18 6 -18 17s7 18 18 18c4 0 8 -1 11 -3l-2 -5
c-2 2 -5 3 -9 3c-7 0 -12 -5 -12 -12c0 -9 4 -13 13 -13c3 0 6 1 10 4zM806 -87c0 -11 -6 -18 -17 -18s-17 8 -17 17c0 11 7 18 18 18c9 0 16 -8 16 -17zM859 -104h-6l-3 20l-10 -21h-2l-10 21l-3 -20h-6l6 34h1l13 -26l13 26h1zM868 0h-767v750h767v-750z" />
    <glyph glyph-name="Eth" unicode="&#xd0;" horiz-adv-x="801" 
d="M131 48h171c127 0 233 43 310 120c60 60 94 141 94 234c0 72 -22 129 -65 171c-52 52 -133 79 -233 79h-115l-74 -276h232l-13 -48h-232zM66 0l88 328h-75l13 48h75l87 324h157c109 0 208 -30 272 -94c49 -49 77 -113 77 -200c0 -108 -38 -200 -109 -271
c-84 -84 -211 -135 -356 -135h-229z" />
    <glyph glyph-name="Itilde" unicode="&#x128;" horiz-adv-x="274" 
d="M171 763l-34 13c29 59 55 87 94 87c25 0 38 -13 61 -33c20 -19 27 -27 43 -27c20 0 33 19 54 55l34 -13c-29 -59 -55 -87 -94 -87c-28 0 -37 12 -58 32c-20 19 -30 30 -46 30c-20 0 -33 -21 -54 -57zM43 0l188 700h52l-188 -700h-52z" />
    <glyph glyph-name="itilde" unicode="&#x129;" horiz-adv-x="250" 
d="M32 0l137 510h49l-137 -510h-49zM106 600l-34 13c29 59 55 87 94 87c25 0 38 -13 61 -33c20 -19 27 -27 43 -27c20 0 33 19 54 55l34 -13c-29 -59 -55 -87 -94 -87c-28 0 -37 12 -58 32c-20 19 -30 30 -46 30c-20 0 -33 -21 -54 -57z" />
    <glyph glyph-name="Utilde" unicode="&#x168;" horiz-adv-x="756" 
d="M406 763l-34 13c29 59 55 87 94 87c25 0 38 -13 61 -33c20 -19 27 -27 43 -27c20 0 33 19 54 55l34 -13c-29 -59 -55 -87 -94 -87c-28 0 -37 12 -58 32c-20 19 -30 30 -46 30c-20 0 -33 -21 -54 -57zM348 -11c-169 0 -252 96 -252 220c0 39 5 73 14 108l102 383h52
l-108 -407c-5 -20 -9 -49 -9 -80c0 -100 65 -177 205 -177c63 0 123 24 171 72c39 39 75 101 98 186l109 406h52l-112 -417c-24 -89 -62 -157 -111 -206c-57 -57 -130 -88 -211 -88z" />
    <glyph glyph-name="utilde" unicode="&#x169;" horiz-adv-x="609" 
d="M284 600l-34 13c29 59 55 87 94 87c25 0 38 -13 61 -33c20 -19 27 -27 43 -27c20 0 33 19 54 55l34 -13c-29 -59 -55 -87 -94 -87c-28 0 -37 12 -58 32c-20 19 -30 30 -46 30c-20 0 -33 -21 -54 -57zM231 -12c-101 0 -167 63 -167 162c0 23 4 48 11 72l76 288h49
l-78 -292c-5 -19 -8 -44 -8 -63c0 -76 50 -123 131 -123c87 0 184 79 213 190l77 288h49l-136 -510h-49l25 95c-50 -61 -107 -107 -193 -107z" />
    <glyph glyph-name="Abreve" unicode="&#x102;" horiz-adv-x="759" 
d="M518 773c-75 0 -118 41 -105 112h39c-8 -37 18 -66 70 -66s97 29 118 66h39c-24 -71 -86 -112 -161 -112zM200 243h369l-75 405zM-34 0l515 705h50l137 -705h-53l-36 196h-413l-142 -196h-58z" />
    <glyph glyph-name="abreve" unicode="&#x103;" horiz-adv-x="573" 
d="M389 593c-75 0 -118 41 -105 112h39c-8 -37 18 -66 70 -66s97 29 118 66h39c-24 -71 -86 -112 -161 -112zM199 33c96 0 199 67 228 170l12 45c-52 13 -117 24 -193 24c-101 0 -171 -56 -171 -135c0 -64 48 -104 124 -104zM190 -12c-85 0 -167 48 -167 143
c0 113 96 185 230 185c73 0 145 -14 196 -29l4 14c4 15 7 36 7 51c0 77 -54 120 -154 120c-56 0 -99 -10 -148 -27l-9 44c51 19 97 29 161 29c125 0 198 -60 198 -159c0 -19 -3 -44 -10 -67l-78 -292h-48l23 88c-49 -59 -116 -100 -205 -100z" />
    <glyph glyph-name="Dcroat" unicode="&#x110;" horiz-adv-x="771" 
d="M46 327l15 47h75l88 326h157c109 0 208 -30 272 -94c49 -49 77 -113 77 -200c0 -108 -38 -200 -109 -271c-84 -84 -211 -135 -356 -135h-229l88 327h-78zM101 48h171c127 0 233 43 310 120c60 60 94 141 94 234c0 72 -22 129 -65 171c-52 52 -133 79 -233 79h-115
l-75 -278h205l-15 -47h-202z" />
    <glyph glyph-name="dcroat" unicode="&#x111;" horiz-adv-x="654" 
d="M259 -13c-117 0 -205 90 -205 215c0 181 136 320 288 320c115 0 176 -70 203 -143l64 239h-167l15 44h164l18 68h49l-18 -68h88l-15 -44h-85l-165 -618h-49l26 99c-51 -61 -120 -112 -211 -112zM265 33c127 0 255 129 255 265c0 99 -71 178 -176 178
c-139 0 -237 -127 -237 -268c0 -105 65 -175 158 -175z" />
    <glyph glyph-name="Ohorn" unicode="&#x1a0;" 
d="M398 -13c-176 0 -302 133 -302 301c0 219 180 424 403 424c44 0 84 -8 121 -24c11 -4 21 -9 30 -15l1 2c60 3 89 14 100 53c7 23 6 31 2 74h54c4 -31 1 -61 -4 -78c-9 -33 -27 -57 -54 -72c-12 -7 -27 -13 -44 -17c4 -3 8 -7 11 -11c53 -53 85 -129 85 -213
c0 -219 -180 -424 -403 -424zM398 34c196 0 349 185 349 377c0 143 -100 254 -248 254c-196 0 -349 -185 -349 -377c0 -143 100 -254 248 -254z" />
    <glyph glyph-name="ohorn" unicode="&#x1a1;" horiz-adv-x="633" 
d="M278 -12c-135 0 -227 95 -227 226c0 161 140 308 303 308c34 0 65 -6 92 -17c9 -4 17 -8 25 -12l1 1c60 3 89 14 100 53c7 23 6 31 2 74h54c4 -31 1 -61 -4 -78c-9 -33 -27 -57 -54 -72c-13 -8 -29 -14 -47 -18c17 -19 31 -42 41 -67c11 -27 17 -57 17 -90
c0 -165 -145 -308 -303 -308zM283 34c124 0 245 120 245 260c0 116 -72 182 -179 182c-129 0 -245 -124 -245 -260c0 -116 72 -182 179 -182z" />
    <glyph glyph-name="Uhorn" unicode="&#x1af;" horiz-adv-x="787" 
d="M348 -11c-169 0 -252 96 -252 220c0 39 5 73 14 108l102 383h52l-108 -407c-5 -20 -9 -49 -9 -80c0 -100 65 -177 205 -177c63 0 123 24 171 72c39 39 75 101 98 186l109 406h47c11 2 21 5 28 9c16 7 27 21 32 40c7 23 6 31 2 74h54c4 -31 1 -61 -4 -78
c-9 -33 -27 -57 -54 -72c-17 -10 -39 -17 -66 -21l-99 -369c-24 -89 -62 -157 -111 -206c-57 -57 -130 -88 -211 -88z" />
    <glyph glyph-name="uhorn" unicode="&#x1b0;" horiz-adv-x="618" 
d="M231 -12c-101 0 -167 63 -167 162c0 23 4 48 11 72l76 288h49l-78 -292c-5 -19 -8 -44 -8 -63c0 -76 50 -123 131 -123c87 0 184 79 213 190l77 288h40c14 2 25 5 34 10c16 7 27 21 32 40c7 23 6 31 2 74h54c4 -31 1 -61 -4 -78c-9 -33 -27 -57 -54 -72
c-18 -11 -41 -18 -68 -22l-123 -462h-49l25 95c-50 -61 -107 -107 -193 -107z" />
    <glyph glyph-name="uni1EA0" unicode="&#x1ea0;" horiz-adv-x="759" 
d="M252 -178l27 94h51l-27 -94h-51zM200 243h369l-75 405zM-34 0l515 705h50l137 -705h-53l-36 196h-413l-142 -196h-58z" />
    <glyph glyph-name="uni1EA1" unicode="&#x1ea1;" horiz-adv-x="571" 
d="M146 -178l27 94h51l-27 -94h-51zM199 33c96 0 199 67 228 170l12 45c-52 13 -117 24 -193 24c-101 0 -171 -56 -171 -135c0 -64 48 -104 124 -104zM190 -12c-85 0 -167 48 -167 143c0 113 96 185 230 185c73 0 145 -14 196 -29l4 14c4 15 7 36 7 51
c0 77 -54 120 -154 120c-56 0 -99 -10 -148 -27l-9 44c51 19 97 29 161 29c125 0 198 -60 198 -159c0 -19 -3 -44 -10 -67l-78 -292h-48l23 88c-49 -59 -116 -100 -205 -100z" />
    <glyph glyph-name="uni1EA2" unicode="&#x1ea2;" horiz-adv-x="759" 
d="M502 764l23 73c41 3 74 22 83 45c7 19 -2 35 -30 35c-21 0 -48 -15 -71 -34c-8 4 -6 4 -14 12c-4 3 -12 7 -16 12c36 36 80 52 117 52c53 0 76 -33 60 -77c-16 -43 -58 -67 -102 -78c-4 -13 -8 -25 -15 -40h-35zM200 243h369l-75 405zM-34 0l515 705h50l137 -705h-53
l-36 196h-413l-142 -196h-58z" />
    <glyph glyph-name="uni1EA3" unicode="&#x1ea3;" horiz-adv-x="571" 
d="M368 594l23 73c41 3 74 22 83 45c7 19 -2 35 -30 35c-21 0 -48 -15 -71 -34c-8 4 -6 4 -14 12c-4 3 -12 7 -16 12c36 36 80 52 117 52c53 0 76 -33 60 -77c-16 -43 -58 -67 -102 -78c-4 -13 -8 -25 -15 -40h-35zM199 33c96 0 199 67 228 170l12 45
c-52 13 -117 24 -193 24c-101 0 -171 -56 -171 -135c0 -64 48 -104 124 -104zM190 -12c-85 0 -167 48 -167 143c0 113 96 185 230 185c73 0 145 -14 196 -29l4 14c4 15 7 36 7 51c0 77 -54 120 -154 120c-56 0 -99 -10 -148 -27l-9 44c51 19 97 29 161 29
c125 0 198 -60 198 -159c0 -19 -3 -44 -10 -67l-78 -292h-48l23 88c-49 -59 -116 -100 -205 -100z" />
    <glyph glyph-name="uni1EA8" unicode="&#x1ea8;" horiz-adv-x="759" 
d="M626 860l22 66c37 3 67 21 75 41c7 17 -2 32 -27 32c-20 0 -44 -14 -65 -31c-8 4 -5 4 -13 11c-3 3 -10 6 -14 11c32 33 72 47 107 47c47 0 69 -30 54 -70c-15 -39 -52 -61 -93 -70c-4 -13 -8 -24 -13 -37h-33zM401 765l133 122h40l67 -122h-44l-52 68l-96 -68h-48z
M200 243h369l-75 405zM-34 0l515 705h50l137 -705h-53l-36 196h-413l-142 -196h-58z" />
    <glyph glyph-name="uni1EA9" unicode="&#x1ea9;" horiz-adv-x="571" 
d="M482 690l22 66c37 3 67 21 75 41c7 17 -2 32 -27 32c-20 0 -44 -14 -65 -31c-8 4 -5 4 -13 11c-3 3 -10 6 -14 11c32 33 72 47 107 47c47 0 69 -30 54 -70c-15 -39 -52 -61 -93 -70c-4 -13 -8 -24 -13 -37h-33zM257 595l133 122h40l67 -122h-44l-52 68l-96 -68h-48z
M199 33c96 0 199 67 228 170l12 45c-52 13 -117 24 -193 24c-101 0 -171 -56 -171 -135c0 -64 48 -104 124 -104zM190 -12c-85 0 -167 48 -167 143c0 113 96 185 230 185c73 0 145 -14 196 -29l4 14c4 15 7 36 7 51c0 77 -54 120 -154 120c-56 0 -99 -10 -148 -27l-9 44
c51 19 97 29 161 29c125 0 198 -60 198 -159c0 -19 -3 -44 -10 -67l-78 -292h-48l23 88c-49 -59 -116 -100 -205 -100z" />
    <glyph glyph-name="uni1EB2" unicode="&#x1eb2;" horiz-adv-x="759" 
d="M524 885l21 69c39 3 70 21 78 42c7 17 -1 33 -28 33c-20 0 -46 -15 -67 -32c-7 4 -5 4 -13 11c-4 3 -11 7 -15 12c33 33 75 49 110 49c51 0 72 -32 57 -73c-16 -40 -55 -64 -96 -73c-4 -13 -9 -25 -14 -38h-33zM518 773c-75 0 -118 41 -105 112h39c-8 -37 18 -66 70 -66
s97 29 118 66h39c-24 -71 -86 -112 -161 -112zM200 243h369l-75 405zM-34 0l515 705h50l137 -705h-53l-36 196h-413l-142 -196h-58z" />
    <glyph glyph-name="uni1EB3" unicode="&#x1eb3;" horiz-adv-x="573" 
d="M395 705l21 69c39 3 70 21 78 42c7 17 -1 33 -28 33c-20 0 -46 -15 -67 -32c-7 4 -5 4 -13 11c-4 3 -11 7 -15 12c33 33 75 49 110 49c51 0 72 -32 57 -73c-16 -40 -55 -64 -96 -73c-4 -13 -9 -25 -14 -38h-33zM389 593c-75 0 -118 41 -105 112h39c-8 -37 18 -66 70 -66
s97 29 118 66h39c-24 -71 -86 -112 -161 -112zM199 33c96 0 199 67 228 170l12 45c-52 13 -117 24 -193 24c-101 0 -171 -56 -171 -135c0 -64 48 -104 124 -104zM190 -12c-85 0 -167 48 -167 143c0 113 96 185 230 185c73 0 145 -14 196 -29l4 14c4 15 7 36 7 51
c0 77 -54 120 -154 120c-56 0 -99 -10 -148 -27l-9 44c51 19 97 29 161 29c125 0 198 -60 198 -159c0 -19 -3 -44 -10 -67l-78 -292h-48l23 88c-49 -59 -116 -100 -205 -100z" />
    <glyph glyph-name="uni1EB8" unicode="&#x1eb8;" horiz-adv-x="649" 
d="M211 -178l27 94h51l-27 -94h-51zM36 0l188 700h493l-13 -48h-441l-74 -275h396l-13 -48h-396l-75 -281h446l-13 -48h-498z" />
    <glyph glyph-name="uni1EB9" unicode="&#x1eb9;" horiz-adv-x="583" 
d="M192 -178l27 94h51l-27 -94h-51zM114 282h370c3 9 4 23 4 42c0 82 -45 153 -144 153c-115 0 -200 -90 -230 -195zM524 238h-419c-1 -11 -2 -23 -2 -34c0 -103 69 -170 169 -170c77 0 125 28 174 68l29 -35c-53 -44 -111 -79 -203 -79c-130 0 -222 88 -222 214
c0 160 129 320 295 320c128 0 193 -90 193 -195c0 -33 -5 -62 -14 -89z" />
    <glyph glyph-name="uni1EBA" unicode="&#x1eba;" horiz-adv-x="649" 
d="M453 764l23 73c41 3 74 22 83 45c7 19 -2 35 -30 35c-21 0 -48 -15 -71 -34c-8 4 -6 4 -14 12c-4 3 -12 7 -16 12c36 36 80 52 117 52c53 0 76 -33 60 -77c-16 -43 -58 -67 -102 -78c-4 -13 -8 -25 -15 -40h-35zM36 0l188 700h493l-13 -48h-441l-74 -275h396l-13 -48
h-396l-75 -281h446l-13 -48h-498z" />
    <glyph glyph-name="uni1EBB" unicode="&#x1ebb;" horiz-adv-x="583" 
d="M363 594l23 73c41 3 74 22 83 45c7 19 -2 35 -30 35c-21 0 -48 -15 -71 -34c-8 4 -6 4 -14 12c-4 3 -12 7 -16 12c36 36 80 52 117 52c53 0 76 -33 60 -77c-16 -43 -58 -67 -102 -78c-4 -13 -8 -25 -15 -40h-35zM114 282h370c3 9 4 23 4 42c0 82 -45 153 -144 153
c-115 0 -200 -90 -230 -195zM524 238h-419c-1 -11 -2 -23 -2 -34c0 -103 69 -170 169 -170c77 0 125 28 174 68l29 -35c-53 -44 -111 -79 -203 -79c-130 0 -222 88 -222 214c0 160 129 320 295 320c128 0 193 -90 193 -195c0 -33 -5 -62 -14 -89z" />
    <glyph glyph-name="uni1EC2" unicode="&#x1ec2;" horiz-adv-x="649" 
d="M580 860l22 66c37 3 67 21 75 41c7 17 -2 32 -27 32c-20 0 -44 -14 -65 -31c-8 4 -5 4 -13 11c-3 3 -10 6 -14 11c32 33 72 47 107 47c47 0 69 -30 54 -70c-15 -39 -52 -61 -93 -70c-4 -13 -8 -24 -13 -37h-33zM355 765l133 122h40l67 -122h-44l-52 68l-96 -68h-48zM36 0
l188 700h493l-13 -48h-441l-74 -275h396l-13 -48h-396l-75 -281h446l-13 -48h-498z" />
    <glyph glyph-name="uni1EC3" unicode="&#x1ec3;" horiz-adv-x="583" 
d="M469 690l22 66c37 3 67 21 75 41c7 17 -2 32 -27 32c-20 0 -44 -14 -65 -31c-8 4 -5 4 -13 11c-3 3 -10 6 -14 11c32 33 72 47 107 47c47 0 69 -30 54 -70c-15 -39 -52 -61 -93 -70c-4 -13 -8 -24 -13 -37h-33zM244 595l133 122h40l67 -122h-44l-52 68l-96 -68h-48z
M114 282h370c3 9 4 23 4 42c0 82 -45 153 -144 153c-115 0 -200 -90 -230 -195zM524 238h-419c-1 -11 -2 -23 -2 -34c0 -103 69 -170 169 -170c77 0 125 28 174 68l29 -35c-53 -44 -111 -79 -203 -79c-130 0 -222 88 -222 214c0 160 129 320 295 320c128 0 193 -90 193 -195
c0 -33 -5 -62 -14 -89z" />
    <glyph glyph-name="uni1EC8" unicode="&#x1ec8;" horiz-adv-x="274" 
d="M257 764l23 73c41 3 74 22 83 45c7 19 -2 35 -30 35c-21 0 -48 -15 -71 -34c-8 4 -6 4 -14 12c-4 3 -12 7 -16 12c36 36 80 52 117 52c53 0 76 -33 60 -77c-16 -43 -58 -67 -102 -78c-4 -13 -8 -25 -15 -40h-35zM43 0l188 700h52l-188 -700h-52z" />
    <glyph glyph-name="uni1EC9" unicode="&#x1ec9;" horiz-adv-x="250" 
d="M32 0l137 510h49l-137 -510h-49zM195 594l23 73c41 3 74 22 83 45c7 19 -2 35 -30 35c-21 0 -48 -15 -71 -34c-8 4 -6 4 -14 12c-4 3 -12 7 -16 12c36 36 80 52 117 52c53 0 76 -33 60 -77c-16 -43 -58 -67 -102 -78c-4 -13 -8 -25 -15 -40h-35z" />
    <glyph glyph-name="uni1ECA" unicode="&#x1eca;" horiz-adv-x="274" 
d="M-1 -178l27 94h51l-27 -94h-51zM43 0l188 700h52l-188 -700h-52z" />
    <glyph glyph-name="uni1ECB" unicode="&#x1ecb;" horiz-adv-x="250" 
d="M-18 -178l27 94h51l-27 -94h-51zM32 0l137 510h49l-137 -510h-49zM199 643l18 67h61l-18 -67h-61z" />
    <glyph glyph-name="uni1ECC" unicode="&#x1ecc;" 
d="M302 -178l27 94h51l-27 -94h-51zM398 34c196 0 349 185 349 377c0 143 -100 254 -248 254c-196 0 -349 -185 -349 -377c0 -143 100 -254 248 -254zM398 -13c-176 0 -302 133 -302 301c0 219 180 424 403 424c176 0 302 -133 302 -301c0 -219 -180 -424 -403 -424z" />
    <glyph glyph-name="uni1ECD" unicode="&#x1ecd;" horiz-adv-x="633" 
d="M186 -178l27 94h51l-27 -94h-51zM283 34c124 0 245 120 245 260c0 116 -72 182 -179 182c-129 0 -245 -124 -245 -260c0 -116 72 -182 179 -182zM278 -12c-135 0 -227 95 -227 226c0 161 140 308 303 308c135 0 227 -95 227 -226c0 -165 -145 -308 -303 -308z" />
    <glyph glyph-name="uni1ECE" unicode="&#x1ece;" 
d="M537 764l23 73c41 3 74 22 83 45c7 19 -2 35 -30 35c-21 0 -48 -15 -71 -34c-8 4 -6 4 -14 12c-4 3 -12 7 -16 12c36 36 80 52 117 52c53 0 76 -33 60 -77c-16 -43 -58 -67 -102 -78c-4 -13 -8 -25 -15 -40h-35zM398 34c196 0 349 185 349 377c0 143 -100 254 -248 254
c-196 0 -349 -185 -349 -377c0 -143 100 -254 248 -254zM398 -13c-176 0 -302 133 -302 301c0 219 180 424 403 424c176 0 302 -133 302 -301c0 -219 -180 -424 -403 -424z" />
    <glyph glyph-name="uni1ECF" unicode="&#x1ecf;" horiz-adv-x="633" 
d="M383 594l23 73c41 3 74 22 83 45c7 19 -2 35 -30 35c-21 0 -48 -15 -71 -34c-8 4 -6 4 -14 12c-4 3 -12 7 -16 12c36 36 80 52 117 52c53 0 76 -33 60 -77c-16 -43 -58 -67 -102 -78c-4 -13 -8 -25 -15 -40h-35zM283 34c124 0 245 120 245 260c0 116 -72 182 -179 182
c-129 0 -245 -124 -245 -260c0 -116 72 -182 179 -182zM278 -12c-135 0 -227 95 -227 226c0 161 140 308 303 308c135 0 227 -95 227 -226c0 -165 -145 -308 -303 -308z" />
    <glyph glyph-name="uni1ED4" unicode="&#x1ed4;" 
d="M645 860l22 66c37 3 67 21 75 41c7 17 -2 32 -27 32c-20 0 -44 -14 -65 -31c-8 4 -5 4 -13 11c-3 3 -10 6 -14 11c32 33 72 47 107 47c47 0 69 -30 54 -70c-15 -39 -52 -61 -93 -70c-4 -13 -8 -24 -13 -37h-33zM420 765l133 122h40l67 -122h-44l-52 68l-96 -68h-48z
M398 34c196 0 349 185 349 377c0 143 -100 254 -248 254c-196 0 -349 -185 -349 -377c0 -143 100 -254 248 -254zM398 -13c-176 0 -302 133 -302 301c0 219 180 424 403 424c176 0 302 -133 302 -301c0 -219 -180 -424 -403 -424z" />
    <glyph glyph-name="uni1ED5" unicode="&#x1ed5;" horiz-adv-x="633" 
d="M503 690l22 66c37 3 67 21 75 41c7 17 -2 32 -27 32c-20 0 -44 -14 -65 -31c-8 4 -5 4 -13 11c-3 3 -10 6 -14 11c32 33 72 47 107 47c47 0 69 -30 54 -70c-15 -39 -52 -61 -93 -70c-4 -13 -8 -24 -13 -37h-33zM278 595l133 122h40l67 -122h-44l-52 68l-96 -68h-48z
M283 34c124 0 245 120 245 260c0 116 -72 182 -179 182c-129 0 -245 -124 -245 -260c0 -116 72 -182 179 -182zM278 -12c-135 0 -227 95 -227 226c0 161 140 308 303 308c135 0 227 -95 227 -226c0 -165 -145 -308 -303 -308z" />
    <glyph glyph-name="uni1EDE" unicode="&#x1ede;" 
d="M537 764l23 73c41 3 74 22 83 45c7 19 -2 35 -30 35c-21 0 -48 -15 -71 -34c-8 4 -6 4 -14 12c-4 3 -12 7 -16 12c36 36 80 52 117 52c53 0 76 -33 60 -77c-16 -43 -58 -67 -102 -78c-4 -13 -8 -25 -15 -40h-35zM398 -13c-176 0 -302 133 -302 301c0 219 180 424 403 424
c44 0 84 -8 121 -24c11 -4 21 -9 30 -15l1 2c60 3 89 14 100 53c7 23 6 31 2 74h54c4 -31 1 -61 -4 -78c-9 -33 -27 -57 -54 -72c-12 -7 -27 -13 -44 -17c4 -3 8 -7 11 -11c53 -53 85 -129 85 -213c0 -219 -180 -424 -403 -424zM398 34c196 0 349 185 349 377
c0 143 -100 254 -248 254c-196 0 -349 -185 -349 -377c0 -143 100 -254 248 -254z" />
    <glyph glyph-name="uni1EDF" unicode="&#x1edf;" horiz-adv-x="633" 
d="M383 594l23 73c41 3 74 22 83 45c7 19 -2 35 -30 35c-21 0 -48 -15 -71 -34c-8 4 -6 4 -14 12c-4 3 -12 7 -16 12c36 36 80 52 117 52c53 0 76 -33 60 -77c-16 -43 -58 -67 -102 -78c-4 -13 -8 -25 -15 -40h-35zM278 -12c-135 0 -227 95 -227 226c0 161 140 308 303 308
c34 0 65 -6 92 -17c9 -4 17 -8 25 -12l1 1c60 3 89 14 100 53c7 23 6 31 2 74h54c4 -31 1 -61 -4 -78c-9 -33 -27 -57 -54 -72c-13 -8 -29 -14 -47 -18c17 -19 31 -42 41 -67c11 -27 17 -57 17 -90c0 -165 -145 -308 -303 -308zM283 34c124 0 245 120 245 260
c0 116 -72 182 -179 182c-129 0 -245 -124 -245 -260c0 -116 72 -182 179 -182z" />
    <glyph glyph-name="uni1EE2" unicode="&#x1ee2;" 
d="M302 -178l27 94h51l-27 -94h-51zM398 -13c-176 0 -302 133 -302 301c0 219 180 424 403 424c44 0 84 -8 121 -24c11 -4 21 -9 30 -15l1 2c60 3 89 14 100 53c7 23 6 31 2 74h54c4 -31 1 -61 -4 -78c-9 -33 -27 -57 -54 -72c-12 -7 -27 -13 -44 -17c4 -3 8 -7 11 -11
c53 -53 85 -129 85 -213c0 -219 -180 -424 -403 -424zM398 34c196 0 349 185 349 377c0 143 -100 254 -248 254c-196 0 -349 -185 -349 -377c0 -143 100 -254 248 -254z" />
    <glyph glyph-name="uni1EE3" unicode="&#x1ee3;" horiz-adv-x="633" 
d="M186 -178l27 94h51l-27 -94h-51zM278 -12c-135 0 -227 95 -227 226c0 161 140 308 303 308c34 0 65 -6 92 -17c9 -4 17 -8 25 -12l1 1c60 3 89 14 100 53c7 23 6 31 2 74h54c4 -31 1 -61 -4 -78c-9 -33 -27 -57 -54 -72c-13 -8 -29 -14 -47 -18c17 -19 31 -42 41 -67
c11 -27 17 -57 17 -90c0 -165 -145 -308 -303 -308zM283 34c124 0 245 120 245 260c0 116 -72 182 -179 182c-129 0 -245 -124 -245 -260c0 -116 72 -182 179 -182z" />
    <glyph glyph-name="uni1EE4" unicode="&#x1ee4;" horiz-adv-x="756" 
d="M236 -178l27 94h51l-27 -94h-51zM348 -11c-169 0 -252 96 -252 220c0 39 5 73 14 108l102 383h52l-108 -407c-5 -20 -9 -49 -9 -80c0 -100 65 -177 205 -177c63 0 123 24 171 72c39 39 75 101 98 186l109 406h52l-112 -417c-24 -89 -62 -157 -111 -206
c-57 -57 -130 -88 -211 -88z" />
    <glyph glyph-name="uni1EE5" unicode="&#x1ee5;" horiz-adv-x="609" 
d="M161 -178l27 94h51l-27 -94h-51zM231 -12c-101 0 -167 63 -167 162c0 23 4 48 11 72l76 288h49l-78 -292c-5 -19 -8 -44 -8 -63c0 -76 50 -123 131 -123c87 0 184 79 213 190l77 288h49l-136 -510h-49l25 95c-50 -61 -107 -107 -193 -107z" />
    <glyph glyph-name="uni1EE6" unicode="&#x1ee6;" horiz-adv-x="756" 
d="M492 764l23 73c41 3 74 22 83 45c7 19 -2 35 -30 35c-21 0 -48 -15 -71 -34c-8 4 -6 4 -14 12c-4 3 -12 7 -16 12c36 36 80 52 117 52c53 0 76 -33 60 -77c-16 -43 -58 -67 -102 -78c-4 -13 -8 -25 -15 -40h-35zM348 -11c-169 0 -252 96 -252 220c0 39 5 73 14 108
l102 383h52l-108 -407c-5 -20 -9 -49 -9 -80c0 -100 65 -177 205 -177c63 0 123 24 171 72c39 39 75 101 98 186l109 406h52l-112 -417c-24 -89 -62 -157 -111 -206c-57 -57 -130 -88 -211 -88z" />
    <glyph glyph-name="uni1EE7" unicode="&#x1ee7;" horiz-adv-x="609" 
d="M360 594l23 73c41 3 74 22 83 45c7 19 -2 35 -30 35c-21 0 -48 -15 -71 -34c-8 4 -6 4 -14 12c-4 3 -12 7 -16 12c36 36 80 52 117 52c53 0 76 -33 60 -77c-16 -43 -58 -67 -102 -78c-4 -13 -8 -25 -15 -40h-35zM231 -12c-101 0 -167 63 -167 162c0 23 4 48 11 72l76 288
h49l-78 -292c-5 -19 -8 -44 -8 -63c0 -76 50 -123 131 -123c87 0 184 79 213 190l77 288h49l-136 -510h-49l25 95c-50 -61 -107 -107 -193 -107z" />
    <glyph glyph-name="uni1EEC" unicode="&#x1eec;" horiz-adv-x="787" 
d="M492 764l23 73c41 3 74 22 83 45c7 19 -2 35 -30 35c-21 0 -48 -15 -71 -34c-8 4 -6 4 -14 12c-4 3 -12 7 -16 12c36 36 80 52 117 52c53 0 76 -33 60 -77c-16 -43 -58 -67 -102 -78c-4 -13 -8 -25 -15 -40h-35zM348 -11c-169 0 -252 96 -252 220c0 39 5 73 14 108
l102 383h52l-108 -407c-5 -20 -9 -49 -9 -80c0 -100 65 -177 205 -177c63 0 123 24 171 72c39 39 75 101 98 186l109 406h47c11 2 21 5 28 9c16 7 27 21 32 40c7 23 6 31 2 74h54c4 -31 1 -61 -4 -78c-9 -33 -27 -57 -54 -72c-17 -10 -39 -17 -66 -21l-99 -369
c-24 -89 -62 -157 -111 -206c-57 -57 -130 -88 -211 -88z" />
    <glyph glyph-name="uni1EED" unicode="&#x1eed;" horiz-adv-x="618" 
d="M360 594l23 73c41 3 74 22 83 45c7 19 -2 35 -30 35c-21 0 -48 -15 -71 -34c-8 4 -6 4 -14 12c-4 3 -12 7 -16 12c36 36 80 52 117 52c53 0 76 -33 60 -77c-16 -43 -58 -67 -102 -78c-4 -13 -8 -25 -15 -40h-35zM231 -12c-101 0 -167 63 -167 162c0 23 4 48 11 72l76 288
h49l-78 -292c-5 -19 -8 -44 -8 -63c0 -76 50 -123 131 -123c87 0 184 79 213 190l77 288h40c14 2 25 5 34 10c16 7 27 21 32 40c7 23 6 31 2 74h54c4 -31 1 -61 -4 -78c-9 -33 -27 -57 -54 -72c-18 -11 -41 -18 -68 -22l-123 -462h-49l25 95c-50 -61 -107 -107 -193 -107z
" />
    <glyph glyph-name="uni1EF0" unicode="&#x1ef0;" horiz-adv-x="787" 
d="M236 -178l27 94h51l-27 -94h-51zM348 -11c-169 0 -252 96 -252 220c0 39 5 73 14 108l102 383h52l-108 -407c-5 -20 -9 -49 -9 -80c0 -100 65 -177 205 -177c63 0 123 24 171 72c39 39 75 101 98 186l109 406h47c11 2 21 5 28 9c16 7 27 21 32 40c7 23 6 31 2 74h54
c4 -31 1 -61 -4 -78c-9 -33 -27 -57 -54 -72c-17 -10 -39 -17 -66 -21l-99 -369c-24 -89 -62 -157 -111 -206c-57 -57 -130 -88 -211 -88z" />
    <glyph glyph-name="uni1EF1" unicode="&#x1ef1;" horiz-adv-x="618" 
d="M161 -178l27 94h51l-27 -94h-51zM231 -12c-101 0 -167 63 -167 162c0 23 4 48 11 72l76 288h49l-78 -292c-5 -19 -8 -44 -8 -63c0 -76 50 -123 131 -123c87 0 184 79 213 190l77 288h40c14 2 25 5 34 10c16 7 27 21 32 40c7 23 6 31 2 74h54c4 -31 1 -61 -4 -78
c-9 -33 -27 -57 -54 -72c-18 -11 -41 -18 -68 -22l-123 -462h-49l25 95c-50 -61 -107 -107 -193 -107z" />
    <glyph glyph-name="uni1EF4" unicode="&#x1ef4;" horiz-adv-x="668" 
d="M188 -178l27 94h51l-27 -94h-51zM234 0l76 284l-183 416h57l161 -376l364 376h70l-421 -429l-72 -271h-52z" />
    <glyph glyph-name="uni1EF5" unicode="&#x1ef5;" horiz-adv-x="568" 
d="M237 -178l27 94h51l-27 -94h-51zM20 -163c-39 0 -75 12 -108 35l27 40c21 -17 60 -29 87 -29c52 0 100 29 163 120l-104 507h52l89 -456l307 456h59l-363 -528c-75 -107 -136 -145 -209 -145z" />
    <glyph glyph-name="uni1EF6" unicode="&#x1ef6;" horiz-adv-x="668" 
d="M429 764l23 73c41 3 74 22 83 45c7 19 -2 35 -30 35c-21 0 -48 -15 -71 -34c-8 4 -6 4 -14 12c-4 3 -12 7 -16 12c36 36 80 52 117 52c53 0 76 -33 60 -77c-16 -43 -58 -67 -102 -78c-4 -13 -8 -25 -15 -40h-35zM234 0l76 284l-183 416h57l161 -376l364 376h70l-421 -429
l-72 -271h-52z" />
    <glyph glyph-name="uni1EF7" unicode="&#x1ef7;" horiz-adv-x="568" 
d="M318 594l23 73c41 3 74 22 83 45c7 19 -2 35 -30 35c-21 0 -48 -15 -71 -34c-8 4 -6 4 -14 12c-4 3 -12 7 -16 12c36 36 80 52 117 52c53 0 76 -33 60 -77c-16 -43 -58 -67 -102 -78c-4 -13 -8 -25 -15 -40h-35zM20 -163c-39 0 -75 12 -108 35l27 40
c21 -17 60 -29 87 -29c52 0 100 29 163 120l-104 507h52l89 -456l307 456h59l-363 -528c-75 -107 -136 -145 -209 -145z" />
    <glyph glyph-name="uni1EA4" unicode="&#x1ea4;" horiz-adv-x="759" 
d="M636 860l124 133l62 -30l-135 -103h-51zM401 765l133 122h40l67 -122h-44l-52 68l-96 -68h-48zM200 243h369l-75 405zM-34 0l515 705h50l137 -705h-53l-36 196h-413l-142 -196h-58z" />
    <glyph glyph-name="uni1EA5" unicode="&#x1ea5;" horiz-adv-x="571" 
d="M492 691l124 133l62 -30l-135 -103h-51zM257 595l133 122h40l67 -122h-44l-52 68l-96 -68h-48zM199 33c96 0 199 67 228 170l12 45c-52 13 -117 24 -193 24c-101 0 -171 -56 -171 -135c0 -64 48 -104 124 -104zM190 -12c-85 0 -167 48 -167 143c0 113 96 185 230 185
c73 0 145 -14 196 -29l4 14c4 15 7 36 7 51c0 77 -54 120 -154 120c-56 0 -99 -10 -148 -27l-9 44c51 19 97 29 161 29c125 0 198 -60 198 -159c0 -19 -3 -44 -10 -67l-78 -292h-48l23 88c-49 -59 -116 -100 -205 -100z" />
    <glyph glyph-name="uni1EA6" unicode="&#x1ea6;" horiz-adv-x="759" 
d="M656 860l-79 103l62 30l52 -133h-35zM401 765l133 122h40l67 -122h-44l-52 68l-96 -68h-48zM200 243h369l-75 405zM-34 0l515 705h50l137 -705h-53l-36 196h-413l-142 -196h-58z" />
    <glyph glyph-name="uni1EA7" unicode="&#x1ea7;" horiz-adv-x="571" 
d="M512 690l-79 103l62 30l52 -133h-35zM257 595l133 122h40l67 -122h-44l-52 68l-96 -68h-48zM199 33c96 0 199 67 228 170l12 45c-52 13 -117 24 -193 24c-101 0 -171 -56 -171 -135c0 -64 48 -104 124 -104zM190 -12c-85 0 -167 48 -167 143c0 113 96 185 230 185
c73 0 145 -14 196 -29l4 14c4 15 7 36 7 51c0 77 -54 120 -154 120c-56 0 -99 -10 -148 -27l-9 44c51 19 97 29 161 29c125 0 198 -60 198 -159c0 -19 -3 -44 -10 -67l-78 -292h-48l23 88c-49 -59 -116 -100 -205 -100z" />
    <glyph glyph-name="uni1EAA" unicode="&#x1eaa;" horiz-adv-x="759" 
d="M462 921l-33 12c29 52 56 78 93 78c25 0 38 -12 61 -29c19 -17 26 -24 41 -24c21 0 34 17 55 49l33 -12c-29 -52 -56 -78 -93 -78c-28 0 -37 12 -57 29c-21 17 -30 26 -45 26c-21 0 -34 -18 -55 -51zM401 765l133 122h40l67 -122h-44l-52 68l-96 -68h-48zM200 243h369
l-75 405zM-34 0l515 705h50l137 -705h-53l-36 196h-413l-142 -196h-58z" />
    <glyph glyph-name="uni1EAB" unicode="&#x1eab;" horiz-adv-x="571" 
d="M257 595l133 122h40l67 -122h-44l-52 68l-96 -68h-48zM199 33c96 0 199 67 228 170l12 45c-52 13 -117 24 -193 24c-101 0 -171 -56 -171 -135c0 -64 48 -104 124 -104zM190 -12c-85 0 -167 48 -167 143c0 113 96 185 230 185c73 0 145 -14 196 -29l4 14c4 15 7 36 7 51
c0 77 -54 120 -154 120c-56 0 -99 -10 -148 -27l-9 44c51 19 97 29 161 29c125 0 198 -60 198 -159c0 -19 -3 -44 -10 -67l-78 -292h-48l23 88c-49 -59 -116 -100 -205 -100zM318 750l-33 12c29 52 56 78 93 78c25 0 38 -12 61 -29c19 -17 26 -24 41 -24c21 0 34 17 55 49
l33 -12c-29 -52 -56 -78 -93 -78c-28 0 -37 12 -57 29c-21 17 -30 26 -45 26c-21 0 -34 -18 -55 -51z" />
    <glyph glyph-name="uni1EAC" unicode="&#x1eac;" horiz-adv-x="759" 
d="M252 -178l27 94h51l-27 -94h-51zM401 765l133 122h40l67 -122h-44l-52 68l-96 -68h-48zM200 243h369l-75 405zM-34 0l515 705h50l137 -705h-53l-36 196h-413l-142 -196h-58z" />
    <glyph glyph-name="uni1EAD" unicode="&#x1ead;" horiz-adv-x="571" 
d="M146 -178l27 94h51l-27 -94h-51zM257 595l133 122h40l67 -122h-44l-52 68l-96 -68h-48zM199 33c96 0 199 67 228 170l12 45c-52 13 -117 24 -193 24c-101 0 -171 -56 -171 -135c0 -64 48 -104 124 -104zM190 -12c-85 0 -167 48 -167 143c0 113 96 185 230 185
c73 0 145 -14 196 -29l4 14c4 15 7 36 7 51c0 77 -54 120 -154 120c-56 0 -99 -10 -148 -27l-9 44c51 19 97 29 161 29c125 0 198 -60 198 -159c0 -19 -3 -44 -10 -67l-78 -292h-48l23 88c-49 -59 -116 -100 -205 -100z" />
    <glyph glyph-name="uni1EAE" unicode="&#x1eae;" horiz-adv-x="759" 
d="M503 885l124 133l62 -30l-135 -103h-51zM518 773c-75 0 -118 41 -105 112h39c-8 -37 18 -66 70 -66s97 29 118 66h39c-24 -71 -86 -112 -161 -112zM200 243h369l-75 405zM-34 0l515 705h50l137 -705h-53l-36 196h-413l-142 -196h-58z" />
    <glyph glyph-name="uni1EAF" unicode="&#x1eaf;" horiz-adv-x="573" 
d="M374 705l124 133l62 -30l-135 -103h-51zM389 593c-75 0 -118 41 -105 112h39c-8 -37 18 -66 70 -66s97 29 118 66h39c-24 -71 -86 -112 -161 -112zM199 33c96 0 199 67 228 170l12 45c-52 13 -117 24 -193 24c-101 0 -171 -56 -171 -135c0 -64 48 -104 124 -104zM190 -12
c-85 0 -167 48 -167 143c0 113 96 185 230 185c73 0 145 -14 196 -29l4 14c4 15 7 36 7 51c0 77 -54 120 -154 120c-56 0 -99 -10 -148 -27l-9 44c51 19 97 29 161 29c125 0 198 -60 198 -159c0 -19 -3 -44 -10 -67l-78 -292h-48l23 88c-49 -59 -116 -100 -205 -100z" />
    <glyph glyph-name="uni1EB0" unicode="&#x1eb0;" horiz-adv-x="759" 
d="M538 885l-79 103l62 30l52 -133h-35zM518 773c-75 0 -118 41 -105 112h39c-8 -37 18 -66 70 -66s97 29 118 66h39c-24 -71 -86 -112 -161 -112zM200 243h369l-75 405zM-34 0l515 705h50l137 -705h-53l-36 196h-413l-142 -196h-58z" />
    <glyph glyph-name="uni1EB1" unicode="&#x1eb1;" horiz-adv-x="573" 
d="M409 705l-79 103l62 30l52 -133h-35zM389 593c-75 0 -118 41 -105 112h39c-8 -37 18 -66 70 -66s97 29 118 66h39c-24 -71 -86 -112 -161 -112zM199 33c96 0 199 67 228 170l12 45c-52 13 -117 24 -193 24c-101 0 -171 -56 -171 -135c0 -64 48 -104 124 -104zM190 -12
c-85 0 -167 48 -167 143c0 113 96 185 230 185c73 0 145 -14 196 -29l4 14c4 15 7 36 7 51c0 77 -54 120 -154 120c-56 0 -99 -10 -148 -27l-9 44c51 19 97 29 161 29c125 0 198 -60 198 -159c0 -19 -3 -44 -10 -67l-78 -292h-48l23 88c-49 -59 -116 -100 -205 -100z" />
    <glyph glyph-name="uni1EB4" unicode="&#x1eb4;" horiz-adv-x="759" 
d="M448 925l-34 13c29 59 55 87 94 87c25 0 38 -13 61 -33c20 -19 27 -27 43 -27c20 0 33 19 54 55l34 -13c-29 -59 -55 -87 -94 -87c-28 0 -37 12 -58 32c-20 19 -30 30 -46 30c-20 0 -33 -21 -54 -57zM518 773c-75 0 -118 41 -105 112h39c-8 -37 18 -66 70 -66
s97 29 118 66h39c-24 -71 -86 -112 -161 -112zM200 243h369l-75 405zM-34 0l515 705h50l137 -705h-53l-36 196h-413l-142 -196h-58z" />
    <glyph glyph-name="uni1EB5" unicode="&#x1eb5;" horiz-adv-x="573" 
d="M319 745l-34 13c29 59 55 87 94 87c25 0 38 -13 61 -33c20 -19 27 -27 43 -27c20 0 33 19 54 55l34 -13c-29 -59 -55 -87 -94 -87c-28 0 -37 12 -58 32c-20 19 -30 30 -46 30c-20 0 -33 -21 -54 -57zM389 593c-75 0 -118 41 -105 112h39c-8 -37 18 -66 70 -66
s97 29 118 66h39c-24 -71 -86 -112 -161 -112zM199 33c96 0 199 67 228 170l12 45c-52 13 -117 24 -193 24c-101 0 -171 -56 -171 -135c0 -64 48 -104 124 -104zM190 -12c-85 0 -167 48 -167 143c0 113 96 185 230 185c73 0 145 -14 196 -29l4 14c4 15 7 36 7 51
c0 77 -54 120 -154 120c-56 0 -99 -10 -148 -27l-9 44c51 19 97 29 161 29c125 0 198 -60 198 -159c0 -19 -3 -44 -10 -67l-78 -292h-48l23 88c-49 -59 -116 -100 -205 -100z" />
    <glyph glyph-name="uni1EB6" unicode="&#x1eb6;" horiz-adv-x="759" 
d="M252 -178l27 94h51l-27 -94h-51zM518 773c-75 0 -118 41 -105 112h39c-8 -37 18 -66 70 -66s97 29 118 66h39c-24 -71 -86 -112 -161 -112zM200 243h369l-75 405zM-34 0l515 705h50l137 -705h-53l-36 196h-413l-142 -196h-58z" />
    <glyph glyph-name="uni1EB7" unicode="&#x1eb7;" horiz-adv-x="573" 
d="M146 -178l27 94h51l-27 -94h-51zM389 593c-75 0 -118 41 -105 112h39c-8 -37 18 -66 70 -66s97 29 118 66h39c-24 -71 -86 -112 -161 -112zM199 33c96 0 199 67 228 170l12 45c-52 13 -117 24 -193 24c-101 0 -171 -56 -171 -135c0 -64 48 -104 124 -104zM190 -12
c-85 0 -167 48 -167 143c0 113 96 185 230 185c73 0 145 -14 196 -29l4 14c4 15 7 36 7 51c0 77 -54 120 -154 120c-56 0 -99 -10 -148 -27l-9 44c51 19 97 29 161 29c125 0 198 -60 198 -159c0 -19 -3 -44 -10 -67l-78 -292h-48l23 88c-49 -59 -116 -100 -205 -100z" />
    <glyph glyph-name="uni1EBC" unicode="&#x1ebc;" horiz-adv-x="649" 
d="M374 763l-34 13c29 59 55 87 94 87c25 0 38 -13 61 -33c20 -19 27 -27 43 -27c20 0 33 19 54 55l34 -13c-29 -59 -55 -87 -94 -87c-28 0 -37 12 -58 32c-20 19 -30 30 -46 30c-20 0 -33 -21 -54 -57zM36 0l188 700h493l-13 -48h-441l-74 -275h396l-13 -48h-396l-75 -281
h446l-13 -48h-498z" />
    <glyph glyph-name="uni1EBD" unicode="&#x1ebd;" horiz-adv-x="583" 
d="M301 600l-34 13c29 59 55 87 94 87c25 0 38 -13 61 -33c20 -19 27 -27 43 -27c20 0 33 19 54 55l34 -13c-29 -59 -55 -87 -94 -87c-28 0 -37 12 -58 32c-20 19 -30 30 -46 30c-20 0 -33 -21 -54 -57zM114 282h370c3 9 4 23 4 42c0 82 -45 153 -144 153
c-115 0 -200 -90 -230 -195zM524 238h-419c-1 -11 -2 -23 -2 -34c0 -103 69 -170 169 -170c77 0 125 28 174 68l29 -35c-53 -44 -111 -79 -203 -79c-130 0 -222 88 -222 214c0 160 129 320 295 320c128 0 193 -90 193 -195c0 -33 -5 -62 -14 -89z" />
    <glyph glyph-name="uni1EBE" unicode="&#x1ebe;" horiz-adv-x="649" 
d="M590 860l124 133l62 -30l-135 -103h-51zM355 765l133 122h40l67 -122h-44l-52 68l-96 -68h-48zM36 0l188 700h493l-13 -48h-441l-74 -275h396l-13 -48h-396l-75 -281h446l-13 -48h-498z" />
    <glyph glyph-name="uni1EBF" unicode="&#x1ebf;" horiz-adv-x="583" 
d="M479 691l124 133l62 -30l-135 -103h-51zM244 595l133 122h40l67 -122h-44l-52 68l-96 -68h-48zM114 282h370c3 9 4 23 4 42c0 82 -45 153 -144 153c-115 0 -200 -90 -230 -195zM524 238h-419c-1 -11 -2 -23 -2 -34c0 -103 69 -170 169 -170c77 0 125 28 174 68l29 -35
c-53 -44 -111 -79 -203 -79c-130 0 -222 88 -222 214c0 160 129 320 295 320c128 0 193 -90 193 -195c0 -33 -5 -62 -14 -89z" />
    <glyph glyph-name="uni1EC0" unicode="&#x1ec0;" horiz-adv-x="649" 
d="M610 860l-79 103l62 30l52 -133h-35zM355 765l133 122h40l67 -122h-44l-52 68l-96 -68h-48zM36 0l188 700h493l-13 -48h-441l-74 -275h396l-13 -48h-396l-75 -281h446l-13 -48h-498z" />
    <glyph glyph-name="uni1EC1" unicode="&#x1ec1;" horiz-adv-x="583" 
d="M499 690l-79 103l62 30l52 -133h-35zM244 595l133 122h40l67 -122h-44l-52 68l-96 -68h-48zM114 282h370c3 9 4 23 4 42c0 82 -45 153 -144 153c-115 0 -200 -90 -230 -195zM524 238h-419c-1 -11 -2 -23 -2 -34c0 -103 69 -170 169 -170c77 0 125 28 174 68l29 -35
c-53 -44 -111 -79 -203 -79c-130 0 -222 88 -222 214c0 160 129 320 295 320c128 0 193 -90 193 -195c0 -33 -5 -62 -14 -89z" />
    <glyph glyph-name="uni1EC4" unicode="&#x1ec4;" horiz-adv-x="649" 
d="M355 765l133 122h40l67 -122h-44l-52 68l-96 -68h-48zM36 0l188 700h493l-13 -48h-441l-74 -275h396l-13 -48h-396l-75 -281h446l-13 -48h-498zM416 921l-33 12c29 52 56 78 93 78c25 0 38 -12 61 -29c19 -17 26 -24 41 -24c21 0 34 17 55 49l33 -12
c-29 -52 -56 -78 -93 -78c-28 0 -37 12 -57 29c-21 17 -30 26 -45 26c-21 0 -34 -18 -55 -51z" />
    <glyph glyph-name="uni1EC5" unicode="&#x1ec5;" horiz-adv-x="583" 
d="M244 595l133 122h40l67 -122h-44l-52 68l-96 -68h-48zM114 282h370c3 9 4 23 4 42c0 82 -45 153 -144 153c-115 0 -200 -90 -230 -195zM524 238h-419c-1 -11 -2 -23 -2 -34c0 -103 69 -170 169 -170c77 0 125 28 174 68l29 -35c-53 -44 -111 -79 -203 -79
c-130 0 -222 88 -222 214c0 160 129 320 295 320c128 0 193 -90 193 -195c0 -33 -5 -62 -14 -89zM305 749l-33 12c29 52 56 78 93 78c25 0 38 -12 61 -29c19 -17 26 -24 41 -24c21 0 34 17 55 49l33 -12c-29 -52 -56 -78 -93 -78c-28 0 -37 12 -57 29c-21 17 -30 26 -45 26
c-21 0 -34 -18 -55 -51z" />
    <glyph glyph-name="uni1EC6" unicode="&#x1ec6;" horiz-adv-x="649" 
d="M211 -178l27 94h51l-27 -94h-51zM355 765l133 122h40l67 -122h-44l-52 68l-96 -68h-48zM36 0l188 700h493l-13 -48h-441l-74 -275h396l-13 -48h-396l-75 -281h446l-13 -48h-498z" />
    <glyph glyph-name="uni1EC7" unicode="&#x1ec7;" horiz-adv-x="583" 
d="M192 -178l27 94h51l-27 -94h-51zM244 595l133 122h40l67 -122h-44l-52 68l-96 -68h-48zM114 282h370c3 9 4 23 4 42c0 82 -45 153 -144 153c-115 0 -200 -90 -230 -195zM524 238h-419c-1 -11 -2 -23 -2 -34c0 -103 69 -170 169 -170c77 0 125 28 174 68l29 -35
c-53 -44 -111 -79 -203 -79c-130 0 -222 88 -222 214c0 160 129 320 295 320c128 0 193 -90 193 -195c0 -33 -5 -62 -14 -89z" />
    <glyph glyph-name="uni1ED0" unicode="&#x1ed0;" 
d="M655 860l124 133l62 -30l-135 -103h-51zM420 765l133 122h40l67 -122h-44l-52 68l-96 -68h-48zM398 34c196 0 349 185 349 377c0 143 -100 254 -248 254c-196 0 -349 -185 -349 -377c0 -143 100 -254 248 -254zM398 -13c-176 0 -302 133 -302 301c0 219 180 424 403 424
c176 0 302 -133 302 -301c0 -219 -180 -424 -403 -424z" />
    <glyph glyph-name="uni1ED1" unicode="&#x1ed1;" horiz-adv-x="633" 
d="M513 691l124 133l62 -30l-135 -103h-51zM278 595l133 122h40l67 -122h-44l-52 68l-96 -68h-48zM283 34c124 0 245 120 245 260c0 116 -72 182 -179 182c-129 0 -245 -124 -245 -260c0 -116 72 -182 179 -182zM278 -12c-135 0 -227 95 -227 226c0 161 140 308 303 308
c135 0 227 -95 227 -226c0 -165 -145 -308 -303 -308z" />
    <glyph glyph-name="uni1ED2" unicode="&#x1ed2;" 
d="M675 860l-79 103l62 30l52 -133h-35zM420 765l133 122h40l67 -122h-44l-52 68l-96 -68h-48zM398 34c196 0 349 185 349 377c0 143 -100 254 -248 254c-196 0 -349 -185 -349 -377c0 -143 100 -254 248 -254zM398 -13c-176 0 -302 133 -302 301c0 219 180 424 403 424
c176 0 302 -133 302 -301c0 -219 -180 -424 -403 -424z" />
    <glyph glyph-name="uni1ED3" unicode="&#x1ed3;" horiz-adv-x="633" 
d="M533 690l-79 103l62 30l52 -133h-35zM278 595l133 122h40l67 -122h-44l-52 68l-96 -68h-48zM283 34c124 0 245 120 245 260c0 116 -72 182 -179 182c-129 0 -245 -124 -245 -260c0 -116 72 -182 179 -182zM278 -12c-135 0 -227 95 -227 226c0 161 140 308 303 308
c135 0 227 -95 227 -226c0 -165 -145 -308 -303 -308z" />
    <glyph glyph-name="uni1ED6" unicode="&#x1ed6;" 
d="M420 765l133 122h40l67 -122h-44l-52 68l-96 -68h-48zM398 34c196 0 349 185 349 377c0 143 -100 254 -248 254c-196 0 -349 -185 -349 -377c0 -143 100 -254 248 -254zM398 -13c-176 0 -302 133 -302 301c0 219 180 424 403 424c176 0 302 -133 302 -301
c0 -219 -180 -424 -403 -424zM481 921l-33 12c29 52 56 78 93 78c25 0 38 -12 61 -29c19 -17 26 -24 41 -24c21 0 34 17 55 49l33 -12c-29 -52 -56 -78 -93 -78c-28 0 -37 12 -57 29c-21 17 -30 26 -45 26c-21 0 -34 -18 -55 -51z" />
    <glyph glyph-name="uni1ED7" unicode="&#x1ed7;" horiz-adv-x="633" 
d="M278 595l133 122h40l67 -122h-44l-52 68l-96 -68h-48zM283 34c124 0 245 120 245 260c0 116 -72 182 -179 182c-129 0 -245 -124 -245 -260c0 -116 72 -182 179 -182zM278 -12c-135 0 -227 95 -227 226c0 161 140 308 303 308c135 0 227 -95 227 -226
c0 -165 -145 -308 -303 -308zM339 750l-33 12c29 52 56 78 93 78c25 0 38 -12 61 -29c19 -17 26 -24 41 -24c21 0 34 17 55 49l33 -12c-29 -52 -56 -78 -93 -78c-28 0 -37 12 -57 29c-21 17 -30 26 -45 26c-21 0 -34 -18 -55 -51z" />
    <glyph glyph-name="uni1ED8" unicode="&#x1ed8;" 
d="M302 -178l27 94h51l-27 -94h-51zM420 765l133 122h40l67 -122h-44l-52 68l-96 -68h-48zM398 34c196 0 349 185 349 377c0 143 -100 254 -248 254c-196 0 -349 -185 -349 -377c0 -143 100 -254 248 -254zM398 -13c-176 0 -302 133 -302 301c0 219 180 424 403 424
c176 0 302 -133 302 -301c0 -219 -180 -424 -403 -424z" />
    <glyph glyph-name="uni1ED9" unicode="&#x1ed9;" horiz-adv-x="633" 
d="M186 -178l27 94h51l-27 -94h-51zM278 595l133 122h40l67 -122h-44l-52 68l-96 -68h-48zM283 34c124 0 245 120 245 260c0 116 -72 182 -179 182c-129 0 -245 -124 -245 -260c0 -116 72 -182 179 -182zM278 -12c-135 0 -227 95 -227 226c0 161 140 308 303 308
c135 0 227 -95 227 -226c0 -165 -145 -308 -303 -308z" />
    <glyph glyph-name="uni1EDA" unicode="&#x1eda;" 
d="M469 765l124 133l62 -30l-135 -103h-51zM398 -13c-176 0 -302 133 -302 301c0 219 180 424 403 424c44 0 84 -8 121 -24c11 -4 21 -9 30 -15l1 2c60 3 89 14 100 53c7 23 6 31 2 74h54c4 -31 1 -61 -4 -78c-9 -33 -27 -57 -54 -72c-12 -7 -27 -13 -44 -17
c4 -3 8 -7 11 -11c53 -53 85 -129 85 -213c0 -219 -180 -424 -403 -424zM398 34c196 0 349 185 349 377c0 143 -100 254 -248 254c-196 0 -349 -185 -349 -377c0 -143 100 -254 248 -254z" />
    <glyph glyph-name="uni1EDB" unicode="&#x1edb;" horiz-adv-x="633" 
d="M333 595l124 133l62 -30l-135 -103h-51zM278 -12c-135 0 -227 95 -227 226c0 161 140 308 303 308c34 0 65 -6 92 -17c9 -4 17 -8 25 -12l1 1c60 3 89 14 100 53c7 23 6 31 2 74h54c4 -31 1 -61 -4 -78c-9 -33 -27 -57 -54 -72c-13 -8 -29 -14 -47 -18
c17 -19 31 -42 41 -67c11 -27 17 -57 17 -90c0 -165 -145 -308 -303 -308zM283 34c124 0 245 120 245 260c0 116 -72 182 -179 182c-129 0 -245 -124 -245 -260c0 -116 72 -182 179 -182z" />
    <glyph glyph-name="uni1EDC" unicode="&#x1edc;" 
d="M546 765l-79 103l62 30l52 -133h-35zM398 -13c-176 0 -302 133 -302 301c0 219 180 424 403 424c44 0 84 -8 121 -24c11 -4 21 -9 30 -15l1 2c60 3 89 14 100 53c7 23 6 31 2 74h54c4 -31 1 -61 -4 -78c-9 -33 -27 -57 -54 -72c-12 -7 -27 -13 -44 -17c4 -3 8 -7 11 -11
c53 -53 85 -129 85 -213c0 -219 -180 -424 -403 -424zM398 34c196 0 349 185 349 377c0 143 -100 254 -248 254c-196 0 -349 -185 -349 -377c0 -143 100 -254 248 -254z" />
    <glyph glyph-name="uni1EDD" unicode="&#x1edd;" horiz-adv-x="633" 
d="M378 595l-79 103l62 30l52 -133h-35zM278 -12c-135 0 -227 95 -227 226c0 161 140 308 303 308c34 0 65 -6 92 -17c9 -4 17 -8 25 -12l1 1c60 3 89 14 100 53c7 23 6 31 2 74h54c4 -31 1 -61 -4 -78c-9 -33 -27 -57 -54 -72c-13 -8 -29 -14 -47 -18c17 -19 31 -42 41 -67
c11 -27 17 -57 17 -90c0 -165 -145 -308 -303 -308zM283 34c124 0 245 120 245 260c0 116 -72 182 -179 182c-129 0 -245 -124 -245 -260c0 -116 72 -182 179 -182z" />
    <glyph glyph-name="uni1EE0" unicode="&#x1ee0;" 
d="M441 763l-34 13c29 59 55 87 94 87c25 0 38 -13 61 -33c20 -19 27 -27 43 -27c20 0 33 19 54 55l34 -13c-29 -59 -55 -87 -94 -87c-28 0 -37 12 -58 32c-20 19 -30 30 -46 30c-20 0 -33 -21 -54 -57zM398 -13c-176 0 -302 133 -302 301c0 219 180 424 403 424
c44 0 84 -8 121 -24c11 -4 21 -9 30 -15l1 2c60 3 89 14 100 53c7 23 6 31 2 74h54c4 -31 1 -61 -4 -78c-9 -33 -27 -57 -54 -72c-12 -7 -27 -13 -44 -17c4 -3 8 -7 11 -11c53 -53 85 -129 85 -213c0 -219 -180 -424 -403 -424zM398 34c196 0 349 185 349 377
c0 143 -100 254 -248 254c-196 0 -349 -185 -349 -377c0 -143 100 -254 248 -254z" />
    <glyph glyph-name="uni1EE1" unicode="&#x1ee1;" horiz-adv-x="633" 
d="M292 600l-34 13c29 59 55 87 94 87c25 0 38 -13 61 -33c20 -19 27 -27 43 -27c20 0 33 19 54 55l34 -13c-29 -59 -55 -87 -94 -87c-28 0 -37 12 -58 32c-20 19 -30 30 -46 30c-20 0 -33 -21 -54 -57zM278 -12c-135 0 -227 95 -227 226c0 161 140 308 303 308
c34 0 65 -6 92 -17c9 -4 17 -8 25 -12l1 1c60 3 89 14 100 53c7 23 6 31 2 74h54c4 -31 1 -61 -4 -78c-9 -33 -27 -57 -54 -72c-13 -8 -29 -14 -47 -18c17 -19 31 -42 41 -67c11 -27 17 -57 17 -90c0 -165 -145 -308 -303 -308zM283 34c124 0 245 120 245 260
c0 116 -72 182 -179 182c-129 0 -245 -124 -245 -260c0 -116 72 -182 179 -182z" />
    <glyph glyph-name="uni1EE8" unicode="&#x1ee8;" horiz-adv-x="787" 
d="M439 765l124 133l62 -30l-135 -103h-51zM348 -11c-169 0 -252 96 -252 220c0 39 5 73 14 108l102 383h52l-108 -407c-5 -20 -9 -49 -9 -80c0 -100 65 -177 205 -177c63 0 123 24 171 72c39 39 75 101 98 186l109 406h47c11 2 21 5 28 9c16 7 27 21 32 40c7 23 6 31 2 74
h54c4 -31 1 -61 -4 -78c-9 -33 -27 -57 -54 -72c-17 -10 -39 -17 -66 -21l-99 -369c-24 -89 -62 -157 -111 -206c-57 -57 -130 -88 -211 -88z" />
    <glyph glyph-name="uni1EE9" unicode="&#x1ee9;" horiz-adv-x="618" 
d="M330 595l124 133l62 -30l-135 -103h-51zM231 -12c-101 0 -167 63 -167 162c0 23 4 48 11 72l76 288h49l-78 -292c-5 -19 -8 -44 -8 -63c0 -76 50 -123 131 -123c87 0 184 79 213 190l77 288h40c14 2 25 5 34 10c16 7 27 21 32 40c7 23 6 31 2 74h54c4 -31 1 -61 -4 -78
c-9 -33 -27 -57 -54 -72c-18 -11 -41 -18 -68 -22l-123 -462h-49l25 95c-50 -61 -107 -107 -193 -107z" />
    <glyph glyph-name="uni1EEA" unicode="&#x1eea;" horiz-adv-x="787" 
d="M506 765l-79 103l62 30l52 -133h-35zM348 -11c-169 0 -252 96 -252 220c0 39 5 73 14 108l102 383h52l-108 -407c-5 -20 -9 -49 -9 -80c0 -100 65 -177 205 -177c63 0 123 24 171 72c39 39 75 101 98 186l109 406h47c11 2 21 5 28 9c16 7 27 21 32 40c7 23 6 31 2 74h54
c4 -31 1 -61 -4 -78c-9 -33 -27 -57 -54 -72c-17 -10 -39 -17 -66 -21l-99 -369c-24 -89 -62 -157 -111 -206c-57 -57 -130 -88 -211 -88z" />
    <glyph glyph-name="uni1EEB" unicode="&#x1eeb;" horiz-adv-x="618" 
d="M370 595l-79 103l62 30l52 -133h-35zM231 -12c-101 0 -167 63 -167 162c0 23 4 48 11 72l76 288h49l-78 -292c-5 -19 -8 -44 -8 -63c0 -76 50 -123 131 -123c87 0 184 79 213 190l77 288h40c14 2 25 5 34 10c16 7 27 21 32 40c7 23 6 31 2 74h54c4 -31 1 -61 -4 -78
c-9 -33 -27 -57 -54 -72c-18 -11 -41 -18 -68 -22l-123 -462h-49l25 95c-50 -61 -107 -107 -193 -107z" />
    <glyph glyph-name="uni1EEE" unicode="&#x1eee;" horiz-adv-x="787" 
d="M406 763l-34 13c29 59 55 87 94 87c25 0 38 -13 61 -33c20 -19 27 -27 43 -27c20 0 33 19 54 55l34 -13c-29 -59 -55 -87 -94 -87c-28 0 -37 12 -58 32c-20 19 -30 30 -46 30c-20 0 -33 -21 -54 -57zM348 -11c-169 0 -252 96 -252 220c0 39 5 73 14 108l102 383h52
l-108 -407c-5 -20 -9 -49 -9 -80c0 -100 65 -177 205 -177c63 0 123 24 171 72c39 39 75 101 98 186l109 406h47c11 2 21 5 28 9c16 7 27 21 32 40c7 23 6 31 2 74h54c4 -31 1 -61 -4 -78c-9 -33 -27 -57 -54 -72c-17 -10 -39 -17 -66 -21l-99 -369
c-24 -89 -62 -157 -111 -206c-57 -57 -130 -88 -211 -88z" />
    <glyph glyph-name="uni1EEF" unicode="&#x1eef;" horiz-adv-x="618" 
d="M284 600l-34 13c29 59 55 87 94 87c25 0 38 -13 61 -33c20 -19 27 -27 43 -27c20 0 33 19 54 55l34 -13c-29 -59 -55 -87 -94 -87c-28 0 -37 12 -58 32c-20 19 -30 30 -46 30c-20 0 -33 -21 -54 -57zM231 -12c-101 0 -167 63 -167 162c0 23 4 48 11 72l76 288h49
l-78 -292c-5 -19 -8 -44 -8 -63c0 -76 50 -123 131 -123c87 0 184 79 213 190l77 288h40c14 2 25 5 34 10c16 7 27 21 32 40c7 23 6 31 2 74h54c4 -31 1 -61 -4 -78c-9 -33 -27 -57 -54 -72c-18 -11 -41 -18 -68 -22l-123 -462h-49l25 95c-50 -61 -107 -107 -193 -107z" />
    <glyph glyph-name="Ygrave" unicode="&#x1ef2;" horiz-adv-x="668" 
d="M442 765l-79 103l62 30l52 -133h-35zM234 0l76 284l-183 416h57l161 -376l364 376h70l-421 -429l-72 -271h-52z" />
    <glyph glyph-name="ygrave" unicode="&#x1ef3;" horiz-adv-x="568" 
d="M343 595l-79 103l62 30l52 -133h-35zM20 -163c-39 0 -75 12 -108 35l27 40c21 -17 60 -29 87 -29c52 0 100 29 163 120l-104 507h52l89 -456l307 456h59l-363 -528c-75 -107 -136 -145 -209 -145z" />
    <glyph glyph-name="uni1EF8" unicode="&#x1ef8;" horiz-adv-x="668" 
d="M358 763l-34 13c29 59 55 87 94 87c25 0 38 -13 61 -33c20 -19 27 -27 43 -27c20 0 33 19 54 55l34 -13c-29 -59 -55 -87 -94 -87c-28 0 -37 12 -58 32c-20 19 -30 30 -46 30c-20 0 -33 -21 -54 -57zM234 0l76 284l-183 416h57l161 -376l364 376h70l-421 -429l-72 -271
h-52z" />
    <glyph glyph-name="uni1EF9" unicode="&#x1ef9;" horiz-adv-x="568" 
d="M249 600l-34 13c29 59 55 87 94 87c25 0 38 -13 61 -33c20 -19 27 -27 43 -27c20 0 33 19 54 55l34 -13c-29 -59 -55 -87 -94 -87c-28 0 -37 12 -58 32c-20 19 -30 30 -46 30c-20 0 -33 -21 -54 -57zM20 -163c-39 0 -75 12 -108 35l27 40c21 -17 60 -29 87 -29
c52 0 100 29 163 120l-104 507h52l89 -456l307 456h59l-363 -528c-75 -107 -136 -145 -209 -145z" />
    </font>
</defs>
</svg>
