<?xml version="1.0" standalone="no"?>
<!DOCTYPE svg PUBLIC "-//W3C//DTD SVG 1.1//EN" "http://www.w3.org/Graphics/SVG/1.1/DTD/svg11.dtd" >
<svg xmlns="http://www.w3.org/2000/svg" xmlns:xlink="http://www.w3.org/1999/xlink" version="1.1">
<metadata>
Created by FontForge 20190801 at Sun May 22 20:20:41 2016
 By Jimmy Wärting
Copyright (C) 2000, 2007 Hoefler &#38; Frere-Jones. http://www.typography.com
</metadata>
<defs>
<font id="SVN-GothamBold" horiz-adv-x="500" >
  <font-face 
    font-family="SVN-Gotham"
    font-weight="700"
    font-stretch="normal"
    units-per-em="1000"
    panose-1="0 0 0 0 0 0 0 0 0 0"
    ascent="800"
    descent="-200"
    x-height="536"
    cap-height="700"
    bbox="-54 -297 1195 1164"
    underline-thickness="50"
    underline-position="-100"
    unicode-range="U+0020-FB04"
  />
<missing-glyph 
d="M0 -200v1000h500v-1000h-500zM71 750l179 -390l179 390h-358zM50 -76l172 376l-172 376v-752zM450 676l-172 -376l172 -376v752zM250 240l-179 -390h358z" />
    <glyph glyph-name=".notdef" 
d="M0 -200v1000h500v-1000h-500zM71 750l179 -390l179 390h-358zM50 -76l172 376l-172 376v-752zM450 676l-172 -376l172 -376v752zM250 240l-179 -390h358z" />
    <glyph glyph-name="NUL" horiz-adv-x="0" 
 />
    <glyph glyph-name="CR" horiz-adv-x="300" 
 />
    <glyph glyph-name="space" unicode=" " horiz-adv-x="300" 
 />
    <glyph glyph-name="D" unicode="D" horiz-adv-x="782" 
d="M84 0v700h273c220 0 372 -151 372 -348v-2c0 -197 -152 -350 -372 -350h-273zM238 139h119c125 0 211 85 211 209v2c0 124 -86 211 -211 211h-119v-422z" />
    <glyph glyph-name="E" unicode="E" horiz-adv-x="670" 
d="M84 0v700h528v-137h-375v-142h330v-137h-330v-147h380v-137h-533z" />
    <glyph glyph-name="F" unicode="F" horiz-adv-x="656" 
d="M84 0v700h533v-140h-379v-149h334v-140h-334v-271h-154z" />
    <glyph glyph-name="G" unicode="G" horiz-adv-x="784" 
d="M421 -12c-218 0 -368 152 -368 360v2c0 199 155 362 367 362c125 0 203 -34 275 -96l-97 -117c-53 45 -103 71 -183 71c-112 0 -201 -99 -201 -218v-2c0 -128 88 -222 212 -222c57 0 106 14 145 42v100h-155v133h304v-304c-72 -61 -171 -111 -299 -111z" />
    <glyph glyph-name="H" unicode="H" horiz-adv-x="760" 
d="M84 0v700h154v-277h284v277h154v-700h-154v281h-284v-281h-154z" />
    <glyph glyph-name="I" unicode="I" horiz-adv-x="336" 
d="M91 0v700h154v-700h-154z" />
    <glyph glyph-name="J" unicode="J" horiz-adv-x="564" 
d="M243 -10c-109 0 -181 48 -229 105l97 108c40 -44 79 -70 128 -70c59 0 94 35 94 116v451h158v-458c0 -84 -23 -144 -66 -187s-106 -65 -182 -65z" />
    <glyph glyph-name="K" unicode="K" horiz-adv-x="730" 
d="M84 0v700h154v-306l284 306h186l-285 -297l298 -403h-185l-217 298l-81 -84v-214h-154z" />
    <glyph glyph-name="L" unicode="L" horiz-adv-x="619" 
d="M84 0v700h154v-560h349v-140h-503z" />
    <glyph glyph-name="M" unicode="M" horiz-adv-x="868" 
d="M84 0v700h166l184 -296l184 296h166v-700h-153v457l-197 -299h-4l-195 296v-454h-151z" />
    <glyph glyph-name="N" unicode="N" horiz-adv-x="790" 
d="M84 0v700h142l328 -431v431h152v-700h-131l-339 445v-445h-152z" />
    <glyph glyph-name="O" unicode="O" horiz-adv-x="850" 
d="M424 -12c-216 0 -371 161 -371 360v2c0 199 157 362 373 362s371 -161 371 -360v-2c0 -199 -157 -362 -373 -362zM426 130c124 0 210 98 210 218v2c0 120 -88 220 -212 220s-210 -98 -210 -218v-2c0 -120 88 -220 212 -220z" />
    <glyph glyph-name="P" unicode="P" horiz-adv-x="668" 
d="M84 0v700h286c167 0 268 -98 268 -242v-2c0 -163 -126 -246 -283 -246h-117v-210h-154zM238 347h122c77 0 122 46 122 106v2c0 69 -48 106 -125 106h-119v-214z" />
    <glyph glyph-name="Q" unicode="Q" horiz-adv-x="850" 
d="M807 88l-98 -109l-77 69c-60 -39 -129 -60 -208 -60c-216 0 -371 161 -371 360v2c0 199 157 362 373 362s371 -161 371 -360v-2c0 -75 -23 -142 -62 -201zM426 130c35 0 66 6 92 19l-114 97l98 110l115 -104c13 29 19 61 19 96v2c0 120 -88 220 -212 220
s-210 -98 -210 -218v-2c0 -120 88 -220 212 -220z" />
    <glyph glyph-name="Q.alt" horiz-adv-x="850" 
d="M635 -101l-105 103c-34 -9 -69 -14 -106 -14c-216 0 -371 161 -371 360v2c0 199 157 362 373 362s371 -161 371 -360v-2c0 -104 -41 -196 -113 -263l182 -183v-5h-231zM426 130c124 0 210 98 210 218v2c0 120 -88 220 -212 220s-210 -98 -210 -218v-2
c0 -120 88 -220 212 -220z" />
    <glyph glyph-name="R" unicode="R" horiz-adv-x="723" 
d="M84 0v700h320c89 0 157 -24 204 -71c40 -40 60 -93 60 -160v-2c0 -113 -61 -184 -150 -217l171 -250h-180l-150 224h-121v-224h-154zM238 360h156c76 0 118 39 118 99v2c0 67 -45 100 -121 100h-153v-201z" />
    <glyph glyph-name="S" unicode="S" horiz-adv-x="640" 
d="M333 -10c-107 0 -213 36 -297 112l91 109c64 -52 129 -85 209 -85c64 0 101 25 101 66v2c0 39 -24 60 -141 89c-142 35 -232 76 -232 214v2c0 127 101 211 245 211c103 0 188 -32 260 -89l-80 -116c-63 43 -122 69 -182 69s-90 -26 -90 -61v-2c0 -47 30 -60 151 -92
c142 -38 222 -88 222 -210v-2c0 -139 -106 -217 -257 -217z" />
    <glyph glyph-name="T" unicode="T" horiz-adv-x="648" 
d="M247 0v558h-213v142h580v-142h-213v-558h-154z" />
    <glyph glyph-name="U" unicode="U" horiz-adv-x="756" 
d="M376 -11c-188 0 -303 104 -303 311v400h154v-396c0 -115 56 -173 151 -173s151 56 151 168v401h154v-395c0 -212 -119 -316 -307 -316z" />
    <glyph glyph-name="V" unicode="V" horiz-adv-x="750" 
d="M307 -5l-283 705h170l183 -493l183 493h166l-283 -705h-136z" />
    <glyph glyph-name="W" unicode="W" horiz-adv-x="1122" 
d="M269 -5l-239 705h165l145 -474l157 476h132l157 -476l145 474h161l-239 -705h-134l-158 458l-158 -458h-134z" />
    <glyph glyph-name="X" unicode="X" horiz-adv-x="732" 
d="M31 0l244 356l-234 344h180l146 -227l149 227h175l-234 -342l244 -358h-180l-157 240l-158 -240h-175z" />
    <glyph glyph-name="Y" unicode="Y" horiz-adv-x="716" 
d="M281 0v276l-269 424h180l167 -281l170 281h175l-269 -421v-279h-154z" />
    <glyph glyph-name="Z" unicode="Z" horiz-adv-x="708" 
d="M63 0v117l385 448h-373v135h571v-117l-385 -448h385v-135h-583z" />
    <glyph glyph-name="a" unicode="a" horiz-adv-x="592" 
d="M220 -10c-101 0 -184 57 -184 164v2c0 116 89 171 216 171c55 0 92 -9 131 -22v9c0 64 -39 98 -115 98c-59 0 -99 -10 -148 -29l-38 116c59 25 117 43 208 43c84 0 142 -21 181 -60c40 -40 58 -99 58 -171v-311h-147v58c-37 -41 -87 -68 -162 -68zM266 95
c72 0 119 38 119 94v27c-27 12 -60 20 -97 20c-65 0 -105 -26 -105 -74v-2c0 -41 34 -65 83 -65z" />
    <glyph glyph-name="a.alt" horiz-adv-x="675" 
d="M288 -10c-125 0 -244 98 -244 277v2c0 179 117 277 244 277c81 0 131 -37 167 -80v70h152v-536h-152v77c-37 -51 -87 -87 -167 -87zM327 119c71 0 130 59 130 148v2c0 89 -59 148 -130 148s-131 -58 -131 -148v-2c0 -89 60 -148 131 -148z" />
    <glyph glyph-name="b" unicode="b" horiz-adv-x="675" 
d="M387 -10c-81 0 -131 37 -167 80v-70h-152v730h152v-271c37 51 87 87 167 87c125 0 244 -98 244 -277v-2c0 -179 -117 -277 -244 -277zM348 119c71 0 131 58 131 148v2c0 89 -60 148 -131 148s-130 -59 -130 -148v-2c0 -89 59 -148 130 -148z" />
    <glyph glyph-name="c" unicode="c" horiz-adv-x="571" 
d="M321 -12c-161 0 -279 125 -279 277v2c0 153 117 279 281 279c101 0 163 -34 214 -90l-93 -100c-35 36 -67 59 -122 59c-76 0 -130 -66 -130 -146v-2c0 -83 53 -148 136 -148c51 0 86 22 123 57l89 -90c-52 -57 -112 -98 -219 -98z" />
    <glyph glyph-name="d" unicode="d" horiz-adv-x="675" 
d="M288 -10c-125 0 -244 98 -244 277v2c0 179 117 277 244 277c81 0 131 -37 167 -80v264h152v-730h-152v77c-37 -51 -87 -87 -167 -87zM327 119c71 0 130 59 130 148v2c0 89 -59 148 -130 148s-131 -58 -131 -148v-2c0 -89 60 -148 131 -148z" />
    <glyph glyph-name="e" unicode="e" horiz-adv-x="613" 
d="M322 -12c-161 0 -280 113 -280 277v2c0 153 109 279 265 279c179 0 261 -139 261 -291c0 -12 -1 -25 -2 -40h-373c15 -69 63 -105 131 -105c51 0 87 16 130 55l87 -77c-51 -63 -122 -100 -219 -100zM191 310h229c-9 68 -49 114 -113 114s-104 -45 -116 -114z" />
    <glyph glyph-name="f" unicode="f" horiz-adv-x="382" 
d="M94 0v406h-63v125h63v34c0 58 14 101 43 130c28 28 69 42 123 42c48 0 80 -6 108 -15v-126c-23 8 -42 13 -69 13c-37 0 -55 -19 -55 -58v-21h123v-124h-121v-406h-152z" />
    <glyph glyph-name="g" unicode="g" horiz-adv-x="675" 
d="M308 -162c-88 0 -169 20 -237 56l52 114c56 -31 109 -49 181 -49c104 0 153 50 153 146v26c-45 -55 -94 -87 -175 -87c-125 0 -238 90 -238 250v2c0 160 115 250 238 250c83 0 132 -35 173 -80v70h152v-415c0 -95 -23 -166 -68 -211c-51 -51 -127 -72 -231 -72zM326 170
c75 0 131 51 131 124v2c0 73 -56 124 -131 124c-74 0 -130 -51 -130 -124v-2c0 -75 55 -124 130 -124z" />
    <glyph glyph-name="h" unicode="h" horiz-adv-x="623" 
d="M68 0v730h152v-270c35 45 81 86 157 86c116 0 182 -75 182 -199v-347h-152v299c0 72 -33 109 -92 109s-95 -37 -95 -109v-299h-152z" />
    <glyph glyph-name="i" unicode="i" horiz-adv-x="302" 
d="M71 595v135h160v-135h-160zM75 0v536h152v-536h-152z" />
    <glyph glyph-name="j" unicode="j" horiz-adv-x="302" 
d="M71 595v135h160v-135h-160zM55 -163c-28 0 -45 2 -66 6v119c12 -2 23 -3 32 -3c32 0 54 17 54 62v515h152v-527c0 -119 -59 -172 -172 -172z" />
    <glyph glyph-name="k" unicode="k" horiz-adv-x="592" 
d="M68 0v730h152v-389l178 195h182l-204 -211l211 -325h-174l-140 219l-53 -56v-163h-152z" />
    <glyph glyph-name="l" unicode="l" horiz-adv-x="302" 
d="M75 0v730h152v-730h-152z" />
    <glyph glyph-name="m" unicode="m" horiz-adv-x="950" 
d="M68 0v536h152v-76c35 45 81 86 158 86c71 0 123 -30 151 -85c47 56 103 85 176 85c113 0 181 -68 181 -197v-349h-152v299c0 72 -32 109 -89 109s-92 -37 -92 -109v-299h-152v299c0 72 -32 109 -89 109s-92 -37 -92 -109v-299h-152z" />
    <glyph glyph-name="n" unicode="n" horiz-adv-x="623" 
d="M68 0v536h152v-76c35 45 81 86 157 86c116 0 182 -75 182 -199v-347h-152v299c0 72 -33 109 -92 109s-95 -37 -95 -109v-299h-152z" />
    <glyph glyph-name="o" unicode="o" horiz-adv-x="664" 
d="M331 -12c-165 0 -289 122 -289 277v2c0 154 124 279 291 279c165 0 289 -122 289 -277v-2c0 -154 -124 -279 -291 -279zM333 119c87 0 139 66 139 146v2c0 79 -57 148 -141 148c-87 0 -139 -66 -139 -146v-2c0 -79 57 -148 141 -148z" />
    <glyph glyph-name="p" unicode="p" horiz-adv-x="675" 
d="M68 -160v696h152v-77c37 51 87 87 167 87c125 0 244 -98 244 -277v-2c0 -179 -117 -277 -244 -277c-81 0 -131 37 -167 80v-230h-152zM348 119c71 0 131 58 131 148v2c0 89 -60 148 -131 148s-130 -59 -130 -148v-2c0 -89 59 -148 130 -148z" />
    <glyph glyph-name="q" unicode="q" horiz-adv-x="675" 
d="M455 -160v237c-37 -51 -87 -87 -167 -87c-125 0 -244 98 -244 277v2c0 179 117 277 244 277c81 0 131 -37 167 -80v70h152v-696h-152zM327 119c71 0 130 59 130 148v2c0 89 -59 148 -130 148s-131 -58 -131 -148v-2c0 -89 60 -148 131 -148z" />
    <glyph glyph-name="r" unicode="r" horiz-adv-x="418" 
d="M68 0v536h152v-108c31 73 80 122 171 118v-159h-8c-101 0 -163 -60 -163 -189v-198h-152z" />
    <glyph glyph-name="s" unicode="s" horiz-adv-x="502" 
d="M256 -10c-76 0 -158 25 -230 81l65 100c59 -43 118 -64 169 -64c44 0 64 16 64 40v2c0 33 -52 43 -111 62c-75 21 -160 57 -160 161v2c0 109 88 170 196 170c68 0 141 -23 200 -62l-58 -105c-53 31 -106 50 -145 50c-37 0 -56 -16 -56 -37v-2c0 -28 51 -46 109 -64
c75 -24 162 -61 162 -159v-2c0 -119 -89 -173 -205 -173z" />
    <glyph glyph-name="t" unicode="t" horiz-adv-x="415" 
d="M249 -9c-92 0 -156 37 -156 161v254h-64v130h64v137h152v-137h126v-130h-126v-229c0 -35 16 -52 49 -52c27 0 52 6 75 19v-122c-32 -19 -69 -31 -120 -31z" />
    <glyph glyph-name="u" unicode="u" horiz-adv-x="623" 
d="M246 -10c-116 0 -182 75 -182 199v347h152v-299c0 -72 33 -109 92 -109s95 37 95 109v299h152v-536h-152v76c-35 -45 -81 -86 -157 -86z" />
    <glyph glyph-name="v" unicode="v" horiz-adv-x="600" 
d="M231 -4l-211 540h161l120 -359l121 359h158l-211 -540h-138z" />
    <glyph glyph-name="w" unicode="w" horiz-adv-x="861" 
d="M189 -4l-165 540h154l86 -325l101 327h131l102 -328l88 326h151l-167 -540h-137l-103 329l-105 -329h-136z" />
    <glyph glyph-name="x" unicode="x" horiz-adv-x="584" 
d="M398 0l-108 167l-108 -167h-159l188 272l-181 264h163l100 -157l101 157h159l-181 -262l189 -274h-163z" />
    <glyph glyph-name="y" unicode="y" horiz-adv-x="600" 
d="M196 -163c-56 0 -96 14 -135 37l51 110c20 -12 45 -21 65 -21c27 0 40 8 53 35l-210 538h161l122 -365l117 365h158l-206 -549c-40 -109 -86 -150 -176 -150z" />
    <glyph glyph-name="z" unicode="z" horiz-adv-x="563" 
d="M50 0v107l277 306h-268v123h457v-107l-278 -306h278v-123h-466z" />
    <glyph glyph-name="Aacute" unicode="&#xc1;" horiz-adv-x="790" 
d="M24 0l300 705h142l300 -705h-161l-64 157h-296l-64 -157h-157zM300 293h186l-93 227zM324 765l111 177l131 -57l-130 -120h-112z" />
    <glyph glyph-name="aacute" unicode="&#xe1;" horiz-adv-x="592" 
d="M220 -10c-101 0 -184 57 -184 164v2c0 116 89 171 216 171c55 0 92 -9 131 -22v9c0 64 -39 98 -115 98c-59 0 -99 -10 -148 -29l-38 116c59 25 117 43 208 43c84 0 142 -21 181 -60c40 -40 58 -99 58 -171v-311h-147v58c-37 -41 -87 -68 -162 -68zM266 95
c72 0 119 38 119 94v27c-27 12 -60 20 -97 20c-65 0 -105 -26 -105 -74v-2c0 -41 34 -65 83 -65zM221 595l111 177l131 -57l-130 -120h-112z" />
    <glyph glyph-name="aacute.alt" horiz-adv-x="675" 
d="M288 -10c-125 0 -244 98 -244 277v2c0 179 117 277 244 277c81 0 131 -37 167 -80v70h152v-536h-152v77c-37 -51 -87 -87 -167 -87zM327 119c71 0 130 59 130 148v2c0 89 -59 148 -130 148s-131 -58 -131 -148v-2c0 -89 60 -148 131 -148zM285 595l111 177l131 -57
l-130 -120h-112z" />
    <glyph glyph-name="Abreve" unicode="&#x102;" horiz-adv-x="790" 
d="M24 0l300 705h142l300 -705h-161l-64 157h-296l-64 -157h-157zM300 293h186l-93 227zM396 753c-107 0 -179 58 -188 159h102c12 -36 35 -60 86 -60s74 24 86 60h102c-9 -101 -81 -159 -188 -159z" />
    <glyph glyph-name="abreve" unicode="&#x103;" horiz-adv-x="592" 
d="M220 -10c-101 0 -184 57 -184 164v2c0 116 89 171 216 171c55 0 92 -9 131 -22v9c0 64 -39 98 -115 98c-59 0 -99 -10 -148 -29l-38 116c59 25 117 43 208 43c84 0 142 -21 181 -60c40 -40 58 -99 58 -171v-311h-147v58c-37 -41 -87 -68 -162 -68zM266 95
c72 0 119 38 119 94v27c-27 12 -60 20 -97 20c-65 0 -105 -26 -105 -74v-2c0 -41 34 -65 83 -65zM310 593c-107 0 -179 58 -188 159h102c12 -36 35 -60 86 -60s74 24 86 60h102c-9 -101 -81 -159 -188 -159z" />
    <glyph glyph-name="abreve.alt" horiz-adv-x="675" 
d="M288 -10c-125 0 -244 98 -244 277v2c0 179 117 277 244 277c81 0 131 -37 167 -80v70h152v-536h-152v77c-37 -51 -87 -87 -167 -87zM327 119c71 0 130 59 130 148v2c0 89 -59 148 -130 148s-131 -58 -131 -148v-2c0 -89 60 -148 131 -148zM345 593
c-107 0 -179 58 -188 159h102c12 -36 35 -60 86 -60s74 24 86 60h102c-9 -101 -81 -159 -188 -159z" />
    <glyph glyph-name="Acircumflex" unicode="&#xc2;" horiz-adv-x="790" 
d="M24 0l300 705h142l300 -705h-161l-64 157h-296l-64 -157h-157zM300 293h186l-93 227zM200 760l123 157h144l123 -157h-117l-79 66l-79 -66h-115z" />
    <glyph glyph-name="acircumflex" unicode="&#xe2;" horiz-adv-x="592" 
d="M220 -10c-101 0 -184 57 -184 164v2c0 116 89 171 216 171c55 0 92 -9 131 -22v9c0 64 -39 98 -115 98c-59 0 -99 -10 -148 -29l-38 116c59 25 117 43 208 43c84 0 142 -21 181 -60c40 -40 58 -99 58 -171v-311h-147v58c-37 -41 -87 -68 -162 -68zM266 95
c72 0 119 38 119 94v27c-27 12 -60 20 -97 20c-65 0 -105 -26 -105 -74v-2c0 -41 34 -65 83 -65zM113 595l123 157h144l123 -157h-117l-79 66l-79 -66h-115z" />
    <glyph glyph-name="acircumflex.alt" horiz-adv-x="675" 
d="M288 -10c-125 0 -244 98 -244 277v2c0 179 117 277 244 277c81 0 131 -37 167 -80v70h152v-536h-152v77c-37 -51 -87 -87 -167 -87zM327 119c71 0 130 59 130 148v2c0 89 -59 148 -130 148s-131 -58 -131 -148v-2c0 -89 60 -148 131 -148zM150 595l123 157h144l123 -157
h-117l-79 66l-79 -66h-115z" />
    <glyph glyph-name="Adieresis" unicode="&#xc4;" horiz-adv-x="790" 
d="M24 0l300 705h142l300 -705h-161l-64 157h-296l-64 -157h-157zM300 293h186l-93 227zM431 765v127h146v-127h-146zM213 765v127h146v-127h-146z" />
    <glyph glyph-name="adieresis" unicode="&#xe4;" horiz-adv-x="592" 
d="M220 -10c-101 0 -184 57 -184 164v2c0 116 89 171 216 171c55 0 92 -9 131 -22v9c0 64 -39 98 -115 98c-59 0 -99 -10 -148 -29l-38 116c59 25 117 43 208 43c84 0 142 -21 181 -60c40 -40 58 -99 58 -171v-311h-147v58c-37 -41 -87 -68 -162 -68zM266 95
c72 0 119 38 119 94v27c-27 12 -60 20 -97 20c-65 0 -105 -26 -105 -74v-2c0 -41 34 -65 83 -65zM329 595v135h146v-135h-146zM121 595v135h146v-135h-146z" />
    <glyph glyph-name="adieresis.alt" horiz-adv-x="675" 
d="M288 -10c-125 0 -244 98 -244 277v2c0 179 117 277 244 277c81 0 131 -37 167 -80v70h152v-536h-152v77c-37 -51 -87 -87 -167 -87zM327 119c71 0 130 59 130 148v2c0 89 -59 148 -130 148s-131 -58 -131 -148v-2c0 -89 60 -148 131 -148zM376 595v135h146v-135h-146z
M168 595v135h146v-135h-146z" />
    <glyph glyph-name="AE" unicode="&#xc6;" horiz-adv-x="1045" 
d="M9 0l377 700h601v-137h-350v-142h305v-137h-305v-147h355v-137h-508v157h-235l-83 -157h-157zM321 293h163v274h-18z" />
    <glyph glyph-name="ae" unicode="&#xe6;" horiz-adv-x="951" 
d="M238 -10c-117 0 -202 60 -202 164v2c0 116 89 171 216 171c55 0 92 -9 131 -22v9c0 64 -39 98 -115 98c-59 0 -99 -10 -148 -29l-38 116c59 25 117 43 208 43c88 0 146 -24 182 -68c44 45 104 72 177 72c174 0 257 -139 257 -291c0 -12 -1 -25 -2 -40h-373
c15 -69 63 -105 131 -105c51 0 87 16 130 55l87 -77c-51 -63 -122 -100 -219 -100c-83 0 -153 30 -204 81c-61 -45 -133 -79 -218 -79zM529 310h229c-9 68 -49 114 -113 114s-104 -45 -116 -114zM266 97c45 0 92 16 137 51c-9 21 -16 44 -19 69c-27 11 -60 19 -96 19
c-65 0 -105 -26 -105 -74v-2c0 -39 36 -63 83 -63z" />
    <glyph glyph-name="AEacute" unicode="&#x1fc;" horiz-adv-x="1045" 
d="M9 0l377 700h601v-137h-350v-142h305v-137h-305v-147h355v-137h-508v157h-235l-83 -157h-157zM321 293h163v274h-18zM554 755l121 157l131 -57l-136 -100h-116z" />
    <glyph glyph-name="aeacute" unicode="&#x1fd;" horiz-adv-x="951" 
d="M238 -10c-117 0 -202 60 -202 164v2c0 116 89 171 216 171c55 0 92 -9 131 -22v9c0 64 -39 98 -115 98c-59 0 -99 -10 -148 -29l-38 116c59 25 117 43 208 43c88 0 146 -24 182 -68c44 45 104 72 177 72c174 0 257 -139 257 -291c0 -12 -1 -25 -2 -40h-373
c15 -69 63 -105 131 -105c51 0 87 16 130 55l87 -77c-51 -63 -122 -100 -219 -100c-83 0 -153 30 -204 81c-61 -45 -133 -79 -218 -79zM529 310h229c-9 68 -49 114 -113 114s-104 -45 -116 -114zM266 97c45 0 92 16 137 51c-9 21 -16 44 -19 69c-27 11 -60 19 -96 19
c-65 0 -105 -26 -105 -74v-2c0 -39 36 -63 83 -63zM411 595l111 177l131 -57l-130 -120h-112z" />
    <glyph glyph-name="Agrave" unicode="&#xc0;" horiz-adv-x="790" 
d="M24 0l300 705h142l300 -705h-161l-64 157h-296l-64 -157h-157zM300 293h186l-93 227zM353 764l-130 120l131 57l111 -177h-112z" />
    <glyph glyph-name="agrave" unicode="&#xe0;" horiz-adv-x="592" 
d="M220 -10c-101 0 -184 57 -184 164v2c0 116 89 171 216 171c55 0 92 -9 131 -22v9c0 64 -39 98 -115 98c-59 0 -99 -10 -148 -29l-38 116c59 25 117 43 208 43c84 0 142 -21 181 -60c40 -40 58 -99 58 -171v-311h-147v58c-37 -41 -87 -68 -162 -68zM266 95
c72 0 119 38 119 94v27c-27 12 -60 20 -97 20c-65 0 -105 -26 -105 -74v-2c0 -41 34 -65 83 -65zM288 595l-130 120l131 57l111 -177h-112z" />
    <glyph glyph-name="agrave.alt" horiz-adv-x="675" 
d="M288 -10c-125 0 -244 98 -244 277v2c0 179 117 277 244 277c81 0 131 -37 167 -80v70h152v-536h-152v77c-37 -51 -87 -87 -167 -87zM327 119c71 0 130 59 130 148v2c0 89 -59 148 -130 148s-131 -58 -131 -148v-2c0 -89 60 -148 131 -148zM293 595l-130 120l131 57
l111 -177h-112z" />
    <glyph glyph-name="Amacron" unicode="&#x100;" horiz-adv-x="790" 
d="M24 0l300 705h142l300 -705h-161l-64 157h-296l-64 -157h-157zM300 293h186l-93 227zM205 770v107h380v-107h-380z" />
    <glyph glyph-name="amacron" unicode="&#x101;" horiz-adv-x="592" 
d="M220 -10c-101 0 -184 57 -184 164v2c0 116 89 171 216 171c55 0 92 -9 131 -22v9c0 64 -39 98 -115 98c-59 0 -99 -10 -148 -29l-38 116c59 25 117 43 208 43c84 0 142 -21 181 -60c40 -40 58 -99 58 -171v-311h-147v58c-37 -41 -87 -68 -162 -68zM266 95
c72 0 119 38 119 94v27c-27 12 -60 20 -97 20c-65 0 -105 -26 -105 -74v-2c0 -41 34 -65 83 -65zM118 600v105h360v-105h-360z" />
    <glyph glyph-name="amacron.alt" horiz-adv-x="675" 
d="M288 -10c-125 0 -244 98 -244 277v2c0 179 117 277 244 277c81 0 131 -37 167 -80v70h152v-536h-152v77c-37 -51 -87 -87 -167 -87zM327 119c71 0 130 59 130 148v2c0 89 -59 148 -130 148s-131 -58 -131 -148v-2c0 -89 60 -148 131 -148zM165 600v105h360v-105h-360z
" />
    <glyph glyph-name="Aogonek" unicode="&#x104;" horiz-adv-x="790" 
d="M773 -97v-67c-115 -16 -179 28 -179 84c0 29 13 53 33 80h-22l-64 157h-296l-64 -157h-157l300 705h142l300 -705h-38c-19 -21 -25 -40 -25 -56c0 -29 26 -44 70 -41zM300 293h186l-93 227z" />
    <glyph glyph-name="aogonek" unicode="&#x105;" horiz-adv-x="592" 
d="M532 -97v-67c-115 -16 -179 28 -179 84c0 29 13 53 33 80h-4v58c-37 -41 -87 -68 -162 -68c-101 0 -184 57 -184 164v2c0 116 89 171 216 171c55 0 92 -9 131 -22v9c0 64 -39 98 -115 98c-59 0 -99 -10 -148 -29l-38 116c59 25 117 43 208 43c84 0 142 -21 181 -60
c40 -40 58 -99 58 -171v-311h-42c-19 -21 -25 -40 -25 -56c0 -29 26 -44 70 -41zM266 95c72 0 119 38 119 94v27c-27 12 -60 20 -97 20c-65 0 -105 -26 -105 -74v-2c0 -41 34 -65 83 -65z" />
    <glyph glyph-name="aogonek.alt" horiz-adv-x="675" 
d="M617 -97v-67c-115 -16 -179 28 -179 84c0 29 13 53 33 80h-16v77c-37 -51 -87 -87 -167 -87c-125 0 -244 98 -244 277v2c0 179 117 277 244 277c81 0 131 -37 167 -80v70h152v-536h-35c-19 -21 -25 -40 -25 -56c0 -29 26 -44 70 -41zM327 119c71 0 130 59 130 148v2
c0 89 -59 148 -130 148s-131 -58 -131 -148v-2c0 -89 60 -148 131 -148z" />
    <glyph glyph-name="Aring" unicode="&#xc5;" horiz-adv-x="790" 
d="M271 742c0 65 57 110 124 110s124 -45 124 -110c0 -32 -14 -59 -35 -78l282 -664h-161l-64 157h-296l-64 -157h-157l282 664c-23 20 -35 46 -35 78zM300 293h186l-93 227zM332 742c0 -31 24 -56 63 -56s63 25 63 56s-24 56 -63 56s-63 -25 -63 -56z" />
    <glyph glyph-name="aring" unicode="&#xe5;" horiz-adv-x="592" 
d="M220 -10c-101 0 -184 57 -184 164v2c0 116 89 171 216 171c55 0 92 -9 131 -22v9c0 64 -39 98 -115 98c-59 0 -99 -10 -148 -29l-38 116c59 25 117 43 208 43c84 0 142 -21 181 -60c40 -40 58 -99 58 -171v-311h-147v58c-37 -41 -87 -68 -162 -68zM266 95
c72 0 119 38 119 94v27c-27 12 -60 20 -97 20c-65 0 -105 -26 -105 -74v-2c0 -41 34 -65 83 -65zM177 710c0 65 54 117 121 117s121 -52 121 -117s-54 -117 -121 -117s-121 52 -121 117zM232 710c0 -36 30 -66 66 -66s66 30 66 66s-30 66 -66 66s-66 -30 -66 -66z" />
    <glyph glyph-name="aring.alt" horiz-adv-x="675" 
d="M288 -10c-125 0 -244 98 -244 277v2c0 179 117 277 244 277c81 0 131 -37 167 -80v70h152v-536h-152v77c-37 -51 -87 -87 -167 -87zM327 119c71 0 130 59 130 148v2c0 89 -59 148 -130 148s-131 -58 -131 -148v-2c0 -89 60 -148 131 -148zM224 710c0 65 54 117 121 117
s121 -52 121 -117s-54 -117 -121 -117s-121 52 -121 117zM279 710c0 -36 30 -66 66 -66s66 30 66 66s-30 66 -66 66s-66 -30 -66 -66z" />
    <glyph glyph-name="aring.alt2" horiz-adv-x="592" 
d="M177 609c0 65 54 117 121 117s121 -52 121 -117c0 -31 -14 -59 -35 -79c36 -11 64 -27 87 -48c40 -40 58 -99 58 -171v-311h-147v58c-37 -41 -87 -68 -162 -68c-101 0 -184 57 -184 164v2c0 116 89 171 216 171c55 0 92 -9 131 -22v9c0 64 -39 98 -115 98
c-59 0 -99 -10 -148 -29l-38 116c39 17 76 30 123 37c-19 21 -28 45 -28 73zM266 95c72 0 119 38 119 94v27c-27 12 -60 20 -97 20c-65 0 -105 -26 -105 -74v-2c0 -41 34 -65 83 -65zM232 609c0 -36 30 -66 66 -66s66 30 66 66s-30 66 -66 66s-66 -30 -66 -66z" />
    <glyph glyph-name="Aringacute" unicode="&#x1fa;" horiz-adv-x="790" 
d="M271 742c0 65 57 110 124 110s124 -45 124 -110c0 -32 -14 -59 -35 -78l282 -664h-161l-64 157h-296l-64 -157h-157l282 664c-23 20 -35 46 -35 78zM300 293h186l-93 227zM327 880l127 137l131 -57l-142 -80h-116zM332 742c0 -31 24 -56 63 -56s63 25 63 56
s-24 56 -63 56s-63 -25 -63 -56z" />
    <glyph glyph-name="aringacute" unicode="&#x1fb;" horiz-adv-x="592" 
d="M237 861l119 147l129 -57l-136 -90h-112zM220 -10c-101 0 -184 57 -184 164v2c0 116 89 171 216 171c55 0 92 -9 131 -22v9c0 64 -39 98 -115 98c-59 0 -99 -10 -148 -29l-38 116c59 25 117 43 208 43c84 0 142 -21 181 -60c40 -40 58 -99 58 -171v-311h-147v58
c-37 -41 -87 -68 -162 -68zM266 95c72 0 119 38 119 94v27c-27 12 -60 20 -97 20c-65 0 -105 -26 -105 -74v-2c0 -41 34 -65 83 -65zM177 710c0 65 54 117 121 117s121 -52 121 -117s-54 -117 -121 -117s-121 52 -121 117zM232 710c0 -36 30 -66 66 -66s66 30 66 66
s-30 66 -66 66s-66 -30 -66 -66z" />
    <glyph glyph-name="aringacute.alt" horiz-adv-x="675" 
d="M284 861l119 147l129 -57l-136 -90h-112zM288 -10c-125 0 -244 98 -244 277v2c0 179 117 277 244 277c81 0 131 -37 167 -80v70h152v-536h-152v77c-37 -51 -87 -87 -167 -87zM327 119c71 0 130 59 130 148v2c0 89 -59 148 -130 148s-131 -58 -131 -148v-2
c0 -89 60 -148 131 -148zM224 710c0 65 54 117 121 117s121 -52 121 -117s-54 -117 -121 -117s-121 52 -121 117zM279 710c0 -36 30 -66 66 -66s66 30 66 66s-30 66 -66 66s-66 -30 -66 -66z" />
    <glyph glyph-name="aringacute.alt2" horiz-adv-x="592" 
d="M237 761l119 147l129 -57l-136 -90h-112zM177 609c0 65 54 117 121 117s121 -52 121 -117c0 -31 -14 -59 -35 -79c36 -11 64 -27 87 -48c40 -40 58 -99 58 -171v-311h-147v58c-37 -41 -87 -68 -162 -68c-101 0 -184 57 -184 164v2c0 116 89 171 216 171
c55 0 92 -9 131 -22v9c0 64 -39 98 -115 98c-59 0 -99 -10 -148 -29l-38 116c39 17 76 30 123 37c-19 21 -28 45 -28 73zM266 95c72 0 119 38 119 94v27c-27 12 -60 20 -97 20c-65 0 -105 -26 -105 -74v-2c0 -41 34 -65 83 -65zM232 609c0 -36 30 -66 66 -66s66 30 66 66
s-30 66 -66 66s-66 -30 -66 -66z" />
    <glyph glyph-name="Atilde" unicode="&#xc3;" horiz-adv-x="790" 
d="M24 0l300 705h142l300 -705h-161l-64 157h-296l-64 -157h-157zM300 293h186l-93 227zM282 760l-71 22c20 73 48 120 109 120c54 0 105 -34 136 -34c27 0 38 15 50 43l71 -22c-20 -73 -48 -120 -109 -120c-54 0 -105 34 -136 34c-27 0 -38 -15 -50 -43z" />
    <glyph glyph-name="atilde" unicode="&#xe3;" horiz-adv-x="592" 
d="M220 -10c-101 0 -184 57 -184 164v2c0 116 89 171 216 171c55 0 92 -9 131 -22v9c0 64 -39 98 -115 98c-59 0 -99 -10 -148 -29l-38 116c59 25 117 43 208 43c84 0 142 -21 181 -60c40 -40 58 -99 58 -171v-311h-147v58c-37 -41 -87 -68 -162 -68zM266 95
c72 0 119 38 119 94v27c-27 12 -60 20 -97 20c-65 0 -105 -26 -105 -74v-2c0 -41 34 -65 83 -65zM194 585l-71 22c20 73 48 120 109 120c54 0 105 -34 136 -34c27 0 38 15 50 43l71 -22c-20 -73 -48 -120 -109 -120c-54 0 -105 34 -136 34c-27 0 -38 -15 -50 -43z" />
    <glyph glyph-name="atilde.alt" horiz-adv-x="675" 
d="M288 -10c-125 0 -244 98 -244 277v2c0 179 117 277 244 277c81 0 131 -37 167 -80v70h152v-536h-152v77c-37 -51 -87 -87 -167 -87zM327 119c71 0 130 59 130 148v2c0 89 -59 148 -130 148s-131 -58 -131 -148v-2c0 -89 60 -148 131 -148zM225 585l-81 25
c24 83 54 138 124 138c62 0 114 -39 150 -39c31 0 42 17 57 49l81 -25c-23 -84 -55 -138 -124 -138c-62 0 -115 39 -150 39c-31 0 -42 -17 -57 -49z" />
    <glyph glyph-name="Cacute" unicode="&#x106;" horiz-adv-x="738" 
d="M412 -12c-206 0 -359 159 -359 360v2c0 199 150 362 365 362c131 0 212 -44 276 -108l-98 -113c-55 49 -108 79 -179 79c-118 0 -203 -98 -203 -218v-2c0 -120 83 -220 203 -220c80 0 129 31 184 82l98 -99c-72 -77 -151 -125 -287 -125zM343 765l121 157l131 -57
l-136 -100h-116z" />
    <glyph glyph-name="cacute" unicode="&#x107;" horiz-adv-x="571" 
d="M321 -12c-161 0 -279 125 -279 277v2c0 153 117 279 281 279c101 0 163 -34 214 -90l-93 -100c-35 36 -67 59 -122 59c-76 0 -130 -66 -130 -146v-2c0 -83 53 -148 136 -148c51 0 86 22 123 57l89 -90c-52 -57 -112 -98 -219 -98zM257 595l111 177l131 -57l-130 -120
h-112z" />
    <glyph glyph-name="Ccaron" unicode="&#x10c;" horiz-adv-x="738" 
d="M412 -12c-206 0 -359 159 -359 360v2c0 199 150 362 365 362c131 0 212 -44 276 -108l-98 -113c-55 49 -108 79 -179 79c-118 0 -203 -98 -203 -218v-2c0 -120 83 -220 203 -220c80 0 129 31 184 82l98 -99c-72 -77 -151 -125 -287 -125zM605 912l-128 -147h-144
l-128 147h122l79 -56l79 56h120z" />
    <glyph glyph-name="ccaron" unicode="&#x10d;" horiz-adv-x="571" 
d="M321 -12c-161 0 -279 125 -279 277v2c0 153 117 279 281 279c101 0 163 -34 214 -90l-93 -100c-35 36 -67 59 -122 59c-76 0 -130 -66 -130 -146v-2c0 -83 53 -148 136 -148c51 0 86 22 123 57l89 -90c-52 -57 -112 -98 -219 -98zM512 752l-123 -157h-144l-123 157h117
l79 -66l79 66h115z" />
    <glyph glyph-name="Ccedilla" unicode="&#xc7;" horiz-adv-x="738" 
d="M373 -173l-127 53l80 118c-161 35 -273 178 -273 350v2c0 199 150 362 365 362c131 0 212 -44 276 -108l-98 -113c-55 49 -108 79 -179 79c-118 0 -203 -98 -203 -218v-2c0 -120 83 -220 203 -220c80 0 129 31 184 82l98 -99c-67 -72 -142 -119 -261 -124z" />
    <glyph glyph-name="ccedilla" unicode="&#xe7;" horiz-adv-x="571" 
d="M281 -173l-127 53l82 120c-116 34 -194 140 -194 265v2c0 153 117 279 281 279c101 0 163 -34 214 -90l-93 -100c-35 36 -67 59 -122 59c-76 0 -130 -66 -130 -146v-2c0 -83 53 -148 136 -148c51 0 86 22 123 57l89 -90c-48 -53 -102 -90 -194 -97z" />
    <glyph glyph-name="Cdotaccent" unicode="&#x10a;" horiz-adv-x="738" 
d="M412 -12c-206 0 -359 159 -359 360v2c0 199 150 362 365 362c131 0 212 -44 276 -108l-98 -113c-55 49 -108 79 -179 79c-118 0 -203 -98 -203 -218v-2c0 -120 83 -220 203 -220c80 0 129 31 184 82l98 -99c-72 -77 -151 -125 -287 -125zM330 765v127h150v-127h-150z" />
    <glyph glyph-name="cdotaccent" unicode="&#x10b;" horiz-adv-x="571" 
d="M321 -12c-161 0 -279 125 -279 277v2c0 153 117 279 281 279c101 0 163 -34 214 -90l-93 -100c-35 36 -67 59 -122 59c-76 0 -130 -66 -130 -146v-2c0 -83 53 -148 136 -148c51 0 86 22 123 57l89 -90c-52 -57 -112 -98 -219 -98zM242 595v135h150v-135h-150z" />
    <glyph glyph-name="Dcaron" unicode="&#x10e;" horiz-adv-x="782" 
d="M84 0v700h273c220 0 372 -151 372 -348v-2c0 -197 -152 -350 -372 -350h-273zM238 139h119c125 0 211 85 211 209v2c0 124 -86 211 -211 211h-119v-422zM578 902l-128 -147h-144l-128 147h122l79 -56l79 56h120z" />
    <glyph glyph-name="dcaron" unicode="&#x10f;" horiz-adv-x="675" 
d="M288 -10c-125 0 -244 98 -244 277v2c0 179 117 277 244 277c81 0 131 -37 167 -80v264h152v-730h-152v77c-37 -51 -87 -87 -167 -87zM327 119c71 0 130 59 130 148v2c0 89 -59 148 -130 148s-131 -58 -131 -148v-2c0 -89 60 -148 131 -148zM657 522l10 208h109v-3
l-59 -205h-60z" />
    <glyph glyph-name="Dcroat" unicode="&#x110;" horiz-adv-x="812" 
d="M114 0v284h-75v136h75v280h273c220 0 372 -151 372 -348v-2c0 -197 -152 -350 -372 -350h-273zM266 139h121c125 0 211 85 211 209v2c0 124 -86 211 -211 211h-121v-141h152v-136h-152v-145z" />
    <glyph glyph-name="dcroat" unicode="&#x111;" horiz-adv-x="675" 
d="M300 593v85h155v52h152v-52h68v-85h-68v-593h-152v77c-37 -51 -87 -87 -167 -87c-125 0 -244 98 -244 277v2c0 179 117 277 244 277c81 0 131 -37 167 -80v127h-155zM327 119c71 0 130 59 130 148v2c0 89 -59 148 -130 148s-131 -58 -131 -148v-2c0 -89 60 -148 131 -148
z" />
    <glyph glyph-name="Eacute" unicode="&#xc9;" horiz-adv-x="670" 
d="M84 0v700h528v-137h-375v-142h330v-137h-330v-147h380v-137h-533zM259 755l111 177l131 -57l-130 -120h-112z" />
    <glyph glyph-name="eacute" unicode="&#xe9;" horiz-adv-x="613" 
d="M322 -12c-161 0 -280 113 -280 277v2c0 153 109 279 265 279c179 0 261 -139 261 -291c0 -12 -1 -25 -2 -40h-373c15 -69 63 -105 131 -105c51 0 87 16 130 55l87 -77c-51 -63 -122 -100 -219 -100zM191 310h229c-9 68 -49 114 -113 114s-104 -45 -116 -114zM218 595
l111 177l131 -57l-130 -120h-112z" />
    <glyph glyph-name="Ebreve" unicode="&#x114;" horiz-adv-x="670" 
d="M84 0v700h528v-137h-375v-142h330v-137h-330v-147h380v-137h-533zM350 753c-107 0 -181 53 -190 149h104c12 -31 35 -49 86 -49s74 18 86 49h104c-9 -96 -83 -149 -190 -149z" />
    <glyph glyph-name="ebreve" unicode="&#x115;" horiz-adv-x="613" 
d="M322 -12c-161 0 -280 113 -280 277v2c0 153 109 279 265 279c179 0 261 -139 261 -291c0 -12 -1 -25 -2 -40h-373c15 -69 63 -105 131 -105c51 0 87 16 130 55l87 -77c-51 -63 -122 -100 -219 -100zM191 310h229c-9 68 -49 114 -113 114s-104 -45 -116 -114zM305 593
c-107 0 -179 58 -188 159h102c12 -36 35 -60 86 -60s74 24 86 60h102c-9 -101 -81 -159 -188 -159z" />
    <glyph glyph-name="Ecaron" unicode="&#x11a;" horiz-adv-x="670" 
d="M84 0v700h528v-137h-375v-142h330v-137h-330v-147h380v-137h-533zM550 902l-128 -147h-144l-128 147h122l79 -56l79 56h120z" />
    <glyph glyph-name="ecaron" unicode="&#x11b;" horiz-adv-x="613" 
d="M322 -12c-161 0 -280 113 -280 277v2c0 153 109 279 265 279c179 0 261 -139 261 -291c0 -12 -1 -25 -2 -40h-373c15 -69 63 -105 131 -105c51 0 87 16 130 55l87 -77c-51 -63 -122 -100 -219 -100zM191 310h229c-9 68 -49 114 -113 114s-104 -45 -116 -114zM500 752
l-123 -157h-144l-123 157h117l79 -66l79 66h115z" />
    <glyph glyph-name="Ecircumflex" unicode="&#xca;" horiz-adv-x="670" 
d="M84 0v700h528v-137h-375v-142h330v-137h-330v-147h380v-137h-533zM155 755l123 157h144l123 -157h-117l-79 66l-79 -66h-115z" />
    <glyph glyph-name="ecircumflex" unicode="&#xea;" horiz-adv-x="613" 
d="M322 -12c-161 0 -280 113 -280 277v2c0 153 109 279 265 279c179 0 261 -139 261 -291c0 -12 -1 -25 -2 -40h-373c15 -69 63 -105 131 -105c51 0 87 16 130 55l87 -77c-51 -63 -122 -100 -219 -100zM191 310h229c-9 68 -49 114 -113 114s-104 -45 -116 -114zM110 595
l123 157h144l123 -157h-117l-79 66l-79 -66h-115z" />
    <glyph glyph-name="Edieresis" unicode="&#xcb;" horiz-adv-x="670" 
d="M84 0v700h528v-137h-375v-142h330v-137h-330v-147h380v-137h-533zM386 755v127h146v-127h-146zM168 755v127h146v-127h-146z" />
    <glyph glyph-name="edieresis" unicode="&#xeb;" horiz-adv-x="613" 
d="M322 -12c-161 0 -280 113 -280 277v2c0 153 109 279 265 279c179 0 261 -139 261 -291c0 -12 -1 -25 -2 -40h-373c15 -69 63 -105 131 -105c51 0 87 16 130 55l87 -77c-51 -63 -122 -100 -219 -100zM191 310h229c-9 68 -49 114 -113 114s-104 -45 -116 -114zM336 595v135
h146v-135h-146zM128 595v135h146v-135h-146z" />
    <glyph glyph-name="Edotaccent" unicode="&#x116;" horiz-adv-x="670" 
d="M84 0v700h528v-137h-375v-142h330v-137h-330v-147h380v-137h-533zM275 755v127h150v-127h-150z" />
    <glyph glyph-name="edotaccent" unicode="&#x117;" horiz-adv-x="613" 
d="M322 -12c-161 0 -280 113 -280 277v2c0 153 109 279 265 279c179 0 261 -139 261 -291c0 -12 -1 -25 -2 -40h-373c15 -69 63 -105 131 -105c51 0 87 16 130 55l87 -77c-51 -63 -122 -100 -219 -100zM191 310h229c-9 68 -49 114 -113 114s-104 -45 -116 -114zM230 595v135
h150v-135h-150z" />
    <glyph glyph-name="Egrave" unicode="&#xc8;" horiz-adv-x="670" 
d="M84 0v700h528v-137h-375v-142h330v-137h-330v-147h380v-137h-533zM332 755l-130 120l131 57l111 -177h-112z" />
    <glyph glyph-name="egrave" unicode="&#xe8;" horiz-adv-x="613" 
d="M322 -12c-161 0 -280 113 -280 277v2c0 153 109 279 265 279c179 0 261 -139 261 -291c0 -12 -1 -25 -2 -40h-373c15 -69 63 -105 131 -105c51 0 87 16 130 55l87 -77c-51 -63 -122 -100 -219 -100zM191 310h229c-9 68 -49 114 -113 114s-104 -45 -116 -114zM306 595
l-130 120l131 57l111 -177h-112z" />
    <glyph glyph-name="Emacron" unicode="&#x112;" horiz-adv-x="670" 
d="M84 0v700h528v-137h-375v-142h330v-137h-330v-147h380v-137h-533zM160 760v107h380v-107h-380z" />
    <glyph glyph-name="emacron" unicode="&#x113;" horiz-adv-x="613" 
d="M322 -12c-161 0 -280 113 -280 277v2c0 153 109 279 265 279c179 0 261 -139 261 -291c0 -12 -1 -25 -2 -40h-373c15 -69 63 -105 131 -105c51 0 87 16 130 55l87 -77c-51 -63 -122 -100 -219 -100zM191 310h229c-9 68 -49 114 -113 114s-104 -45 -116 -114zM125 600v105
h360v-105h-360z" />
    <glyph glyph-name="Eogonek" unicode="&#x118;" horiz-adv-x="670" 
d="M84 0v700h528v-137h-375v-142h330v-137h-330v-147h380v-137h-45c-19 -21 -25 -40 -25 -56c0 -29 26 -44 70 -41v-67c-115 -16 -179 28 -179 84c0 29 13 53 33 80h-387z" />
    <glyph glyph-name="eogonek" unicode="&#x119;" horiz-adv-x="613" 
d="M191 310h229c-9 68 -49 114 -113 114s-104 -45 -116 -114zM480 26c-31 -29 -46 -54 -46 -77c0 -35 26 -49 70 -46v-67c-115 -16 -179 27 -179 79c0 24 12 48 32 75c-9 -1 -24 -2 -35 -2c-161 0 -280 113 -280 277v2c0 153 109 279 265 279c179 0 261 -139 261 -291
c0 -12 -1 -25 -2 -40h-373c15 -69 63 -105 131 -105c51 0 87 16 130 55l87 -77c-23 -25 -38 -41 -61 -62z" />
    <glyph glyph-name="Eth" unicode="&#xd0;" horiz-adv-x="812" 
d="M114 0v284h-75v136h75v280h273c220 0 372 -151 372 -348v-2c0 -197 -152 -350 -372 -350h-273zM266 139h121c125 0 211 85 211 209v2c0 124 -86 211 -211 211h-121v-141h152v-136h-152v-145z" />
    <glyph glyph-name="eth" unicode="&#xf0;" horiz-adv-x="665" 
d="M538 653l-74 -19c90 -93 157 -209 157 -341v-2c0 -163 -107 -303 -290 -303c-165 0 -289 122 -289 285v2c0 145 105 259 238 259c51 0 83 -12 123 -35c-22 32 -50 65 -84 98l-124 -31l-26 80l76 19c-29 23 -59 45 -87 65h201l34 -28l120 30zM333 119c87 0 139 65 139 144
v2c0 80 -57 146 -141 146c-87 0 -139 -65 -139 -144v-2c0 -80 57 -146 141 -146z" />
    <glyph glyph-name="Gbreve" unicode="&#x11e;" horiz-adv-x="784" 
d="M421 -12c-218 0 -368 152 -368 360v2c0 199 155 362 367 362c125 0 203 -34 275 -96l-97 -117c-53 45 -103 71 -183 71c-112 0 -201 -99 -201 -218v-2c0 -128 88 -222 212 -222c57 0 106 14 145 42v100h-155v133h304v-304c-72 -61 -171 -111 -299 -111zM412 763
c-107 0 -181 53 -190 149h104c12 -31 35 -49 86 -49s74 18 86 49h104c-9 -96 -83 -149 -190 -149z" />
    <glyph glyph-name="gbreve" unicode="&#x11f;" horiz-adv-x="675" 
d="M308 -162c-88 0 -169 20 -237 56l52 114c56 -31 109 -49 181 -49c104 0 153 50 153 146v26c-45 -55 -94 -87 -175 -87c-125 0 -238 90 -238 250v2c0 160 115 250 238 250c83 0 132 -35 173 -80v70h152v-415c0 -95 -23 -166 -68 -211c-51 -51 -127 -72 -231 -72zM326 170
c75 0 131 51 131 124v2c0 73 -56 124 -131 124c-74 0 -130 -51 -130 -124v-2c0 -75 55 -124 130 -124zM345 593c-107 0 -179 58 -188 159h102c12 -36 35 -60 86 -60s74 24 86 60h102c-9 -101 -81 -159 -188 -159z" />
    <glyph glyph-name="Gcommaaccent" unicode="&#x122;" horiz-adv-x="784" 
d="M421 -12c-218 0 -368 152 -368 360v2c0 199 155 362 367 362c125 0 203 -34 275 -96l-97 -117c-53 45 -103 71 -183 71c-112 0 -201 -99 -201 -218v-2c0 -128 88 -222 212 -222c57 0 106 14 145 42v100h-155v133h304v-304c-72 -61 -171 -111 -299 -111zM339 -297l-8 46
c54 5 79 29 76 72h-64v115h138v-97c0 -96 -50 -133 -142 -136z" />
    <glyph glyph-name="gcommaaccent" unicode="&#x123;" horiz-adv-x="675" 
d="M308 -162c-88 0 -169 20 -237 56l52 114c56 -31 109 -49 181 -49c104 0 153 50 153 146v26c-45 -55 -94 -87 -175 -87c-125 0 -238 90 -238 250v2c0 160 115 250 238 250c83 0 132 -35 173 -80v70h152v-415c0 -95 -23 -166 -68 -211c-51 -51 -127 -72 -231 -72zM326 170
c75 0 131 51 131 124v2c0 73 -56 124 -131 124c-74 0 -130 -51 -130 -124v-2c0 -75 55 -124 130 -124zM415 828l8 -46c-54 -5 -79 -29 -76 -72h64v-115h-138v97c0 96 50 133 142 136z" />
    <glyph glyph-name="Gdotaccent" unicode="&#x120;" horiz-adv-x="784" 
d="M421 -12c-218 0 -368 152 -368 360v2c0 199 155 362 367 362c125 0 203 -34 275 -96l-97 -117c-53 45 -103 71 -183 71c-112 0 -201 -99 -201 -218v-2c0 -128 88 -222 212 -222c57 0 106 14 145 42v100h-155v133h304v-304c-72 -61 -171 -111 -299 -111zM337 765v127h150
v-127h-150z" />
    <glyph glyph-name="gdotaccent" unicode="&#x121;" horiz-adv-x="675" 
d="M308 -162c-88 0 -169 20 -237 56l52 114c56 -31 109 -49 181 -49c104 0 153 50 153 146v26c-45 -55 -94 -87 -175 -87c-125 0 -238 90 -238 250v2c0 160 115 250 238 250c83 0 132 -35 173 -80v70h152v-415c0 -95 -23 -166 -68 -211c-51 -51 -127 -72 -231 -72zM326 170
c75 0 131 51 131 124v2c0 73 -56 124 -131 124c-74 0 -130 -51 -130 -124v-2c0 -75 55 -124 130 -124zM270 595v135h150v-135h-150z" />
    <glyph glyph-name="Hbar" unicode="&#x126;" horiz-adv-x="760" 
d="M14 512v105h70v83h154v-83h284v83h154v-83h70v-105h-70v-512h-154v281h-284v-281h-154v512h-70zM238 423h284v91h-284v-91z" />
    <glyph glyph-name="hbar" unicode="&#x127;" horiz-adv-x="623" 
d="M375 593h-155v-133c35 45 81 86 157 86c116 0 182 -75 182 -199v-347h-152v299c0 72 -33 109 -92 109s-95 -37 -95 -109v-299h-152v593h-68v85h68v52h152v-52h155v-85z" />
    <glyph glyph-name="Iacute" unicode="&#xcd;" horiz-adv-x="336" 
d="M91 0v700h154v-700h-154zM88 755l111 177l131 -57l-130 -120h-112z" />
    <glyph glyph-name="iacute" unicode="&#xed;" horiz-adv-x="302" 
d="M75 0v536h152v-536h-152zM71 595l111 177l131 -57l-130 -120h-112z" />
    <glyph glyph-name="Ibreve" unicode="&#x12c;" horiz-adv-x="336" 
d="M91 0v700h154v-700h-154zM168 753c-107 0 -181 53 -190 149h104c12 -31 35 -49 86 -49s74 18 86 49h104c-9 -96 -83 -149 -190 -149z" />
    <glyph glyph-name="ibreve" unicode="&#x12d;" horiz-adv-x="302" 
d="M75 0v536h152v-536h-152zM151 593c-107 0 -179 58 -188 159h102c12 -36 35 -60 86 -60s74 24 86 60h102c-9 -101 -81 -159 -188 -159z" />
    <glyph glyph-name="Icircumflex" unicode="&#xce;" horiz-adv-x="336" 
d="M91 0v700h154v-700h-154zM-32 755l128 147h144l128 -147h-122l-79 56l-79 -56h-120z" />
    <glyph glyph-name="icircumflex" unicode="&#xee;" horiz-adv-x="302" 
d="M75 0v536h152v-536h-152zM-44 595l123 157h144l123 -157h-117l-79 66l-79 -66h-115z" />
    <glyph glyph-name="Idieresis" unicode="&#xcf;" horiz-adv-x="336" 
d="M91 0v700h154v-700h-154zM204 755v127h146v-127h-146zM-14 755v127h146v-127h-146z" />
    <glyph glyph-name="idieresis" unicode="&#xef;" horiz-adv-x="302" 
d="M75 0v536h152v-536h-152zM182 595v135h146v-135h-146zM-26 595v135h146v-135h-146z" />
    <glyph glyph-name="Idotaccent" unicode="&#x130;" horiz-adv-x="336" 
d="M91 0v700h154v-700h-154zM93 755v127h150v-127h-150z" />
    <glyph glyph-name="dotlessi" unicode="&#x131;" horiz-adv-x="302" 
d="M75 0v536h152v-536h-152z" />
    <glyph glyph-name="Igrave" unicode="&#xcc;" horiz-adv-x="336" 
d="M91 0v700h154v-700h-154zM132 755l-130 120l131 57l111 -177h-112z" />
    <glyph glyph-name="igrave" unicode="&#xec;" horiz-adv-x="302" 
d="M75 0v536h152v-536h-152zM113 595l-130 120l131 57l111 -177h-112z" />
    <glyph glyph-name="Imacron" unicode="&#x12a;" horiz-adv-x="336" 
d="M91 0v700h154v-700h-154zM-22 760v107h380v-107h-380z" />
    <glyph glyph-name="imacron" unicode="&#x12b;" horiz-adv-x="302" 
d="M75 0v536h152v-536h-152zM-29 600v105h360v-105h-360z" />
    <glyph glyph-name="Iogonek" unicode="&#x12e;" horiz-adv-x="336" 
d="M91 0v700h154v-700h-29c-19 -21 -25 -40 -25 -56c0 -29 26 -44 70 -41v-67c-115 -16 -179 28 -179 84c0 29 13 53 33 80h-24z" />
    <glyph glyph-name="iogonek" unicode="&#x12f;" horiz-adv-x="302" 
d="M75 0v536h152v-536h-28c-19 -21 -25 -40 -25 -56c0 -29 26 -44 70 -41v-67c-115 -16 -179 28 -179 84c0 29 13 53 33 80h-23zM71 595v135h160v-135h-160z" />
    <glyph glyph-name="Kcommaaccent" unicode="&#x136;" horiz-adv-x="730" 
d="M84 0v700h154v-306l284 306h186l-285 -297l298 -403h-185l-217 298l-81 -84v-214h-154zM293 -287l-8 46c54 5 79 29 76 72h-64v115h138v-97c0 -96 -50 -133 -142 -136z" />
    <glyph glyph-name="kcommaaccent" unicode="&#x137;" horiz-adv-x="592" 
d="M68 0v730h152v-389l178 195h182l-204 -211l211 -325h-174l-140 219l-53 -56v-163h-152zM234 -292l-8 46c54 5 79 29 76 72h-64v115h138v-97c0 -96 -50 -133 -142 -136z" />
    <glyph glyph-name="Lacute" unicode="&#x139;" horiz-adv-x="619" 
d="M84 0v700h154v-560h349v-140h-503zM119 755l121 157l131 -57l-136 -100h-116z" />
    <glyph glyph-name="lacute" unicode="&#x13a;" horiz-adv-x="302" 
d="M75 0v730h152v-730h-152zM93 770l121 157l131 -57l-136 -100h-116z" />
    <glyph glyph-name="Lcaron" unicode="&#x13d;" horiz-adv-x="619" 
d="M84 0v700h154v-560h349v-140h-503zM307 492l10 208h109v-3l-59 -205h-60z" />
    <glyph glyph-name="lcaron" unicode="&#x13e;" horiz-adv-x="302" 
d="M75 0v730h152v-730h-152zM277 522l10 208h109v-3l-59 -205h-60z" />
    <glyph glyph-name="Lcommaaccent" unicode="&#x13b;" horiz-adv-x="619" 
d="M84 0v700h154v-560h349v-140h-503zM262 -292l-8 46c54 5 79 29 76 72h-64v115h138v-97c0 -96 -50 -133 -142 -136z" />
    <glyph glyph-name="lcommaaccent" unicode="&#x13c;" horiz-adv-x="302" 
d="M75 0v730h152v-730h-152zM78 -292l-8 46c54 5 79 29 76 72h-64v115h138v-97c0 -96 -50 -133 -142 -136z" />
    <glyph glyph-name="Ldot" unicode="&#x13f;" horiz-adv-x="619" 
d="M411 315v135h144v-135h-144zM84 0v700h154v-560h349v-140h-503z" />
    <glyph glyph-name="ldot" unicode="&#x140;" horiz-adv-x="392" 
d="M287 316v125h120v-125h-120zM75 0v730h152v-730h-152z" />
    <glyph glyph-name="Lslash" unicode="&#x141;" horiz-adv-x="649" 
d="M415 376l-149 -66v-170h351v-140h-503v243l-75 -33v144l75 33v313h152v-246l149 66v-144z" />
    <glyph glyph-name="lslash" unicode="&#x142;" horiz-adv-x="362" 
d="M332 377l-76 -38v-339h-150v264l-76 -37v143l76 37v323h150v-248l76 38v-143z" />
    <glyph glyph-name="Nacute" unicode="&#x143;" horiz-adv-x="790" 
d="M84 0v700h142l328 -431v431h152v-700h-131l-339 445v-445h-152zM333 755l121 157l131 -57l-136 -100h-116z" />
    <glyph glyph-name="nacute" unicode="&#x144;" horiz-adv-x="623" 
d="M68 0v536h152v-76c35 45 81 86 157 86c116 0 182 -75 182 -199v-347h-152v299c0 72 -33 109 -92 109s-95 -37 -95 -109v-299h-152zM253 595l111 177l131 -57l-130 -120h-112z" />
    <glyph glyph-name="Ncaron" unicode="&#x147;" horiz-adv-x="790" 
d="M84 0v700h142l328 -431v431h152v-700h-131l-339 445v-445h-152zM595 902l-128 -147h-144l-128 147h122l79 -56l79 56h120z" />
    <glyph glyph-name="ncaron" unicode="&#x148;" horiz-adv-x="623" 
d="M68 0v536h152v-76c35 45 81 86 157 86c116 0 182 -75 182 -199v-347h-152v299c0 72 -33 109 -92 109s-95 -37 -95 -109v-299h-152zM508 752l-123 -157h-144l-123 157h117l79 -66l79 66h115z" />
    <glyph glyph-name="Ncommaaccent" unicode="&#x145;" horiz-adv-x="790" 
d="M84 0v700h142l328 -431v431h152v-700h-131l-339 445v-445h-152zM322 -287l-8 46c54 5 79 29 76 72h-64v115h138v-97c0 -96 -50 -133 -142 -136z" />
    <glyph glyph-name="ncommaaccent" unicode="&#x146;" horiz-adv-x="623" 
d="M68 0v536h152v-76c35 45 81 86 157 86c116 0 182 -75 182 -199v-347h-152v299c0 72 -33 109 -92 109s-95 -37 -95 -109v-299h-152zM240 -292l-8 46c54 5 79 29 76 72h-64v115h138v-97c0 -96 -50 -133 -142 -136z" />
    <glyph glyph-name="Ntilde" unicode="&#xd1;" horiz-adv-x="790" 
d="M84 0v700h142l328 -431v431h152v-700h-131l-339 445v-445h-152zM271 745l-81 25c24 83 55 138 125 138c62 0 120 -39 156 -39c31 0 43 17 58 49l81 -25c-23 -84 -56 -138 -125 -138c-62 0 -121 39 -156 39c-31 0 -43 -17 -58 -49z" />
    <glyph glyph-name="ntilde" unicode="&#xf1;" horiz-adv-x="623" 
d="M68 0v536h152v-76c35 45 81 86 157 86c116 0 182 -75 182 -199v-347h-152v299c0 72 -33 109 -92 109s-95 -37 -95 -109v-299h-152zM193 585l-81 25c24 83 54 138 124 138c62 0 114 -39 150 -39c31 0 42 17 57 49l81 -25c-23 -84 -55 -138 -124 -138
c-62 0 -115 39 -150 39c-31 0 -42 -17 -57 -49z" />
    <glyph glyph-name="Oacute" unicode="&#xd3;" horiz-adv-x="850" 
d="M424 -12c-216 0 -371 161 -371 360v2c0 199 157 362 373 362s371 -161 371 -360v-2c0 -199 -157 -362 -373 -362zM426 130c124 0 210 98 210 218v2c0 120 -88 220 -212 220s-210 -98 -210 -218v-2c0 -120 88 -220 212 -220zM312 765l111 177l131 -57l-130 -120h-112z" />
    <glyph glyph-name="oacute" unicode="&#xf3;" horiz-adv-x="664" 
d="M331 -12c-165 0 -289 122 -289 277v2c0 154 124 279 291 279c165 0 289 -122 289 -277v-2c0 -154 -124 -279 -291 -279zM333 119c87 0 139 66 139 146v2c0 79 -57 148 -141 148c-87 0 -139 -66 -139 -146v-2c0 -79 57 -148 141 -148zM238 595l111 177l131 -57l-130 -120
h-112z" />
    <glyph glyph-name="Obreve" unicode="&#x14e;" horiz-adv-x="850" 
d="M424 -12c-216 0 -371 161 -371 360v2c0 199 157 362 373 362s371 -161 371 -360v-2c0 -199 -157 -362 -373 -362zM426 130c124 0 210 98 210 218v2c0 120 -88 220 -212 220s-210 -98 -210 -218v-2c0 -120 88 -220 212 -220zM425 763c-107 0 -181 53 -190 149h104
c12 -31 35 -49 86 -49s74 18 86 49h104c-9 -96 -83 -149 -190 -149z" />
    <glyph glyph-name="obreve" unicode="&#x14f;" horiz-adv-x="664" 
d="M331 -12c-165 0 -289 122 -289 277v2c0 154 124 279 291 279c165 0 289 -122 289 -277v-2c0 -154 -124 -279 -291 -279zM333 119c87 0 139 66 139 146v2c0 79 -57 148 -141 148c-87 0 -139 -66 -139 -146v-2c0 -79 57 -148 141 -148zM332 593c-107 0 -179 58 -188 159
h102c12 -36 35 -60 86 -60s74 24 86 60h102c-9 -101 -81 -159 -188 -159z" />
    <glyph glyph-name="Ocircumflex" unicode="&#xd4;" horiz-adv-x="850" 
d="M424 -12c-216 0 -371 161 -371 360v2c0 199 157 362 373 362s371 -161 371 -360v-2c0 -199 -157 -362 -373 -362zM426 130c124 0 210 98 210 218v2c0 120 -88 220 -212 220s-210 -98 -210 -218v-2c0 -120 88 -220 212 -220zM230 764l123 157h144l123 -157h-117l-79 66
l-79 -66h-115z" />
    <glyph glyph-name="ocircumflex" unicode="&#xf4;" horiz-adv-x="664" 
d="M331 -12c-165 0 -289 122 -289 277v2c0 154 124 279 291 279c165 0 289 -122 289 -277v-2c0 -154 -124 -279 -291 -279zM333 119c87 0 139 66 139 146v2c0 79 -57 148 -141 148c-87 0 -139 -66 -139 -146v-2c0 -79 57 -148 141 -148zM137 595l123 157h144l123 -157h-117
l-79 66l-79 -66h-115z" />
    <glyph glyph-name="Odieresis" unicode="&#xd6;" horiz-adv-x="850" 
d="M424 -12c-216 0 -371 161 -371 360v2c0 199 157 362 373 362s371 -161 371 -360v-2c0 -199 -157 -362 -373 -362zM426 130c124 0 210 98 210 218v2c0 120 -88 220 -212 220s-210 -98 -210 -218v-2c0 -120 88 -220 212 -220zM461 765v127h146v-127h-146zM243 765v127h146
v-127h-146z" />
    <glyph glyph-name="odieresis" unicode="&#xf6;" horiz-adv-x="664" 
d="M331 -12c-165 0 -289 122 -289 277v2c0 154 124 279 291 279c165 0 289 -122 289 -277v-2c0 -154 -124 -279 -291 -279zM333 119c87 0 139 66 139 146v2c0 79 -57 148 -141 148c-87 0 -139 -66 -139 -146v-2c0 -79 57 -148 141 -148zM363 595v135h146v-135h-146zM155 595
v135h146v-135h-146z" />
    <glyph glyph-name="OE" unicode="&#x152;" horiz-adv-x="1075" 
d="M1022 0h-597c-220 0 -372 151 -372 348v2c0 197 152 350 372 350h592v-137h-350v-142h305v-137h-305v-147h355v-137zM425 139h89v422h-89c-126 0 -211 -85 -211 -209v-2c0 -124 85 -211 211 -211z" />
    <glyph glyph-name="oe" unicode="&#x153;" horiz-adv-x="1033" 
d="M322 -12c-153 0 -280 122 -280 277v2c0 154 127 279 286 279c84 0 154 -33 202 -89c47 56 116 89 197 89c179 0 261 -139 261 -291c0 -12 -1 -25 -2 -40h-373c15 -69 63 -105 131 -105c51 0 87 16 130 55l87 -77c-51 -63 -122 -100 -219 -100c-88 0 -163 34 -214 91
c-49 -56 -122 -91 -206 -91zM611 310h229c-9 68 -49 114 -113 114s-104 -45 -116 -114zM328 119c84 0 134 66 134 146v2c0 79 -56 148 -136 148c-84 0 -134 -69 -134 -146v-2c0 -79 56 -148 136 -148z" />
    <glyph glyph-name="Ograve" unicode="&#xd2;" horiz-adv-x="850" 
d="M424 -12c-216 0 -371 161 -371 360v2c0 199 157 362 373 362s371 -161 371 -360v-2c0 -199 -157 -362 -373 -362zM426 130c124 0 210 98 210 218v2c0 120 -88 220 -212 220s-210 -98 -210 -218v-2c0 -120 88 -220 212 -220zM425 764l-130 120l131 57l111 -177h-112z" />
    <glyph glyph-name="ograve" unicode="&#xf2;" horiz-adv-x="664" 
d="M331 -12c-165 0 -289 122 -289 277v2c0 154 124 279 291 279c165 0 289 -122 289 -277v-2c0 -154 -124 -279 -291 -279zM333 119c87 0 139 66 139 146v2c0 79 -57 148 -141 148c-87 0 -139 -66 -139 -146v-2c0 -79 57 -148 141 -148zM322 595l-130 120l131 57l111 -177
h-112z" />
    <glyph glyph-name="Ohungarumlaut" unicode="&#x150;" horiz-adv-x="850" 
d="M424 -12c-216 0 -371 161 -371 360v2c0 199 157 362 373 362s371 -161 371 -360v-2c0 -199 -157 -362 -373 -362zM426 130c124 0 210 98 210 218v2c0 120 -88 220 -212 220s-210 -98 -210 -218v-2c0 -120 88 -220 212 -220zM262 765l121 157l126 -57l-136 -100h-111z
M452 765l121 157l126 -57l-136 -100h-111z" />
    <glyph glyph-name="ohungarumlaut" unicode="&#x151;" horiz-adv-x="664" 
d="M331 -12c-165 0 -289 122 -289 277v2c0 154 124 279 291 279c165 0 289 -122 289 -277v-2c0 -154 -124 -279 -291 -279zM333 119c87 0 139 66 139 146v2c0 79 -57 148 -141 148c-87 0 -139 -66 -139 -146v-2c0 -79 57 -148 141 -148zM359 595l111 177l128 -57l-132 -120
h-107zM174 595l109 177l128 -57l-130 -120h-107z" />
    <glyph glyph-name="Omacron" unicode="&#x14c;" horiz-adv-x="850" 
d="M424 -12c-216 0 -371 161 -371 360v2c0 199 157 362 373 362s371 -161 371 -360v-2c0 -199 -157 -362 -373 -362zM426 130c124 0 210 98 210 218v2c0 120 -88 220 -212 220s-210 -98 -210 -218v-2c0 -120 88 -220 212 -220zM235 770v107h380v-107h-380z" />
    <glyph glyph-name="omacron" unicode="&#x14d;" horiz-adv-x="664" 
d="M331 -12c-165 0 -289 122 -289 277v2c0 154 124 279 291 279c165 0 289 -122 289 -277v-2c0 -154 -124 -279 -291 -279zM333 119c87 0 139 66 139 146v2c0 79 -57 148 -141 148c-87 0 -139 -66 -139 -146v-2c0 -79 57 -148 141 -148zM152 600v105h360v-105h-360z" />
    <glyph glyph-name="Oslash" unicode="&#xd8;" horiz-adv-x="850" 
d="M658 705h147l-98 -114c57 -64 90 -147 90 -239v-2c0 -199 -157 -362 -373 -362c-73 0 -137 18 -193 50l-39 -43h-147l98 114c-57 64 -90 147 -90 239v2c0 199 157 362 373 362c72 0 137 -19 193 -50zM426 127c125 0 213 100 213 221v2c0 45 -12 88 -35 124l-277 -323
c29 -15 62 -24 99 -24zM211 352v-2c0 -46 12 -87 35 -124l277 323c-29 15 -63 24 -99 24c-125 0 -213 -100 -213 -221z" />
    <glyph glyph-name="oslash" unicode="&#xf8;" horiz-adv-x="664" 
d="M504 541h133l-81 -93c41 -48 66 -111 66 -179v-2c0 -154 -124 -279 -291 -279c-55 0 -101 12 -144 35l-27 -28h-133l80 92c-41 48 -65 110 -65 178v2c0 154 124 279 291 279c53 0 102 -12 143 -35zM188 269v-2c0 -25 5 -49 16 -72l184 212c-17 7 -36 12 -57 12
c-91 0 -143 -69 -143 -150zM333 115c91 0 143 69 143 150v2c0 25 -6 49 -17 72l-183 -213c18 -7 37 -11 57 -11z" />
    <glyph glyph-name="Oslashacute" unicode="&#x1fe;" horiz-adv-x="850" 
d="M658 705h147l-98 -114c57 -64 90 -147 90 -239v-2c0 -199 -157 -362 -373 -362c-73 0 -137 18 -193 50l-39 -43h-147l98 114c-57 64 -90 147 -90 239v2c0 199 157 362 373 362c72 0 137 -19 193 -50zM426 127c125 0 213 100 213 221v2c0 45 -12 88 -35 124l-277 -323
c29 -15 62 -24 99 -24zM211 352v-2c0 -46 12 -87 35 -124l277 323c-29 15 -63 24 -99 24c-125 0 -213 -100 -213 -221zM363 765l121 157l131 -57l-136 -100h-116z" />
    <glyph glyph-name="oslashacute" unicode="&#x1ff;" horiz-adv-x="664" 
d="M504 541h133l-81 -93c41 -48 66 -111 66 -179v-2c0 -154 -124 -279 -291 -279c-55 0 -101 12 -144 35l-27 -28h-133l80 92c-41 48 -65 110 -65 178v2c0 154 124 279 291 279c53 0 102 -12 143 -35zM272 595l111 177l131 -57l-130 -120h-112zM188 269v-2
c0 -25 5 -49 16 -72l184 212c-17 7 -36 12 -57 12c-91 0 -143 -69 -143 -150zM333 115c91 0 143 69 143 150v2c0 25 -6 49 -17 72l-183 -213c18 -7 37 -11 57 -11z" />
    <glyph glyph-name="Otilde" unicode="&#xd5;" horiz-adv-x="850" 
d="M424 -12c-216 0 -371 161 -371 360v2c0 199 157 362 373 362s371 -161 371 -360v-2c0 -199 -157 -362 -373 -362zM426 130c124 0 210 98 210 218v2c0 120 -88 220 -212 220s-210 -98 -210 -218v-2c0 -120 88 -220 212 -220zM310 760l-71 22c20 73 48 120 109 120
c54 0 105 -34 136 -34c27 0 38 15 50 43l71 -22c-20 -73 -48 -120 -109 -120c-54 0 -105 34 -136 34c-27 0 -38 -15 -50 -43z" />
    <glyph glyph-name="otilde" unicode="&#xf5;" horiz-adv-x="664" 
d="M331 -12c-165 0 -289 122 -289 277v2c0 154 124 279 291 279c165 0 289 -122 289 -277v-2c0 -154 -124 -279 -291 -279zM333 119c87 0 139 66 139 146v2c0 79 -57 148 -141 148c-87 0 -139 -66 -139 -146v-2c0 -79 57 -148 141 -148zM220 585l-71 22
c20 73 48 120 109 120c54 0 105 -34 136 -34c27 0 38 15 50 43l71 -22c-20 -73 -48 -120 -109 -120c-54 0 -105 34 -136 34c-27 0 -38 -15 -50 -43z" />
    <glyph glyph-name="Racute" unicode="&#x154;" horiz-adv-x="723" 
d="M84 0v700h320c89 0 157 -24 204 -71c40 -40 60 -93 60 -160v-2c0 -113 -61 -184 -150 -217l171 -250h-180l-150 224h-121v-224h-154zM238 360h156c76 0 118 39 118 99v2c0 67 -45 100 -121 100h-153v-201zM291 755l121 157l131 -57l-136 -100h-116z" />
    <glyph glyph-name="racute" unicode="&#x155;" horiz-adv-x="418" 
d="M68 0v536h152v-108c31 73 80 122 171 118v-159h-8c-101 0 -163 -60 -163 -189v-198h-152zM169 595l111 177l131 -57l-130 -120h-112z" />
    <glyph glyph-name="Rcaron" unicode="&#x158;" horiz-adv-x="723" 
d="M84 0v700h320c89 0 157 -24 204 -71c40 -40 60 -93 60 -160v-2c0 -113 -61 -184 -150 -217l171 -250h-180l-150 224h-121v-224h-154zM238 360h156c76 0 118 39 118 99v2c0 67 -45 100 -121 100h-153v-201zM553 902l-128 -147h-144l-128 147h122l79 -56l79 56h120z" />
    <glyph glyph-name="rcaron" unicode="&#x159;" horiz-adv-x="418" 
d="M68 0v536h152v-108c31 73 80 122 171 118v-159h-8c-101 0 -163 -60 -163 -189v-198h-152zM424 752l-123 -157h-144l-123 157h117l79 -66l79 66h115z" />
    <glyph glyph-name="Rcommaaccent" unicode="&#x156;" horiz-adv-x="723" 
d="M84 0v700h320c89 0 157 -24 204 -71c40 -40 60 -93 60 -160v-2c0 -113 -61 -184 -150 -217l171 -250h-180l-150 224h-121v-224h-154zM238 360h156c76 0 118 39 118 99v2c0 67 -45 100 -121 100h-153v-201zM280 -287l-8 46c54 5 79 29 76 72h-64v115h138v-97
c0 -96 -50 -133 -142 -136z" />
    <glyph glyph-name="rcommaaccent" unicode="&#x157;" horiz-adv-x="418" 
d="M68 0v536h152v-108c31 73 80 122 171 118v-159h-8c-101 0 -163 -60 -163 -189v-198h-152zM77 -292l-8 46c54 5 79 29 76 72h-64v115h138v-97c0 -96 -50 -133 -142 -136z" />
    <glyph glyph-name="Sacute" unicode="&#x15a;" horiz-adv-x="640" 
d="M333 -10c-107 0 -213 36 -297 112l91 109c64 -52 129 -85 209 -85c64 0 101 25 101 66v2c0 39 -24 60 -141 89c-142 35 -232 76 -232 214v2c0 127 101 211 245 211c103 0 188 -32 260 -89l-80 -116c-63 43 -122 69 -182 69s-90 -26 -90 -61v-2c0 -47 30 -60 151 -92
c142 -38 222 -88 222 -210v-2c0 -139 -106 -217 -257 -217zM262 765l121 157l131 -57l-136 -100h-116z" />
    <glyph glyph-name="sacute" unicode="&#x15b;" horiz-adv-x="502" 
d="M256 -10c-76 0 -158 25 -230 81l65 100c59 -43 118 -64 169 -64c44 0 64 16 64 40v2c0 33 -52 43 -111 62c-75 21 -160 57 -160 161v2c0 109 88 170 196 170c68 0 141 -23 200 -62l-58 -105c-53 31 -106 50 -145 50c-37 0 -56 -16 -56 -37v-2c0 -28 51 -46 109 -64
c75 -24 162 -61 162 -159v-2c0 -119 -89 -173 -205 -173zM194 595l111 177l131 -57l-130 -120h-112z" />
    <glyph glyph-name="Scaron" unicode="&#x160;" horiz-adv-x="640" 
d="M333 -10c-107 0 -213 36 -297 112l91 109c64 -52 129 -85 209 -85c64 0 101 25 101 66v2c0 39 -24 60 -141 89c-142 35 -232 76 -232 214v2c0 127 101 211 245 211c103 0 188 -32 260 -89l-80 -116c-63 43 -122 69 -182 69s-90 -26 -90 -61v-2c0 -47 30 -60 151 -92
c142 -38 222 -88 222 -210v-2c0 -139 -106 -217 -257 -217zM524 912l-128 -147h-144l-128 147h122l79 -56l79 56h120z" />
    <glyph glyph-name="scaron" unicode="&#x161;" horiz-adv-x="502" 
d="M256 -10c-76 0 -158 25 -230 81l65 100c59 -43 118 -64 169 -64c44 0 64 16 64 40v2c0 33 -52 43 -111 62c-75 21 -160 57 -160 161v2c0 109 88 170 196 170c68 0 141 -23 200 -62l-58 -105c-53 31 -106 50 -145 50c-37 0 -56 -16 -56 -37v-2c0 -28 51 -46 109 -64
c75 -24 162 -61 162 -159v-2c0 -119 -89 -173 -205 -173zM449 752l-123 -157h-144l-123 157h117l79 -66l79 66h115z" />
    <glyph glyph-name="Scedilla" unicode="&#x15e;" horiz-adv-x="640" 
d="M315 -173l-127 53l78 115c-84 12 -163 47 -230 107l91 109c64 -52 129 -85 209 -85c64 0 101 25 101 66v2c0 39 -24 60 -141 89c-142 35 -232 76 -232 214v2c0 127 101 211 245 211c103 0 188 -32 260 -89l-80 -116c-63 43 -122 69 -182 69s-90 -26 -90 -61v-2
c0 -47 30 -60 151 -92c142 -38 222 -88 222 -210v-2c0 -125 -84 -198 -208 -214z" />
    <glyph glyph-name="scedilla" unicode="&#x15f;" horiz-adv-x="502" 
d="M236 -173l-127 53l80 117c-56 11 -112 34 -163 74l65 100c59 -43 118 -64 169 -64c44 0 64 16 64 40v2c0 33 -52 43 -111 62c-75 21 -160 57 -160 161v2c0 109 88 170 196 170c68 0 141 -23 200 -62l-58 -105c-53 31 -106 50 -145 50c-37 0 -56 -16 -56 -37v-2
c0 -28 51 -46 109 -64c75 -24 162 -61 162 -159v-2c0 -103 -66 -157 -158 -170z" />
    <glyph glyph-name="Scommaaccent" unicode="&#x218;" horiz-adv-x="640" 
d="M333 -10c-107 0 -213 36 -297 112l91 109c64 -52 129 -85 209 -85c64 0 101 25 101 66v2c0 39 -24 60 -141 89c-142 35 -232 76 -232 214v2c0 127 101 211 245 211c103 0 188 -32 260 -89l-80 -116c-63 43 -122 69 -182 69s-90 -26 -90 -61v-2c0 -47 30 -60 151 -92
c142 -38 222 -88 222 -210v-2c0 -139 -106 -217 -257 -217zM251 -297l-8 46c54 5 79 29 76 72h-64v115h138v-97c0 -96 -50 -133 -142 -136z" />
    <glyph glyph-name="scommaaccent" unicode="&#x219;" horiz-adv-x="502" 
d="M256 -10c-76 0 -158 25 -230 81l65 100c59 -43 118 -64 169 -64c44 0 64 16 64 40v2c0 33 -52 43 -111 62c-75 21 -160 57 -160 161v2c0 109 88 170 196 170c68 0 141 -23 200 -62l-58 -105c-53 31 -106 50 -145 50c-37 0 -56 -16 -56 -37v-2c0 -28 51 -46 109 -64
c75 -24 162 -61 162 -159v-2c0 -119 -89 -173 -205 -173zM181 -292l-8 46c54 5 79 29 76 72h-64v115h138v-97c0 -96 -50 -133 -142 -136z" />
    <glyph glyph-name="Tcaron" unicode="&#x164;" horiz-adv-x="648" 
d="M247 0v558h-213v142h580v-142h-213v-558h-154zM524 902l-128 -147h-144l-128 147h122l79 -56l79 56h120z" />
    <glyph glyph-name="tcaron" unicode="&#x165;" horiz-adv-x="415" 
d="M249 -9c-92 0 -156 37 -156 161v254h-64v130h64v137h152v-137h126v-130h-126v-229c0 -35 16 -52 49 -52c27 0 52 6 75 19v-122c-32 -19 -69 -31 -120 -31zM309 592l10 208h109v-3l-59 -205h-60z" />
    <glyph glyph-name="Tcommaaccent" unicode="&#x162;" horiz-adv-x="648" 
d="M247 0v558h-213v142h580v-142h-213v-558h-154zM251 -292l-8 46c54 5 79 29 76 72h-64v115h138v-97c0 -96 -50 -133 -142 -136z" />
    <glyph glyph-name="tcommaaccent" unicode="&#x163;" horiz-adv-x="415" 
d="M249 -9c-92 0 -156 37 -156 161v254h-64v130h64v137h152v-137h126v-130h-126v-229c0 -35 16 -52 49 -52c27 0 52 6 75 19v-122c-32 -19 -69 -31 -120 -31zM149 -292l-8 46c54 5 79 29 76 72h-64v115h138v-97c0 -96 -50 -133 -142 -136z" />
    <glyph glyph-name="Thorn" unicode="&#xde;" horiz-adv-x="673" 
d="M84 0v700h154v-102h132c167 0 268 -98 268 -242v-2c0 -163 -126 -246 -283 -246h-117v-108h-154zM238 245h122c77 0 122 46 122 106v2c0 69 -48 106 -125 106h-119v-214z" />
    <glyph glyph-name="thorn" unicode="&#xfe;" horiz-adv-x="675" 
d="M68 -160v890h152v-271c37 51 87 87 167 87c125 0 244 -98 244 -277v-2c0 -179 -117 -277 -244 -277c-81 0 -131 37 -167 80v-230h-152zM348 119c71 0 131 58 131 148v2c0 89 -60 148 -131 148s-130 -59 -130 -148v-2c0 -89 59 -148 130 -148z" />
    <glyph glyph-name="Uacute" unicode="&#xda;" horiz-adv-x="756" 
d="M376 -11c-188 0 -303 104 -303 311v400h154v-396c0 -115 56 -173 151 -173s151 56 151 168v401h154v-395c0 -212 -119 -316 -307 -316zM294 755l111 177l131 -57l-130 -120h-112z" />
    <glyph glyph-name="uacute" unicode="&#xfa;" horiz-adv-x="623" 
d="M246 -10c-116 0 -182 75 -182 199v347h152v-299c0 -72 33 -109 92 -109s95 37 95 109v299h152v-536h-152v76c-35 -45 -81 -86 -157 -86zM214 595l111 177l131 -57l-130 -120h-112z" />
    <glyph glyph-name="Ubreve" unicode="&#x16c;" horiz-adv-x="756" 
d="M376 -11c-188 0 -303 104 -303 311v400h154v-396c0 -115 56 -173 151 -173s151 56 151 168v401h154v-395c0 -212 -119 -316 -307 -316zM378 743c-107 0 -181 53 -190 149h104c12 -31 35 -49 86 -49s74 18 86 49h104c-9 -96 -83 -149 -190 -149z" />
    <glyph glyph-name="ubreve" unicode="&#x16d;" horiz-adv-x="623" 
d="M246 -10c-116 0 -182 75 -182 199v347h152v-299c0 -72 33 -109 92 -109s95 37 95 109v299h152v-536h-152v76c-35 -45 -81 -86 -157 -86zM309 593c-107 0 -179 58 -188 159h102c12 -36 35 -60 86 -60s74 24 86 60h102c-9 -101 -81 -159 -188 -159z" />
    <glyph glyph-name="Ucircumflex" unicode="&#xdb;" horiz-adv-x="756" 
d="M376 -11c-188 0 -303 104 -303 311v400h154v-396c0 -115 56 -173 151 -173s151 56 151 168v401h154v-395c0 -212 -119 -316 -307 -316zM178 755l128 147h144l128 -147h-122l-79 56l-79 -56h-120z" />
    <glyph glyph-name="ucircumflex" unicode="&#xfb;" horiz-adv-x="623" 
d="M246 -10c-116 0 -182 75 -182 199v347h152v-299c0 -72 33 -109 92 -109s95 37 95 109v299h152v-536h-152v76c-35 -45 -81 -86 -157 -86zM114 595l123 157h144l123 -157h-117l-79 66l-79 -66h-115z" />
    <glyph glyph-name="Udieresis" unicode="&#xdc;" horiz-adv-x="756" 
d="M376 -11c-188 0 -303 104 -303 311v400h154v-396c0 -115 56 -173 151 -173s151 56 151 168v401h154v-395c0 -212 -119 -316 -307 -316zM414 755v127h146v-127h-146zM196 755v127h146v-127h-146z" />
    <glyph glyph-name="udieresis" unicode="&#xfc;" horiz-adv-x="623" 
d="M246 -10c-116 0 -182 75 -182 199v347h152v-299c0 -72 33 -109 92 -109s95 37 95 109v299h152v-536h-152v76c-35 -45 -81 -86 -157 -86zM340 595v135h146v-135h-146zM132 595v135h146v-135h-146z" />
    <glyph glyph-name="Ugrave" unicode="&#xd9;" horiz-adv-x="756" 
d="M376 -11c-188 0 -303 104 -303 311v400h154v-396c0 -115 56 -173 151 -173s151 56 151 168v401h154v-395c0 -212 -119 -316 -307 -316zM357 755l-130 120l131 57l111 -177h-112z" />
    <glyph glyph-name="ugrave" unicode="&#xf9;" horiz-adv-x="623" 
d="M246 -10c-116 0 -182 75 -182 199v347h152v-299c0 -72 33 -109 92 -109s95 37 95 109v299h152v-536h-152v76c-35 -45 -81 -86 -157 -86zM288 595l-130 120l131 57l111 -177h-112z" />
    <glyph glyph-name="Uhungarumlaut" unicode="&#x170;" horiz-adv-x="756" 
d="M376 -11c-188 0 -303 104 -303 311v400h154v-396c0 -115 56 -173 151 -173s151 56 151 168v401h154v-395c0 -212 -119 -316 -307 -316zM215 755l121 157l126 -57l-136 -100h-111zM405 755l121 157l126 -57l-136 -100h-111z" />
    <glyph glyph-name="uhungarumlaut" unicode="&#x171;" horiz-adv-x="623" 
d="M246 -10c-116 0 -182 75 -182 199v347h152v-299c0 -72 33 -109 92 -109s95 37 95 109v299h152v-536h-152v76c-35 -45 -81 -86 -157 -86zM336 595l111 177l128 -57l-132 -120h-107zM151 595l109 177l128 -57l-130 -120h-107z" />
    <glyph glyph-name="Umacron" unicode="&#x16a;" horiz-adv-x="756" 
d="M376 -11c-188 0 -303 104 -303 311v400h154v-396c0 -115 56 -173 151 -173s151 56 151 168v401h154v-395c0 -212 -119 -316 -307 -316zM188 760v107h380v-107h-380z" />
    <glyph glyph-name="umacron" unicode="&#x16b;" horiz-adv-x="623" 
d="M246 -10c-116 0 -182 75 -182 199v347h152v-299c0 -72 33 -109 92 -109s95 37 95 109v299h152v-536h-152v76c-35 -45 -81 -86 -157 -86zM129 600v105h360v-105h-360z" />
    <glyph glyph-name="Uogonek" unicode="&#x172;" horiz-adv-x="756" 
d="M467 -97v-67c-115 -16 -179 28 -179 84c0 27 11 49 28 73c-153 20 -243 123 -243 307v400h154v-396c0 -115 56 -173 151 -173s151 56 151 168v401h154v-395c0 -197 -103 -301 -269 -314c-13 -19 -17 -32 -17 -47c0 -29 26 -44 70 -41z" />
    <glyph glyph-name="uogonek" unicode="&#x173;" horiz-adv-x="623" 
d="M565 -97v-67c-115 -16 -179 28 -179 84c0 29 13 53 33 80h-16v76c-35 -45 -81 -86 -157 -86c-116 0 -182 75 -182 199v347h152v-299c0 -72 33 -109 92 -109s95 37 95 109v299h152v-536h-35c-19 -21 -25 -40 -25 -56c0 -29 26 -44 70 -41z" />
    <glyph glyph-name="Uring" unicode="&#x16e;" horiz-adv-x="756" 
d="M376 -11c-188 0 -303 104 -303 311v400h154v-396c0 -115 56 -173 151 -173s151 56 151 168v401h154v-395c0 -212 -119 -316 -307 -316zM254 838c0 65 57 110 124 110s124 -45 124 -110s-57 -110 -124 -110s-124 45 -124 110zM315 838c0 -31 24 -56 63 -56s63 25 63 56
s-24 56 -63 56s-63 -25 -63 -56z" />
    <glyph glyph-name="uring" unicode="&#x16f;" horiz-adv-x="623" 
d="M246 -10c-116 0 -182 75 -182 199v347h152v-299c0 -72 33 -109 92 -109s95 37 95 109v299h152v-536h-152v76c-35 -45 -81 -86 -157 -86zM188 695c0 65 54 117 121 117s121 -52 121 -117s-54 -117 -121 -117s-121 52 -121 117zM243 695c0 -36 30 -66 66 -66s66 30 66 66
s-30 66 -66 66s-66 -30 -66 -66z" />
    <glyph glyph-name="Wacute" unicode="&#x1e82;" horiz-adv-x="1122" 
d="M269 -5l-239 705h165l145 -474l157 476h132l157 -476l145 474h161l-239 -705h-134l-158 458l-158 -458h-134zM499 755l121 157l131 -57l-136 -100h-116z" />
    <glyph glyph-name="wacute" unicode="&#x1e83;" horiz-adv-x="861" 
d="M189 -4l-165 540h154l86 -325l101 327h131l102 -328l88 326h151l-167 -540h-137l-103 329l-105 -329h-136zM370 595l111 177l131 -57l-130 -120h-112z" />
    <glyph glyph-name="Wcircumflex" unicode="&#x174;" horiz-adv-x="1122" 
d="M269 -5l-239 705h165l145 -474l157 476h132l157 -476l145 474h161l-239 -705h-134l-158 458l-158 -458h-134zM361 755l128 147h144l128 -147h-122l-79 56l-79 -56h-120z" />
    <glyph glyph-name="wcircumflex" unicode="&#x175;" horiz-adv-x="861" 
d="M189 -4l-165 540h154l86 -325l101 327h131l102 -328l88 326h151l-167 -540h-137l-103 329l-105 -329h-136zM235 595l123 157h144l123 -157h-117l-79 66l-79 -66h-115z" />
    <glyph glyph-name="Wdieresis" unicode="&#x1e84;" horiz-adv-x="1122" 
d="M269 -5l-239 705h165l145 -474l157 476h132l157 -476l145 474h161l-239 -705h-134l-158 458l-158 -458h-134zM597 755v127h146v-127h-146zM379 755v127h146v-127h-146z" />
    <glyph glyph-name="wdieresis" unicode="&#x1e85;" horiz-adv-x="861" 
d="M189 -4l-165 540h154l86 -325l101 327h131l102 -328l88 326h151l-167 -540h-137l-103 329l-105 -329h-136zM461 595v135h146v-135h-146zM253 595v135h146v-135h-146z" />
    <glyph glyph-name="Wgrave" unicode="&#x1e80;" horiz-adv-x="1122" 
d="M269 -5l-239 705h165l145 -474l157 476h132l157 -476l145 474h161l-239 -705h-134l-158 458l-158 -458h-134zM502 912l121 -157h-116l-136 100z" />
    <glyph glyph-name="wgrave" unicode="&#x1e81;" horiz-adv-x="861" 
d="M189 -4l-165 540h154l86 -325l101 327h131l102 -328l88 326h151l-167 -540h-137l-103 329l-105 -329h-136zM378 595l-130 120l131 57l111 -177h-112z" />
    <glyph glyph-name="Yacute" unicode="&#xdd;" horiz-adv-x="716" 
d="M281 0v276l-269 424h180l167 -281l170 281h175l-269 -421v-279h-154zM281 755l111 177l131 -57l-130 -120h-112z" />
    <glyph glyph-name="yacute" unicode="&#xfd;" horiz-adv-x="600" 
d="M196 -163c-56 0 -96 14 -135 37l51 110c20 -12 45 -21 65 -21c27 0 40 8 53 35l-210 538h161l122 -365l117 365h158l-206 -549c-40 -109 -86 -150 -176 -150zM209 595l111 177l131 -57l-130 -120h-112z" />
    <glyph glyph-name="Ycircumflex" unicode="&#x176;" horiz-adv-x="716" 
d="M281 0v276l-269 424h180l167 -281l170 281h175l-269 -421v-279h-154zM158 755l128 147h144l128 -147h-122l-79 56l-79 -56h-120z" />
    <glyph glyph-name="ycircumflex" unicode="&#x177;" horiz-adv-x="600" 
d="M196 -163c-56 0 -96 14 -135 37l51 110c20 -12 45 -21 65 -21c27 0 40 8 53 35l-210 538h161l122 -365l117 365h158l-206 -549c-40 -109 -86 -150 -176 -150zM104 595l123 157h144l123 -157h-117l-79 66l-79 -66h-115z" />
    <glyph glyph-name="Ydieresis" unicode="&#x178;" horiz-adv-x="716" 
d="M281 0v276l-269 424h180l167 -281l170 281h175l-269 -421v-279h-154zM394 755v127h146v-127h-146zM176 755v127h146v-127h-146z" />
    <glyph glyph-name="ydieresis" unicode="&#xff;" horiz-adv-x="600" 
d="M196 -163c-56 0 -96 14 -135 37l51 110c20 -12 45 -21 65 -21c27 0 40 8 53 35l-210 538h161l122 -365l117 365h158l-206 -549c-40 -109 -86 -150 -176 -150zM330 595v135h146v-135h-146zM122 595v135h146v-135h-146z" />
    <glyph glyph-name="Ygrave" unicode="&#x1ef2;" horiz-adv-x="716" 
d="M281 0v276l-269 424h180l167 -281l170 281h175l-269 -421v-279h-154zM339 755l-130 120l131 57l111 -177h-112z" />
    <glyph glyph-name="ygrave" unicode="&#x1ef3;" horiz-adv-x="600" 
d="M196 -163c-56 0 -96 14 -135 37l51 110c20 -12 45 -21 65 -21c27 0 40 8 53 35l-210 538h161l122 -365l117 365h158l-206 -549c-40 -109 -86 -150 -176 -150zM272 595l-130 120l131 57l111 -177h-112z" />
    <glyph glyph-name="Zacute" unicode="&#x179;" horiz-adv-x="708" 
d="M63 0v117l385 448h-373v135h571v-117l-385 -448h385v-135h-583zM298 755l121 157l131 -57l-136 -100h-116z" />
    <glyph glyph-name="zacute" unicode="&#x17a;" horiz-adv-x="563" 
d="M50 0v107l277 306h-268v123h457v-107l-278 -306h278v-123h-466zM223 595l111 177l131 -57l-130 -120h-112z" />
    <glyph glyph-name="Zcaron" unicode="&#x17d;" horiz-adv-x="708" 
d="M63 0v117l385 448h-373v135h571v-117l-385 -448h385v-135h-583zM560 902l-128 -147h-144l-128 147h122l79 -56l79 56h120z" />
    <glyph glyph-name="zcaron" unicode="&#x17e;" horiz-adv-x="563" 
d="M50 0v107l277 306h-268v123h457v-107l-278 -306h278v-123h-466zM478 752l-123 -157h-144l-123 157h117l79 -66l79 66h115z" />
    <glyph glyph-name="Zdotaccent" unicode="&#x17b;" horiz-adv-x="708" 
d="M63 0v117l385 448h-373v135h571v-117l-385 -448h385v-135h-583zM285 755v127h150v-127h-150z" />
    <glyph glyph-name="zdotaccent" unicode="&#x17c;" horiz-adv-x="563" 
d="M50 0v107l277 306h-268v123h457v-107l-278 -306h278v-123h-466zM208 595v135h150v-135h-150z" />
    <glyph glyph-name="schwa" unicode="&#x259;" horiz-adv-x="613" 
d="M291 548c161 0 280 -113 280 -277v-2c0 -153 -109 -279 -265 -279c-179 0 -261 139 -261 291c0 12 1 25 2 40h373c-15 69 -63 105 -131 105c-51 0 -87 -16 -130 -55l-87 77c51 63 122 100 219 100zM422 226h-229c9 -68 49 -114 113 -114s104 45 116 114z" />
    <glyph glyph-name="germandbls" unicode="&#xdf;" horiz-adv-x="620" 
d="M299 -2v114c83 4 128 35 128 92v2c0 55 -55 86 -128 97v100c49 31 88 68 88 124v2c0 51 -31 80 -80 80c-52 0 -88 -39 -88 -100v-509h-151v503c0 147 97 234 246 234c144 0 223 -85 223 -194v-2c0 -86 -40 -128 -91 -163c67 -29 131 -81 131 -177v-2
c0 -132 -109 -209 -278 -201z" />
    <glyph glyph-name="f_f" unicode="&#xfb00;" horiz-adv-x="764" 
d="M476 0v406h-63v125h63v34c0 58 14 101 43 130c28 28 69 42 123 42c48 0 80 -6 108 -15v-126c-23 8 -42 13 -69 13c-37 0 -55 -19 -55 -58v-21h123v-124h-121v-406h-152zM94 0v406h-63v125h63v34c0 58 14 101 43 130c28 28 69 42 123 42c48 0 80 -6 108 -15v-126
c-23 8 -42 13 -69 13c-37 0 -55 -19 -55 -58v-21h123v-124h-121v-406h-152z" />
    <glyph glyph-name="fi" unicode="&#xfb01;" horiz-adv-x="684" 
d="M94 0v406h-63v125h63v34c0 58 14 101 43 130c28 28 69 42 123 42c48 0 80 -6 108 -15v-126c-23 8 -42 13 -69 13c-37 0 -55 -19 -55 -58v-21h123v-124h-121v-406h-152zM457 0v536h152v-536h-152zM453 595v135h160v-135h-160z" />
    <glyph glyph-name="fl" unicode="&#xfb02;" horiz-adv-x="684" 
d="M94 0v406h-63v125h63v34c0 58 14 101 43 130c28 28 69 42 123 42c48 0 80 -6 108 -15v-126c-23 8 -42 13 -69 13c-37 0 -55 -19 -55 -58v-21h123v-124h-121v-406h-152zM457 0v730h152v-730h-152z" />
    <glyph glyph-name="f_f_i" unicode="&#xfb03;" horiz-adv-x="1066" 
d="M476 0v406h-63v125h63v34c0 58 14 101 43 130c28 28 69 42 123 42c48 0 80 -6 108 -15v-126c-23 8 -42 13 -69 13c-37 0 -55 -19 -55 -58v-21h123v-124h-121v-406h-152zM94 0v406h-63v125h63v34c0 58 14 101 43 130c28 28 69 42 123 42c48 0 80 -6 108 -15v-126
c-23 8 -42 13 -69 13c-37 0 -55 -19 -55 -58v-21h123v-124h-121v-406h-152zM839 0v536h152v-536h-152zM835 595v135h160v-135h-160z" />
    <glyph glyph-name="f_f_l" unicode="&#xfb04;" horiz-adv-x="1066" 
d="M476 0v406h-63v125h63v34c0 58 14 101 43 130c28 28 69 42 123 42c48 0 80 -6 108 -15v-126c-23 8 -42 13 -69 13c-37 0 -55 -19 -55 -58v-21h123v-124h-121v-406h-152zM94 0v406h-63v125h63v34c0 58 14 101 43 130c28 28 69 42 123 42c48 0 80 -6 108 -15v-126
c-23 8 -42 13 -69 13c-37 0 -55 -19 -55 -58v-21h123v-124h-121v-406h-152zM839 0v730h152v-730h-152z" />
    <glyph glyph-name="zero" unicode="0" horiz-adv-x="730" 
d="M364 -12c-188 0 -310 156 -310 360v2c0 203 125 362 312 362c185 0 310 -156 310 -360v-2c0 -203 -125 -362 -312 -362zM366 127c93 0 152 93 152 221v2c0 127 -62 223 -154 223s-152 -93 -152 -221v-2c0 -128 61 -223 154 -223z" />
    <glyph glyph-name="one" unicode="1" horiz-adv-x="422" 
d="M178 0v549l-122 -30l-32 126l201 60h105v-705h-152z" />
    <glyph glyph-name="two" unicode="2" horiz-adv-x="623" 
d="M49 0v122l233 191c88 72 121 110 121 168c0 60 -38 91 -94 91c-55 0 -91 -30 -143 -94l-108 87c69 93 136 145 261 145c144 0 241 -85 241 -216v-2c0 -118 -60 -174 -184 -271l-114 -88h305v-133h-518z" />
    <glyph glyph-name="three" unicode="3" horiz-adv-x="621" 
d="M311 -12c-127 0 -213 49 -273 121l106 101c48 -55 97 -84 169 -84c59 0 99 33 99 85v2c0 57 -50 89 -137 89h-64l-24 98l167 168h-275v132h473v-116l-177 -169c95 -16 188 -65 188 -196v-2c0 -132 -96 -229 -252 -229z" />
    <glyph glyph-name="three.alt" horiz-adv-x="614" 
d="M314 -12c-116 0 -209 46 -277 119l103 100c47 -49 100 -81 176 -81c67 0 103 31 103 82v2c0 52 -48 79 -132 79h-77v128h81c72 0 109 34 109 81v2c0 43 -37 74 -101 74c-60 0 -100 -33 -143 -81l-106 90c63 79 131 129 251 129c152 0 250 -79 250 -188v-2
c0 -84 -37 -131 -92 -162c64 -28 111 -71 111 -152v-2c0 -124 -92 -218 -256 -218z" />
    <glyph glyph-name="four" unicode="4" horiz-adv-x="689" 
d="M398 0v151h-342l-25 109l384 445h130v-429h94v-125h-94v-151h-147zM212 276h186v218z" />
    <glyph glyph-name="five" unicode="5" horiz-adv-x="630" 
d="M305 -12c-113 0 -194 40 -262 105l93 111c53 -48 104 -76 167 -76c72 0 117 34 117 97v2c0 60 -51 95 -124 95c-44 0 -84 -11 -117 -26l-89 59l20 345h430v-135h-298l-8 -121c28 7 53 12 92 12c136 0 245 -67 245 -224v-2c0 -148 -105 -242 -266 -242z" />
    <glyph glyph-name="six" unicode="6" horiz-adv-x="662" 
d="M339 -12c-92 0 -153 26 -202 75c-51 51 -83 126 -83 265v2c0 216 98 382 307 382c96 0 157 -28 219 -77l-81 -119c-45 35 -83 56 -143 56c-88 0 -130 -70 -141 -162c35 23 76 45 145 45c139 0 246 -77 246 -223v-2c0 -144 -115 -242 -267 -242zM333 120
c76 0 120 43 120 103v2c0 60 -46 102 -122 102s-120 -41 -120 -101v-2c0 -60 46 -104 122 -104z" />
    <glyph glyph-name="seven" unicode="7" horiz-adv-x="619" 
d="M84 0l313 567h-329v133h504v-116l-314 -584h-174z" />
    <glyph glyph-name="eight" unicode="8" horiz-adv-x="630" 
d="M315 -10c-155 0 -270 80 -270 202v2c0 85 38 134 113 169c-55 33 -89 77 -89 153v2c0 107 98 192 246 192s246 -84 246 -192v-2c0 -76 -34 -120 -89 -153c71 -37 113 -82 113 -165v-2c0 -130 -115 -206 -270 -206zM315 414c61 0 100 36 100 85v2c0 43 -36 82 -100 82
s-100 -38 -100 -81v-2c0 -49 39 -86 100 -86zM315 117c76 0 121 38 121 87v2c0 55 -50 86 -121 86s-121 -31 -121 -86v-2c0 -48 45 -87 121 -87z" />
    <glyph glyph-name="nine" unicode="9" horiz-adv-x="662" 
d="M302 -12c-103 0 -170 34 -230 83l81 117c51 -41 93 -60 153 -60c87 0 131 64 142 159c-35 -29 -81 -48 -142 -48c-152 0 -250 85 -250 226v2c0 141 109 245 267 245c93 0 149 -23 202 -76c50 -50 83 -126 83 -264v-2c0 -227 -107 -382 -306 -382zM331 367
c76 0 120 44 120 104v2c0 63 -46 107 -123 107c-76 0 -119 -43 -119 -106v-2c0 -63 46 -105 122 -105z" />
    <glyph glyph-name="period" unicode="." horiz-adv-x="286" 
d="M62 0v160h162v-160h-162z" />
    <glyph glyph-name="comma" unicode="," horiz-adv-x="286" 
d="M39 -162l-13 63c71 7 103 40 98 99h-62v160h162v-135c0 -132 -66 -186 -185 -187z" />
    <glyph glyph-name="colon" unicode=":" horiz-adv-x="296" 
d="M67 376v160h162v-160h-162zM67 0v160h162v-160h-162z" />
    <glyph glyph-name="semicolon" unicode=";" horiz-adv-x="296" 
d="M67 376v160h162v-160h-162zM44 -162l-13 63c71 7 103 40 98 99h-62v160h162v-135c0 -132 -66 -186 -185 -187z" />
    <glyph glyph-name="ellipsis" unicode="&#x2026;" horiz-adv-x="840" 
d="M620 0v156h158v-156h-158zM341 0v156h158v-156h-158zM62 0v156h158v-156h-158z" />
    <glyph glyph-name="periodcentered" unicode="&#xb7;" horiz-adv-x="286" 
d="M62 230v160h162v-160h-162z" />
    <glyph glyph-name="bullet" unicode="&#x2022;" 
d="M250 203c-83 0 -149 65 -149 148v2c0 83 66 148 149 148c82 0 149 -65 149 -148v-2c0 -83 -67 -148 -149 -148z" />
    <glyph glyph-name="ampersand" unicode="&#x26;" horiz-adv-x="696" 
d="M555 -14l-81 82c-57 -47 -124 -78 -205 -78c-133 0 -235 78 -235 202v2c0 89 48 152 136 192c-35 48 -49 92 -49 140v2c0 95 76 184 212 184c119 0 197 -77 197 -176v-2c0 -94 -59 -148 -147 -183l93 -93c23 36 45 77 68 120l113 -62c-27 -49 -57 -101 -92 -148l103 -103
zM303 432c61 23 93 49 93 93v2c0 40 -27 65 -66 65c-41 0 -68 -28 -68 -71v-2c0 -31 12 -54 41 -87zM287 116c35 0 69 15 101 40l-134 136c-47 -24 -65 -57 -65 -92v-2c0 -49 41 -82 98 -82z" />
    <glyph glyph-name="exclam" unicode="!" horiz-adv-x="324" 
d="M120 238l-47 442v20h178v-20l-47 -442h-84zM81 0v160h162v-160h-162z" />
    <glyph glyph-name="exclamdown" unicode="&#xa1;" horiz-adv-x="324" 
d="M81 540v160h162v-160h-162zM73 0v20l47 442h84l47 -442v-20h-178z" />
    <glyph glyph-name="question" unicode="?" horiz-adv-x="544" 
d="M197 238l-23 162l5 5c127 5 175 38 175 91v2c0 45 -33 71 -92 71c-56 0 -103 -22 -150 -69l-92 101c59 64 136 108 245 108c144 0 242 -74 242 -207v-2c0 -127 -88 -180 -197 -201l-11 -61h-102zM164 0v160h162v-160h-162z" />
    <glyph glyph-name="questiondown" unicode="&#xbf;" horiz-adv-x="544" 
d="M218 540v160h162v-160h-162zM279 -9c-144 0 -242 74 -242 207v2c0 127 88 180 197 201l11 61h102l23 -162l-5 -5c-127 -5 -175 -38 -175 -91v-2c0 -45 33 -71 92 -71c56 0 103 22 150 69l92 -101c-59 -64 -136 -108 -245 -108z" />
    <glyph glyph-name="quotedblleft" unicode="&#x201c;" horiz-adv-x="540" 
d="M311 383v135c0 132 66 184 185 187l13 -63c-71 -7 -103 -40 -98 -99h62v-160h-162zM57 383v135c0 132 66 184 185 187l13 -63c-71 -7 -103 -40 -98 -99h62v-160h-162z" />
    <glyph glyph-name="quotedblright" unicode="&#x201d;" horiz-adv-x="540" 
d="M298 378l-13 63c71 7 103 40 98 99h-62v160h162v-135c0 -132 -66 -186 -185 -187zM44 378l-13 63c71 7 103 40 98 99h-62v160h162v-135c0 -132 -66 -186 -185 -187z" />
    <glyph glyph-name="quoteleft" unicode="&#x2018;" horiz-adv-x="286" 
d="M57 383v135c0 132 66 184 185 187l13 -63c-71 -7 -103 -40 -98 -99h62v-160h-162z" />
    <glyph glyph-name="quoteright" unicode="&#x2019;" horiz-adv-x="286" 
d="M44 378l-13 63c71 7 103 40 98 99h-62v160h162v-135c0 -132 -66 -186 -185 -187z" />
    <glyph glyph-name="quotedblbase" unicode="&#x201e;" horiz-adv-x="540" 
d="M293 -162l-13 63c71 7 103 40 98 99h-62v160h162v-135c0 -132 -66 -186 -185 -187zM39 -162l-13 63c71 7 103 40 98 99h-62v160h162v-135c0 -132 -66 -186 -185 -187z" />
    <glyph glyph-name="quotesinglbase" unicode="&#x201a;" horiz-adv-x="286" 
d="M39 -162l-13 63c71 7 103 40 98 99h-62v160h162v-135c0 -132 -66 -186 -185 -187z" />
    <glyph glyph-name="guillemotleft" unicode="&#xab;" horiz-adv-x="645" 
d="M481 40l-168 224v8l168 224l116 -56l-130 -171l130 -171zM209 40l-168 224v8l168 224l116 -56l-130 -171l130 -171z" />
    <glyph glyph-name="guillemotright" unicode="&#xbb;" horiz-adv-x="645" 
d="M436 40l-116 56l130 171l-130 171l116 58l168 -224v-8zM164 40l-116 56l130 171l-130 171l116 58l168 -224v-8z" />
    <glyph glyph-name="guilsinglleft" unicode="&#x2039;" horiz-adv-x="373" 
d="M209 40l-168 224v8l168 224l116 -56l-130 -171l130 -171z" />
    <glyph glyph-name="guilsinglright" unicode="&#x203a;" horiz-adv-x="373" 
d="M164 40l-116 56l130 171l-130 171l116 58l168 -224v-8z" />
    <glyph glyph-name="hyphen" unicode="-" horiz-adv-x="408" 
d="M50 237v146h308v-146h-308z" />
    <glyph glyph-name="endash" unicode="&#x2013;" horiz-adv-x="528" 
d="M50 239v142h428v-142h-428z" />
    <glyph glyph-name="emdash" unicode="&#x2014;" horiz-adv-x="898" 
d="M50 239v142h798v-142h-798z" />
    <glyph glyph-name="underscore" unicode="_" horiz-adv-x="600" 
d="M-2 -160v116h604v-116h-604z" />
    <glyph glyph-name="slash" unicode="/" horiz-adv-x="530" 
d="M-28 -128l443 926h129l-443 -926h-129z" />
    <glyph glyph-name="backslash" unicode="\" horiz-adv-x="530" 
d="M429 -128l-443 926h129l443 -926h-129z" />
    <glyph glyph-name="bar" unicode="|" horiz-adv-x="350" 
d="M115 -128v926h120v-926h-120z" />
    <glyph glyph-name="parenleft" unicode="(" horiz-adv-x="445" 
d="M403 -40l-67 -101c-185 100 -277 235 -277 428s92 328 277 428l67 -101c-136 -93 -193 -186 -193 -327s57 -234 193 -327z" />
    <glyph glyph-name="parenright" unicode=")" horiz-adv-x="445" 
d="M109 -141l-67 101c136 93 193 186 193 327s-57 234 -193 327l67 101c185 -100 277 -235 277 -428s-92 -328 -277 -428z" />
    <glyph glyph-name="bracketleft" unicode="[" horiz-adv-x="465" 
d="M83 -130v830h323v-119h-177v-592h177v-119h-323z" />
    <glyph glyph-name="bracketright" unicode="]" horiz-adv-x="465" 
d="M59 -130v119h177v592h-177v119h323v-830h-323z" />
    <glyph glyph-name="braceleft" unicode="{" horiz-adv-x="490" 
d="M443 -40l-27 -101c-183 32 -234 96 -234 198c0 15 3 53 3 69c0 79 -31 103 -110 103h-26v116h26c79 0 110 24 110 103c0 16 -3 54 -3 69c0 102 51 166 234 198l27 -101c-107 -29 -122 -59 -122 -119c0 -20 3 -53 3 -74c0 -73 -36 -111 -104 -134c68 -23 104 -61 104 -134
c0 -21 -3 -54 -3 -74c0 -60 15 -90 122 -119z" />
    <glyph glyph-name="braceright" unicode="}" horiz-adv-x="490" 
d="M74 -141l-27 101c107 29 122 59 122 119c0 20 -3 53 -3 74c0 73 36 111 104 134c-68 23 -104 61 -104 134c0 21 3 54 3 74c0 60 -15 90 -122 119l27 101c183 -32 234 -96 234 -198c0 -15 -3 -53 -3 -69c0 -79 31 -103 110 -103h26v-116h-26c-79 0 -110 -24 -110 -103
c0 -16 3 -54 3 -69c0 -102 -51 -166 -234 -198z" />
    <glyph glyph-name="at" unicode="@" horiz-adv-x="980" 
d="M499 -162c-256 0 -446 197 -446 436s193 438 438 438s436 -191 436 -396c0 -168 -89 -251 -199 -251c-81 0 -128 31 -153 60c-35 -31 -83 -60 -148 -60c-102 0 -183 74 -183 193c0 141 107 251 224 251c69 0 110 -29 138 -68l11 53l118 -19l-47 -269
c-3 -11 -3 -23 -3 -31c0 -36 26 -63 73 -63c71 0 127 71 127 204c0 185 -169 356 -394 356c-227 0 -396 -179 -396 -398c0 -220 168 -396 404 -396c100 0 169 23 245 67l20 -32c-77 -47 -161 -75 -265 -75zM462 168c64 0 119 62 119 144c0 57 -38 94 -93 94
c-65 0 -120 -61 -120 -141c0 -63 38 -97 94 -97z" />
    <glyph glyph-name="copyright" unicode="&#xa9;" horiz-adv-x="830" 
d="M414 -12c-203 0 -361 163 -361 360v2c0 196 159 362 363 362c203 0 361 -163 361 -360v-2c0 -196 -159 -362 -363 -362zM414 28c183 0 321 145 321 322v2c0 177 -138 320 -319 320c-183 0 -321 -145 -321 -322v-2c0 -177 137 -320 319 -320zM419 156
c-113 0 -197 88 -197 197v2c0 108 82 199 200 199c73 0 116 -24 152 -59l-55 -64c-29 27 -60 43 -97 43c-64 0 -110 -54 -110 -118v-2c0 -64 45 -118 110 -118c43 0 68 18 99 45l56 -56c-40 -43 -83 -69 -158 -69z" />
    <glyph glyph-name="published" unicode="&#x2117;" horiz-adv-x="830" 
d="M414 -12c-203 0 -361 163 -361 360v2c0 196 159 362 363 362c203 0 361 -163 361 -360v-2c0 -196 -159 -362 -363 -362zM414 28c183 0 321 145 321 322v2c0 177 -138 320 -319 320c-183 0 -321 -145 -321 -322v-2c0 -177 137 -320 319 -320zM282 164v385h158
c92 0 148 -53 148 -133v-2c0 -88 -71 -134 -156 -134h-64v-116h-86zM368 355h66c43 0 67 25 67 58v2c0 37 -26 58 -69 58h-64v-118z" />
    <glyph glyph-name="registered.alt" horiz-adv-x="830" 
d="M414 -12c-203 0 -361 163 -361 360v2c0 196 159 362 363 362c203 0 361 -163 361 -360v-2c0 -196 -159 -362 -363 -362zM414 28c183 0 321 145 321 322v2c0 177 -138 320 -319 320c-183 0 -321 -145 -321 -322v-2c0 -177 137 -320 319 -320zM266 168v385h171
c51 0 91 -14 119 -42c21 -21 32 -49 32 -84v-2c0 -63 -34 -100 -83 -119l94 -138h-99l-82 124h-67v-124h-85zM351 365h85c43 0 66 23 66 55v2c0 37 -25 56 -68 56h-83v-113z" />
    <glyph glyph-name="registered" unicode="&#xae;" horiz-adv-x="368" 
d="M184 360c-98 0 -174 79 -174 174v1c0 95 77 175 174 175c98 0 174 -79 174 -174v-1c0 -95 -77 -175 -174 -175zM184 379c87 0 154 71 154 156v1c0 84 -66 155 -154 155c-87 0 -154 -71 -154 -156v-1c0 -84 66 -155 154 -155zM108 446v184h88c45 0 77 -19 77 -62
c0 -29 -15 -49 -38 -58l44 -64h-60l-37 55h-22v-55h-52zM160 542h33c19 0 28 7 28 22s-9 22 -28 22h-33v-44z" />
    <glyph glyph-name="servicemark" unicode="&#x2120;" horiz-adv-x="703" 
d="M358 392v308h74l81 -130l81 130h72v-308h-66v208l-85 -135h-6l-85 135v-208h-66zM170 386c-51 0 -105 20 -142 51l37 46c31 -24 66 -42 109 -42c35 0 54 13 54 33s-14 29 -69 42c-67 16 -115 34 -115 93c0 57 44 97 117 97c49 0 93 -15 124 -42l-36 -48
c-27 19 -57 33 -90 33s-49 -13 -49 -32c0 -21 18 -30 70 -42c67 -15 114 -38 114 -93c0 -60 -49 -96 -124 -96z" />
    <glyph glyph-name="trademark" unicode="&#x2122;" horiz-adv-x="690" 
d="M345 392v308h74l81 -130l81 130h72v-308h-66v208l-85 -135h-6l-85 135v-208h-66zM118 392v246h-92v62h254v-62h-92v-246h-70z" />
    <glyph glyph-name="asterisk" unicode="*" horiz-adv-x="430" 
d="M174 372l16 120l-97 -74l-42 72l112 47l-112 47l42 72l97 -74l-16 120h82l-16 -120l97 74l42 -72l-112 -47l112 -47l-42 -72l-97 74l16 -120h-82z" />
    <glyph glyph-name="dagger" unicode="&#x2020;" horiz-adv-x="410" 
d="M163 238l10 270l-120 -10v83l119 -10l-13 129h92l-13 -129l119 10v-83l-120 10l10 -270h-84z" />
    <glyph glyph-name="daggerdbl" unicode="&#x2021;" horiz-adv-x="430" 
d="M169 0l13 129l-119 -10v83l119 -10l-9 158l9 158l-119 -10v83l119 -10l-13 129h92l-13 -129l119 10v-83l-119 10l9 -158l-9 -158l119 10v-83l-119 10l13 -129h-92z" />
    <glyph glyph-name="dollar" unicode="$" horiz-adv-x="646" 
d="M280 -98v101c-87 11 -169 44 -236 95l78 114c55 -41 103 -69 163 -81v159c-144 40 -215 92 -215 212v2c0 110 84 183 210 196v58h104v-61c72 -9 130 -34 186 -73l-67 -117c-40 27 -83 48 -124 59v-152c152 -41 217 -102 217 -214v-2c0 -112 -87 -184 -212 -197v-99h-104z
M450 190v2c0 33 -16 54 -71 74v-140c47 7 71 29 71 64zM216 513v-2c0 -32 14 -52 69 -72v136c-49 -7 -69 -30 -69 -62z" />
    <glyph glyph-name="sterling" unicode="&#xa3;" horiz-adv-x="644" 
d="M60 0v101l76 25v141h-76v127h76v81c0 72 21 132 60 171c41 41 100 64 177 64c113 0 177 -51 225 -115l-117 -94c-35 44 -63 66 -106 66c-23 0 -42 -7 -57 -22c-16 -16 -26 -42 -26 -74v-77h228v-127h-228v-134h304v-133h-536z" />
    <glyph glyph-name="Euro" unicode="&#x20ac;" horiz-adv-x="720" 
d="M680 584l-116 -88c-39 51 -74 79 -133 79c-60 0 -102 -32 -127 -88h184v-101h-208c-1 -11 -1 -23 -1 -35c0 -11 0 -22 1 -33h208v-101h-186c27 -60 71 -92 135 -92c57 0 91 27 135 82l110 -81c-59 -83 -130 -138 -245 -138c-153 0 -256 92 -296 229h-92v101h75
c-1 11 -1 20 -1 31c0 12 0 25 1 37h-75v101h94c40 132 143 225 291 225c124 0 193 -53 246 -128z" />
    <glyph glyph-name="yen" unicode="&#xa5;" horiz-adv-x="686" 
d="M85 262v108h143l-214 330h177l153 -259l156 259h172l-215 -330h144v-108h-184v-62h184v-108h-184v-92h-148v92h-184v108h184v62h-184z" />
    <glyph glyph-name="cent" unicode="&#xa2;" horiz-adv-x="581" 
d="M312 -6h-104l19 98c-104 40 -180 140 -180 261v2c0 154 118 279 280 279h6l14 72h104l-18 -88c43 -15 79 -39 109 -74l-90 -97c-16 15 -32 28 -49 37l-54 -276c41 7 75 25 107 56l86 -87c-52 -59 -117 -98 -214 -101zM194 357v-2c0 -57 23 -105 64 -130l54 277
c-69 -5 -118 -68 -118 -145z" />
    <glyph glyph-name="numbersign" unicode="#" horiz-adv-x="700" 
d="M630 278v-128h-111l-25 -150h-132l25 150h-144l-26 -150h-132l25 150h-75v128h97l26 148h-88v128h110l25 146h132l-25 -146h145l25 146h132l-25 -146h76v-128h-98l-26 -148h89zM287 430l-26 -156h151l26 156h-151z" />
    <glyph glyph-name="paragraph" unicode="&#xb6;" horiz-adv-x="590" 
d="M352 0v230h-24c-168 0 -293 78 -293 233v2c0 147 112 235 276 235h195v-700h-154z" />
    <glyph glyph-name="section" unicode="&#xa7;" horiz-adv-x="632" 
d="M325 -10c-103 0 -177 34 -233 95l82 82c47 -43 91 -66 147 -66c45 0 66 15 66 36v2c0 23 -22 36 -110 55c-157 35 -222 74 -222 149v2c0 68 41 98 89 117c-29 23 -42 56 -42 91v2c0 96 76 155 205 155c103 0 177 -34 233 -95l-82 -82c-47 43 -91 66 -147 66
c-43 0 -66 -13 -66 -36v-2c0 -21 15 -34 110 -55c157 -35 222 -72 222 -149v-2c0 -67 -41 -98 -89 -117c27 -21 42 -56 42 -91v-2c0 -95 -74 -155 -205 -155zM389 289c31 0 55 16 55 44v2c0 27 -32 41 -101 58c-52 13 -79 18 -100 18c-31 0 -55 -16 -55 -44v-2
c0 -27 32 -41 101 -58c52 -13 79 -18 100 -18z" />
    <glyph glyph-name="ordfeminine" unicode="&#xaa;" horiz-adv-x="390" 
d="M153 399c-56 0 -101 31 -101 90v2c0 64 48 94 119 94c29 0 51 -5 72 -12v5c0 35 -21 54 -64 54c-31 0 -54 -5 -81 -16l-21 63c33 15 63 24 114 24c45 0 78 -11 100 -33c23 -23 32 -55 32 -94v-171h-81v32c-20 -23 -48 -38 -89 -38zM49 277v66h278v-66h-278zM178 457
c39 0 66 21 66 52v15c-15 7 -33 11 -54 11c-35 0 -57 -13 -57 -40v-2c0 -23 18 -36 45 -36z" />
    <glyph glyph-name="ordmasculine" unicode="&#xba;" horiz-adv-x="390" 
d="M194 398c-88 0 -153 68 -153 152v2c0 85 67 153 155 153s153 -68 153 -152v-2c0 -85 -67 -153 -155 -153zM51 277v66h288v-66h-288zM196 470c44 0 71 37 71 80v2c0 43 -29 81 -73 81s-71 -37 -71 -80v-2c0 -43 29 -81 73 -81z" />
    <glyph glyph-name="degree" unicode="&#xb0;" horiz-adv-x="480" 
d="M240 368c-92 0 -173 77 -173 168v2c0 91 81 168 173 168s173 -77 173 -168v-2c0 -91 -81 -168 -173 -168zM240 443c53 0 92 42 92 93v2c0 51 -39 93 -92 93s-92 -42 -92 -93v-2c0 -51 39 -93 92 -93z" />
    <glyph glyph-name="percent" unicode="%" horiz-adv-x="860" 
d="M214 350c-101 0 -169 79 -169 177v2c0 99 70 179 171 179s169 -79 169 -177v-2c0 -99 -70 -179 -171 -179zM280 527v2c0 47 -26 88 -66 88c-43 0 -64 -39 -64 -86v-2c0 -47 26 -88 66 -88c43 0 64 41 64 86zM395 377l231 323h119l-280 -377l-231 -323h-119zM644 -8
c-101 0 -169 79 -169 177v2c0 99 70 179 171 179s169 -79 169 -177v-2c0 -99 -70 -179 -171 -179zM646 83c43 0 64 41 64 86v2c0 47 -26 88 -66 88c-43 0 -64 -39 -64 -86v-2c0 -47 26 -88 66 -88z" />
    <glyph glyph-name="perthousand" unicode="&#x2030;" horiz-adv-x="1240" 
d="M214 350c-101 0 -169 79 -169 177v2c0 99 70 179 171 179s169 -79 169 -177v-2c0 -99 -70 -179 -171 -179zM1024 -8c-101 0 -169 79 -169 177v2c0 99 70 179 171 179s169 -79 169 -177v-2c0 -99 -70 -179 -171 -179zM644 -8c-101 0 -169 79 -169 177v2
c0 99 70 179 171 179s169 -79 169 -177v-2c0 -99 -70 -179 -171 -179zM216 441c43 0 64 41 64 86v2c0 47 -26 88 -66 88c-43 0 -64 -39 -64 -86v-2c0 -47 26 -88 66 -88zM1026 83c43 0 64 41 64 86v2c0 47 -26 88 -66 88c-43 0 -64 -39 -64 -86v-2c0 -47 26 -88 66 -88z
M646 83c43 0 64 41 64 86v2c0 47 -26 88 -66 88c-43 0 -64 -39 -64 -86v-2c0 -47 26 -88 66 -88zM395 377l231 323h119l-280 -377l-231 -323h-119z" />
    <glyph glyph-name="quotedbl" unicode="&#x22;" horiz-adv-x="520" 
d="M293 381l18 319h168v-5l-109 -314h-77zM57 381l18 319h168v-5l-109 -314h-77z" />
    <glyph glyph-name="quotesingle" unicode="'" horiz-adv-x="286" 
d="M57 381l18 319h170v-5l-109 -314h-79z" />
    <glyph glyph-name="plus" unicode="+" horiz-adv-x="640" 
d="M249 103v180h-181v138h181v180h142v-180h181v-138h-181v-180h-142z" />
    <glyph glyph-name="minus" unicode="&#x2212;" horiz-adv-x="640" 
d="M572 282h-504v140h504v-140z" />
    <glyph glyph-name="divide" unicode="&#xf7;" horiz-adv-x="640" 
d="M242 495v144h156v-144h-156zM572 288h-504v128h504v-128zM242 65v144h156v-144h-156z" />
    <glyph glyph-name="equal" unicode="=" horiz-adv-x="640" 
d="M73 413v138h494v-138h-494zM73 153v138h494v-138h-494z" />
    <glyph glyph-name="multiply" unicode="&#xd7;" horiz-adv-x="640" 
d="M474 103l-155 159l-155 -159l-93 93l159 155l-159 155l95 95l155 -159l155 159l93 -93l-159 -155l159 -155z" />
    <glyph glyph-name="less" unicode="&#x3c;" horiz-adv-x="640" 
d="M552 71l-484 212v138l484 212v-141l-338 -139l338 -139v-143z" />
    <glyph glyph-name="greater" unicode="&#x3e;" horiz-adv-x="640" 
d="M88 71v141l338 139l-338 139v143l484 -212v-138z" />
    <glyph glyph-name="plusminus" unicode="&#xb1;" horiz-adv-x="640" 
d="M567 379l-180 1l1 -177h-136l1 177l-180 -1v132l180 -1l-1 177h136l-1 -177l180 1v-132zM567 0h-494v126h494v-126z" />
    <glyph glyph-name="C" unicode="C" horiz-adv-x="738" 
d="M412 -12c-206 0 -359 159 -359 360v2c0 199 150 362 365 362c131 0 212 -44 276 -108l-98 -113c-55 49 -108 79 -179 79c-118 0 -203 -98 -203 -218v-2c0 -120 83 -220 203 -220c80 0 129 31 184 82l98 -99c-72 -77 -151 -125 -287 -125z" />
    <glyph glyph-name="uni00A0" unicode="&#xa0;" horiz-adv-x="300" 
 />
    <glyph glyph-name="emspace" unicode="&#x2003;" horiz-adv-x="1000" 
 />
    <glyph glyph-name="enspace" unicode="&#x2002;" 
 />
    <glyph glyph-name="threeperemspace" unicode="&#x2004;" horiz-adv-x="333" 
 />
    <glyph glyph-name="fourperemspace" unicode="&#x2005;" horiz-adv-x="250" 
 />
    <glyph glyph-name="thinspace" unicode="&#x2009;" horiz-adv-x="133" 
 />
    <glyph glyph-name="hairspace" unicode="&#x200a;" horiz-adv-x="75" 
 />
    <glyph glyph-name="florin" unicode="&#x192;" horiz-adv-x="536" 
d="M100 -5c-25 0 -40 1 -59 5v123c13 -2 25 -3 37 -3c43 0 62 17 70 61l28 163h-67v125h89l14 74c19 101 69 162 189 162c41 0 74 -4 99 -12v-126c-24 7 -47 10 -68 10c-44 0 -67 -21 -75 -68l-7 -40h115v-125h-137l-33 -187c-21 -118 -79 -162 -195 -162z" />
    <glyph glyph-name="asciicircum" unicode="^" 
d="M50 493l148 207h104l148 -207h-110l-91 117l-91 -117h-108z" />
    <glyph glyph-name="asciitilde" unicode="~" horiz-adv-x="510" 
d="M130 224l-81 25c24 83 54 138 124 138c62 0 114 -39 150 -39c31 0 42 17 57 49l81 -25c-23 -84 -55 -138 -124 -138c-62 0 -115 39 -150 39c-31 0 -42 -17 -57 -49z" />
    <glyph glyph-name="fraction" unicode="&#x2044;" horiz-adv-x="450" 
d="M-54 0l254 367l221 333h83l-254 -367l-221 -333h-83z" />
    <glyph glyph-name="A" unicode="A" horiz-adv-x="790" 
d="M24 0l300 705h142l300 -705h-161l-64 157h-296l-64 -157h-157zM300 293h186l-93 227z" />
    <glyph glyph-name="hfjslug" horiz-adv-x="694" 
d="M644 -200h-208l-8 14h-163l-8 -14h-207v303c19 0 32 13 32 32c0 17 -13 32 -32 32v554h100l30 79h334l29 -79h101v-921zM400 563v-172h15v78h38v14h-38v66h43v14h-58zM184 563v-172h15v79h47v-79h15v172h-15v-79h-47v79h-15zM460 409v-15c7 -3 14 -4 21 -4
c21 0 31 12 31 36v137h-16v-137c0 -15 -5 -22 -16 -22c-7 0 -15 2 -20 5zM371 465l-13 3c-3 -9 -5 -21 -8 -30h-1l-16 31c13 12 23 26 23 42c0 17 -8 31 -27 31c-17 0 -28 -14 -28 -31c0 -15 6 -24 14 -39c-15 -12 -23 -28 -23 -47c0 -23 12 -37 29 -37c13 0 22 8 29 24h1
l12 -24l12 6l-17 32c5 12 9 24 13 39zM523 323v-46h8v12l8 8l15 -20h10l-20 26l18 20h-10l-20 -24h-1v24h-8zM488 292l10 -15h9l-12 17c7 3 10 7 10 14c0 10 -6 15 -17 15h-20v-46h8v15h12zM426 276c15 0 24 11 24 24c0 12 -9 24 -24 24s-24 -12 -24 -24c0 -13 9 -24 24 -24
zM370 301l-13 22h-9l18 -29v-17h8v17l18 29h-9zM193 323v-46h34v7h-26v13h23v7h-23v12h26v7h-34zM132 323v-46h8v32l25 -32h7v46h-8v-32l-25 32h-7zM241 323l14 -47h8l11 34h1l11 -34h8l14 47h-8l-10 -35h-1l-11 35h-7l-11 -35h-1l-10 35h-8zM327 479c-7 13 -12 21 -12 32
c0 13 5 19 14 19s13 -6 13 -19c0 -11 -5 -21 -15 -32zM322 462l20 -39c-5 -14 -12 -21 -20 -21c-11 0 -16 8 -16 25c0 13 7 26 16 35zM487 299h-11v17h11c7 0 10 -3 10 -8c0 -6 -3 -9 -10 -9zM426 283c-11 0 -16 8 -16 17c0 8 5 17 16 17s16 -9 16 -17c0 -9 -5 -17 -16 -17z
" />
    <glyph glyph-name="i.dot" horiz-adv-x="302" 
d="M71 595v135h160v-135h-160zM75 0v536h152v-536h-152z" />
    <glyph glyph-name="acute" unicode="&#xb4;" 
d="M148 595l111 177l131 -57l-130 -120h-112z" />
    <glyph glyph-name="hungarumlaut" unicode="&#x2dd;" 
d="M228 595l111 177l128 -57l-132 -120h-107zM43 595l109 177l128 -57l-130 -120h-107z" />
    <glyph glyph-name="caron.alt" 
d="M199 522l10 208h109v-3l-59 -205h-60z" />
    <glyph glyph-name="grave" unicode="`" 
d="M240 595l-130 120l131 57l111 -177h-112z" />
    <glyph glyph-name="circumflex" unicode="&#x2c6;" 
d="M55 595l123 157h144l123 -157h-117l-79 66l-79 -66h-115z" />
    <glyph glyph-name="caron" unicode="&#x2c7;" 
d="M445 752l-123 -157h-144l-123 157h117l79 -66l79 66h115z" />
    <glyph glyph-name="breve" unicode="&#x2d8;" 
d="M250 593c-107 0 -179 58 -188 159h102c12 -36 35 -60 86 -60s74 24 86 60h102c-9 -101 -81 -159 -188 -159z" />
    <glyph glyph-name="tilde" unicode="&#x2dc;" 
d="M125 585l-81 25c24 83 54 138 124 138c62 0 114 -39 150 -39c31 0 42 17 57 49l81 -25c-23 -84 -55 -138 -124 -138c-62 0 -115 39 -150 39c-31 0 -42 -17 -57 -49z" />
    <glyph glyph-name="macron" unicode="&#xaf;" 
d="M70 600v105h360v-105h-360z" />
    <glyph glyph-name="dieresis" unicode="&#xa8;" 
d="M281 595v135h146v-135h-146zM73 595v135h146v-135h-146z" />
    <glyph glyph-name="dotaccent" unicode="&#x2d9;" 
d="M175 595v135h150v-135h-150z" />
    <glyph glyph-name="ring" unicode="&#x2da;" 
d="M129 710c0 65 54 117 121 117s121 -52 121 -117s-54 -117 -121 -117s-121 52 -121 117zM184 710c0 -36 30 -66 66 -66s66 30 66 66s-30 66 -66 66s-66 -30 -66 -66z" />
    <glyph glyph-name="acute.cap" 
d="M142 755l121 157l131 -57l-136 -100h-116z" />
    <glyph glyph-name="hungarumlaut.cap" 
d="M34 755l121 157l126 -57l-136 -100h-111zM224 755l121 157l126 -57l-136 -100h-111z" />
    <glyph glyph-name="grave.cap" 
d="M235 912l121 -157h-116l-136 100z" />
    <glyph glyph-name="circumflex.cap" 
d="M50 755l128 147h144l128 -147h-122l-79 56l-79 -56h-120z" />
    <glyph glyph-name="caron.cap" 
d="M450 902l-128 -147h-144l-128 147h122l79 -56l79 56h120z" />
    <glyph glyph-name="breve.cap" 
d="M250 753c-107 0 -181 53 -190 149h104c12 -31 35 -49 86 -49s74 18 86 49h104c-9 -96 -83 -149 -190 -149z" />
    <glyph glyph-name="tilde.cap" 
d="M121 745l-81 25c24 83 55 138 125 138c62 0 120 -39 156 -39c31 0 43 17 58 49l81 -25c-23 -84 -56 -138 -125 -138c-62 0 -121 39 -156 39c-31 0 -43 -17 -58 -49z" />
    <glyph glyph-name="macron.cap" 
d="M60 760v107h380v-107h-380z" />
    <glyph glyph-name="dieresis.cap" 
d="M286 755v127h146v-127h-146zM68 755v127h146v-127h-146z" />
    <glyph glyph-name="dotaccent.cap" 
d="M175 755v127h150v-127h-150z" />
    <glyph glyph-name="ring.cap" 
d="M126 863c0 65 57 110 124 110s124 -45 124 -110s-57 -110 -124 -110s-124 45 -124 110zM187 863c0 -31 24 -56 63 -56s63 25 63 56s-24 56 -63 56s-63 -25 -63 -56z" />
    <glyph glyph-name="commaaccent" unicode="&#x326;" 
d="M177 -292l-8 46c54 5 79 29 76 72h-64v115h138v-97c0 -96 -50 -133 -142 -136z" />
    <glyph glyph-name="cedilla" unicode="&#xb8;" 
d="M245 -173l-127 53l96 140h109z" />
    <glyph glyph-name="ogonek" unicode="&#x2db;" 
d="M356 -97v-67c-115 -16 -179 28 -179 84c0 32 17 59 42 90h101c-25 -27 -34 -47 -34 -66c0 -29 26 -44 70 -41z" />
    <glyph glyph-name="Ohorn" unicode="&#x1a0;" horiz-adv-x="850" 
d="M424 -12c-216 0 -371 161 -371 360v2c0 199 157 362 373 362c68 0 130 -16 183 -44c43 3 57 10 57 27c0 15 -5 44 -36 100h151c16 -51 21 -101 21 -121c-4 -49 -29 -85 -74 -109c44 -60 69 -133 69 -213v-2c0 -199 -157 -362 -373 -362zM426 130c124 0 210 98 210 218v2
c0 120 -88 220 -212 220s-210 -98 -210 -218v-2c0 -120 88 -220 212 -220z" />
    <glyph glyph-name="ohorn" unicode="&#x1a1;" horiz-adv-x="664" 
d="M331 -12c-165 0 -289 122 -289 277v2c0 154 124 279 291 279c51 0 97 -12 138 -32c31 3 40 10 40 25s-4 43 -35 99h149c17 -49 21 -100 21 -119c-3 -46 -25 -81 -66 -105c28 -43 42 -92 42 -145v-2c0 -154 -124 -279 -291 -279zM333 119c87 0 139 66 139 146v2
c0 79 -57 148 -141 148c-87 0 -139 -66 -139 -146v-2c0 -79 57 -148 141 -148z" />
    <glyph glyph-name="Uhorn" unicode="&#x1af;" horiz-adv-x="812" 
d="M630 824h151c16 -51 21 -101 21 -121c-5 -61 -44 -106 -119 -127v-271c0 -212 -119 -316 -307 -316s-303 104 -303 311v400h154v-396c0 -115 56 -173 151 -173s151 56 151 168v401h109c21 4 28 11 28 24c0 15 -5 44 -36 100z" />
    <glyph glyph-name="uhorn" unicode="&#x1b0;" horiz-adv-x="666" 
d="M246 -10c-116 0 -182 75 -182 199v347h152v-299c0 -72 33 -109 92 -109s95 37 95 109v299h106c13 3 20 10 20 21c0 15 -4 43 -35 99h149c17 -49 21 -100 21 -119c-5 -59 -41 -101 -109 -124v-413h-152v76c-35 -45 -81 -86 -157 -86z" />
    <glyph glyph-name="uni1EFA" unicode="&#x1efa;" horiz-adv-x="0" 
d="M615 824h151c16 -51 21 -101 21 -121c-7 -83 -76 -136 -211 -140v133c59 3 75 9 75 28c0 15 -5 44 -36 100z" />
    <glyph glyph-name="uni1EFB" unicode="&#x1efb;" horiz-adv-x="0" 
d="M305 664l-9 99c45 3 67 21 67 52c0 7 -8 18 -25 18c-12 0 -36 -10 -49 -45l-77 41c38 81 81 96 129 96c69 0 118 -47 117 -110c-1 -64 -35 -93 -72 -108l-4 -43h-77z" />
    <glyph glyph-name="uni1EA2" unicode="&#x1ea2;" horiz-adv-x="790" 
d="M358 764l-9 99c44 3 67 13 67 50c0 7 -8 20 -25 20c-12 0 -36 -10 -49 -45l-77 41c38 81 81 96 129 96c69 0 118 -47 117 -110c-1 -64 -35 -93 -72 -108l-4 -43h-77zM24 0l300 705h142l300 -705h-161l-64 157h-296l-64 -157h-157zM300 293h186l-93 227z" />
    <glyph glyph-name="uni1EA3" unicode="&#x1ea3;" horiz-adv-x="592" 
d="M281 595l-9 99c44 3 67 13 67 50c0 7 -8 20 -25 20c-12 0 -36 -10 -49 -45l-77 41c38 81 81 96 129 96c69 0 118 -47 117 -110c-1 -64 -35 -93 -72 -108l-4 -43h-77zM220 -10c-101 0 -184 57 -184 164v2c0 116 89 171 216 171c55 0 92 -9 131 -22v9c0 64 -39 98 -115 98
c-59 0 -99 -10 -148 -29l-38 116c59 25 117 43 208 43c84 0 142 -21 181 -60c40 -40 58 -99 58 -171v-311h-147v58c-37 -41 -87 -68 -162 -68zM266 95c72 0 119 38 119 94v27c-27 12 -60 20 -97 20c-65 0 -105 -26 -105 -74v-2c0 -41 34 -65 83 -65z" />
    <glyph glyph-name="uni1EA0" unicode="&#x1ea0;" horiz-adv-x="790" 
d="M316 -199v132h143v-132h-143zM24 0l300 705h142l300 -705h-161l-64 157h-296l-64 -157h-157zM300 293h186l-93 227z" />
    <glyph glyph-name="uni1EA1" unicode="&#x1ea1;" horiz-adv-x="592" 
d="M215 -199v132h143v-132h-143zM220 -10c-101 0 -184 57 -184 164v2c0 116 89 171 216 171c55 0 92 -9 131 -22v9c0 64 -39 98 -115 98c-59 0 -99 -10 -148 -29l-38 116c59 25 117 43 208 43c84 0 142 -21 181 -60c40 -40 58 -99 58 -171v-311h-147v58
c-37 -41 -87 -68 -162 -68zM266 95c72 0 119 38 119 94v27c-27 12 -60 20 -97 20c-65 0 -105 -26 -105 -74v-2c0 -41 34 -65 83 -65z" />
    <glyph glyph-name="uni1EB8" unicode="&#x1eb8;" horiz-adv-x="670" 
d="M277 -199v132h143v-132h-143zM84 0v700h528v-137h-375v-142h330v-137h-330v-147h380v-137h-533z" />
    <glyph glyph-name="uni1EB9" unicode="&#x1eb9;" horiz-adv-x="613" 
d="M232 -199v132h143v-132h-143zM322 -12c-161 0 -280 113 -280 277v2c0 153 109 279 265 279c179 0 261 -139 261 -291c0 -12 -1 -25 -2 -40h-373c15 -69 63 -105 131 -105c51 0 87 16 130 55l87 -77c-51 -63 -122 -100 -219 -100zM191 310h229c-9 68 -49 114 -113 114
s-104 -45 -116 -114z" />
    <glyph glyph-name="uni1EBA" unicode="&#x1eba;" horiz-adv-x="670" 
d="M320 764l-9 99c44 3 67 13 67 50c0 7 -8 20 -25 20c-12 0 -36 -10 -49 -45l-77 41c38 81 81 96 129 96c69 0 118 -47 117 -110c-1 -64 -35 -93 -72 -108l-4 -43h-77zM84 0v700h528v-137h-375v-142h330v-137h-330v-147h380v-137h-533z" />
    <glyph glyph-name="uni1EBB" unicode="&#x1ebb;" horiz-adv-x="613" 
d="M276 595l-9 99c44 3 67 13 67 50c0 7 -8 20 -25 20c-12 0 -36 -10 -49 -45l-77 41c38 81 81 96 129 96c69 0 118 -47 117 -110c-1 -64 -35 -93 -72 -108l-4 -43h-77zM322 -12c-161 0 -280 113 -280 277v2c0 153 109 279 265 279c179 0 261 -139 261 -291
c0 -12 -1 -25 -2 -40h-373c15 -69 63 -105 131 -105c51 0 87 16 130 55l87 -77c-51 -63 -122 -100 -219 -100zM191 310h229c-9 68 -49 114 -113 114s-104 -45 -116 -114z" />
    <glyph glyph-name="uni1EBC" unicode="&#x1ebc;" horiz-adv-x="670" 
d="M232 760l-71 22c20 73 48 120 109 120c54 0 105 -34 136 -34c27 0 38 15 50 43l71 -22c-20 -73 -48 -120 -109 -120c-54 0 -105 34 -136 34c-27 0 -38 -15 -50 -43zM84 0v700h528v-137h-375v-142h330v-137h-330v-147h380v-137h-533z" />
    <glyph glyph-name="uni1EBD" unicode="&#x1ebd;" horiz-adv-x="613" 
d="M194 585l-71 22c20 73 48 120 109 120c54 0 105 -34 136 -34c27 0 38 15 50 43l71 -22c-20 -73 -48 -120 -109 -120c-54 0 -105 34 -136 34c-27 0 -38 -15 -50 -43zM322 -12c-161 0 -280 113 -280 277v2c0 153 109 279 265 279c179 0 261 -139 261 -291
c0 -12 -1 -25 -2 -40h-373c15 -69 63 -105 131 -105c51 0 87 16 130 55l87 -77c-51 -63 -122 -100 -219 -100zM191 310h229c-9 68 -49 114 -113 114s-104 -45 -116 -114z" />
    <glyph glyph-name="uni1EC8" unicode="&#x1ec8;" horiz-adv-x="336" 
d="M129 764l-9 99c44 3 67 13 67 50c0 7 -8 20 -25 20c-12 0 -36 -10 -49 -45l-77 41c38 81 81 96 129 96c69 0 118 -47 117 -110c-1 -64 -35 -93 -72 -108l-4 -43h-77zM91 0v700h154v-700h-154z" />
    <glyph glyph-name="uni1EC9" unicode="&#x1ec9;" horiz-adv-x="302" 
d="M75 0v536h152v-536h-152zM114 595l-9 99c44 3 67 13 67 50c0 7 -8 20 -25 20c-12 0 -36 -10 -49 -45l-77 41c38 81 81 96 129 96c69 0 118 -47 117 -110c-1 -64 -35 -93 -72 -108l-4 -43h-77z" />
    <glyph glyph-name="uni1ECA" unicode="&#x1eca;" horiz-adv-x="336" 
d="M96 -199v132h143v-132h-143zM91 0v700h154v-700h-154z" />
    <glyph glyph-name="uni1ECB" unicode="&#x1ecb;" horiz-adv-x="302" 
d="M81 -199v132h143v-132h-143zM71 595v135h160v-135h-160zM75 0v536h152v-536h-152z" />
    <glyph glyph-name="uni1ECC" unicode="&#x1ecc;" horiz-adv-x="850" 
d="M354 -199v132h143v-132h-143zM424 -12c-216 0 -371 161 -371 360v2c0 199 157 362 373 362s371 -161 371 -360v-2c0 -199 -157 -362 -373 -362zM426 130c124 0 210 98 210 218v2c0 120 -88 220 -212 220s-210 -98 -210 -218v-2c0 -120 88 -220 212 -220z" />
    <glyph glyph-name="uni1ECD" unicode="&#x1ecd;" horiz-adv-x="664" 
d="M261 -199v132h143v-132h-143zM331 -12c-165 0 -289 122 -289 277v2c0 154 124 279 291 279c165 0 289 -122 289 -277v-2c0 -154 -124 -279 -291 -279zM333 119c87 0 139 66 139 146v2c0 79 -57 148 -141 148c-87 0 -139 -66 -139 -146v-2c0 -79 57 -148 141 -148z" />
    <glyph glyph-name="uni1ECE" unicode="&#x1ece;" horiz-adv-x="850" 
d="M424 -12c-216 0 -371 161 -371 360v2c0 199 157 362 373 362s371 -161 371 -360v-2c0 -199 -157 -362 -373 -362zM426 130c124 0 210 98 210 218v2c0 120 -88 220 -212 220s-210 -98 -210 -218v-2c0 -120 88 -220 212 -220zM387 764l-9 99c44 3 67 13 67 50
c0 7 -8 20 -25 20c-12 0 -36 -10 -49 -45l-77 41c38 81 81 96 129 96c69 0 118 -47 117 -110c-1 -64 -35 -93 -72 -108l-4 -43h-77z" />
    <glyph glyph-name="uni1ECF" unicode="&#x1ecf;" horiz-adv-x="664" 
d="M331 -12c-165 0 -289 122 -289 277v2c0 154 124 279 291 279c165 0 289 -122 289 -277v-2c0 -154 -124 -279 -291 -279zM333 119c87 0 139 66 139 146v2c0 79 -57 148 -141 148c-87 0 -139 -66 -139 -146v-2c0 -79 57 -148 141 -148zM295 595l-9 99c44 3 67 13 67 50
c0 7 -8 20 -25 20c-12 0 -36 -10 -49 -45l-77 41c38 81 81 96 129 96c69 0 118 -47 117 -110c-1 -64 -35 -93 -72 -108l-4 -43h-77z" />
    <glyph glyph-name="uni1EE4" unicode="&#x1ee4;" horiz-adv-x="756" 
d="M376 -11c-188 0 -303 104 -303 311v400h154v-396c0 -115 56 -173 151 -173s151 56 151 168v401h154v-395c0 -212 -119 -316 -307 -316zM306 -199v132h143v-132h-143z" />
    <glyph glyph-name="uni1EE5" unicode="&#x1ee5;" horiz-adv-x="623" 
d="M235 -199v132h143v-132h-143zM246 -10c-116 0 -182 75 -182 199v347h152v-299c0 -72 33 -109 92 -109s95 37 95 109v299h152v-536h-152v76c-35 -45 -81 -86 -157 -86z" />
    <glyph glyph-name="uni1EE6" unicode="&#x1ee6;" horiz-adv-x="756" 
d="M344 764l-9 99c44 3 67 13 67 50c0 7 -8 20 -25 20c-12 0 -36 -10 -49 -45l-77 41c38 81 81 96 129 96c69 0 118 -47 117 -110c-1 -64 -35 -93 -72 -108l-4 -43h-77zM376 -11c-188 0 -303 104 -303 311v400h154v-396c0 -115 56 -173 151 -173s151 56 151 168v401h154
v-395c0 -212 -119 -316 -307 -316z" />
    <glyph glyph-name="uni1EE7" unicode="&#x1ee7;" horiz-adv-x="623" 
d="M273 595l-9 99c44 3 67 13 67 50c0 7 -8 20 -25 20c-12 0 -36 -10 -49 -45l-77 41c38 81 81 96 129 96c69 0 118 -47 117 -110c-1 -64 -35 -93 -72 -108l-4 -43h-77zM246 -10c-116 0 -182 75 -182 199v347h152v-299c0 -72 33 -109 92 -109s95 37 95 109v299h152v-536
h-152v76c-35 -45 -81 -86 -157 -86z" />
    <glyph glyph-name="uni1EF4" unicode="&#x1ef4;" horiz-adv-x="716" 
d="M287 -199v132h143v-132h-143zM281 0v276l-269 424h180l167 -281l170 281h175l-269 -421v-279h-154z" />
    <glyph glyph-name="uni1EF5" unicode="&#x1ef5;" horiz-adv-x="600" 
d="M421 -199v132h143v-132h-143zM196 -163c-56 0 -96 14 -135 37l51 110c20 -12 45 -21 65 -21c27 0 40 8 53 35l-210 538h161l122 -365l117 365h158l-206 -549c-40 -109 -86 -150 -176 -150z" />
    <glyph glyph-name="uni1EF6" unicode="&#x1ef6;" horiz-adv-x="716" 
d="M330 764l-9 99c44 3 67 13 67 50c0 7 -8 20 -25 20c-12 0 -36 -10 -49 -45l-77 41c38 81 81 96 129 96c69 0 118 -47 117 -110c-1 -64 -35 -93 -72 -108l-4 -43h-77zM281 0v276l-269 424h180l167 -281l170 281h175l-269 -421v-279h-154z" />
    <glyph glyph-name="uni1EF7" unicode="&#x1ef7;" horiz-adv-x="600" 
d="M267 595l-9 99c44 3 67 13 67 50c0 7 -8 20 -25 20c-12 0 -36 -10 -49 -45l-77 41c38 81 81 96 129 96c69 0 118 -47 117 -110c-1 -64 -35 -93 -72 -108l-4 -43h-77zM196 -163c-56 0 -96 14 -135 37l51 110c20 -12 45 -21 65 -21c27 0 40 8 53 35l-210 538h161l122 -365
l117 365h158l-206 -549c-40 -109 -86 -150 -176 -150z" />
    <glyph glyph-name="uni1EF8" unicode="&#x1ef8;" horiz-adv-x="716" 
d="M248 760l-71 22c20 73 48 120 109 120c54 0 105 -34 136 -34c27 0 38 15 50 43l71 -22c-20 -73 -48 -120 -109 -120c-54 0 -105 34 -136 34c-27 0 -38 -15 -50 -43zM281 0v276l-269 424h180l167 -281l170 281h175l-269 -421v-279h-154z" />
    <glyph glyph-name="uni1EF9" unicode="&#x1ef9;" horiz-adv-x="600" 
d="M190 585l-71 22c20 73 48 120 109 120c54 0 105 -34 136 -34c27 0 38 15 50 43l71 -22c-20 -73 -48 -120 -109 -120c-54 0 -105 34 -136 34c-27 0 -38 -15 -50 -43zM196 -163c-56 0 -96 14 -135 37l51 110c20 -12 45 -21 65 -21c27 0 40 8 53 35l-210 538h161l122 -365
l117 365h158l-206 -549c-40 -109 -86 -150 -176 -150z" />
    <glyph glyph-name="Itilde" unicode="&#x128;" horiz-adv-x="336" 
d="M61 760l-71 22c20 73 48 120 109 120c54 0 105 -34 136 -34c27 0 38 15 50 43l71 -22c-20 -73 -48 -120 -109 -120c-54 0 -105 34 -136 34c-27 0 -38 -15 -50 -43zM91 0v700h154v-700h-154z" />
    <glyph glyph-name="itilde" unicode="&#x129;" horiz-adv-x="302" 
d="M75 0v536h152v-536h-152zM43 585l-71 22c20 73 48 120 109 120c54 0 105 -34 136 -34c27 0 38 15 50 43l71 -22c-20 -73 -48 -120 -109 -120c-54 0 -105 34 -136 34c-27 0 -38 -15 -50 -43z" />
    <glyph glyph-name="Utilde" unicode="&#x168;" horiz-adv-x="756" 
d="M273 760l-71 22c20 73 48 120 109 120c54 0 105 -34 136 -34c27 0 38 15 50 43l71 -22c-20 -73 -48 -120 -109 -120c-54 0 -105 34 -136 34c-27 0 -38 -15 -50 -43zM376 -11c-188 0 -303 104 -303 311v400h154v-396c0 -115 56 -173 151 -173s151 56 151 168v401h154v-395
c0 -212 -119 -316 -307 -316z" />
    <glyph glyph-name="utilde" unicode="&#x169;" horiz-adv-x="623" 
d="M194 585l-71 22c20 73 48 120 109 120c54 0 105 -34 136 -34c27 0 38 15 50 43l71 -22c-20 -73 -48 -120 -109 -120c-54 0 -105 34 -136 34c-27 0 -38 -15 -50 -43zM246 -10c-116 0 -182 75 -182 199v347h152v-299c0 -72 33 -109 92 -109s95 37 95 109v299h152v-536h-152
v76c-35 -45 -81 -86 -157 -86z" />
    <glyph glyph-name="uni1EAE" unicode="&#x1eae;" horiz-adv-x="790" 
d="M24 0l300 705h142l300 -705h-161l-64 157h-296l-64 -157h-157zM300 293h186l-93 227zM396 753c-107 0 -179 58 -188 159h102c12 -36 35 -60 86 -60s74 24 86 60h102c-9 -101 -81 -159 -188 -159zM333 912l111 177l131 -57l-130 -120h-112z" />
    <glyph glyph-name="uni1EAF" unicode="&#x1eaf;" horiz-adv-x="592" 
d="M220 -10c-101 0 -184 57 -184 164v2c0 116 89 171 216 171c55 0 92 -9 131 -22v9c0 64 -39 98 -115 98c-59 0 -99 -10 -148 -29l-38 116c59 25 117 43 208 43c84 0 142 -21 181 -60c40 -40 58 -99 58 -171v-311h-147v58c-37 -41 -87 -68 -162 -68zM266 95
c72 0 119 38 119 94v27c-27 12 -60 20 -97 20c-65 0 -105 -26 -105 -74v-2c0 -41 34 -65 83 -65zM310 593c-107 0 -179 58 -188 159h102c12 -36 35 -60 86 -60s74 24 86 60h102c-9 -101 -81 -159 -188 -159zM247 752l111 177l131 -57l-130 -120h-112z" />
    <glyph glyph-name="uni1EB0" unicode="&#x1eb0;" horiz-adv-x="790" 
d="M24 0l300 705h142l300 -705h-161l-64 157h-296l-64 -157h-157zM300 293h186l-93 227zM396 753c-107 0 -179 58 -188 159h102c12 -36 35 -60 86 -60s74 24 86 60h102c-9 -101 -81 -159 -188 -159zM351 912l-130 120l131 57l111 -177h-112z" />
    <glyph glyph-name="uni1EB1" unicode="&#x1eb1;" horiz-adv-x="592" 
d="M220 -10c-101 0 -184 57 -184 164v2c0 116 89 171 216 171c55 0 92 -9 131 -22v9c0 64 -39 98 -115 98c-59 0 -99 -10 -148 -29l-38 116c59 25 117 43 208 43c84 0 142 -21 181 -60c40 -40 58 -99 58 -171v-311h-147v58c-37 -41 -87 -68 -162 -68zM266 95
c72 0 119 38 119 94v27c-27 12 -60 20 -97 20c-65 0 -105 -26 -105 -74v-2c0 -41 34 -65 83 -65zM310 593c-107 0 -179 58 -188 159h102c12 -36 35 -60 86 -60s74 24 86 60h102c-9 -101 -81 -159 -188 -159zM265 752l-130 120l131 57l111 -177h-112z" />
    <glyph glyph-name="uni1EB2" unicode="&#x1eb2;" horiz-adv-x="790" 
d="M24 0l300 705h142l300 -705h-161l-64 157h-296l-64 -157h-157zM300 293h186l-93 227zM396 753c-107 0 -179 58 -188 159h102c12 -36 35 -60 86 -60s74 24 86 60h102c-9 -101 -81 -159 -188 -159zM360 903l-9 99c44 3 67 13 67 50c0 7 -8 20 -25 20c-12 0 -36 -10 -49 -45
l-77 41c38 81 81 96 129 96c69 0 118 -47 117 -110c-1 -64 -35 -93 -72 -108l-4 -43h-77z" />
    <glyph glyph-name="uni1EB3" unicode="&#x1eb3;" horiz-adv-x="592" 
d="M220 -10c-101 0 -184 57 -184 164v2c0 116 89 171 216 171c55 0 92 -9 131 -22v9c0 64 -39 98 -115 98c-59 0 -99 -10 -148 -29l-38 116c59 25 117 43 208 43c84 0 142 -21 181 -60c40 -40 58 -99 58 -171v-311h-147v58c-37 -41 -87 -68 -162 -68zM266 95
c72 0 119 38 119 94v27c-27 12 -60 20 -97 20c-65 0 -105 -26 -105 -74v-2c0 -41 34 -65 83 -65zM310 593c-107 0 -179 58 -188 159h102c12 -36 35 -60 86 -60s74 24 86 60h102c-9 -101 -81 -159 -188 -159zM274 743l-9 99c44 3 67 13 67 50c0 7 -8 20 -25 20
c-12 0 -36 -10 -49 -45l-77 41c38 81 81 96 129 96c69 0 118 -47 117 -110c-1 -64 -35 -93 -72 -108l-4 -43h-77z" />
    <glyph glyph-name="uni1EB4" unicode="&#x1eb4;" horiz-adv-x="790" 
d="M24 0l300 705h142l300 -705h-161l-64 157h-296l-64 -157h-157zM300 293h186l-93 227zM396 753c-107 0 -179 58 -188 159h102c12 -36 35 -60 86 -60s74 24 86 60h102c-9 -101 -81 -159 -188 -159zM282 944l-71 22c20 73 48 120 109 120c54 0 105 -34 136 -34
c27 0 38 15 50 43l71 -22c-20 -73 -48 -120 -109 -120c-54 0 -105 34 -136 34c-27 0 -38 -15 -50 -43z" />
    <glyph glyph-name="uni1EB5" unicode="&#x1eb5;" horiz-adv-x="592" 
d="M220 -10c-101 0 -184 57 -184 164v2c0 116 89 171 216 171c55 0 92 -9 131 -22v9c0 64 -39 98 -115 98c-59 0 -99 -10 -148 -29l-38 116c59 25 117 43 208 43c84 0 142 -21 181 -60c40 -40 58 -99 58 -171v-311h-147v58c-37 -41 -87 -68 -162 -68zM266 95
c72 0 119 38 119 94v27c-27 12 -60 20 -97 20c-65 0 -105 -26 -105 -74v-2c0 -41 34 -65 83 -65zM310 593c-107 0 -179 58 -188 159h102c12 -36 35 -60 86 -60s74 24 86 60h102c-9 -101 -81 -159 -188 -159zM196 784l-71 22c20 73 48 120 109 120c54 0 105 -34 136 -34
c27 0 38 15 50 43l71 -22c-20 -73 -48 -120 -109 -120c-54 0 -105 34 -136 34c-27 0 -38 -15 -50 -43z" />
    <glyph glyph-name="uni1EB6" unicode="&#x1eb6;" horiz-adv-x="790" 
d="M24 0l300 705h142l300 -705h-161l-64 157h-296l-64 -157h-157zM300 293h186l-93 227zM396 753c-107 0 -179 58 -188 159h102c12 -36 35 -60 86 -60s74 24 86 60h102c-9 -101 -81 -159 -188 -159zM316 -199v132h143v-132h-143z" />
    <glyph glyph-name="uni1EB7" unicode="&#x1eb7;" horiz-adv-x="592" 
d="M220 -10c-101 0 -184 57 -184 164v2c0 116 89 171 216 171c55 0 92 -9 131 -22v9c0 64 -39 98 -115 98c-59 0 -99 -10 -148 -29l-38 116c59 25 117 43 208 43c84 0 142 -21 181 -60c40 -40 58 -99 58 -171v-311h-147v58c-37 -41 -87 -68 -162 -68zM266 95
c72 0 119 38 119 94v27c-27 12 -60 20 -97 20c-65 0 -105 -26 -105 -74v-2c0 -41 34 -65 83 -65zM310 593c-107 0 -179 58 -188 159h102c12 -36 35 -60 86 -60s74 24 86 60h102c-9 -101 -81 -159 -188 -159zM215 -199v132h143v-132h-143z" />
    <glyph glyph-name="uni1EA4" unicode="&#x1ea4;" horiz-adv-x="790" 
d="M24 0l300 705h142l300 -705h-161l-64 157h-296l-64 -157h-157zM300 293h186l-93 227zM200 760l123 157h144l123 -157h-117l-79 66l-79 -66h-115zM535 879l111 177l131 -57l-130 -120h-112z" />
    <glyph glyph-name="uni1EA5" unicode="&#x1ea5;" horiz-adv-x="592" 
d="M220 -10c-101 0 -184 57 -184 164v2c0 116 89 171 216 171c55 0 92 -9 131 -22v9c0 64 -39 98 -115 98c-59 0 -99 -10 -148 -29l-38 116c59 25 117 43 208 43c84 0 142 -21 181 -60c40 -40 58 -99 58 -171v-311h-147v58c-37 -41 -87 -68 -162 -68zM266 95
c72 0 119 38 119 94v27c-27 12 -60 20 -97 20c-65 0 -105 -26 -105 -74v-2c0 -41 34 -65 83 -65zM113 595l123 157h144l123 -157h-117l-79 66l-79 -66h-115zM448 714l111 177l131 -57l-130 -120h-112z" />
    <glyph glyph-name="uni1EA6" unicode="&#x1ea6;" horiz-adv-x="790" 
d="M24 0l300 705h142l300 -705h-161l-64 157h-296l-64 -157h-157zM300 293h186l-93 227zM200 760l123 157h144l123 -157h-117l-79 66l-79 -66h-115zM565 880l-130 120l131 57l111 -177h-112z" />
    <glyph glyph-name="uni1EA7" unicode="&#x1ea7;" horiz-adv-x="592" 
d="M220 -10c-101 0 -184 57 -184 164v2c0 116 89 171 216 171c55 0 92 -9 131 -22v9c0 64 -39 98 -115 98c-59 0 -99 -10 -148 -29l-38 116c59 25 117 43 208 43c84 0 142 -21 181 -60c40 -40 58 -99 58 -171v-311h-147v58c-37 -41 -87 -68 -162 -68zM266 95
c72 0 119 38 119 94v27c-27 12 -60 20 -97 20c-65 0 -105 -26 -105 -74v-2c0 -41 34 -65 83 -65zM113 595l123 157h144l123 -157h-117l-79 66l-79 -66h-115zM478 715l-130 120l131 57l111 -177h-112z" />
    <glyph glyph-name="uni1EA8" unicode="&#x1ea8;" horiz-adv-x="790" 
d="M24 0l300 705h142l300 -705h-161l-64 157h-296l-64 -157h-157zM300 293h186l-93 227zM200 760l123 157h144l123 -157h-117l-79 66l-79 -66h-115zM541 873l-9 99c44 3 67 13 67 50c0 7 -8 20 -25 20c-12 0 -36 -10 -49 -45l-77 41c38 81 81 96 129 96
c69 0 118 -47 117 -110c-1 -64 -35 -93 -72 -108l-4 -43h-77z" />
    <glyph glyph-name="uni1EA9" unicode="&#x1ea9;" horiz-adv-x="592" 
d="M220 -10c-101 0 -184 57 -184 164v2c0 116 89 171 216 171c55 0 92 -9 131 -22v9c0 64 -39 98 -115 98c-59 0 -99 -10 -148 -29l-38 116c59 25 117 43 208 43c84 0 142 -21 181 -60c40 -40 58 -99 58 -171v-311h-147v58c-37 -41 -87 -68 -162 -68zM266 95
c72 0 119 38 119 94v27c-27 12 -60 20 -97 20c-65 0 -105 -26 -105 -74v-2c0 -41 34 -65 83 -65zM113 595l123 157h144l123 -157h-117l-79 66l-79 -66h-115zM454 708l-9 99c44 3 67 13 67 50c0 7 -8 20 -25 20c-12 0 -36 -10 -49 -45l-77 41c38 81 81 96 129 96
c69 0 118 -47 117 -110c-1 -64 -35 -93 -72 -108l-4 -43h-77z" />
    <glyph glyph-name="uni1EAA" unicode="&#x1eaa;" horiz-adv-x="790" 
d="M24 0l300 705h142l300 -705h-161l-64 157h-296l-64 -157h-157zM300 293h186l-93 227zM200 760l123 157h144l123 -157h-117l-79 66l-79 -66h-115zM282 944l-71 22c20 73 48 120 109 120c54 0 105 -34 136 -34c27 0 38 15 50 43l71 -22c-20 -73 -48 -120 -109 -120
c-54 0 -105 34 -136 34c-27 0 -38 -15 -50 -43z" />
    <glyph glyph-name="uni1EAB" unicode="&#x1eab;" horiz-adv-x="592" 
d="M220 -10c-101 0 -184 57 -184 164v2c0 116 89 171 216 171c55 0 92 -9 131 -22v9c0 64 -39 98 -115 98c-59 0 -99 -10 -148 -29l-38 116c59 25 117 43 208 43c84 0 142 -21 181 -60c40 -40 58 -99 58 -171v-311h-147v58c-37 -41 -87 -68 -162 -68zM266 95
c72 0 119 38 119 94v27c-27 12 -60 20 -97 20c-65 0 -105 -26 -105 -74v-2c0 -41 34 -65 83 -65zM113 595l123 157h144l123 -157h-117l-79 66l-79 -66h-115zM195 779l-71 22c20 73 48 120 109 120c54 0 105 -34 136 -34c27 0 38 15 50 43l71 -22c-20 -73 -48 -120 -109 -120
c-54 0 -105 34 -136 34c-27 0 -38 -15 -50 -43z" />
    <glyph glyph-name="uni1EAC" unicode="&#x1eac;" horiz-adv-x="790" 
d="M24 0l300 705h142l300 -705h-161l-64 157h-296l-64 -157h-157zM300 293h186l-93 227zM200 760l123 157h144l123 -157h-117l-79 66l-79 -66h-115zM316 -199v132h143v-132h-143z" />
    <glyph glyph-name="uni1EAD" unicode="&#x1ead;" horiz-adv-x="592" 
d="M220 -10c-101 0 -184 57 -184 164v2c0 116 89 171 216 171c55 0 92 -9 131 -22v9c0 64 -39 98 -115 98c-59 0 -99 -10 -148 -29l-38 116c59 25 117 43 208 43c84 0 142 -21 181 -60c40 -40 58 -99 58 -171v-311h-147v58c-37 -41 -87 -68 -162 -68zM266 95
c72 0 119 38 119 94v27c-27 12 -60 20 -97 20c-65 0 -105 -26 -105 -74v-2c0 -41 34 -65 83 -65zM113 595l123 157h144l123 -157h-117l-79 66l-79 -66h-115zM215 -199v132h143v-132h-143z" />
    <glyph glyph-name="uni1EBE" unicode="&#x1ebe;" horiz-adv-x="670" 
d="M84 0v700h528v-137h-375v-142h330v-137h-330v-147h380v-137h-533zM155 755l123 157h144l123 -157h-117l-79 66l-79 -66h-115zM490 874l111 177l131 -57l-130 -120h-112z" />
    <glyph glyph-name="uni1EBF" unicode="&#x1ebf;" horiz-adv-x="613" 
d="M322 -12c-161 0 -280 113 -280 277v2c0 153 109 279 265 279c179 0 261 -139 261 -291c0 -12 -1 -25 -2 -40h-373c15 -69 63 -105 131 -105c51 0 87 16 130 55l87 -77c-51 -63 -122 -100 -219 -100zM191 310h229c-9 68 -49 114 -113 114s-104 -45 -116 -114zM110 595
l123 157h144l123 -157h-117l-79 66l-79 -66h-115zM445 714l111 177l131 -57l-130 -120h-112z" />
    <glyph glyph-name="uni1EC0" unicode="&#x1ec0;" horiz-adv-x="670" 
d="M84 0v700h528v-137h-375v-142h330v-137h-330v-147h380v-137h-533zM155 755l123 157h144l123 -157h-117l-79 66l-79 -66h-115zM520 875l-130 120l131 57l111 -177h-112z" />
    <glyph glyph-name="uni1EC1" unicode="&#x1ec1;" horiz-adv-x="613" 
d="M322 -12c-161 0 -280 113 -280 277v2c0 153 109 279 265 279c179 0 261 -139 261 -291c0 -12 -1 -25 -2 -40h-373c15 -69 63 -105 131 -105c51 0 87 16 130 55l87 -77c-51 -63 -122 -100 -219 -100zM191 310h229c-9 68 -49 114 -113 114s-104 -45 -116 -114zM110 595
l123 157h144l123 -157h-117l-79 66l-79 -66h-115zM475 715l-130 120l131 57l111 -177h-112z" />
    <glyph glyph-name="uni1EC2" unicode="&#x1ec2;" horiz-adv-x="670" 
d="M84 0v700h528v-137h-375v-142h330v-137h-330v-147h380v-137h-533zM155 755l123 157h144l123 -157h-117l-79 66l-79 -66h-115zM496 868l-9 99c44 3 67 13 67 50c0 7 -8 20 -25 20c-12 0 -36 -10 -49 -45l-77 41c38 81 81 96 129 96c69 0 118 -47 117 -110
c-1 -64 -35 -93 -72 -108l-4 -43h-77z" />
    <glyph glyph-name="uni1EC3" unicode="&#x1ec3;" horiz-adv-x="613" 
d="M322 -12c-161 0 -280 113 -280 277v2c0 153 109 279 265 279c179 0 261 -139 261 -291c0 -12 -1 -25 -2 -40h-373c15 -69 63 -105 131 -105c51 0 87 16 130 55l87 -77c-51 -63 -122 -100 -219 -100zM191 310h229c-9 68 -49 114 -113 114s-104 -45 -116 -114zM110 595
l123 157h144l123 -157h-117l-79 66l-79 -66h-115zM451 708l-9 99c44 3 67 13 67 50c0 7 -8 20 -25 20c-12 0 -36 -10 -49 -45l-77 41c38 81 81 96 129 96c69 0 118 -47 117 -110c-1 -64 -35 -93 -72 -108l-4 -43h-77z" />
    <glyph glyph-name="uni1EC4" unicode="&#x1ec4;" horiz-adv-x="670" 
d="M84 0v700h528v-137h-375v-142h330v-137h-330v-147h380v-137h-533zM155 755l123 157h144l123 -157h-117l-79 66l-79 -66h-115zM237 939l-71 22c20 73 48 120 109 120c54 0 105 -34 136 -34c27 0 38 15 50 43l71 -22c-20 -73 -48 -120 -109 -120c-54 0 -105 34 -136 34
c-27 0 -38 -15 -50 -43z" />
    <glyph glyph-name="uni1EC5" unicode="&#x1ec5;" horiz-adv-x="613" 
d="M322 -12c-161 0 -280 113 -280 277v2c0 153 109 279 265 279c179 0 261 -139 261 -291c0 -12 -1 -25 -2 -40h-373c15 -69 63 -105 131 -105c51 0 87 16 130 55l87 -77c-51 -63 -122 -100 -219 -100zM191 310h229c-9 68 -49 114 -113 114s-104 -45 -116 -114zM110 595
l123 157h144l123 -157h-117l-79 66l-79 -66h-115zM192 779l-71 22c20 73 48 120 109 120c54 0 105 -34 136 -34c27 0 38 15 50 43l71 -22c-20 -73 -48 -120 -109 -120c-54 0 -105 34 -136 34c-27 0 -38 -15 -50 -43z" />
    <glyph glyph-name="uni1EC6" unicode="&#x1ec6;" horiz-adv-x="670" 
d="M84 0v700h528v-137h-375v-142h330v-137h-330v-147h380v-137h-533zM155 755l123 157h144l123 -157h-117l-79 66l-79 -66h-115zM277 -199v132h143v-132h-143z" />
    <glyph glyph-name="uni1EC7" unicode="&#x1ec7;" horiz-adv-x="613" 
d="M322 -12c-161 0 -280 113 -280 277v2c0 153 109 279 265 279c179 0 261 -139 261 -291c0 -12 -1 -25 -2 -40h-373c15 -69 63 -105 131 -105c51 0 87 16 130 55l87 -77c-51 -63 -122 -100 -219 -100zM191 310h229c-9 68 -49 114 -113 114s-104 -45 -116 -114zM110 595
l123 157h144l123 -157h-117l-79 66l-79 -66h-115zM232 -199v132h143v-132h-143z" />
    <glyph glyph-name="uni1ED0" unicode="&#x1ed0;" horiz-adv-x="850" 
d="M424 -12c-216 0 -371 161 -371 360v2c0 199 157 362 373 362s371 -161 371 -360v-2c0 -199 -157 -362 -373 -362zM426 130c124 0 210 98 210 218v2c0 120 -88 220 -212 220s-210 -98 -210 -218v-2c0 -120 88 -220 212 -220zM230 764l123 157h144l123 -157h-117l-79 66
l-79 -66h-115zM565 884l111 177l131 -57l-130 -120h-112z" />
    <glyph glyph-name="uni1ED1" unicode="&#x1ed1;" horiz-adv-x="664" 
d="M331 -12c-165 0 -289 122 -289 277v2c0 154 124 279 291 279c165 0 289 -122 289 -277v-2c0 -154 -124 -279 -291 -279zM333 119c87 0 139 66 139 146v2c0 79 -57 148 -141 148c-87 0 -139 -66 -139 -146v-2c0 -79 57 -148 141 -148zM137 595l123 157h144l123 -157h-117
l-79 66l-79 -66h-115zM472 714l111 177l131 -57l-130 -120h-112z" />
    <glyph glyph-name="uni1ED2" unicode="&#x1ed2;" horiz-adv-x="850" 
d="M424 -12c-216 0 -371 161 -371 360v2c0 199 157 362 373 362s371 -161 371 -360v-2c0 -199 -157 -362 -373 -362zM426 130c124 0 210 98 210 218v2c0 120 -88 220 -212 220s-210 -98 -210 -218v-2c0 -120 88 -220 212 -220zM230 764l123 157h144l123 -157h-117l-79 66
l-79 -66h-115zM595 884l-130 120l131 57l111 -177h-112z" />
    <glyph glyph-name="uni1ED3" unicode="&#x1ed3;" horiz-adv-x="664" 
d="M331 -12c-165 0 -289 122 -289 277v2c0 154 124 279 291 279c165 0 289 -122 289 -277v-2c0 -154 -124 -279 -291 -279zM333 119c87 0 139 66 139 146v2c0 79 -57 148 -141 148c-87 0 -139 -66 -139 -146v-2c0 -79 57 -148 141 -148zM137 595l123 157h144l123 -157h-117
l-79 66l-79 -66h-115zM502 715l-130 120l131 57l111 -177h-112z" />
    <glyph glyph-name="uni1ED4" unicode="&#x1ed4;" horiz-adv-x="850" 
d="M424 -12c-216 0 -371 161 -371 360v2c0 199 157 362 373 362s371 -161 371 -360v-2c0 -199 -157 -362 -373 -362zM426 130c124 0 210 98 210 218v2c0 120 -88 220 -212 220s-210 -98 -210 -218v-2c0 -120 88 -220 212 -220zM230 764l123 157h144l123 -157h-117l-79 66
l-79 -66h-115zM571 878l-9 99c44 3 67 13 67 50c0 7 -8 20 -25 20c-12 0 -36 -10 -49 -45l-77 41c38 81 81 96 129 96c69 0 118 -47 117 -110c-1 -64 -35 -93 -72 -108l-4 -43h-77z" />
    <glyph glyph-name="uni1ED5" unicode="&#x1ed5;" horiz-adv-x="664" 
d="M331 -12c-165 0 -289 122 -289 277v2c0 154 124 279 291 279c165 0 289 -122 289 -277v-2c0 -154 -124 -279 -291 -279zM333 119c87 0 139 66 139 146v2c0 79 -57 148 -141 148c-87 0 -139 -66 -139 -146v-2c0 -79 57 -148 141 -148zM137 595l123 157h144l123 -157h-117
l-79 66l-79 -66h-115zM478 708l-9 99c44 3 67 13 67 50c0 7 -8 20 -25 20c-12 0 -36 -10 -49 -45l-77 41c38 81 81 96 129 96c69 0 118 -47 117 -110c-1 -64 -35 -93 -72 -108l-4 -43h-77z" />
    <glyph glyph-name="uni1ED6" unicode="&#x1ed6;" horiz-adv-x="850" 
d="M424 -12c-216 0 -371 161 -371 360v2c0 199 157 362 373 362s371 -161 371 -360v-2c0 -199 -157 -362 -373 -362zM426 130c124 0 210 98 210 218v2c0 120 -88 220 -212 220s-210 -98 -210 -218v-2c0 -120 88 -220 212 -220zM230 764l123 157h144l123 -157h-117l-79 66
l-79 -66h-115zM312 948l-71 22c20 73 48 120 109 120c54 0 105 -34 136 -34c27 0 38 15 50 43l71 -22c-20 -73 -48 -120 -109 -120c-54 0 -105 34 -136 34c-27 0 -38 -15 -50 -43z" />
    <glyph glyph-name="uni1ED7" unicode="&#x1ed7;" horiz-adv-x="664" 
d="M331 -12c-165 0 -289 122 -289 277v2c0 154 124 279 291 279c165 0 289 -122 289 -277v-2c0 -154 -124 -279 -291 -279zM333 119c87 0 139 66 139 146v2c0 79 -57 148 -141 148c-87 0 -139 -66 -139 -146v-2c0 -79 57 -148 141 -148zM137 595l123 157h144l123 -157h-117
l-79 66l-79 -66h-115zM219 779l-71 22c20 73 48 120 109 120c54 0 105 -34 136 -34c27 0 38 15 50 43l71 -22c-20 -73 -48 -120 -109 -120c-54 0 -105 34 -136 34c-27 0 -38 -15 -50 -43z" />
    <glyph glyph-name="uni1ED8" unicode="&#x1ed8;" horiz-adv-x="850" 
d="M424 -12c-216 0 -371 161 -371 360v2c0 199 157 362 373 362s371 -161 371 -360v-2c0 -199 -157 -362 -373 -362zM426 130c124 0 210 98 210 218v2c0 120 -88 220 -212 220s-210 -98 -210 -218v-2c0 -120 88 -220 212 -220zM230 764l123 157h144l123 -157h-117l-79 66
l-79 -66h-115zM354 -199v132h143v-132h-143z" />
    <glyph glyph-name="uni1ED9" unicode="&#x1ed9;" horiz-adv-x="664" 
d="M331 -12c-165 0 -289 122 -289 277v2c0 154 124 279 291 279c165 0 289 -122 289 -277v-2c0 -154 -124 -279 -291 -279zM333 119c87 0 139 66 139 146v2c0 79 -57 148 -141 148c-87 0 -139 -66 -139 -146v-2c0 -79 57 -148 141 -148zM137 595l123 157h144l123 -157h-117
l-79 66l-79 -66h-115zM261 -199v132h143v-132h-143z" />
    <glyph glyph-name="uni1EDA" unicode="&#x1eda;" horiz-adv-x="850" 
d="M424 -12c-216 0 -371 161 -371 360v2c0 199 157 362 373 362c68 0 130 -16 183 -44c43 3 57 10 57 27c0 15 -5 44 -36 100h151c16 -51 21 -101 21 -121c-4 -49 -29 -85 -74 -109c44 -60 69 -133 69 -213v-2c0 -199 -157 -362 -373 -362zM426 130c124 0 210 98 210 218v2
c0 120 -88 220 -212 220s-210 -98 -210 -218v-2c0 -120 88 -220 212 -220zM312 765l111 177l131 -57l-130 -120h-112z" />
    <glyph glyph-name="uni1EDB" unicode="&#x1edb;" horiz-adv-x="664" 
d="M331 -12c-165 0 -289 122 -289 277v2c0 154 124 279 291 279c51 0 97 -12 138 -32c31 3 40 10 40 25s-4 43 -35 99h149c17 -49 21 -100 21 -119c-3 -46 -25 -81 -66 -105c28 -43 42 -92 42 -145v-2c0 -154 -124 -279 -291 -279zM333 119c87 0 139 66 139 146v2
c0 79 -57 148 -141 148c-87 0 -139 -66 -139 -146v-2c0 -79 57 -148 141 -148zM238 595l111 177l131 -57l-130 -120h-112z" />
    <glyph glyph-name="uni1EDC" unicode="&#x1edc;" horiz-adv-x="850" 
d="M424 -12c-216 0 -371 161 -371 360v2c0 199 157 362 373 362c68 0 130 -16 183 -44c43 3 57 10 57 27c0 15 -5 44 -36 100h151c16 -51 21 -101 21 -121c-4 -49 -29 -85 -74 -109c44 -60 69 -133 69 -213v-2c0 -199 -157 -362 -373 -362zM426 130c124 0 210 98 210 218v2
c0 120 -88 220 -212 220s-210 -98 -210 -218v-2c0 -120 88 -220 212 -220zM425 764l-130 120l131 57l111 -177h-112z" />
    <glyph glyph-name="uni1EDD" unicode="&#x1edd;" horiz-adv-x="664" 
d="M331 -12c-165 0 -289 122 -289 277v2c0 154 124 279 291 279c51 0 97 -12 138 -32c31 3 40 10 40 25s-4 43 -35 99h149c17 -49 21 -100 21 -119c-3 -46 -25 -81 -66 -105c28 -43 42 -92 42 -145v-2c0 -154 -124 -279 -291 -279zM333 119c87 0 139 66 139 146v2
c0 79 -57 148 -141 148c-87 0 -139 -66 -139 -146v-2c0 -79 57 -148 141 -148zM322 595l-130 120l131 57l111 -177h-112z" />
    <glyph glyph-name="uni1EDE" unicode="&#x1ede;" horiz-adv-x="850" 
d="M424 -12c-216 0 -371 161 -371 360v2c0 199 157 362 373 362c68 0 130 -16 183 -44c43 3 57 10 57 27c0 15 -5 44 -36 100h151c16 -51 21 -101 21 -121c-4 -49 -29 -85 -74 -109c44 -60 69 -133 69 -213v-2c0 -199 -157 -362 -373 -362zM426 130c124 0 210 98 210 218v2
c0 120 -88 220 -212 220s-210 -98 -210 -218v-2c0 -120 88 -220 212 -220zM387 764l-9 99c44 3 67 13 67 50c0 7 -8 20 -25 20c-12 0 -36 -10 -49 -45l-77 41c38 81 81 96 129 96c69 0 118 -47 117 -110c-1 -64 -35 -93 -72 -108l-4 -43h-77z" />
    <glyph glyph-name="uni1EDF" unicode="&#x1edf;" horiz-adv-x="664" 
d="M331 -12c-165 0 -289 122 -289 277v2c0 154 124 279 291 279c51 0 97 -12 138 -32c31 3 40 10 40 25s-4 43 -35 99h149c17 -49 21 -100 21 -119c-3 -46 -25 -81 -66 -105c28 -43 42 -92 42 -145v-2c0 -154 -124 -279 -291 -279zM333 119c87 0 139 66 139 146v2
c0 79 -57 148 -141 148c-87 0 -139 -66 -139 -146v-2c0 -79 57 -148 141 -148zM295 595l-9 99c44 3 67 13 67 50c0 7 -8 20 -25 20c-12 0 -36 -10 -49 -45l-77 41c38 81 81 96 129 96c69 0 118 -47 117 -110c-1 -64 -35 -93 -72 -108l-4 -43h-77z" />
    <glyph glyph-name="uni1EE0" unicode="&#x1ee0;" horiz-adv-x="850" 
d="M424 -12c-216 0 -371 161 -371 360v2c0 199 157 362 373 362c68 0 130 -16 183 -44c43 3 57 10 57 27c0 15 -5 44 -36 100h151c16 -51 21 -101 21 -121c-4 -49 -29 -85 -74 -109c44 -60 69 -133 69 -213v-2c0 -199 -157 -362 -373 -362zM426 130c124 0 210 98 210 218v2
c0 120 -88 220 -212 220s-210 -98 -210 -218v-2c0 -120 88 -220 212 -220zM310 760l-71 22c20 73 48 120 109 120c54 0 105 -34 136 -34c27 0 38 15 50 43l71 -22c-20 -73 -48 -120 -109 -120c-54 0 -105 34 -136 34c-27 0 -38 -15 -50 -43z" />
    <glyph glyph-name="uni1EE1" unicode="&#x1ee1;" horiz-adv-x="664" 
d="M331 -12c-165 0 -289 122 -289 277v2c0 154 124 279 291 279c51 0 97 -12 138 -32c31 3 40 10 40 25s-4 43 -35 99h149c17 -49 21 -100 21 -119c-3 -46 -25 -81 -66 -105c28 -43 42 -92 42 -145v-2c0 -154 -124 -279 -291 -279zM333 119c87 0 139 66 139 146v2
c0 79 -57 148 -141 148c-87 0 -139 -66 -139 -146v-2c0 -79 57 -148 141 -148zM213 585l-64 21c19 71 42 114 98 114c47 0 93 -32 122 -32c24 0 33 14 44 41l64 -21c-19 -71 -42 -114 -98 -114c-48 0 -94 32 -122 32c-24 0 -33 -14 -44 -41z" />
    <glyph glyph-name="uni1EE2" unicode="&#x1ee2;" horiz-adv-x="850" 
d="M424 -12c-216 0 -371 161 -371 360v2c0 199 157 362 373 362c68 0 130 -16 183 -44c43 3 57 10 57 27c0 15 -5 44 -36 100h151c16 -51 21 -101 21 -121c-4 -49 -29 -85 -74 -109c44 -60 69 -133 69 -213v-2c0 -199 -157 -362 -373 -362zM426 130c124 0 210 98 210 218v2
c0 120 -88 220 -212 220s-210 -98 -210 -218v-2c0 -120 88 -220 212 -220zM354 -199v132h143v-132h-143z" />
    <glyph glyph-name="uni1EE3" unicode="&#x1ee3;" horiz-adv-x="664" 
d="M331 -12c-165 0 -289 122 -289 277v2c0 154 124 279 291 279c51 0 97 -12 138 -32c31 3 40 10 40 25s-4 43 -35 99h149c17 -49 21 -100 21 -119c-3 -46 -25 -81 -66 -105c28 -43 42 -92 42 -145v-2c0 -154 -124 -279 -291 -279zM333 119c87 0 139 66 139 146v2
c0 79 -57 148 -141 148c-87 0 -139 -66 -139 -146v-2c0 -79 57 -148 141 -148zM261 -199v132h143v-132h-143z" />
    <glyph glyph-name="uni1EE8" unicode="&#x1ee8;" horiz-adv-x="812" 
d="M630 824h151c16 -51 21 -101 21 -121c-5 -61 -44 -106 -119 -127v-271c0 -212 -119 -316 -307 -316s-303 104 -303 311v400h154v-396c0 -115 56 -173 151 -173s151 56 151 168v401h109c21 4 28 11 28 24c0 15 -5 44 -36 100zM294 755l111 177l131 -57l-130 -120h-112z
" />
    <glyph glyph-name="uni1EE9" unicode="&#x1ee9;" horiz-adv-x="666" 
d="M246 -10c-116 0 -182 75 -182 199v347h152v-299c0 -72 33 -109 92 -109s95 37 95 109v299h106c13 3 20 10 20 21c0 15 -4 43 -35 99h149c17 -49 21 -100 21 -119c-5 -59 -41 -101 -109 -124v-413h-152v76c-35 -45 -81 -86 -157 -86zM214 595l111 177l131 -57l-130 -120
h-112z" />
    <glyph glyph-name="uni1EEA" unicode="&#x1eea;" horiz-adv-x="812" 
d="M630 824h151c16 -51 21 -101 21 -121c-5 -61 -44 -106 -119 -127v-271c0 -212 -119 -316 -307 -316s-303 104 -303 311v400h154v-396c0 -115 56 -173 151 -173s151 56 151 168v401h109c21 4 28 11 28 24c0 15 -5 44 -36 100zM357 755l-130 120l131 57l111 -177h-112z" />
    <glyph glyph-name="uni1EEB" unicode="&#x1eeb;" horiz-adv-x="666" 
d="M246 -10c-116 0 -182 75 -182 199v347h152v-299c0 -72 33 -109 92 -109s95 37 95 109v299h106c13 3 20 10 20 21c0 15 -4 43 -35 99h149c17 -49 21 -100 21 -119c-5 -59 -41 -101 -109 -124v-413h-152v76c-35 -45 -81 -86 -157 -86zM288 595l-130 120l131 57l111 -177
h-112z" />
    <glyph glyph-name="uni1EEC" unicode="&#x1eec;" horiz-adv-x="812" 
d="M630 824h151c16 -51 21 -101 21 -121c-5 -61 -44 -106 -119 -127v-271c0 -212 -119 -316 -307 -316s-303 104 -303 311v400h154v-396c0 -115 56 -173 151 -173s151 56 151 168v401h109c21 4 28 11 28 24c0 15 -5 44 -36 100zM344 764l-9 99c44 3 67 13 67 50
c0 7 -8 20 -25 20c-12 0 -36 -10 -49 -45l-77 41c38 81 81 96 129 96c69 0 118 -47 117 -110c-1 -64 -35 -93 -72 -108l-4 -43h-77z" />
    <glyph glyph-name="uni1EED" unicode="&#x1eed;" horiz-adv-x="666" 
d="M246 -10c-116 0 -182 75 -182 199v347h152v-299c0 -72 33 -109 92 -109s95 37 95 109v299h106c13 3 20 10 20 21c0 15 -4 43 -35 99h149c17 -49 21 -100 21 -119c-5 -59 -41 -101 -109 -124v-413h-152v76c-35 -45 -81 -86 -157 -86zM273 595l-9 99c44 3 67 13 67 50
c0 7 -8 20 -25 20c-12 0 -36 -10 -49 -45l-77 41c38 81 81 96 129 96c69 0 118 -47 117 -110c-1 -64 -35 -93 -72 -108l-4 -43h-77z" />
    <glyph glyph-name="uni1EEE" unicode="&#x1eee;" horiz-adv-x="812" 
d="M630 824h151c16 -51 21 -101 21 -121c-5 -61 -44 -106 -119 -127v-271c0 -212 -119 -316 -307 -316s-303 104 -303 311v400h154v-396c0 -115 56 -173 151 -173s151 56 151 168v401h109c21 4 28 11 28 24c0 15 -5 44 -36 100zM273 760l-71 22c20 73 48 120 109 120
c54 0 105 -34 136 -34c27 0 38 15 50 43l71 -22c-20 -73 -48 -120 -109 -120c-54 0 -105 34 -136 34c-27 0 -38 -15 -50 -43z" />
    <glyph glyph-name="uni1EEF" unicode="&#x1eef;" horiz-adv-x="666" 
d="M246 -10c-116 0 -182 75 -182 199v347h152v-299c0 -72 33 -109 92 -109s95 37 95 109v299h106c13 3 20 10 20 21c0 15 -4 43 -35 99h149c17 -49 21 -100 21 -119c-5 -59 -41 -101 -109 -124v-413h-152v76c-35 -45 -81 -86 -157 -86zM194 585l-71 22c20 73 48 120 109 120
c54 0 105 -34 136 -34c27 0 38 15 50 43l71 -22c-20 -73 -48 -120 -109 -120c-54 0 -105 34 -136 34c-27 0 -38 -15 -50 -43z" />
    <glyph glyph-name="uni1EF0" unicode="&#x1ef0;" horiz-adv-x="812" 
d="M630 824h151c16 -51 21 -101 21 -121c-5 -61 -44 -106 -119 -127v-271c0 -212 -119 -316 -307 -316s-303 104 -303 311v400h154v-396c0 -115 56 -173 151 -173s151 56 151 168v401h109c21 4 28 11 28 24c0 15 -5 44 -36 100zM306 -199v132h143v-132h-143z" />
    <glyph glyph-name="uni1EF1" unicode="&#x1ef1;" horiz-adv-x="666" 
d="M246 -10c-116 0 -182 75 -182 199v347h152v-299c0 -72 33 -109 92 -109s95 37 95 109v299h106c13 3 20 10 20 21c0 15 -4 43 -35 99h149c17 -49 21 -100 21 -119c-5 -59 -41 -101 -109 -124v-413h-152v76c-35 -45 -81 -86 -157 -86zM235 -199v132h143v-132h-143z" />
    <glyph glyph-name="B" unicode="B" horiz-adv-x="722" 
d="M84 0v700h325c81 0 142 -21 183 -62c32 -32 48 -72 48 -119v-2c0 -78 -42 -125 -92 -151c81 -31 131 -79 131 -172v-2c0 -128 -104 -192 -262 -192h-333zM234 417h142c68 0 111 22 111 74v2c0 47 -36 72 -101 72h-152v-148zM234 135h183c68 0 109 24 109 76v2
c0 47 -34 76 -114 76h-178v-154z" />
    </font>
</defs>
</svg>
