<?xml version="1.0" standalone="no"?>
<!DOCTYPE svg PUBLIC "-//W3C//DTD SVG 1.1//EN" "http://www.w3.org/Graphics/SVG/1.1/DTD/svg11.dtd" >
<svg xmlns="http://www.w3.org/2000/svg" xmlns:xlink="http://www.w3.org/1999/xlink" version="1.1">
<metadata>
Created by FontForge 20190801 at Sun May 22 20:20:45 2016
 By Jimmy Wärting
HTF Gotham  Copr. 2002 The Hoefler Type Foundry, Inc. Info: www.typography.com
</metadata>
<defs>
<font id="SVN-GothamBoldItalic" horiz-adv-x="832" >
  <font-face 
    font-family="SVN-Gotham"
    font-weight="700"
    font-style="italic"
    font-stretch="normal"
    units-per-em="1000"
    panose-1="2 0 8 3 4 0 0 9 0 4"
    ascent="800"
    descent="-200"
    x-height="536"
    cap-height="700"
    bbox="-138 -200 1247 1146"
    underline-thickness="20"
    underline-position="-133"
    slope="-12"
    unicode-range="U+0020-FB02"
  />
<missing-glyph horiz-adv-x="500" 
 />
    <glyph glyph-name="fi" unicode="fi" horiz-adv-x="713" 
d="M414 0l144 536h152l-144 -536h-152zM23 0l110 406h-64l35 130h63l7 29c31 120 104 172 217 172c43 0 79 -6 104 -15l-33 -126c-20 8 -45 13 -66 13c-39 0 -64 -19 -75 -58l-4 -15h129l-35 -130h-126l-110 -406h-152zM570 595l37 135h160l-37 -135h-160z" />
    <glyph glyph-name="fl" unicode="fl" horiz-adv-x="713" 
d="M23 0l110 406h-64l35 130h63l7 29c31 120 104 172 217 172c43 0 79 -6 104 -15l-33 -126c-20 8 -45 13 -66 13c-39 0 -64 -19 -75 -58l-4 -15h129l-35 -130h-126l-110 -406h-152zM414 0l196 730h152l-196 -730h-152z" />
    <glyph glyph-name=".notdef" horiz-adv-x="500" 
 />
    <glyph glyph-name="NUL" horiz-adv-x="0" 
 />
    <glyph glyph-name="CR" horiz-adv-x="300" 
 />
    <glyph glyph-name="space" unicode=" " horiz-adv-x="300" 
 />
    <glyph glyph-name="exclam" unicode="!" horiz-adv-x="325" 
d="M9 0l43 160h162l-43 -160h-162zM112 238l71 442l6 20h178l-6 -20l-165 -442h-84z" />
    <glyph glyph-name="quotedbl" unicode="&#x22;" horiz-adv-x="528" 
d="M99 381l84 319h170l-2 -5l-173 -314h-79zM341 381l84 319h170l-2 -5l-173 -314h-79z" />
    <glyph glyph-name="numbersign" unicode="#" horiz-adv-x="691" 
d="M269 278h145l51 148h-145zM40 0l52 150h-81l34 128h92l51 148h-93l34 128h104l51 146h132l-51 -146h145l51 146h132l-51 -146h82l-34 -128h-93l-51 -148h94l-34 -128h-105l-52 -150h-132l52 150h-145l-52 -150h-132z" />
    <glyph glyph-name="dollar" unicode="$" horiz-adv-x="636" 
d="M370 262l-40 -130c56 5 89 29 89 72c0 25 -13 41 -49 58zM329 439l39 129c-65 -4 -92 -37 -92 -72c0 -24 13 -38 53 -57zM161 -98l33 108c-84 17 -151 55 -199 119l112 94c37 -43 81 -70 130 -83l47 155c-94 35 -166 76 -166 185c0 126 121 220 276 220h8l18 58h104
l-21 -71c64 -17 113 -48 154 -91l-104 -102c-31 28 -60 49 -92 61l-45 -149c96 -37 161 -82 161 -186c0 -132 -125 -220 -281 -220h-1l-30 -98h-104z" />
    <glyph glyph-name="percent" unicode="%" horiz-adv-x="880" 
d="M651 79c55 0 90 65 90 117c0 44 -23 71 -62 71c-55 0 -90 -65 -90 -117c0 -44 23 -71 62 -71zM244 433c55 0 90 65 90 117c0 44 -23 71 -62 71c-55 0 -90 -65 -90 -117c0 -44 23 -71 62 -71zM645 -8c-93 0 -154 63 -154 154c0 103 78 208 194 208c93 0 154 -63 154 -154
c0 -103 -78 -208 -194 -208zM60 0l673 700h130l-673 -700h-130zM238 346c-93 0 -154 63 -154 154c0 103 78 208 194 208c93 0 154 -63 154 -154c0 -103 -78 -208 -194 -208z" />
    <glyph glyph-name="ampersand" unicode="&#x26;" horiz-adv-x="696" 
d="M262 116c39 0 82 14 128 43l-108 149c-80 -31 -114 -77 -114 -121c0 -40 31 -71 94 -71zM348 436c92 32 115 60 115 99c0 27 -20 57 -63 57c-51 0 -81 -37 -81 -77c0 -20 6 -44 29 -79zM515 -14l-56 77c-67 -47 -137 -73 -214 -73c-130 0 -222 71 -222 188
c0 86 57 170 198 218c-23 40 -37 82 -37 121c0 103 86 195 223 195c115 0 193 -71 193 -168c0 -68 -42 -143 -189 -194l79 -106c31 32 58 70 85 113l93 -65c-35 -53 -71 -100 -109 -141l69 -93z" />
    <glyph glyph-name="quotesingle" unicode="'" horiz-adv-x="286" 
d="M99 381l84 319h170l-2 -5l-173 -314h-79z" />
    <glyph glyph-name="parenleft" unicode="(" horiz-adv-x="445" 
d="M336 -46l-95 -97c-117 93 -183 212 -183 352c0 219 143 403 395 504l56 -113c-196 -90 -297 -238 -297 -386c0 -100 53 -187 124 -260z" />
    <glyph glyph-name="parenright" unicode=")" horiz-adv-x="445" 
d="M2 -139l-56 113c196 91 297 236 297 386c0 100 -53 187 -124 260l95 97c117 -93 183 -212 183 -352c0 -218 -143 -405 -395 -504z" />
    <glyph glyph-name="asterisk" unicode="*" horiz-adv-x="430" 
d="M278 367l-79 21l46 112l-113 -46l-22 80l121 16l-96 75l59 59l74 -97l16 120l79 -21l-46 -112l113 46l22 -80l-121 -16l96 -75l-59 -59l-74 97z" />
    <glyph glyph-name="plus" unicode="+" horiz-adv-x="649" 
d="M210 103l48 180h-181l37 138h181l48 180h142l-48 -180h181l-37 -138h-181l-48 -180h-142z" />
    <glyph glyph-name="comma" unicode="," horiz-adv-x="319" 
d="M-51 -162l-10 63c83 7 119 42 130 99h-62l43 160h162l-36 -135c-35 -132 -108 -184 -227 -187z" />
    <glyph glyph-name="hyphen" unicode="-" horiz-adv-x="412" 
d="M44 237l39 146h308l-39 -146h-308z" />
    <glyph glyph-name="hyphen" unicode="&#xad;" horiz-adv-x="412" 
d="M44 237l39 146h308l-39 -146h-308z" />
    <glyph glyph-name="period" unicode="." horiz-adv-x="319" 
d="M7 0l43 160h162l-43 -160h-162z" />
    <glyph glyph-name="slash" unicode="/" horiz-adv-x="530" 
d="M-135 -128l681 926h143l-681 -926h-143z" />
    <glyph glyph-name="zero" unicode="0" horiz-adv-x="730" 
d="M347 127c125 0 205 165 205 295c0 100 -50 151 -127 151c-125 0 -205 -165 -205 -295c0 -100 50 -151 127 -151zM335 -12c-164 0 -273 115 -273 291c0 204 139 433 375 433c164 0 273 -115 273 -291c0 -204 -139 -433 -375 -433z" />
    <glyph glyph-name="one" unicode="1" horiz-adv-x="434" 
d="M95 0l145 542l-127 -29l-2 131l220 61h105l-189 -705h-152z" />
    <glyph glyph-name="two" unicode="2" horiz-adv-x="614" 
d="M-30 0l34 126l354 244c68 47 102 85 102 130c0 47 -33 72 -88 72c-61 0 -111 -34 -167 -87l-94 98c68 77 156 127 268 127c145 0 239 -81 239 -193c0 -87 -40 -148 -165 -236l-216 -148h294l-36 -133h-525z" />
    <glyph glyph-name="three" unicode="3" horiz-adv-x="604" 
d="M242 -12c-132 0 -212 53 -259 133l114 84c37 -51 79 -79 152 -79c75 0 132 46 132 98c0 55 -52 83 -137 83h-43l-6 96l206 165h-265l36 132h473l-32 -116l-226 -172c88 -21 149 -73 149 -174c0 -141 -127 -250 -294 -250z" />
    <glyph glyph-name="four" unicode="4" horiz-adv-x="659" 
d="M211 276h178l60 224zM315 0l40 151h-324l-15 114l483 440h150l-115 -429h94l-34 -125h-94l-40 -151h-145z" />
    <glyph glyph-name="five" unicode="5" horiz-adv-x="610" 
d="M250 -11c-101 0 -212 54 -259 125l108 91c47 -51 99 -77 164 -77c83 0 142 49 142 109c0 51 -41 90 -130 90c-31 0 -67 -11 -94 -22l-78 63l109 332h424l-37 -135h-285l-40 -119c25 5 48 8 71 8c128 0 218 -77 218 -200c0 -139 -122 -265 -313 -265z" />
    <glyph glyph-name="six" unicode="6" horiz-adv-x="643" 
d="M313 118c81 0 135 61 135 121c0 57 -42 92 -105 92c-83 0 -138 -55 -138 -120c0 -25 9 -46 26 -63c20 -20 47 -30 82 -30zM313 -12c-75 0 -139 21 -182 64c-47 47 -72 109 -72 197c0 133 46 267 137 358c64 64 150 105 254 105c89 0 163 -32 216 -81l-89 -111
c-36 32 -83 54 -140 54c-56 0 -99 -18 -136 -55c-31 -31 -57 -75 -72 -123c31 31 94 59 161 59c116 0 213 -70 213 -195c0 -141 -127 -272 -290 -272z" />
    <glyph glyph-name="seven" unicode="7" horiz-adv-x="609" 
d="M9 0l435 567h-322l36 133h504l-32 -116l-440 -584h-181z" />
    <glyph glyph-name="eight" unicode="8" horiz-adv-x="662" 
d="M308 114c76 0 132 36 133 92c1 51 -50 86 -127 86s-131 -39 -132 -91c-1 -51 50 -87 126 -87zM378 416c65 0 114 38 115 87c1 44 -38 81 -111 81c-64 0 -113 -37 -114 -86c-1 -47 42 -82 110 -82zM300 -10c-144 0 -268 78 -268 198c0 107 77 167 179 191
c-56 28 -85 79 -85 135c0 91 88 196 263 196c147 0 248 -79 248 -188c0 -88 -57 -152 -153 -175c64 -24 107 -74 107 -149c0 -107 -107 -208 -291 -208z" />
    <glyph glyph-name="nine" unicode="9" horiz-adv-x="643" 
d="M346 362c83 0 136 57 136 124c0 25 -9 50 -25 66c-20 20 -47 30 -82 30c-83 0 -136 -58 -136 -126c0 -61 44 -94 107 -94zM243 -12c-88 0 -166 32 -230 89l90 111c45 -39 88 -62 148 -62c53 0 99 19 137 57c31 31 53 68 68 113c-31 -31 -92 -58 -159 -58
c-116 0 -213 67 -213 198c0 153 127 276 290 276c68 0 140 -20 183 -63c47 -47 72 -109 72 -212c0 -127 -49 -254 -140 -345c-65 -65 -149 -104 -246 -104z" />
    <glyph glyph-name="colon" unicode=":" horiz-adv-x="319" 
d="M7 0l43 160h162l-43 -160h-162zM108 376l43 160h162l-43 -160h-162z" />
    <glyph glyph-name="semicolon" unicode=";" horiz-adv-x="319" 
d="M-51 -162l-10 63c83 7 119 42 130 99h-62l43 160h162l-36 -135c-35 -132 -108 -184 -227 -187zM108 376l43 160h162l-43 -160h-162z" />
    <glyph glyph-name="semicolon" unicode="&#x37e;" horiz-adv-x="319" 
d="M-51 -162l-10 63c83 7 119 42 130 99h-62l43 160h162l-36 -135c-35 -132 -108 -184 -227 -187zM108 376l43 160h162l-43 -160h-162z" />
    <glyph glyph-name="less" unicode="&#x3c;" horiz-adv-x="640" 
d="M499 71l-427 212l37 138l541 212l-41 -148l-375 -139l301 -139z" />
    <glyph glyph-name="equal" unicode="=" horiz-adv-x="640" 
d="M54 153l37 138h474l-37 -138h-474zM124 413l37 138h474l-37 -138h-474z" />
    <glyph glyph-name="greater" unicode="&#x3e;" horiz-adv-x="640" 
d="M32 71l41 148l375 139l-301 139l36 136l427 -212l-37 -138z" />
    <glyph glyph-name="question" unicode="?" horiz-adv-x="544" 
d="M86 0l43 160h162l-43 -160h-162zM177 238l20 162l6 5c129 9 200 43 200 102c0 39 -26 62 -83 62c-48 0 -100 -22 -143 -59l-80 101c64 65 155 98 244 98c141 0 223 -87 223 -182c0 -117 -87 -192 -256 -219l-29 -70h-102z" />
    <glyph glyph-name="at" unicode="@" horiz-adv-x="980" 
d="M461 165c68 0 138 71 138 159c0 51 -36 83 -87 83c-68 0 -135 -68 -135 -156c0 -53 32 -86 84 -86zM471 -155c-245 0 -416 160 -416 388c0 257 214 482 487 482c251 0 405 -162 405 -344c0 -212 -118 -306 -237 -306c-68 0 -118 30 -139 77c-40 -41 -89 -78 -160 -78
c-88 0 -161 60 -161 169c0 161 127 276 251 276c68 0 104 -27 131 -70l19 62l111 -31l-79 -249c-23 -73 6 -109 58 -109c72 0 164 90 164 259c0 163 -138 304 -363 304c-251 0 -446 -207 -446 -442c0 -205 154 -349 375 -349c75 0 137 14 205 45l16 -35
c-73 -35 -141 -49 -221 -49z" />
    <glyph glyph-name="A" unicode="A" horiz-adv-x="765" 
d="M307 293h186l-32 231zM-57 0l489 705h148l111 -705h-158l-22 157h-296l-106 -157h-166z" />
    <glyph glyph-name="B" unicode="B" horiz-adv-x="717" 
d="M198 135h181c77 0 125 33 125 88c0 41 -32 66 -96 66h-169zM274 417h155c80 0 126 26 126 85c0 36 -29 63 -97 63h-145zM12 0l188 700h272c164 0 237 -78 237 -172c0 -93 -59 -153 -150 -173c59 -27 98 -70 98 -142c0 -125 -107 -213 -301 -213h-344z" />
    <glyph glyph-name="C" unicode="C" horiz-adv-x="726" 
d="M397 -12c-192 0 -330 118 -330 305c0 223 190 419 426 419c135 0 224 -57 280 -149l-127 -89c-41 59 -88 96 -172 96c-128 0 -247 -122 -247 -271c0 -101 71 -169 171 -169c68 0 112 26 164 69l100 -104c-68 -63 -148 -107 -265 -107z" />
    <glyph glyph-name="D" unicode="D" horiz-adv-x="777" 
d="M203 139h87c93 0 178 29 234 85c45 45 70 107 70 175c0 47 -14 84 -41 111c-31 31 -81 51 -161 51h-75zM12 0l188 700h204c136 0 221 -37 274 -90c51 -51 76 -119 76 -205c0 -105 -39 -200 -115 -276c-84 -84 -204 -129 -367 -129h-260z" />
    <glyph glyph-name="E" unicode="E" horiz-adv-x="665" 
d="M12 0l188 700h523l-37 -137h-370l-38 -143h325l-37 -135h-325l-40 -148h376l-37 -137h-528z" />
    <glyph glyph-name="F" unicode="F" horiz-adv-x="663" 
d="M12 0l188 700h533l-38 -140h-379l-40 -149h334l-37 -140h-334l-73 -271h-154z" />
    <glyph glyph-name="G" unicode="G" horiz-adv-x="780" 
d="M395 -12c-160 0 -329 95 -329 304c0 218 185 420 437 420c147 0 238 -57 286 -121l-114 -101c-41 45 -96 81 -184 81c-149 0 -265 -128 -265 -274c0 -109 80 -168 179 -168c55 0 94 12 125 27l33 114h-155l36 133h304l-99 -349c-69 -39 -149 -66 -254 -66z" />
    <glyph glyph-name="H" unicode="H" horiz-adv-x="756" 
d="M12 0l188 700h154l-74 -277h280l74 277h154l-188 -700h-154l76 281h-280l-76 -281h-154z" />
    <glyph glyph-name="I" unicode="I" horiz-adv-x="336" 
d="M19 0l188 700h154l-188 -700h-154z" />
    <glyph glyph-name="J" unicode="J" horiz-adv-x="575" 
d="M188 -10c-89 0 -176 38 -227 117l109 95c39 -49 77 -69 126 -69c39 0 70 15 94 39c21 21 37 49 61 143l103 385h158l-113 -422c-29 -110 -52 -163 -102 -213c-52 -52 -121 -75 -209 -75z" />
    <glyph glyph-name="K" unicode="K" horiz-adv-x="727" 
d="M12 0l188 700h154l-83 -310l346 310h208l-341 -293l165 -407h-169l-118 315l-145 -124l-51 -191h-154z" />
    <glyph glyph-name="L" unicode="L" horiz-adv-x="626" 
d="M12 0l188 700h154l-150 -560h349l-38 -140h-503z" />
    <glyph glyph-name="M" unicode="M" horiz-adv-x="868" 
d="M12 0l188 700h160l101 -296l261 296h178l-188 -700h-156l122 457l-274 -299h-4l-112 296l-122 -454h-154z" />
    <glyph glyph-name="N" unicode="N" horiz-adv-x="786" 
d="M12 0l188 700h142l204 -445l120 445h152l-188 -700h-131l-212 459l-123 -459h-152z" />
    <glyph glyph-name="O" unicode="O" 
d="M405 130c147 0 243 141 243 262c0 104 -62 178 -178 178c-147 0 -243 -141 -243 -262c0 -104 62 -178 178 -178zM387 -12c-192 0 -320 134 -320 310c0 208 170 414 421 414c192 0 320 -134 320 -310c0 -208 -170 -414 -421 -414z" />
    <glyph glyph-name="P" unicode="P" horiz-adv-x="679" 
d="M259 347h105c103 0 171 45 171 125c0 23 -8 43 -23 58c-21 21 -49 31 -96 31h-100zM12 0l188 700h222c100 0 169 -20 220 -71c36 -36 54 -84 54 -144c0 -174 -149 -273 -340 -273h-133l-57 -212h-154z" />
    <glyph glyph-name="Q" unicode="Q" 
d="M405 130c32 0 61 7 88 18l-90 122l127 85l71 -114c31 47 47 100 47 151c0 104 -62 178 -178 178c-147 0 -243 -141 -243 -262c0 -104 62 -178 178 -178zM618 -44l-46 74c-55 -27 -117 -42 -185 -42c-192 0 -320 134 -320 310c0 208 170 414 421 414
c192 0 320 -134 320 -310c0 -107 -43 -209 -119 -288l56 -74z" />
    <glyph glyph-name="R" unicode="R" horiz-adv-x="727" 
d="M263 360h137c60 0 110 14 141 45c19 19 29 43 29 71c0 23 -7 41 -22 56c-19 19 -53 29 -102 29h-129zM12 0l188 700h255c104 0 175 -23 222 -70c36 -36 54 -83 54 -141c0 -68 -23 -125 -64 -166c-40 -40 -94 -68 -162 -84l119 -239h-175l-108 224h-115l-60 -224h-154z
" />
    <glyph glyph-name="S" unicode="S" horiz-adv-x="636" 
d="M295 -10c-137 0 -238 43 -305 129l116 98c56 -60 116 -92 196 -92c63 0 107 29 107 73c0 34 -26 55 -119 92c-90 37 -172 85 -172 189c0 143 129 231 278 231c121 0 202 -40 262 -104l-106 -106c-53 49 -100 75 -168 75c-65 0 -102 -36 -102 -71c0 -37 28 -52 123 -92
s168 -87 168 -189c0 -148 -131 -233 -278 -233z" />
    <glyph glyph-name="T" unicode="T" horiz-adv-x="620" 
d="M159 0l150 558h-213l38 142h580l-38 -142h-213l-150 -558h-154z" />
    <glyph glyph-name="U" unicode="U" horiz-adv-x="764" 
d="M343 -11c-163 0 -262 87 -262 236c0 35 6 72 17 112l97 363h154l-101 -377c-7 -24 -11 -47 -11 -76c0 -69 42 -116 122 -116c45 0 83 15 114 44c31 31 53 74 68 130l106 395h154l-112 -417c-24 -91 -60 -160 -108 -208c-57 -57 -134 -86 -238 -86z" />
    <glyph glyph-name="V" unicode="V" horiz-adv-x="724" 
d="M216 -5l-91 705h165l48 -488l310 488h173l-469 -705h-136z" />
    <glyph glyph-name="W" unicode="W" horiz-adv-x="1108" 
d="M180 -5l-50 705h160l18 -474l282 476h132l32 -476l272 474h174l-428 -705h-143l-34 449l-274 -449h-141z" />
    <glyph glyph-name="X" unicode="X" horiz-adv-x="700" 
d="M-51 0l338 363l-150 337h173l88 -225l196 225h197l-329 -354l155 -346h-173l-94 235l-204 -235h-197z" />
    <glyph glyph-name="Y" unicode="Y" horiz-adv-x="650" 
d="M169 0l74 276l-145 424h171l82 -290l240 290h186l-383 -438l-71 -262h-154z" />
    <glyph glyph-name="Z" unicode="Z" horiz-adv-x="689" 
d="M-19 0l31 117l492 448h-360l37 135h568l-32 -117l-492 -448h375l-36 -135h-583z" />
    <glyph glyph-name="bracketleft" unicode="[" horiz-adv-x="465" 
d="M-10 -130l223 830h323l-32 -119h-177l-159 -592h177l-32 -119h-323z" />
    <glyph glyph-name="backslash" unicode="\" horiz-adv-x="530" 
d="M326 -128l-208 926h126l208 -926h-126z" />
    <glyph glyph-name="bracketright" unicode="]" horiz-adv-x="465" 
d="M-62 -130l32 119h177l159 592h-177l32 119h323l-223 -830h-323z" />
    <glyph glyph-name="asciicircum" unicode="^" horiz-adv-x="500" 
d="M84 493l204 207h104l92 -207h-99l-60 117l-122 -117h-119z" />
    <glyph glyph-name="underscore" unicode="_" horiz-adv-x="600" 
d="M-115 -160l31 116h604l-31 -116h-604z" />
    <glyph glyph-name="grave" unicode="`" horiz-adv-x="500" 
d="M346 595l-95 120l134 57l65 -177h-104z" />
    <glyph glyph-name="a" unicode="a" horiz-adv-x="588" 
d="M228 94c63 0 119 49 135 108l4 14c-27 11 -63 19 -100 19c-64 0 -109 -32 -109 -84c0 -33 27 -57 70 -57zM163 -10c-92 0 -156 60 -156 144c0 124 101 193 231 193c59 0 106 -9 151 -24l2 7c3 12 6 24 6 40c0 37 -25 63 -101 63c-52 0 -104 -13 -143 -29l-24 120
c56 23 123 38 199 38c145 0 217 -60 217 -165c0 -28 -5 -54 -12 -81l-79 -296h-147l16 62c-43 -47 -96 -72 -160 -72z" />
    <glyph glyph-name="b" unicode="b" horiz-adv-x="674" 
d="M317 118c82 0 159 80 159 188c0 71 -44 112 -112 112c-84 0 -162 -84 -162 -186c0 -68 47 -114 115 -114zM337 -10c-84 0 -133 35 -168 88l-21 -78h-151l194 730h152l-67 -252c47 43 91 68 151 68c117 0 206 -85 206 -230c0 -190 -145 -326 -296 -326z" />
    <glyph glyph-name="c" unicode="c" horiz-adv-x="560" 
d="M292 -12c-147 0 -250 96 -250 242c0 175 145 316 316 316c118 0 183 -54 220 -118l-116 -82c-27 41 -56 70 -116 70c-80 0 -154 -86 -154 -186c0 -69 45 -113 105 -113c47 0 81 18 121 53l78 -99c-56 -51 -113 -83 -204 -83z" />
    <glyph glyph-name="d" unicode="d" horiz-adv-x="674" 
d="M309 118c84 0 162 84 162 186c0 68 -47 114 -115 114c-82 0 -159 -80 -159 -188c0 -71 44 -112 112 -112zM246 -10c-117 0 -206 85 -206 230c0 190 145 326 296 326c84 0 133 -35 168 -88l72 272h152l-195 -730h-152l16 58c-47 -43 -91 -68 -151 -68z" />
    <glyph glyph-name="e" unicode="e" horiz-adv-x="607" 
d="M197 310h233c3 11 5 23 5 35c0 44 -25 79 -88 79c-69 0 -125 -46 -150 -114zM551 215h-367c5 -64 42 -105 122 -105c40 0 75 12 119 43l70 -94c-48 -40 -114 -71 -206 -71c-155 0 -248 90 -248 238c0 156 126 320 318 320c140 0 219 -90 219 -209c0 -39 -10 -81 -27 -122
z" />
    <glyph glyph-name="f" unicode="f" horiz-adv-x="411" 
d="M23 0l110 406h-64l35 130h63l7 29c31 120 104 172 217 172c43 0 79 -6 104 -15l-33 -126c-20 8 -45 13 -66 13c-39 0 -64 -19 -75 -58l-4 -15h129l-35 -130h-126l-110 -406h-152z" />
    <glyph glyph-name="g" unicode="g" horiz-adv-x="671" 
d="M302 165c84 0 158 71 158 156c0 61 -42 98 -106 98c-85 0 -154 -75 -154 -159c0 -64 42 -95 102 -95zM250 -162c-108 0 -211 27 -283 75l80 104c56 -37 125 -59 193 -59c51 0 87 14 116 43c23 23 37 53 49 96l5 18c-56 -51 -101 -71 -168 -71c-103 0 -199 64 -199 187
c0 179 145 315 293 315c93 0 133 -44 163 -93l22 83h152l-115 -431c-29 -108 -51 -150 -94 -193c-49 -49 -115 -74 -214 -74z" />
    <glyph glyph-name="h" unicode="h" horiz-adv-x="622" 
d="M-3 0l194 730h152l-66 -250c39 35 86 66 146 66c96 0 158 -59 158 -156c0 -31 -9 -67 -18 -102l-77 -288h-152l79 294c4 15 7 35 7 48c0 43 -27 66 -74 66c-60 0 -99 -43 -116 -107l-81 -301h-152z" />
    <glyph glyph-name="i" unicode="i" horiz-adv-x="302" 
d="M3 0l144 536h152l-144 -536h-152zM159 595l37 135h160l-37 -135h-160z" />
    <glyph glyph-name="j" unicode="j" horiz-adv-x="301" 
d="M-46 -163c-35 0 -60 3 -83 8l32 119c12 -3 22 -5 37 -5c33 0 60 26 72 73l135 504h152l-140 -523c-37 -132 -111 -176 -205 -176zM159 595l36 135h160l-36 -135h-160z" />
    <glyph glyph-name="k" unicode="k" horiz-adv-x="591" 
d="M-3 0l196 730h152l-102 -378l217 184h198l-259 -209l117 -327h-170l-76 227l-77 -62l-44 -165h-152z" />
    <glyph glyph-name="l" unicode="l" horiz-adv-x="302" 
d="M3 0l196 730h152l-196 -730h-152z" />
    <glyph glyph-name="m" unicode="m" horiz-adv-x="949" 
d="M-3 0l143 536h152l-15 -56c39 35 82 66 142 66c73 0 121 -37 142 -97c47 57 111 97 192 97c96 0 155 -59 155 -156c0 -31 -9 -67 -18 -102l-77 -288h-152l79 294c4 15 7 35 7 48c0 44 -24 66 -71 66c-60 0 -97 -43 -114 -107l-81 -301h-152l79 294c4 15 7 35 7 48
c0 44 -24 66 -71 66c-60 0 -97 -43 -114 -107l-81 -301h-152z" />
    <glyph glyph-name="n" unicode="n" horiz-adv-x="619" 
d="M-3 0l143 536h152l-15 -56c39 35 86 66 146 66c96 0 158 -59 158 -156c0 -31 -9 -67 -18 -102l-77 -288h-152l79 294c4 15 7 35 7 48c0 43 -27 66 -74 66c-60 0 -99 -43 -116 -107l-81 -301h-152z" />
    <glyph glyph-name="o" unicode="o" horiz-adv-x="652" 
d="M307 118c93 0 154 100 154 176c0 79 -47 122 -116 122c-93 0 -154 -100 -154 -176c0 -79 47 -122 116 -122zM300 -12c-159 0 -258 104 -258 248c0 160 137 310 310 310c159 0 258 -104 258 -248c0 -160 -139 -310 -310 -310z" />
    <glyph glyph-name="p" unicode="p" horiz-adv-x="674" 
d="M317 118c82 0 159 80 159 188c0 71 -44 112 -112 112c-84 0 -162 -84 -162 -186c0 -68 47 -114 115 -114zM-46 -160l186 696h152l-16 -58c47 43 91 68 151 68c117 0 206 -85 206 -230c0 -190 -145 -326 -296 -326c-84 0 -133 35 -168 88l-63 -238h-152z" />
    <glyph glyph-name="q" unicode="q" horiz-adv-x="674" 
d="M309 118c84 0 162 84 162 186c0 68 -47 114 -115 114c-82 0 -159 -80 -159 -188c0 -71 44 -112 112 -112zM328 -200l69 258c-47 -43 -91 -68 -151 -68c-117 0 -206 85 -206 230c0 190 145 326 296 326c84 0 133 -35 168 -88l20 78h152l-196 -736h-152z" />
    <glyph glyph-name="r" unicode="r" horiz-adv-x="419" 
d="M-3 0l143 536h152l-29 -108c55 80 116 125 204 118l-43 -159h-8c-101 0 -179 -57 -216 -197l-51 -190h-152z" />
    <glyph glyph-name="s" unicode="s" horiz-adv-x="500" 
d="M217 -12c-81 0 -178 31 -241 97l88 91c56 -56 116 -72 164 -72c40 0 64 16 64 47c0 20 -25 34 -62 50c-84 34 -156 73 -156 157c0 107 82 188 215 188c87 0 167 -38 211 -77l-82 -96c-52 41 -96 57 -140 57c-37 0 -59 -17 -59 -45c0 -21 26 -36 71 -56
c70 -32 147 -67 147 -152c0 -117 -92 -189 -220 -189z" />
    <glyph glyph-name="t" unicode="t" horiz-adv-x="415" 
d="M192 -9c-92 0 -137 45 -137 105c0 23 3 43 10 67l65 243h-64l35 130h64l37 137h152l-37 -137h126l-35 -130h-126l-60 -225c-3 -8 -4 -17 -4 -24c0 -21 14 -32 41 -32c24 0 53 6 78 17l-35 -129c-31 -15 -68 -22 -110 -22z" />
    <glyph glyph-name="u" unicode="u" horiz-adv-x="622" 
d="M199 -10c-96 0 -158 59 -158 156c0 31 9 67 18 102l77 288h152l-79 -294c-4 -15 -7 -35 -7 -48c0 -43 27 -66 74 -66c60 0 99 43 116 107l81 301h152l-143 -536h-152l15 56c-39 -35 -86 -66 -146 -66z" />
    <glyph glyph-name="v" unicode="v" horiz-adv-x="592" 
d="M150 -4l-65 540h156l24 -357l213 357h163l-353 -540h-138z" />
    <glyph glyph-name="w" unicode="w" horiz-adv-x="857" 
d="M109 -4l-20 540h154l-1 -325l188 327h131l14 -328l176 326h151l-312 -540h-137l-15 329l-193 -329h-136z" />
    <glyph glyph-name="x" unicode="x" horiz-adv-x="578" 
d="M-50 0l262 280l-117 256h162l60 -150l126 150h181l-251 -271l118 -265h-162l-62 159l-136 -159h-181z" />
    <glyph glyph-name="y" unicode="y" horiz-adv-x="592" 
d="M85 -163c-56 0 -92 14 -125 37l81 110c16 -12 39 -21 59 -21c23 0 38 6 59 33l-66 540h155l25 -364l201 364h164l-332 -549c-69 -109 -130 -150 -221 -150z" />
    <glyph glyph-name="z" unicode="z" horiz-adv-x="557" 
d="M-27 0l29 107l351 306h-260l33 123h454l-29 -107l-352 -306h273l-33 -123h-466z" />
    <glyph glyph-name="braceleft" unicode="{" horiz-adv-x="490" 
d="M358 -48l-50 -93c-135 25 -186 74 -186 153c0 22 7 51 20 86c11 27 16 55 16 71c0 36 -7 60 -82 60h-32l31 116h32c93 0 126 25 142 153c19 150 101 214 282 217l10 -102c-127 -13 -150 -51 -161 -151c-16 -139 -63 -176 -163 -187c56 -8 85 -42 85 -89
c0 -27 -9 -54 -18 -77c-8 -23 -17 -47 -17 -70c0 -41 17 -61 91 -87z" />
    <glyph glyph-name="bar" unicode="|" horiz-adv-x="350" 
d="M132 -128v926h120v-926h-120z" />
    <glyph glyph-name="braceright" unicode="}" horiz-adv-x="490" 
d="M-31 -141l-10 102c125 11 150 53 161 151c16 139 63 176 163 187c-56 8 -85 42 -85 89c0 27 9 54 18 77c8 21 17 47 17 70c0 41 -17 61 -91 87l50 93c135 -27 186 -74 186 -153c0 -22 -7 -51 -20 -86c-11 -27 -16 -55 -16 -71c0 -36 7 -60 82 -60h32l-31 -116h-32
c-94 0 -126 -25 -142 -153c-19 -150 -101 -214 -282 -217z" />
    <glyph glyph-name="asciitilde" unicode="~" horiz-adv-x="510" 
d="M135 220l-80 40c35 79 89 133 153 133c35 0 56 -12 79 -29c27 -19 37 -26 53 -26c31 0 51 24 70 59l80 -40c-35 -79 -89 -133 -153 -133c-35 0 -55 12 -79 29c-27 19 -37 26 -53 26c-31 0 -51 -24 -70 -59z" />
    <glyph glyph-name="Adieresis" unicode="&#xc4;" horiz-adv-x="765" 
d="M329 755l37 135h146l-37 -135h-146zM543 755l37 135h146l-37 -135h-146zM307 293h186l-32 231zM-57 0l489 705h148l111 -705h-158l-22 157h-296l-106 -157h-166z" />
    <glyph glyph-name="Aring" unicode="&#xc5;" horiz-adv-x="765" 
d="M307 293h186l-32 231zM509 714c40 0 68 38 68 78c0 28 -17 50 -48 50c-40 0 -68 -38 -68 -78c0 -28 17 -50 48 -50zM-57 0l480 692c-17 19 -26 43 -26 71c0 72 59 134 134 134c68 0 110 -45 110 -104c0 -45 -23 -85 -58 -110l108 -683h-158l-22 157h-296l-106 -157h-166z
" />
    <glyph glyph-name="Ccedilla" unicode="&#xc7;" horiz-adv-x="726" 
d="M388 -12l-108 -161l-113 53l117 123c-131 37 -217 143 -217 290c0 223 190 419 426 419c135 0 224 -57 280 -149l-127 -89c-41 59 -88 96 -172 96c-128 0 -247 -122 -247 -271c0 -101 71 -169 171 -169c68 0 112 26 164 69l100 -104c-68 -63 -148 -107 -265 -107h-9z" />
    <glyph glyph-name="Eacute" unicode="&#xc9;" horiz-adv-x="665" 
d="M363 755l161 177l128 -57l-161 -120h-128zM12 0l188 700h523l-37 -137h-370l-38 -143h325l-37 -135h-325l-40 -148h376l-37 -137h-528z" />
    <glyph glyph-name="Ntilde" unicode="&#xd1;" horiz-adv-x="786" 
d="M387 748l-80 40c35 79 89 133 153 133c35 0 56 -12 79 -29c27 -19 37 -26 53 -26c31 0 51 24 70 59l80 -40c-35 -79 -89 -133 -153 -133c-35 0 -55 12 -79 29c-27 19 -37 26 -53 26c-31 0 -51 -24 -70 -59zM12 0l188 700h142l204 -445l120 445h152l-188 -700h-131
l-212 459l-123 -459h-152z" />
    <glyph glyph-name="Odieresis" unicode="&#xd6;" 
d="M342 755l37 135h146l-37 -135h-146zM556 755l37 135h146l-37 -135h-146zM405 130c147 0 243 141 243 262c0 104 -62 178 -178 178c-147 0 -243 -141 -243 -262c0 -104 62 -178 178 -178zM387 -12c-192 0 -320 134 -320 310c0 208 170 414 421 414
c192 0 320 -134 320 -310c0 -208 -170 -414 -421 -414z" />
    <glyph glyph-name="Udieresis" unicode="&#xdc;" horiz-adv-x="764" 
d="M331 755l37 135h146l-37 -135h-146zM545 755l37 135h146l-37 -135h-146zM343 -11c-163 0 -262 87 -262 236c0 35 6 72 17 112l97 363h154l-101 -377c-7 -24 -11 -47 -11 -76c0 -69 42 -116 122 -116c45 0 83 15 114 44c31 31 53 74 68 130l106 395h154l-112 -417
c-24 -91 -60 -160 -108 -208c-57 -57 -134 -86 -238 -86z" />
    <glyph glyph-name="aacute" unicode="&#xe1;" horiz-adv-x="588" 
d="M294 595l161 177l128 -57l-161 -120h-128zM228 94c63 0 119 49 135 108l4 14c-27 11 -63 19 -100 19c-64 0 -109 -32 -109 -84c0 -33 27 -57 70 -57zM163 -10c-92 0 -156 60 -156 144c0 124 101 193 231 193c59 0 106 -9 151 -24l2 7c3 12 6 24 6 40c0 37 -25 63 -101 63
c-52 0 -104 -13 -143 -29l-24 120c56 23 123 38 199 38c145 0 217 -60 217 -165c0 -28 -5 -54 -12 -81l-79 -296h-147l16 62c-43 -47 -96 -72 -160 -72z" />
    <glyph glyph-name="agrave" unicode="&#xe0;" horiz-adv-x="588" 
d="M347 595l-95 120l134 57l65 -177h-104zM228 94c63 0 119 49 135 108l4 14c-27 11 -63 19 -100 19c-64 0 -109 -32 -109 -84c0 -33 27 -57 70 -57zM163 -10c-92 0 -156 60 -156 144c0 124 101 193 231 193c59 0 106 -9 151 -24l2 7c3 12 6 24 6 40c0 37 -25 63 -101 63
c-52 0 -104 -13 -143 -29l-24 120c56 23 123 38 199 38c145 0 217 -60 217 -165c0 -28 -5 -54 -12 -81l-79 -296h-147l16 62c-43 -47 -96 -72 -160 -72z" />
    <glyph glyph-name="acircumflex" unicode="&#xe2;" horiz-adv-x="588" 
d="M179 595l165 157h144l81 -157h-110l-61 66l-97 -66h-122zM228 94c63 0 119 49 135 108l4 14c-27 11 -63 19 -100 19c-64 0 -109 -32 -109 -84c0 -33 27 -57 70 -57zM163 -10c-92 0 -156 60 -156 144c0 124 101 193 231 193c59 0 106 -9 151 -24l2 7c3 12 6 24 6 40
c0 37 -25 63 -101 63c-52 0 -104 -13 -143 -29l-24 120c56 23 123 38 199 38c145 0 217 -60 217 -165c0 -28 -5 -54 -12 -81l-79 -296h-147l16 62c-43 -47 -96 -72 -160 -72z" />
    <glyph glyph-name="adieresis" unicode="&#xe4;" horiz-adv-x="588" 
d="M195 595l37 135h146l-37 -135h-146zM409 595l37 135h146l-37 -135h-146zM228 94c63 0 119 49 135 108l4 14c-27 11 -63 19 -100 19c-64 0 -109 -32 -109 -84c0 -33 27 -57 70 -57zM163 -10c-92 0 -156 60 -156 144c0 124 101 193 231 193c59 0 106 -9 151 -24l2 7
c3 12 6 24 6 40c0 37 -25 63 -101 63c-52 0 -104 -13 -143 -29l-24 120c56 23 123 38 199 38c145 0 217 -60 217 -165c0 -28 -5 -54 -12 -81l-79 -296h-147l16 62c-43 -47 -96 -72 -160 -72z" />
    <glyph glyph-name="atilde" unicode="&#xe3;" horiz-adv-x="588" 
d="M228 94c63 0 119 49 135 108l4 14c-27 11 -63 19 -100 19c-64 0 -109 -32 -109 -84c0 -33 27 -57 70 -57zM163 -10c-92 0 -156 60 -156 144c0 124 101 193 231 193c59 0 106 -9 151 -24l2 7c3 12 6 24 6 40c0 37 -25 63 -101 63c-52 0 -104 -13 -143 -29l-24 120
c56 23 123 38 199 38c145 0 217 -60 217 -165c0 -28 -5 -54 -12 -81l-79 -296h-147l16 62c-43 -47 -96 -72 -160 -72zM274 596l-70 37c31 72 78 122 134 122c31 0 50 -11 70 -27c24 -17 32 -24 47 -24c28 0 45 23 62 54l70 -36c-31 -72 -78 -122 -134 -122
c-31 0 -49 10 -70 26c-24 17 -32 24 -47 24c-28 0 -45 -22 -62 -54z" />
    <glyph glyph-name="aring" unicode="&#xe5;" horiz-adv-x="588" 
d="M393 648c40 0 68 38 68 78c0 28 -17 50 -48 50c-40 0 -68 -38 -68 -78c0 -28 17 -50 48 -50zM391 593c-68 0 -110 45 -110 104c0 72 59 134 134 134c68 0 110 -45 110 -104c0 -72 -59 -134 -134 -134zM228 94c63 0 119 49 135 108l4 14c-27 11 -63 19 -100 19
c-64 0 -109 -32 -109 -84c0 -33 27 -57 70 -57zM163 -10c-92 0 -156 60 -156 144c0 124 101 193 231 193c59 0 106 -9 151 -24l2 7c3 12 6 24 6 40c0 37 -25 63 -101 63c-52 0 -104 -13 -143 -29l-24 120c56 23 123 38 199 38c145 0 217 -60 217 -165c0 -28 -5 -54 -12 -81
l-79 -296h-147l16 62c-43 -47 -96 -72 -160 -72z" />
    <glyph glyph-name="ccedilla" unicode="&#xe7;" horiz-adv-x="560" 
d="M296 -12l-108 -161l-113 53l119 124c-93 35 -152 115 -152 226c0 175 145 316 316 316c118 0 183 -54 220 -118l-116 -82c-27 41 -56 70 -116 70c-80 0 -154 -86 -154 -186c0 -69 45 -113 105 -113c47 0 81 18 121 53l78 -99c-55 -49 -111 -82 -200 -83z" />
    <glyph glyph-name="eacute" unicode="&#xe9;" horiz-adv-x="607" 
d="M286 595l161 177l128 -57l-161 -120h-128zM197 310h233c3 11 5 23 5 35c0 44 -25 79 -88 79c-69 0 -125 -46 -150 -114zM551 215h-367c5 -64 42 -105 122 -105c40 0 75 12 119 43l70 -94c-48 -40 -114 -71 -206 -71c-155 0 -248 90 -248 238c0 156 126 320 318 320
c140 0 219 -90 219 -209c0 -39 -10 -81 -27 -122z" />
    <glyph glyph-name="egrave" unicode="&#xe8;" horiz-adv-x="607" 
d="M339 595l-95 120l134 57l65 -177h-104zM197 310h233c3 11 5 23 5 35c0 44 -25 79 -88 79c-69 0 -125 -46 -150 -114zM551 215h-367c5 -64 42 -105 122 -105c40 0 75 12 119 43l70 -94c-48 -40 -114 -71 -206 -71c-155 0 -248 90 -248 238c0 156 126 320 318 320
c140 0 219 -90 219 -209c0 -39 -10 -81 -27 -122z" />
    <glyph glyph-name="ecircumflex" unicode="&#xea;" horiz-adv-x="607" 
d="M183 595l165 157h144l81 -157h-110l-61 66l-97 -66h-122zM197 310h233c3 11 5 23 5 35c0 44 -25 79 -88 79c-69 0 -125 -46 -150 -114zM551 215h-367c5 -64 42 -105 122 -105c40 0 75 12 119 43l70 -94c-48 -40 -114 -71 -206 -71c-155 0 -248 90 -248 238
c0 156 126 320 318 320c140 0 219 -90 219 -209c0 -39 -10 -81 -27 -122z" />
    <glyph glyph-name="edieresis" unicode="&#xeb;" horiz-adv-x="607" 
d="M202 595l37 135h146l-37 -135h-146zM416 595l37 135h146l-37 -135h-146zM197 310h233c3 11 5 23 5 35c0 44 -25 79 -88 79c-69 0 -125 -46 -150 -114zM551 215h-367c5 -64 42 -105 122 -105c40 0 75 12 119 43l70 -94c-48 -40 -114 -71 -206 -71c-155 0 -248 90 -248 238
c0 156 126 320 318 320c140 0 219 -90 219 -209c0 -39 -10 -81 -27 -122z" />
    <glyph glyph-name="iacute" unicode="&#xed;" horiz-adv-x="302" 
d="M148 595l161 177l128 -57l-161 -120h-128zM3 0l144 536h152l-144 -536h-152z" />
    <glyph glyph-name="igrave" unicode="&#xec;" horiz-adv-x="302" 
d="M206 595l-95 120l134 57l65 -177h-104zM3 0l144 536h152l-144 -536h-152z" />
    <glyph glyph-name="icircumflex" unicode="&#xee;" horiz-adv-x="302" 
d="M37 595l165 157h144l81 -157h-110l-61 66l-97 -66h-122zM3 0l144 536h152l-144 -536h-152z" />
    <glyph glyph-name="idieresis" unicode="&#xef;" horiz-adv-x="302" 
d="M56 595l37 135h146l-37 -135h-146zM270 595l37 135h146l-37 -135h-146zM3 0l144 536h152l-144 -536h-152z" />
    <glyph glyph-name="ntilde" unicode="&#xf1;" horiz-adv-x="619" 
d="M262 588l-80 40c35 79 89 133 153 133c35 0 56 -12 79 -29c27 -19 37 -26 53 -26c31 0 51 24 70 59l80 -40c-35 -79 -89 -133 -153 -133c-35 0 -55 12 -79 29c-27 19 -37 26 -53 26c-31 0 -51 -24 -70 -59zM-3 0l143 536h152l-15 -56c39 35 86 66 146 66
c96 0 158 -59 158 -156c0 -31 -9 -67 -18 -102l-77 -288h-152l79 294c4 15 7 35 7 48c0 43 -27 66 -74 66c-60 0 -99 -43 -116 -107l-81 -301h-152z" />
    <glyph glyph-name="oacute" unicode="&#xf3;" horiz-adv-x="652" 
d="M287 595l161 177l128 -57l-161 -120h-128zM307 118c93 0 154 100 154 176c0 79 -47 122 -116 122c-93 0 -154 -100 -154 -176c0 -79 47 -122 116 -122zM300 -12c-159 0 -258 104 -258 248c0 160 137 310 310 310c159 0 258 -104 258 -248c0 -160 -139 -310 -310 -310z
" />
    <glyph glyph-name="ograve" unicode="&#xf2;" horiz-adv-x="652" 
d="M350 595l-95 120l134 57l65 -177h-104zM307 118c93 0 154 100 154 176c0 79 -47 122 -116 122c-93 0 -154 -100 -154 -176c0 -79 47 -122 116 -122zM300 -12c-159 0 -258 104 -258 248c0 160 137 310 310 310c159 0 258 -104 258 -248c0 -160 -139 -310 -310 -310z" />
    <glyph glyph-name="ocircumflex" unicode="&#xf4;" horiz-adv-x="652" 
d="M188 595l165 157h144l81 -157h-110l-61 66l-97 -66h-122zM307 118c93 0 154 100 154 176c0 79 -47 122 -116 122c-93 0 -154 -100 -154 -176c0 -79 47 -122 116 -122zM300 -12c-159 0 -258 104 -258 248c0 160 137 310 310 310c159 0 258 -104 258 -248
c0 -160 -139 -310 -310 -310z" />
    <glyph glyph-name="odieresis" unicode="&#xf6;" horiz-adv-x="652" 
d="M206 595l37 135h146l-37 -135h-146zM420 595l37 135h146l-37 -135h-146zM307 118c93 0 154 100 154 176c0 79 -47 122 -116 122c-93 0 -154 -100 -154 -176c0 -79 47 -122 116 -122zM300 -12c-159 0 -258 104 -258 248c0 160 137 310 310 310c159 0 258 -104 258 -248
c0 -160 -139 -310 -310 -310z" />
    <glyph glyph-name="otilde" unicode="&#xf5;" horiz-adv-x="652" 
d="M307 118c93 0 154 100 154 176c0 79 -47 122 -116 122c-93 0 -154 -100 -154 -176c0 -79 47 -122 116 -122zM300 -12c-159 0 -258 104 -258 248c0 160 137 310 310 310c159 0 258 -104 258 -248c0 -160 -139 -310 -310 -310zM277 596l-70 37c31 72 78 122 134 122
c31 0 50 -11 70 -27c24 -17 32 -24 47 -24c28 0 45 23 62 54l70 -36c-31 -72 -78 -122 -134 -122c-31 0 -49 10 -70 26c-24 17 -32 24 -47 24c-28 0 -45 -22 -62 -54z" />
    <glyph glyph-name="uacute" unicode="&#xfa;" horiz-adv-x="622" 
d="M299 595l161 177l128 -57l-161 -120h-128zM199 -10c-96 0 -158 59 -158 156c0 31 9 67 18 102l77 288h152l-79 -294c-4 -15 -7 -35 -7 -48c0 -43 27 -66 74 -66c60 0 99 43 116 107l81 301h152l-143 -536h-152l15 56c-39 -35 -86 -66 -146 -66z" />
    <glyph glyph-name="ugrave" unicode="&#xf9;" horiz-adv-x="622" 
d="M368 595l-95 120l134 57l65 -177h-104zM199 -10c-96 0 -158 59 -158 156c0 31 9 67 18 102l77 288h152l-79 -294c-4 -15 -7 -35 -7 -48c0 -43 27 -66 74 -66c60 0 99 43 116 107l81 301h152l-143 -536h-152l15 56c-39 -35 -86 -66 -146 -66z" />
    <glyph glyph-name="ucircumflex" unicode="&#xfb;" horiz-adv-x="622" 
d="M195 595l165 157h144l81 -157h-110l-61 66l-97 -66h-122zM199 -10c-96 0 -158 59 -158 156c0 31 9 67 18 102l77 288h152l-79 -294c-4 -15 -7 -35 -7 -48c0 -43 27 -66 74 -66c60 0 99 43 116 107l81 301h152l-143 -536h-152l15 56c-39 -35 -86 -66 -146 -66z" />
    <glyph glyph-name="udieresis" unicode="&#xfc;" horiz-adv-x="622" 
d="M214 595l37 135h146l-37 -135h-146zM428 595l37 135h146l-37 -135h-146zM199 -10c-96 0 -158 59 -158 156c0 31 9 67 18 102l77 288h152l-79 -294c-4 -15 -7 -35 -7 -48c0 -43 27 -66 74 -66c60 0 99 43 116 107l81 301h152l-143 -536h-152l15 56
c-39 -35 -86 -66 -146 -66z" />
    <glyph glyph-name="dagger" unicode="&#x2020;" horiz-adv-x="412" 
d="M156 238l82 270l-123 -10l23 83l116 -10l22 129h92l-48 -129l122 10l-23 -83l-117 10l-62 -270h-84z" />
    <glyph glyph-name="degree" unicode="&#xb0;" horiz-adv-x="445" 
d="M252 441c60 0 99 59 99 111c0 47 -30 79 -75 79c-60 0 -99 -59 -99 -111c0 -47 30 -79 75 -79zM249 363c-100 0 -161 65 -161 154c0 100 84 192 191 192c100 0 161 -65 161 -154c0 -100 -84 -192 -191 -192z" />
    <glyph glyph-name="cent" unicode="&#xa2;" horiz-adv-x="586" 
d="M257 233l106 270c-89 -8 -148 -93 -148 -175c0 -43 17 -74 42 -95zM159 -6l43 110c-85 40 -136 118 -136 222c0 175 138 308 317 308c9 0 17 0 26 -1l28 73h104l-37 -94c55 -23 90 -59 113 -99l-115 -80c-15 23 -32 41 -52 52l-109 -279c51 1 86 18 125 49l80 -103
c-47 -43 -112 -76 -204 -76c-16 0 -31 1 -46 3l-33 -85h-104z" />
    <glyph glyph-name="sterling" unicode="&#xa3;" horiz-adv-x="644" 
d="M-13 0l27 101l83 25l38 141h-76l34 127h76l25 94c17 65 44 115 80 151c47 47 110 71 187 71c109 0 175 -51 214 -120l-123 -84c-24 39 -51 62 -102 62c-32 0 -51 -11 -68 -28c-19 -19 -32 -46 -41 -78l-19 -68h231l-34 -127h-230l-36 -134h306l-36 -133h-536z" />
    <glyph glyph-name="section" unicode="&#xa7;" horiz-adv-x="632" 
d="M399 288c35 0 65 21 65 49c0 27 -29 40 -86 57c-49 15 -73 21 -100 21c-35 0 -65 -21 -65 -49c0 -27 29 -40 86 -57c49 -15 73 -21 100 -21zM283 -9c-103 0 -187 34 -235 93l95 84c36 -36 89 -63 148 -63c43 0 70 15 70 38s-25 33 -102 54c-102 27 -188 58 -188 143
c0 65 44 113 136 132c-21 20 -36 46 -36 83c0 92 95 157 223 157c103 0 187 -34 235 -93l-95 -84c-36 36 -89 63 -148 63c-43 0 -70 -15 -70 -38s25 -33 102 -54c102 -30 188 -56 188 -143c0 -65 -44 -113 -136 -132c21 -20 36 -46 36 -83c0 -92 -95 -157 -223 -157z" />
    <glyph glyph-name="bullet" unicode="&#x2022;" horiz-adv-x="500" 
d="M246 200c-73 0 -116 45 -116 116c0 91 68 190 168 190c73 0 116 -45 116 -116c0 -91 -68 -190 -168 -190z" />
    <glyph glyph-name="paragraph" unicode="&#xb6;" horiz-adv-x="599" 
d="M290 0l56 212c-163 3 -259 71 -259 212c0 155 113 276 353 276h191l-188 -700h-153z" />
    <glyph glyph-name="germandbls" unicode="&#xdf;" horiz-adv-x="632" 
d="M227 -2l32 118c124 -5 165 49 165 106c0 41 -28 75 -115 84l27 100c97 23 138 68 138 127c0 51 -36 76 -79 76c-57 0 -95 -41 -115 -114l-132 -495h-151l135 503c20 75 47 125 87 165c43 43 106 69 181 69c138 0 217 -82 217 -189c0 -97 -59 -160 -154 -191
c56 -24 104 -66 104 -139c0 -128 -104 -228 -340 -220z" />
    <glyph glyph-name="registered" unicode="&#xae;" horiz-adv-x="830" 
d="M372 365h85c43 0 66 23 66 56c0 39 -25 57 -68 57h-83v-113zM287 168v385h171c92 0 151 -47 151 -127c0 -64 -34 -101 -83 -120l94 -138h-99l-82 124h-67v-124h-85zM435 28c183 0 321 145 321 323c0 179 -138 321 -319 321c-183 0 -321 -145 -321 -323
c0 -179 137 -321 319 -321zM435 -12c-203 0 -361 163 -361 361c0 197 159 363 363 363c203 0 361 -163 361 -361c0 -197 -159 -363 -363 -363z" />
    <glyph glyph-name="copyright" unicode="&#xa9;" horiz-adv-x="830" 
d="M440 156c-113 0 -197 87 -197 198c0 109 82 200 200 200c73 0 116 -24 152 -59l-55 -64c-29 27 -60 43 -97 43c-64 0 -110 -53 -110 -119c0 -65 45 -119 110 -119c43 0 68 18 99 45l56 -56c-40 -43 -83 -69 -158 -69zM435 28c183 0 321 145 321 323
c0 179 -138 321 -319 321c-183 0 -321 -145 -321 -323c0 -179 137 -321 319 -321zM435 -12c-203 0 -361 163 -361 361c0 197 159 363 363 363c203 0 361 -163 361 -361c0 -197 -159 -363 -363 -363z" />
    <glyph glyph-name="trademark" unicode="&#x2122;" horiz-adv-x="700" 
d="M138 392l66 246h-92l17 62h254l-17 -62h-92l-66 -246h-70zM365 392l83 308h70l46 -130l116 130h76l-83 -308h-66l56 208l-121 -135h-6l-49 135l-56 -208h-66z" />
    <glyph glyph-name="acute" unicode="&#xb4;" horiz-adv-x="500" 
d="M208 595l161 177l128 -57l-161 -120h-128z" />
    <glyph glyph-name="dieresis" unicode="&#xa8;" horiz-adv-x="500" 
d="M157 595l37 135h146l-37 -135h-146zM371 595l37 135h146l-37 -135h-146z" />
    <glyph glyph-name="AE" unicode="&#xc6;" horiz-adv-x="1058" 
d="M340 293h164l73 274h-19zM-61 0l565 700h612l-37 -137h-350l-38 -143h305l-37 -135h-305l-40 -148h356l-37 -137h-508l42 157h-236l-125 -157h-167z" />
    <glyph glyph-name="Oslash" unicode="&#xd8;" 
d="M404 123c151 0 250 145 250 270c0 25 -4 49 -11 72l-343 -316c29 -17 63 -26 104 -26zM236 226l347 319c-29 21 -67 32 -112 32c-151 0 -250 -147 -250 -270c0 -30 5 -57 15 -81zM387 -12c-81 0 -151 24 -204 64l-62 -57h-147l142 130c-33 50 -49 108 -49 173
c0 208 170 414 421 414c85 0 156 -26 211 -70l68 63h147l-150 -138c29 -47 44 -102 44 -165c0 -208 -170 -414 -421 -414z" />
    <glyph glyph-name="plusminus" unicode="&#xb1;" horiz-adv-x="621" 
d="M256 -12c-148 0 -229 67 -269 134l114 86c41 -51 89 -82 166 -82c84 0 127 47 127 91c0 47 -33 73 -113 73h-76l34 127h81c72 0 132 30 132 89c0 41 -40 68 -92 68c-63 0 -103 -27 -154 -72l-85 97c65 68 142 113 257 113c147 0 232 -83 232 -182
c0 -87 -52 -148 -156 -179c49 -22 95 -67 95 -138c0 -127 -116 -225 -293 -225z" />
    <glyph glyph-name="yen" unicode="&#xa5;" horiz-adv-x="711" 
d="M209 0l25 92h-184l29 108h184l16 62h-184l29 108h143l-125 330h166l84 -259l225 259h183l-305 -330h145l-29 -108h-184l-16 -62h184l-29 -108h-184l-25 -92h-148z" />
    <glyph glyph-name="mu" unicode="&#xb5;" 
d="M405 130c32 0 61 7 88 18l-90 122l127 85l71 -114c31 47 47 100 47 151c0 104 -62 178 -178 178c-147 0 -243 -141 -243 -262c0 -104 62 -178 178 -178zM618 -44l-46 74c-55 -27 -117 -42 -185 -42c-192 0 -320 134 -320 310c0 208 170 414 421 414
c192 0 320 -134 320 -310c0 -107 -43 -209 -119 -288l56 -74z" />
    <glyph glyph-name="mu" unicode="&#x3bc;" 
d="M405 130c32 0 61 7 88 18l-90 122l127 85l71 -114c31 47 47 100 47 151c0 104 -62 178 -178 178c-147 0 -243 -141 -243 -262c0 -104 62 -178 178 -178zM618 -44l-46 74c-55 -27 -117 -42 -185 -42c-192 0 -320 134 -320 310c0 208 170 414 421 414
c192 0 320 -134 320 -310c0 -107 -43 -209 -119 -288l56 -74z" />
    <glyph glyph-name="pi" unicode="&#x3c0;" horiz-adv-x="830" 
d="M389 355h66c43 0 67 24 67 59c0 39 -26 59 -69 59h-64v-118zM303 164v385h158c92 0 148 -54 148 -134c0 -89 -71 -135 -156 -135h-64v-116h-86zM435 28c183 0 321 145 321 323c0 179 -138 321 -319 321c-183 0 -321 -145 -321 -323c0 -179 137 -321 319 -321zM435 -12
c-203 0 -361 163 -361 361c0 197 159 363 363 363c203 0 361 -163 361 -361c0 -197 -159 -363 -363 -363z" />
    <glyph glyph-name="ordfeminine" unicode="&#xaa;" horiz-adv-x="390" 
d="M224 457c35 0 66 27 74 60l2 8c-15 5 -34 10 -55 10c-36 0 -60 -18 -60 -46c0 -19 15 -32 39 -32zM51 277l18 66h266l-18 -66h-266zM188 400c-51 0 -86 32 -86 79c0 69 56 107 127 107c32 0 60 -6 84 -14l2 7c2 6 3 12 3 17c0 23 -16 37 -57 37c-28 0 -57 -7 -78 -16
l-14 66c31 13 67 21 110 21c80 0 119 -32 119 -91c0 -15 -2 -30 -6 -44l-44 -163h-81l9 34c-24 -25 -53 -40 -88 -40z" />
    <glyph glyph-name="ordmasculine" unicode="&#xba;" horiz-adv-x="402" 
d="M249 470c52 0 85 51 85 96c0 40 -24 68 -63 68c-52 0 -85 -51 -85 -96c0 -40 24 -68 63 -68zM51 277l18 66h278l-18 -66h-278zM246 399c-88 0 -142 56 -142 136c0 89 74 170 170 170c88 0 142 -56 142 -136c0 -89 -74 -170 -170 -170z" />
    <glyph glyph-name="Omega" unicode="&#x3a9;" horiz-adv-x="822" 
d="M23 0l110 406h-64l35 130h63l7 29c31 120 104 172 217 172c43 0 79 -6 104 -15l-33 -126c-20 8 -45 13 -66 13c-39 0 -64 -19 -75 -58l-4 -15h129l-35 -130h-126l-110 -406h-152zM434 0l110 406h-64l35 130h63l7 29c29 120 104 172 217 172c43 0 79 -6 104 -15l-33 -126
c-20 8 -45 13 -66 13c-40 0 -65 -19 -75 -58l-4 -15h129l-35 -130h-126l-110 -406h-152z" />
    <glyph glyph-name="Omega" unicode="&#x2126;" horiz-adv-x="822" 
d="M23 0l110 406h-64l35 130h63l7 29c31 120 104 172 217 172c43 0 79 -6 104 -15l-33 -126c-20 8 -45 13 -66 13c-39 0 -64 -19 -75 -58l-4 -15h129l-35 -130h-126l-110 -406h-152zM434 0l110 406h-64l35 130h63l7 29c29 120 104 172 217 172c43 0 79 -6 104 -15l-33 -126
c-20 8 -45 13 -66 13c-40 0 -65 -19 -75 -58l-4 -15h129l-35 -130h-126l-110 -406h-152z" />
    <glyph glyph-name="ae" unicode="&#xe6;" horiz-adv-x="940" 
d="M386 208c-43 19 -79 27 -119 27c-64 0 -109 -32 -109 -84c0 -33 27 -57 80 -57c47 0 110 24 154 68c-3 14 -5 29 -6 46zM530 310h233c3 11 5 23 5 35c0 44 -25 79 -88 79c-69 0 -125 -46 -150 -114zM418 91c-63 -64 -143 -101 -240 -101c-111 0 -171 57 -171 144
c0 124 101 193 231 193c59 0 106 -9 151 -24l2 7c3 12 6 24 6 40c0 37 -25 63 -101 63c-52 0 -104 -13 -143 -29l-24 120c56 23 123 38 199 38c88 0 147 -28 176 -79c49 49 116 83 193 83c134 0 214 -90 214 -209c0 -39 -10 -81 -27 -122h-367c5 -64 42 -105 122 -105
c40 0 75 12 119 43l70 -94c-45 -41 -118 -71 -206 -71c-92 0 -164 34 -204 103z" />
    <glyph glyph-name="oslash" unicode="&#xf8;" horiz-adv-x="652" 
d="M303 113c100 0 163 104 163 181c0 15 -1 30 -4 42l-226 -206c19 -11 41 -17 67 -17zM189 205l222 202c-17 9 -37 14 -62 14c-100 0 -163 -104 -163 -181c0 -13 1 -24 3 -35zM300 -12c-69 0 -126 20 -169 53l-51 -46h-133l126 114c-21 38 -31 80 -31 127
c0 160 137 310 310 310c67 0 121 -18 164 -50l49 45h133l-122 -111c23 -38 34 -82 34 -132c0 -160 -139 -310 -310 -310z" />
    <glyph glyph-name="questiondown" unicode="&#xbf;" horiz-adv-x="544" 
d="M247 -9c-141 0 -223 87 -223 182c0 117 87 192 256 219l29 70h102l-20 -162l-6 -5c-129 -9 -200 -43 -200 -102c0 -39 26 -62 83 -62c48 0 100 22 143 59l80 -101c-64 -65 -155 -98 -244 -98zM297 540l43 160h162l-43 -160h-162z" />
    <glyph glyph-name="exclamdown" unicode="&#xa1;" horiz-adv-x="325" 
d="M1 0l6 20l165 442h84l-71 -442l-6 -20h-178zM154 540l43 160h162l-43 -160h-162z" />
    <glyph glyph-name="radical" unicode="&#x221a;" horiz-adv-x="1124" 
d="M825 0l196 730h152l-196 -730h-152zM23 0l110 406h-64l35 130h63l7 29c31 120 104 172 217 172c43 0 79 -6 104 -15l-33 -126c-20 8 -45 13 -66 13c-39 0 -64 -19 -75 -58l-4 -15h129l-35 -130h-126l-110 -406h-152zM434 0l110 406h-64l35 130h63l7 29
c29 120 104 172 217 172c43 0 79 -6 104 -15l-33 -126c-20 8 -45 13 -66 13c-40 0 -65 -19 -75 -58l-4 -15h129l-35 -130h-126l-110 -406h-152z" />
    <glyph glyph-name="florin" unicode="&#x192;" horiz-adv-x="543" 
d="M61 -9c-40 0 -67 4 -90 9l33 122c16 -4 28 -6 47 -6c27 0 54 17 74 62l74 166h-72l34 125h94l38 86c45 103 113 154 204 154c60 0 93 -8 122 -20l-33 -124c-23 11 -43 16 -78 16c-40 0 -66 -25 -86 -70l-19 -42h120l-34 -125h-142l-94 -212c-47 -104 -113 -141 -192 -141
z" />
    <glyph glyph-name="approxequal" unicode="&#x2248;" horiz-adv-x="1124" 
d="M825 0l144 536h152l-144 -536h-152zM23 0l110 406h-64l35 130h63l7 29c31 120 104 172 217 172c43 0 79 -6 104 -15l-33 -126c-20 8 -45 13 -66 13c-39 0 -64 -19 -75 -58l-4 -15h129l-35 -130h-126l-110 -406h-152zM434 0l110 406h-64l35 130h63l7 29
c29 120 104 172 217 172c43 0 79 -6 104 -15l-33 -126c-20 8 -45 13 -66 13c-40 0 -65 -19 -75 -58l-4 -15h129l-35 -130h-126l-110 -406h-152zM981 595l37 135h160l-37 -135h-160z" />
    <glyph glyph-name="guillemotleft" unicode="&#xab;" horiz-adv-x="643" 
d="M154 31l-108 224l2 8l237 233l87 -80l-176 -171l80 -160zM424 31l-108 224l2 8l237 233l87 -80l-176 -171l80 -160z" />
    <glyph glyph-name="guillemotright" unicode="&#xbb;" horiz-adv-x="643" 
d="M86 31l-87 80l176 171l-80 160l122 54l108 -224l-2 -8zM356 31l-87 80l176 171l-80 160l122 54l108 -224l-2 -8z" />
    <glyph glyph-name="ellipsis" unicode="&#x2026;" horiz-adv-x="872" 
d="M7 0l42 156h158l-42 -156h-158zM286 0l42 156h158l-42 -156h-158zM565 0l42 156h158l-42 -156h-158z" />
    <glyph glyph-name="nbspace" unicode="&#xa0;" horiz-adv-x="300" 
 />
    <glyph glyph-name="Agrave" unicode="&#xc0;" horiz-adv-x="765" 
d="M477 755l-95 120l134 57l65 -177h-104zM307 293h186l-32 231zM-57 0l489 705h148l111 -705h-158l-22 157h-296l-106 -157h-166z" />
    <glyph glyph-name="Atilde" unicode="&#xc3;" horiz-adv-x="765" 
d="M307 293h186l-32 231zM-57 0l489 705h148l111 -705h-158l-22 157h-296l-106 -157h-166zM400 754l-70 37c31 72 78 122 134 122c31 0 50 -11 70 -27c24 -17 32 -24 47 -24c28 0 45 23 62 54l70 -36c-31 -72 -78 -122 -134 -122c-31 0 -49 10 -70 26c-24 17 -32 24 -47 24
c-28 0 -45 -22 -62 -54z" />
    <glyph glyph-name="Otilde" unicode="&#xd5;" 
d="M405 130c147 0 243 141 243 262c0 104 -62 178 -178 178c-147 0 -243 -141 -243 -262c0 -104 62 -178 178 -178zM387 -12c-192 0 -320 134 -320 310c0 208 170 414 421 414c192 0 320 -134 320 -310c0 -208 -170 -414 -421 -414zM409 754l-70 37c31 72 78 122 134 122
c31 0 50 -11 70 -27c24 -17 32 -24 47 -24c28 0 45 23 62 54l70 -36c-31 -72 -78 -122 -134 -122c-31 0 -49 10 -70 26c-24 17 -32 24 -47 24c-28 0 -45 -22 -62 -54z" />
    <glyph glyph-name="OE" unicode="&#x152;" horiz-adv-x="1071" 
d="M429 139h45l114 422h-57c-93 0 -178 -29 -234 -85c-45 -45 -70 -107 -70 -175c0 -47 14 -84 41 -111c31 -31 81 -51 161 -51zM946 0h-529c-136 0 -219 35 -279 95c-45 45 -71 115 -71 200c0 105 39 200 115 276c84 84 204 129 367 129h580l-37 -137h-350l-38 -143h305
l-37 -135h-305l-40 -148h356z" />
    <glyph glyph-name="oe" unicode="&#x153;" horiz-adv-x="1028" 
d="M306 118c95 0 155 91 155 175c0 73 -46 123 -115 123c-95 0 -155 -91 -155 -175c0 -73 46 -123 115 -123zM618 310h233c3 11 5 23 5 35c0 44 -25 79 -88 79c-69 0 -125 -46 -150 -114zM972 215h-367c5 -64 42 -105 122 -105c40 0 75 12 119 43l70 -94
c-45 -41 -118 -71 -206 -71c-96 0 -163 34 -199 98c-51 -60 -122 -98 -210 -98c-159 0 -259 104 -259 248c0 163 136 310 309 310c101 0 171 -41 207 -106c51 64 126 106 222 106c140 0 219 -90 219 -209c0 -39 -10 -81 -27 -122z" />
    <glyph glyph-name="endash" unicode="&#x2013;" horiz-adv-x="531" 
d="M44 239l38 142h428l-38 -142h-428z" />
    <glyph glyph-name="emdash" unicode="&#x2014;" horiz-adv-x="901" 
d="M44 239l38 142h798l-38 -142h-798z" />
    <glyph glyph-name="quotedblleft" unicode="&#x201c;" horiz-adv-x="573" 
d="M94 383l36 135c35 132 108 184 227 187l10 -63c-83 -7 -119 -42 -130 -99h62l-43 -160h-162zM348 383l36 135c35 132 108 184 227 187l10 -63c-83 -7 -119 -42 -130 -99h62l-43 -160h-162z" />
    <glyph glyph-name="quotedblright" unicode="&#x201d;" horiz-adv-x="573" 
d="M88 378l-10 63c83 7 119 42 130 99h-62l43 160h162l-36 -135c-35 -132 -108 -184 -227 -187zM342 378l-10 63c83 7 119 42 130 99h-62l43 160h162l-36 -135c-35 -132 -108 -184 -227 -187z" />
    <glyph glyph-name="quoteleft" unicode="&#x2018;" horiz-adv-x="319" 
d="M93 384l36 135c35 132 108 184 227 187l10 -63c-83 -7 -119 -42 -130 -99h62l-43 -160h-162z" />
    <glyph glyph-name="quoteright" unicode="&#x2019;" horiz-adv-x="319" 
d="M87 378l-10 63c83 7 119 42 130 99h-62l43 160h162l-36 -135c-35 -132 -108 -184 -227 -187z" />
    <glyph glyph-name="ydieresis" unicode="&#xff;" horiz-adv-x="592" 
d="M189 595l37 135h146l-37 -135h-146zM403 595l37 135h146l-37 -135h-146zM85 -163c-56 0 -92 14 -125 37l81 110c16 -12 39 -21 59 -21c23 0 38 6 59 33l-66 540h155l25 -364l201 364h164l-332 -549c-69 -109 -130 -150 -221 -150z" />
    <glyph glyph-name="Ydieresis" unicode="&#x178;" horiz-adv-x="650" 
d="M257 755l37 135h146l-37 -135h-146zM471 755l37 135h146l-37 -135h-146zM169 0l74 276l-145 424h171l82 -290l240 290h186l-383 -438l-71 -262h-154z" />
    <glyph glyph-name="fraction" unicode="&#x2044;" horiz-adv-x="520" 
d="M-138 -98l695 856h134l-695 -856h-134z" />
    <glyph glyph-name="fraction" unicode="&#x2215;" horiz-adv-x="520" 
d="M-138 -98l695 856h134l-695 -856h-134z" />
    <glyph glyph-name="currency" unicode="&#xa4;" horiz-adv-x="720" 
d="M396 -12c-152 0 -253 89 -272 229h-100l27 101h75c3 24 6 45 13 68h-70l27 101h73c59 131 172 225 327 225c143 0 218 -64 253 -163l-131 -65c-28 57 -59 89 -130 89c-64 0 -112 -30 -147 -86h193l-27 -101h-204c-8 -23 -13 -45 -17 -68h203l-27 -101h-177
c13 -60 58 -90 114 -90c59 0 96 22 141 70l104 -90c-60 -72 -140 -119 -248 -119z" />
    <glyph glyph-name="guilsinglleft" unicode="&#x2039;" horiz-adv-x="373" 
d="M154 31l-108 224l2 8l237 233l87 -80l-176 -171l80 -160z" />
    <glyph glyph-name="guilsinglright" unicode="&#x203a;" horiz-adv-x="373" 
d="M86 31l-87 80l176 171l-80 160l122 54l108 -224l-2 -8z" />
    <glyph glyph-name="daggerdbl" unicode="&#x2021;" horiz-adv-x="412" 
d="M88 0l48 129l-122 -10l22 83l116 -10l34 158l51 158l-122 -10l23 83l116 -10l22 129h92l-48 -129l122 10l-23 -83l-116 10l-33 -158l-52 -158l122 10l-22 -83l-116 10l-22 -129h-92z" />
    <glyph glyph-name="periodcentered" unicode="&#xb7;" horiz-adv-x="319" 
d="M64 230l43 160h162l-43 -160h-162z" />
    <glyph glyph-name="periodcentered" unicode="&#x2219;" horiz-adv-x="319" 
d="M64 230l43 160h162l-43 -160h-162z" />
    <glyph glyph-name="quotesinglbase" unicode="&#x201a;" horiz-adv-x="319" 
d="M-51 -162l-10 63c83 7 119 42 130 99h-62l43 160h162l-36 -135c-35 -132 -108 -184 -227 -187z" />
    <glyph glyph-name="quotedblbase" unicode="&#x201e;" horiz-adv-x="573" 
d="M-51 -162l-10 63c83 7 119 42 130 99h-62l43 160h162l-36 -135c-35 -132 -108 -184 -227 -187zM203 -162l-10 63c83 7 119 42 130 99h-62l43 160h162l-36 -135c-35 -132 -108 -184 -227 -187z" />
    <glyph glyph-name="perthousand" unicode="&#x2030;" horiz-adv-x="1288" 
d="M651 79c55 0 90 65 90 117c0 44 -23 71 -62 71c-55 0 -90 -65 -90 -117c0 -44 23 -71 62 -71zM1059 79c55 0 90 65 90 117c0 44 -23 71 -62 71c-55 0 -90 -65 -90 -117c0 -44 23 -71 62 -71zM244 433c55 0 90 65 90 117c0 44 -23 71 -62 71c-55 0 -90 -65 -90 -117
c0 -44 23 -71 62 -71zM645 -8c-93 0 -154 63 -154 154c0 103 78 208 194 208c93 0 154 -63 154 -154c0 -103 -78 -208 -194 -208zM1053 -8c-93 0 -154 63 -154 154c0 103 78 208 194 208c93 0 154 -63 154 -154c0 -103 -78 -208 -194 -208zM60 0l673 700h130l-673 -700h-130
zM238 346c-93 0 -154 63 -154 154c0 103 78 208 194 208c93 0 154 -63 154 -154c0 -103 -78 -208 -194 -208z" />
    <glyph glyph-name="Acircumflex" unicode="&#xc2;" horiz-adv-x="765" 
d="M315 755l165 157h144l81 -157h-110l-61 66l-97 -66h-122zM307 293h186l-32 231zM-57 0l489 705h148l111 -705h-158l-22 157h-296l-106 -157h-166z" />
    <glyph glyph-name="Ecircumflex" unicode="&#xca;" horiz-adv-x="665" 
d="M274 755l165 157h144l81 -157h-110l-61 66l-97 -66h-122zM12 0l188 700h523l-37 -137h-370l-38 -143h325l-37 -135h-325l-40 -148h376l-37 -137h-528z" />
    <glyph glyph-name="Aacute" unicode="&#xc1;" horiz-adv-x="765" 
d="M426 755l161 177l128 -57l-161 -120h-128zM307 293h186l-32 231zM-57 0l489 705h148l111 -705h-158l-22 157h-296l-106 -157h-166z" />
    <glyph glyph-name="Edieresis" unicode="&#xcb;" horiz-adv-x="665" 
d="M293 755l37 135h146l-37 -135h-146zM507 755l37 135h146l-37 -135h-146zM12 0l188 700h523l-37 -137h-370l-38 -143h325l-37 -135h-325l-40 -148h376l-37 -137h-528z" />
    <glyph glyph-name="Egrave" unicode="&#xc8;" horiz-adv-x="665" 
d="M428 755l-95 120l134 57l65 -177h-104zM12 0l188 700h523l-37 -137h-370l-38 -143h325l-37 -135h-325l-40 -148h376l-37 -137h-528z" />
    <glyph glyph-name="Iacute" unicode="&#xcd;" horiz-adv-x="336" 
d="M210 755l161 177l128 -57l-161 -120h-128zM19 0l188 700h154l-188 -700h-154z" />
    <glyph glyph-name="Icircumflex" unicode="&#xce;" horiz-adv-x="336" 
d="M92 755l165 157h144l81 -157h-110l-61 66l-97 -66h-122zM19 0l188 700h154l-188 -700h-154z" />
    <glyph glyph-name="Idieresis" unicode="&#xcf;" horiz-adv-x="336" 
d="M117 755l37 135h146l-37 -135h-146zM331 755l37 135h146l-37 -135h-146zM19 0l188 700h154l-188 -700h-154z" />
    <glyph glyph-name="Igrave" unicode="&#xcc;" horiz-adv-x="336" 
d="M262 755l-95 120l134 57l65 -177h-104zM19 0l188 700h154l-188 -700h-154z" />
    <glyph glyph-name="Oacute" unicode="&#xd3;" 
d="M414 755l161 177l128 -57l-161 -120h-128zM405 130c147 0 243 141 243 262c0 104 -62 178 -178 178c-147 0 -243 -141 -243 -262c0 -104 62 -178 178 -178zM387 -12c-192 0 -320 134 -320 310c0 208 170 414 421 414c192 0 320 -134 320 -310c0 -208 -170 -414 -421 -414
z" />
    <glyph glyph-name="Ocircumflex" unicode="&#xd4;" 
d="M319 755l165 157h144l81 -157h-110l-61 66l-97 -66h-122zM405 130c147 0 243 141 243 262c0 104 -62 178 -178 178c-147 0 -243 -141 -243 -262c0 -104 62 -178 178 -178zM387 -12c-192 0 -320 134 -320 310c0 208 170 414 421 414c192 0 320 -134 320 -310
c0 -208 -170 -414 -421 -414z" />
    <glyph glyph-name="Ograve" unicode="&#xd2;" 
d="M472 755l-95 120l134 57l65 -177h-104zM405 130c147 0 243 141 243 262c0 104 -62 178 -178 178c-147 0 -243 -141 -243 -262c0 -104 62 -178 178 -178zM387 -12c-192 0 -320 134 -320 310c0 208 170 414 421 414c192 0 320 -134 320 -310c0 -208 -170 -414 -421 -414z
" />
    <glyph glyph-name="Uacute" unicode="&#xda;" horiz-adv-x="764" 
d="M418 755l161 177l128 -57l-161 -120h-128zM343 -11c-163 0 -262 87 -262 236c0 35 6 72 17 112l97 363h154l-101 -377c-7 -24 -11 -47 -11 -76c0 -69 42 -116 122 -116c45 0 83 15 114 44c31 31 53 74 68 130l106 395h154l-112 -417c-24 -91 -60 -160 -108 -208
c-57 -57 -134 -86 -238 -86z" />
    <glyph glyph-name="Ucircumflex" unicode="&#xdb;" horiz-adv-x="764" 
d="M303 755l165 157h144l81 -157h-110l-61 66l-97 -66h-122zM343 -11c-163 0 -262 87 -262 236c0 35 6 72 17 112l97 363h154l-101 -377c-7 -24 -11 -47 -11 -76c0 -69 42 -116 122 -116c45 0 83 15 114 44c31 31 53 74 68 130l106 395h154l-112 -417
c-24 -91 -60 -160 -108 -208c-57 -57 -134 -86 -238 -86z" />
    <glyph glyph-name="Ugrave" unicode="&#xd9;" horiz-adv-x="764" 
d="M463 755l-95 120l134 57l65 -177h-104zM343 -11c-163 0 -262 87 -262 236c0 35 6 72 17 112l97 363h154l-101 -377c-7 -24 -11 -47 -11 -76c0 -69 42 -116 122 -116c45 0 83 15 114 44c31 31 53 74 68 130l106 395h154l-112 -417c-24 -91 -60 -160 -108 -208
c-57 -57 -134 -86 -238 -86z" />
    <glyph glyph-name="dotlessi" unicode="&#x131;" horiz-adv-x="302" 
d="M3 0l144 536h152l-144 -536h-152z" />
    <glyph glyph-name="circumflex" unicode="&#x2c6;" horiz-adv-x="500" 
d="M143 595l165 157h144l81 -157h-110l-61 66l-97 -66h-122z" />
    <glyph glyph-name="tilde" unicode="&#x2dc;" horiz-adv-x="500" 
d="M220 588l-80 40c35 79 89 133 153 133c35 0 56 -12 79 -29c27 -19 37 -26 53 -26c31 0 51 24 70 59l80 -40c-35 -79 -89 -133 -153 -133c-35 0 -55 12 -79 29c-27 19 -37 26 -53 26c-31 0 -51 -24 -70 -59z" />
    <glyph glyph-name="macron" unicode="&#xaf;" horiz-adv-x="500" 
d="M159 600l28 105h360l-28 -105h-360z" />
    <glyph glyph-name="macron" unicode="&#x2c9;" horiz-adv-x="500" 
d="M159 600l28 105h360l-28 -105h-360z" />
    <glyph glyph-name="breve" unicode="&#x2d8;" horiz-adv-x="500" 
d="M359 593c-117 0 -170 76 -170 154v5h104c3 -32 30 -60 77 -60c36 0 70 28 93 60h105c-32 -97 -116 -159 -209 -159z" />
    <glyph glyph-name="dotaccent" unicode="&#x2d9;" horiz-adv-x="500" 
d="M264 595l37 135h150l-37 -135h-150z" />
    <glyph glyph-name="ring" unicode="&#x2da;" horiz-adv-x="500" 
d="M359 648c40 0 68 38 68 78c0 28 -17 50 -48 50c-40 0 -68 -38 -68 -78c0 -28 17 -50 48 -50zM357 593c-68 0 -110 45 -110 104c0 72 59 134 134 134c68 0 110 -45 110 -104c0 -72 -59 -134 -134 -134z" />
    <glyph glyph-name="cedilla" unicode="&#xb8;" horiz-adv-x="500" 
d="M157 -173l-113 53l124 130h112z" />
    <glyph glyph-name="hungarumlaut" unicode="&#x2dd;" horiz-adv-x="500" 
d="M123 595l159 177l113 -57l-161 -120h-111zM318 595l161 177l113 -57l-163 -120h-111z" />
    <glyph glyph-name="ogonek" unicode="&#x2db;" horiz-adv-x="500" 
d="M250 -97l-18 -67c-113 -9 -175 20 -175 80c0 29 18 66 38 94h104c-13 -23 -20 -43 -20 -60c0 -28 20 -44 71 -47z" />
    <glyph glyph-name="caron" unicode="&#x2c7;" horiz-adv-x="500" 
d="M262 595l-81 157h110l61 -66l97 66h122l-165 -157h-144z" />
    <glyph glyph-name="Lslash" unicode="&#x141;" horiz-adv-x="657" 
d="M43 0l70 262l-81 -22l39 143l81 22l79 295h149l-67 -250l210 58l-38 -143l-210 -58l-45 -167h354l-38 -140h-503z" />
    <glyph glyph-name="lslash" unicode="&#x142;" horiz-adv-x="359" 
d="M34 0l75 279l-81 -22l38 143l81 22l83 308h152l-71 -262l81 22l-38 -143l-81 -22l-87 -325h-152z" />
    <glyph glyph-name="Scaron" unicode="&#x160;" horiz-adv-x="636" 
d="M358 755l-81 157h110l61 -66l97 66h122l-165 -157h-144zM295 -10c-137 0 -238 43 -305 129l116 98c56 -60 116 -92 196 -92c63 0 107 29 107 73c0 34 -26 55 -119 92c-90 37 -172 85 -172 189c0 143 129 231 278 231c121 0 202 -40 262 -104l-106 -106
c-53 49 -100 75 -168 75c-65 0 -102 -36 -102 -71c0 -37 28 -52 123 -92s168 -87 168 -189c0 -148 -131 -233 -278 -233z" />
    <glyph glyph-name="scaron" unicode="&#x161;" horiz-adv-x="500" 
d="M262 595l-81 157h110l61 -66l97 66h122l-165 -157h-144zM217 -12c-81 0 -178 31 -241 97l88 91c56 -56 116 -72 164 -72c40 0 64 16 64 47c0 20 -25 34 -62 50c-84 34 -156 73 -156 157c0 107 82 188 215 188c87 0 167 -38 211 -77l-82 -96c-52 41 -96 57 -140 57
c-37 0 -59 -17 -59 -45c0 -21 26 -36 71 -56c70 -32 147 -67 147 -152c0 -117 -92 -189 -220 -189z" />
    <glyph glyph-name="Yacute" unicode="&#xdd;" horiz-adv-x="650" 
d="M359 755l161 177l128 -57l-161 -120h-128zM169 0l74 276l-145 424h171l82 -290l240 290h186l-383 -438l-71 -262h-154z" />
    <glyph glyph-name="yacute" unicode="&#xfd;" horiz-adv-x="592" 
d="M295 595l161 177l128 -57l-161 -120h-128zM85 -163c-56 0 -92 14 -125 37l81 110c16 -12 39 -21 59 -21c23 0 38 6 59 33l-66 540h155l25 -364l201 364h164l-332 -549c-69 -109 -130 -150 -221 -150z" />
    <glyph glyph-name="Thorn" unicode="&#xde;" horiz-adv-x="689" 
d="M232 245h105c103 0 171 45 171 125c0 23 -8 43 -23 58c-21 21 -49 31 -96 31h-100zM12 0l188 700h154l-27 -102h68c100 0 169 -20 220 -71c36 -36 54 -84 54 -144c0 -174 -149 -273 -340 -273h-133l-30 -110h-154z" />
    <glyph glyph-name="thorn" unicode="&#xfe;" horiz-adv-x="674" 
d="M317 118c82 0 159 80 159 188c0 71 -44 112 -112 112c-84 0 -162 -84 -162 -186c0 -68 47 -114 115 -114zM-46 -160l238 890h152l-68 -252c47 43 91 68 151 68c117 0 206 -85 206 -230c0 -190 -145 -326 -296 -326c-84 0 -133 35 -168 88l-63 -238h-152z" />
    <glyph glyph-name="Zcaron" unicode="&#x17d;" horiz-adv-x="689" 
d="M391 755l-81 157h110l61 -66l97 66h122l-165 -157h-144zM-19 0l31 117l492 448h-360l37 135h568l-32 -117l-492 -448h375l-36 -135h-583z" />
    <glyph glyph-name="zcaron" unicode="&#x17e;" horiz-adv-x="557" 
d="M280 595l-81 157h110l61 -66l97 66h122l-165 -157h-144zM-27 0l29 107l351 306h-260l33 123h454l-29 -107l-352 -306h273l-33 -123h-466z" />
    <glyph glyph-name="eth" unicode="&#xf0;" horiz-adv-x="638" 
d="M295 116c85 0 144 73 144 148c0 68 -45 114 -113 114c-82 0 -143 -69 -143 -146c0 -73 48 -116 112 -116zM286 -12c-147 0 -248 94 -248 235c0 147 119 263 262 263c65 0 110 -20 151 -59l-67 145l-135 -49l-36 75l137 50l-38 82h150l16 -35l118 43l35 -75l-120 -44
l38 -86c29 -67 44 -130 44 -205c0 -188 -112 -340 -307 -340z" />
    <glyph glyph-name="apple" horiz-adv-x="967" 
d="M417 64c0 -9 -3 -17 -12 -17c-8 0 -12 8 -12 17c0 11 4 16 12 16s12 -5 12 -16zM352 74v-10h-3c-5 0 -8 3 -8 8c0 4 2 6 7 6c3 0 4 -1 4 -4zM553 79c3 0 3 -3 0 -9c-3 6 -3 9 0 9zM384 217l9 -35c0 -5 -1 -7 -4 -7h-5c-15 0 -26 16 -26 32c0 11 5 17 14 17h6
c4 -1 3 0 6 -7zM716 187c0 -9 -4 -13 -11 -13c-12 0 -25 18 -25 38c0 9 4 14 11 14c12 0 25 -18 25 -39zM280 200h-5c-11 0 -15 8 -15 15c0 6 3 9 8 9s8 -2 9 -5zM392 384h-11c-9 0 -13 4 -13 11s4 11 13 11h11v-22zM684 535c0 -9 -4 -13 -11 -13c-12 0 -25 18 -25 38
c0 9 4 14 11 14c12 0 25 -18 25 -39zM272 553c-2 -3 -4 -4 -7 -4s-4 1 -4 2c0 2 1 3 4 3s6 0 7 -1zM566 553c-2 -3 -4 -4 -7 -4s-4 1 -4 2c0 2 1 3 4 3s6 0 7 -1zM176 548h-5c-11 0 -15 8 -15 15c0 6 3 9 8 9s8 -2 9 -5zM441 -88c0 9 -4 13 -11 13s-11 -4 -11 -12
c0 -9 4 -13 11 -13s11 4 11 12zM800 -88c0 9 -4 13 -11 13s-11 -4 -11 -12c0 -9 4 -13 11 -13s11 4 11 12zM564 -92l-5 12l-5 -12h10zM394 -83c0 5 -4 8 -11 7v-13c7 0 11 2 11 6zM525 -82c0 5 -4 7 -11 6v-12c7 -1 11 1 11 6zM606 -83c0 5 -4 8 -11 7v-13c7 0 11 2 11 6z
M309 46v2c-1 0 -2 0 -3 1c-2 1 -3 2 -3 5v20c0 1 1 3 3 4c1 1 2 1 3 1v2h-18v-2c1 0 2 0 3 -1c2 -2 3 -3 3 -4v-9c-1 0 -3 1 -4 2l-8 8c-2 1 -2 2 -1 3s1 1 2 1v2h-14v-2c1 0 2 0 3 -1c3 -1 2 -2 5 -3l10 -9l-13 -13c-1 -1 -3 -2 -4 -3s-2 -1 -3 -2v-2h17v2c-1 0 -2 0 -3 1
s0 2 1 4l8 8c1 1 3 2 4 2v-9c0 -1 -1 -3 -3 -5c-1 -1 -2 -1 -3 -1v-2h18zM364 46v2c-1 0 -2 0 -3 1s-2 3 -2 4v20c0 2 1 4 2 5s2 1 3 1v2h-18c-9 0 -13 -3 -13 -9c0 -3 3 -6 9 -9l-7 -10c-3 -3 -5 -3 -6 -4l-2 -1v-2h11l7 12c2 3 4 4 7 4v-9c0 -3 -2 -3 -3 -4s-1 -1 -2 -1
v-2h17zM425 64c0 11 -7 18 -20 18s-20 -7 -20 -18s7 -19 20 -19s20 8 20 19zM480 79v2h-15v-2c1 0 1 0 2 -1s0 -2 -1 -4l-6 -9l-6 9c-1 1 -1 3 0 4s2 1 3 1v2h-15v-2c1 0 2 0 3 -1s3 -2 5 -4l8 -12v-8c0 -1 -1 -3 -3 -5c-1 -1 -1 -1 -2 -1v-2h17v2c-1 0 -2 0 -3 1s-2 3 -2 5
v8l8 12c1 3 4 3 5 4s1 1 2 1zM583 81h-15v-2c1 0 1 0 2 -1s1 -2 0 -4l-9 -19l-5 10l4 8c1 3 3 3 4 4l2 2v2h-26l1 -2c1 0 1 0 2 -1l5 -5l3 -5l-7 -13l-8 18c-1 2 -1 4 0 5s1 1 2 1v2h-13v-2c1 0 1 0 2 -1c2 -2 3 -4 4 -5l13 -27h1c1 -1 1 -1 1 0l8 16l9 -16h1l12 27
c1 3 4 4 5 5s1 1 2 1v2zM633 46v2c-1 -1 -2 -1 -3 0c-1 0 -2 2 -2 5v21c0 2 1 4 2 5h3v2h-29l-2 -10l2 -1c0 1 1 3 2 4c1 3 4 4 7 4h4c3 0 4 -1 4 -3v-10h-4c-2 0 -4 1 -5 2s-1 2 -1 3h-2v-13h2c0 1 0 2 1 3c2 2 4 3 5 3h4v-11c0 -2 -1 -3 -4 -3h-4c-3 0 -5 1 -8 4
c-1 1 -2 3 -2 5l-2 -1l2 -11h30zM694 46v2c-1 0 -2 0 -3 1c-2 1 -3 2 -3 4v20c0 1 1 3 3 4c1 1 2 1 3 2v2h-10l-24 -26v18c0 2 1 4 3 5c1 1 2 1 3 1v2h-15v-2c1 0 2 0 3 -1c2 -2 3 -4 3 -5v-28h3l25 28v-20c0 -1 -1 -2 -3 -4c-1 -1 -1 -1 -2 -1v-2h14zM827 127v6h-685v-6
h685zM307 171l-1 3c-1 0 -3 0 -4 1c-3 1 -5 2 -6 7l-7 35c-1 3 0 6 3 7c1 1 3 1 4 1l-1 3h-27c-13 0 -20 -5 -20 -15c0 -8 8 -14 19 -15l-9 -16c-3 -5 -6 -6 -9 -7c-2 -1 -4 -1 -5 -1l1 -3h19l12 23c1 2 2 3 5 3l3 -15c1 -3 0 -6 -3 -7c-1 -1 -3 -1 -4 -1l1 -3h29zM414 171
l-1 4c-1 -1 -3 -1 -4 0c-3 1 -5 4 -6 9l-8 31c-2 6 1 9 8 10l-1 3h-30c-12 0 -25 -7 -25 -22c0 -21 18 -35 35 -35h32zM523 171l-1 3c-1 0 -2 0 -3 1c-3 1 -5 4 -6 9l-7 32c-1 4 0 7 3 8c1 1 3 1 5 1l-1 3h-14l-29 -42l-5 30c-1 4 0 7 3 8c1 1 3 1 4 1l-1 3h-21l1 -3
c1 0 3 0 4 -1c2 -1 4 -4 5 -8l8 -45l3 -1l30 44l6 -30c1 -5 0 -8 -2 -9c-1 -1 -3 -1 -4 -1l1 -3h21zM621 225l-1 3h-29l1 -3c1 0 3 0 4 -1c3 -1 5 -4 6 -8l5 -21c3 -13 4 -20 -11 -20c-11 0 -17 10 -20 22l-4 19c-1 5 0 8 3 9c1 1 3 1 4 0v3h-24l1 -3c1 0 3 0 5 -1
c3 -1 5 -4 6 -8l4 -19c3 -11 9 -27 28 -27c23 0 22 13 19 24l-5 22c-3 5 0 8 3 9c1 1 3 1 5 0zM823 171l-1 3c-1 0 -3 0 -4 1c-3 1 -5 2 -6 7l-7 35c-1 3 0 6 3 7c1 1 3 1 4 1l-1 3h-45v-10v-7h4c-1 2 0 4 1 6c1 5 5 7 12 7h4c3 0 5 -2 6 -6l3 -16h-4c-3 0 -6 1 -9 4
c-1 1 -2 3 -3 5h-3l5 -23h3c0 1 0 3 1 5c1 4 4 6 7 6h4l3 -17c1 -3 0 -6 -3 -7c-1 -1 -3 -1 -4 -1l1 -3h29zM201 215l2 2c-4 7 -7 13 -18 13c-10 0 -15 -8 -14 -23c-4 13 -10 23 -21 23c-7 0 -12 -4 -12 -12l3 -1c0 4 3 6 8 6c13 0 20 -17 24 -33c3 -9 1 -11 -2 -14
c-1 -1 -3 -2 -4 -1l1 -4h28l-1 4c-1 -1 -3 -1 -4 0c-3 1 -5 4 -6 9c-3 11 -5 20 -5 25c0 9 3 13 9 13c7 0 9 -4 12 -7zM728 192c0 20 -18 38 -37 38c-9 0 -23 -6 -23 -22c0 -21 18 -38 37 -38c9 0 23 6 23 22zM827 271v6h-685v-6h685zM283 308v33h-14v65h14v34h-141v-62h41
v28h33v-20h-24v-24h24v-21h-33v28h-41v-61h141zM458 308v33h-14v65h14v34h-96c-29 0 -47 -17 -47 -40s18 -40 47 -40h30v-19h-15v-33h81zM648 406v34h-81v-34h11l-15 -23l-15 23h10v34h-62v-34h12l37 -46v-19h-14v-33h81v33h-15v20l37 45h14zM827 378v62h-147v-62h36v28h11
v-65h-14v-33h81v33h-14v65h11v-28h36zM827 475v6h-685v-6h685zM400 521c0 3 -4 8 -13 9c-10 7 2 48 -29 48c-7 0 -13 -6 -13 -10c0 -3 2 -5 5 -5s4 2 4 6s2 6 5 6c12 0 5 -29 21 -45c-15 0 -16 -13 -23 -13c-3 0 -5 1 -5 4s2 2 2 5s-2 5 -5 5s-5 -2 -5 -7c0 -7 8 -12 15 -12
c17 0 14 13 25 13c2 -5 6 -7 12 -7c3 0 4 1 4 3zM203 519l-1 3c-1 0 -3 0 -4 1c-3 1 -5 2 -6 7l-7 35c-1 3 0 6 3 7c1 1 3 1 4 1l-1 3h-27c-13 0 -20 -5 -20 -15c0 -8 8 -14 19 -15l-9 -16c-3 -5 -6 -6 -9 -7c-2 -1 -4 -1 -5 -1l1 -3h19l12 23c1 2 2 3 5 3l3 -15
c1 -3 0 -6 -3 -7c-1 -1 -3 -1 -4 -1l1 -3h29zM498 519l-1 3c-1 0 -3 0 -4 1c-3 1 -5 2 -6 7l-7 35c-1 3 0 6 3 7c1 1 3 1 4 1l-1 3h-45v-10v-7h4c-1 2 0 4 1 6c1 5 5 7 12 7h4c3 0 5 -2 6 -6l3 -16h-4c-3 0 -6 1 -9 4c-1 1 -2 3 -3 5h-3l5 -23h3c0 1 0 3 1 5c1 4 4 6 7 6h4
l3 -17c1 -3 0 -6 -3 -7c-1 -1 -3 -1 -4 -1l1 -3h29zM821 519l-1 3c-1 0 -3 0 -4 1c-3 1 -5 2 -6 7l-7 35c-1 3 0 6 3 7c1 1 3 1 4 1l-1 3h-28l1 -3c1 0 3 0 4 -1c3 -1 4 -4 5 -7l3 -15h-24l-3 15c-1 3 0 6 3 7c1 1 3 1 4 1l-1 3h-29l1 -3c1 0 3 0 4 -1c3 -1 5 -4 6 -7l7 -35
c1 -3 0 -6 -3 -7c-1 -1 -3 -1 -4 -1l1 -3h29l-1 3c-1 0 -3 0 -4 1c-3 1 -5 2 -6 7l-3 16h24l3 -16c1 -3 0 -6 -3 -7c-1 -1 -3 -1 -4 -1l1 -3h29zM295 537c0 8 -5 14 -14 17c3 2 5 5 5 9c0 7 -6 15 -21 15c-9 0 -13 -4 -13 -11c0 -4 2 -6 5 -6s4 1 4 3c0 4 -3 3 -3 6s2 5 7 5
c7 0 10 -4 10 -12c0 -3 -1 -5 -2 -6c-11 1 -16 -1 -16 -6c0 -4 3 -6 8 -6c4 0 8 2 11 5c4 -3 6 -8 6 -15c0 -9 -4 -14 -12 -14s-12 3 -12 9c0 2 1 3 3 3c1 0 2 -2 5 -2s4 2 4 5s-2 5 -7 5c-6 0 -9 -3 -9 -10c0 -9 5 -13 16 -13c17 0 25 8 25 19zM589 537c0 8 -5 14 -14 17
c3 2 5 5 5 9c0 7 -6 15 -21 15c-9 0 -13 -4 -13 -11c0 -4 2 -6 5 -6s4 1 4 3c0 4 -3 3 -3 6s2 5 7 5c7 0 10 -4 10 -12c0 -3 -1 -5 -2 -6c-11 1 -16 -1 -16 -6c0 -4 3 -6 8 -6c4 0 8 2 11 5c4 -3 6 -8 6 -15c0 -9 -4 -14 -12 -14s-12 3 -12 9c0 2 1 3 3 3c1 0 2 -2 5 -2
s4 2 4 5s-2 5 -7 5c-6 0 -9 -3 -9 -10c0 -9 5 -13 16 -13c17 0 25 8 25 19zM696 540c0 20 -18 38 -37 38c-9 0 -23 -6 -23 -22c0 -21 18 -38 37 -38c9 0 23 6 23 22zM827 618v6h-685v-6h685zM439 662v2c-1 -1 -2 -1 -3 0c-1 0 -2 2 -2 5v21c0 2 1 4 2 5h3v2h-29l-2 -10l2 -1
c0 1 1 3 2 4c1 3 4 4 7 4h4c3 0 4 -1 4 -3v-10h-4c-2 0 -4 1 -5 2s-1 2 -1 3h-2v-13h2c0 1 0 2 1 3c2 2 4 3 5 3h4v-11c0 -2 -1 -3 -4 -3h-4c-3 0 -5 1 -8 4c-1 1 -2 3 -2 5l-2 -1l2 -11h30zM504 662v2c-1 -1 -2 -1 -3 0c-2 0 -3 2 -3 5v21c0 2 1 4 3 5h3v2h-18v-1v-1h2
c2 -2 3 -4 3 -5v-9h-17v9c0 2 1 4 2 5h3v1v1h-17v-2h2c2 -2 3 -4 3 -5v-21c0 -3 -2 -3 -3 -4s-1 -1 -2 -1v-2h17v2c-1 0 -2 0 -3 1s-2 3 -2 4v10h17v-10c0 -3 -1 -5 -3 -5c-1 -1 -1 -1 -2 0v-2h18zM557 686h2v4c0 3 -1 5 -1 8c-1 -1 -7 -1 -17 -1s-16 0 -18 1
c0 -3 -1 -5 -1 -8v-4h2c1 1 2 3 3 4c3 3 6 5 7 5c2 0 3 -1 3 -3v-23c0 -3 -1 -5 -3 -5c-1 -1 -1 -1 -2 0v-2h17v2c-1 -1 -2 -1 -3 0c-1 0 -2 2 -2 5v23c0 2 1 3 3 3s5 -2 8 -5c1 -1 2 -3 2 -4zM284 -101c0 -3 -1 -4 -4 -4s-4 1 -4 4s1 4 4 4s4 -1 4 -4zM716 -101
c0 -3 -1 -4 -4 -4s-4 1 -4 4s1 4 4 4s4 -1 4 -4zM155 -71l-12 -34h-1l-11 23l-10 -23h-1l-12 34l6 1l7 -23l10 23h1l10 -23l7 22h6zM211 -71l-12 -34h-1l-11 23l-10 -23h-1l-12 34l6 1l7 -23l10 23h1l10 -23l7 22h6zM267 -71l-12 -34h-1l-11 23l-10 -23h-1l-12 34l6 1l7 -23
l10 23h1l10 -23l7 22h6zM323 -71v-5h-12v-28h-6v28h-12v5h30zM364 -71l-13 -19v-14h-6v14l-14 19l6 1l11 -15l9 14h7zM400 -82c0 -8 -6 -12 -17 -12v-10h-6v33c19 3 23 -4 23 -11zM447 -87c0 -11 -6 -18 -17 -18s-17 8 -17 17c0 11 7 18 18 18c9 0 16 -8 16 -17zM491 -86
v-15c-4 -3 -8 -4 -13 -4c-11 0 -18 6 -18 17s8 18 19 18c4 0 8 -1 12 -4l-2 -5c-3 3 -6 4 -11 4c-8 0 -12 -4 -12 -13c0 -8 4 -12 13 -12c1 0 3 1 6 2v7h-9v5h15zM534 -104h-7l-8 11h-5v-11h-6v33c19 3 23 -3 23 -10c0 -5 -2 -8 -7 -10zM576 -104h-6l-4 8h-14l-3 -8h-6
l15 34h2zM612 -82c0 -8 -6 -12 -17 -12v-10h-6v33c19 3 23 -4 23 -11zM656 -104h-6v15h-16v-15h-6v33h6v-13h16v13h6v-33zM702 -71l-13 -19v-14h-6v14l-14 19l6 1l11 -15l9 14h7zM758 -96l-1 -6c-2 -2 -5 -3 -10 -3c-12 0 -18 6 -18 17s7 18 18 18c4 0 8 -1 11 -3l-2 -5
c-2 2 -5 3 -9 3c-7 0 -12 -5 -12 -12c0 -9 4 -13 13 -13c3 0 6 1 10 4zM806 -87c0 -11 -6 -18 -17 -18s-17 8 -17 17c0 11 7 18 18 18c9 0 16 -8 16 -17zM859 -104h-6l-3 20l-10 -21h-2l-10 21l-3 -20h-6l6 34h1l13 -26l13 26h1zM868 0h-767v750h767v-750z" />
    <glyph glyph-name="Eth" unicode="&#xd0;" horiz-adv-x="797" 
d="M223 139h87c93 0 178 29 234 85c45 45 70 107 70 175c0 47 -14 84 -41 111c-31 31 -81 51 -161 51h-75l-38 -141h142l-37 -136h-142zM32 0l76 284h-83l37 136h83l75 280h204c136 0 221 -37 274 -90c51 -51 76 -119 76 -205c0 -105 -39 -200 -115 -276
c-84 -84 -204 -129 -367 -129h-260z" />
    <glyph glyph-name="Abreve" unicode="&#x102;" horiz-adv-x="765" 
d="M515 753c-116 0 -161 76 -147 154v5h99c-1 -32 21 -60 68 -60c36 0 75 28 102 60h110c-46 -97 -140 -159 -232 -159zM307 293h186l-32 231zM-57 0l489 705h148l111 -705h-158l-22 157h-296l-106 -157h-166z" />
    <glyph glyph-name="abreve" unicode="&#x103;" horiz-adv-x="588" 
d="M228 94c63 0 119 49 135 108l4 14c-27 11 -63 19 -100 19c-64 0 -109 -32 -109 -84c0 -33 27 -57 70 -57zM163 -10c-92 0 -156 60 -156 144c0 124 101 193 231 193c59 0 106 -9 151 -24l2 7c3 12 6 24 6 40c0 37 -25 63 -101 63c-52 0 -104 -13 -143 -29l-24 120
c56 23 123 38 199 38c145 0 217 -60 217 -165c0 -28 -5 -54 -12 -81l-79 -296h-147l16 62c-43 -47 -96 -72 -160 -72zM391 593c-116 0 -161 76 -147 154v5h99c-1 -32 21 -60 68 -60c36 0 75 28 102 60h110c-46 -97 -140 -159 -232 -159z" />
    <glyph glyph-name="Dcroat" unicode="&#x110;" horiz-adv-x="777" 
d="M29 290l37 132h59l75 278h204c136 0 221 -37 274 -90c51 -51 76 -119 76 -205c0 -105 -39 -200 -115 -276c-84 -84 -204 -129 -367 -129h-260l78 290h-61zM203 139h87c93 0 178 29 234 85c45 45 70 107 70 175c0 47 -14 84 -41 111c-31 31 -81 51 -161 51h-75l-38 -139
h154l-37 -132h-152z" />
    <glyph glyph-name="dcroat" unicode="&#x111;" horiz-adv-x="674" 
d="M246 -10c-117 0 -206 85 -206 230c0 190 145 326 296 326c84 0 133 -35 168 -88l35 132h-134l24 85h132l15 55h152l-15 -55h83l-24 -85h-81l-158 -590h-152l16 58c-47 -43 -91 -68 -151 -68zM309 118c84 0 162 84 162 186c0 68 -47 114 -115 114
c-82 0 -159 -80 -159 -188c0 -71 44 -112 112 -112z" />
    <glyph glyph-name="Itilde" unicode="&#x128;" horiz-adv-x="336" 
d="M188 754l-70 37c31 72 78 122 134 122c31 0 50 -11 70 -27c24 -17 32 -24 47 -24c28 0 45 23 62 54l70 -36c-31 -72 -78 -122 -134 -122c-31 0 -49 10 -70 26c-24 17 -32 24 -47 24c-28 0 -45 -22 -62 -54zM19 0l188 700h154l-188 -700h-154z" />
    <glyph glyph-name="itilde" unicode="&#x129;" horiz-adv-x="302" 
d="M3 0l144 536h152l-144 -536h-152zM124 596l-70 37c31 72 78 122 134 122c31 0 50 -11 70 -27c24 -17 32 -24 47 -24c28 0 45 23 62 54l70 -36c-31 -72 -78 -122 -134 -122c-31 0 -49 10 -70 26c-24 17 -32 24 -47 24c-28 0 -45 -22 -62 -54z" />
    <glyph glyph-name="Utilde" unicode="&#x168;" horiz-adv-x="764" 
d="M387 754l-70 37c31 72 78 122 134 122c31 0 50 -11 70 -27c24 -17 32 -24 47 -24c28 0 45 23 62 54l70 -36c-31 -72 -78 -122 -134 -122c-31 0 -49 10 -70 26c-24 17 -32 24 -47 24c-28 0 -45 -22 -62 -54zM343 -11c-163 0 -262 87 -262 236c0 35 6 72 17 112l97 363h154
l-101 -377c-7 -24 -11 -47 -11 -76c0 -69 42 -116 122 -116c45 0 83 15 114 44c31 31 53 74 68 130l106 395h154l-112 -417c-24 -91 -60 -160 -108 -208c-57 -57 -134 -86 -238 -86z" />
    <glyph glyph-name="utilde" unicode="&#x169;" horiz-adv-x="622" 
d="M276 596l-70 37c31 72 78 122 134 122c31 0 50 -11 70 -27c24 -17 32 -24 47 -24c28 0 45 23 62 54l70 -36c-31 -72 -78 -122 -134 -122c-31 0 -49 10 -70 26c-24 17 -32 24 -47 24c-28 0 -45 -22 -62 -54zM199 -10c-96 0 -158 59 -158 156c0 31 9 67 18 102l77 288h152
l-79 -294c-4 -15 -7 -35 -7 -48c0 -43 27 -66 74 -66c60 0 99 43 116 107l81 301h152l-143 -536h-152l15 56c-39 -35 -86 -66 -146 -66z" />
    <glyph glyph-name="Ohorn" unicode="&#x1a0;" 
d="M387 -12c-192 0 -320 134 -320 310c0 208 170 414 421 414c48 0 92 -8 131 -24c12 -5 23 -10 34 -16c56 3 75 9 80 28c8 15 14 44 -1 100h143c2 -35 2 -58 0 -71c-1 -13 -5 -29 -12 -50c-15 -41 -43 -75 -86 -100c-5 -3 -10 -5 -16 -8c9 -15 17 -30 24 -47
c15 -37 23 -78 23 -122c0 -208 -170 -414 -421 -414zM405 130c147 0 243 141 243 262c0 104 -62 178 -178 178c-147 0 -243 -141 -243 -262c0 -104 62 -178 178 -178z" />
    <glyph glyph-name="ohorn" unicode="&#x1a1;" horiz-adv-x="652" 
d="M300 -12c-159 0 -258 104 -258 248c0 160 137 310 310 310c40 0 76 -6 107 -19c16 -6 31 -13 44 -22c21 2 36 5 45 8c11 4 18 11 21 20c8 15 14 44 -1 100h143c2 -35 2 -58 0 -71c-1 -13 -5 -29 -12 -50c-15 -41 -43 -75 -86 -100c-7 -4 -15 -8 -23 -12c1 -1 1 -2 2 -3
c12 -30 18 -63 18 -99c0 -160 -139 -310 -310 -310zM307 118c93 0 154 100 154 176c0 79 -47 122 -116 122c-93 0 -154 -100 -154 -176c0 -79 47 -122 116 -122z" />
    <glyph glyph-name="Uhorn" unicode="&#x1af;" horiz-adv-x="804" 
d="M781 824h143c2 -35 2 -58 0 -71c-1 -13 -5 -29 -12 -50c-15 -41 -43 -75 -86 -100c-17 -10 -37 -18 -58 -25l-79 -295c-24 -91 -60 -160 -108 -208c-57 -57 -134 -86 -238 -86c-163 0 -262 87 -262 236c0 35 6 72 17 112l97 363h154l-101 -377c-7 -24 -11 -47 -11 -76
c0 -69 42 -116 122 -116c45 0 83 15 114 44c31 31 53 74 68 130l106 395h98c7 1 12 3 16 4c11 4 18 11 21 20c8 15 14 44 -1 100z" />
    <glyph glyph-name="uhorn" unicode="&#x1b0;" horiz-adv-x="663" 
d="M199 -10c-96 0 -158 59 -158 156c0 31 9 67 18 102l77 288h152l-79 -294c-4 -15 -7 -35 -7 -48c0 -43 27 -66 74 -66c60 0 99 43 116 107l81 301h87c14 1 24 3 31 6c11 4 18 11 21 20c8 15 14 44 -1 100h143c2 -35 2 -58 0 -71c-1 -13 -5 -29 -12 -50
c-15 -41 -43 -75 -86 -100c-19 -11 -40 -19 -64 -26l-110 -415h-152l15 56c-39 -35 -86 -66 -146 -66z" />
    <glyph glyph-name="uni1EA0" unicode="&#x1ea0;" horiz-adv-x="765" 
d="M206 -199l35 132h143l-35 -132h-143zM307 293h186l-32 231zM-57 0l489 705h148l111 -705h-158l-22 157h-296l-106 -157h-166z" />
    <glyph glyph-name="uni1EA1" unicode="&#x1ea1;" horiz-adv-x="588" 
d="M108 -199l35 132h143l-35 -132h-143zM228 94c63 0 119 49 135 108l4 14c-27 11 -63 19 -100 19c-64 0 -109 -32 -109 -84c0 -33 27 -57 70 -57zM163 -10c-92 0 -156 60 -156 144c0 124 101 193 231 193c59 0 106 -9 151 -24l2 7c3 12 6 24 6 40c0 37 -25 63 -101 63
c-52 0 -104 -13 -143 -29l-24 120c56 23 123 38 199 38c145 0 217 -60 217 -165c0 -28 -5 -54 -12 -81l-79 -296h-147l16 62c-43 -47 -96 -72 -160 -72z" />
    <glyph glyph-name="uni1EA2" unicode="&#x1ea2;" horiz-adv-x="765" 
d="M483 764l26 95c43 7 63 14 90 46c4 13 3 25 -18 28c-21 1 -42 -9 -66 -40l-62 40c57 69 111 83 156 82c69 -1 101 -46 81 -106c-23 -57 -72 -89 -111 -104l-20 -41h-76zM307 293h186l-32 231zM-57 0l489 705h148l111 -705h-158l-22 157h-296l-106 -157h-166z" />
    <glyph glyph-name="uni1EA3" unicode="&#x1ea3;" horiz-adv-x="588" 
d="M351 594l26 95c43 7 63 14 90 46c4 13 3 25 -18 28c-21 1 -42 -9 -66 -40l-62 40c57 69 111 83 156 82c69 -1 101 -46 81 -106c-23 -57 -72 -89 -111 -104l-20 -41h-76zM228 94c63 0 119 49 135 108l4 14c-27 11 -63 19 -100 19c-64 0 -109 -32 -109 -84
c0 -33 27 -57 70 -57zM163 -10c-92 0 -156 60 -156 144c0 124 101 193 231 193c59 0 106 -9 151 -24l2 7c3 12 6 24 6 40c0 37 -25 63 -101 63c-52 0 -104 -13 -143 -29l-24 120c56 23 123 38 199 38c145 0 217 -60 217 -165c0 -28 -5 -54 -12 -81l-79 -296h-147l16 62
c-43 -47 -96 -72 -160 -72z" />
    <glyph glyph-name="uni1EA8" unicode="&#x1ea8;" horiz-adv-x="765" 
d="M678 873l24 88c41 7 61 14 86 43c4 12 3 23 -17 26c-20 1 -40 -9 -63 -37l-59 37c57 66 103 73 149 76c65 -1 96 -43 77 -98c-21 -53 -69 -84 -106 -97l-19 -38h-72zM315 755l165 157h144l81 -157h-110l-61 66l-97 -66h-122zM307 293h186l-32 231zM-57 0l489 705h148
l111 -705h-158l-22 157h-296l-106 -157h-166z" />
    <glyph glyph-name="uni1EA9" unicode="&#x1ea9;" horiz-adv-x="588" 
d="M542 713l24 88c41 7 61 14 86 43c4 12 3 23 -17 26c-20 1 -40 -9 -63 -37l-59 37c57 66 103 73 149 76c65 -1 96 -43 77 -98c-21 -53 -69 -84 -106 -97l-19 -38h-72zM179 595l165 157h144l81 -157h-110l-61 66l-97 -66h-122zM228 94c63 0 119 49 135 108l4 14
c-27 11 -63 19 -100 19c-64 0 -109 -32 -109 -84c0 -33 27 -57 70 -57zM163 -10c-92 0 -156 60 -156 144c0 124 101 193 231 193c59 0 106 -9 151 -24l2 7c3 12 6 24 6 40c0 37 -25 63 -101 63c-52 0 -104 -13 -143 -29l-24 120c56 23 123 38 199 38c145 0 217 -60 217 -165
c0 -28 -5 -54 -12 -81l-79 -296h-147l16 62c-43 -47 -96 -72 -160 -72z" />
    <glyph glyph-name="uni1EB2" unicode="&#x1eb2;" horiz-adv-x="765" 
d="M508 913l24 88c41 7 61 14 86 43c4 12 3 23 -17 26c-20 1 -40 -9 -63 -37l-59 37c57 66 103 73 149 76c65 -1 96 -43 77 -98c-21 -53 -69 -84 -106 -97l-19 -38h-72zM515 753c-116 0 -161 76 -147 154v5h99c-1 -32 21 -60 68 -60c36 0 75 28 102 60h110
c-46 -97 -140 -159 -232 -159zM307 293h186l-32 231zM-57 0l489 705h148l111 -705h-158l-22 157h-296l-106 -157h-166z" />
    <glyph glyph-name="uni1EB3" unicode="&#x1eb3;" horiz-adv-x="588" 
d="M384 753l24 88c41 7 61 14 86 43c4 12 3 23 -17 26c-20 1 -40 -9 -63 -37l-59 37c57 66 103 73 149 76c65 -1 96 -43 77 -98c-21 -53 -69 -84 -106 -97l-19 -38h-72zM228 94c63 0 119 49 135 108l4 14c-27 11 -63 19 -100 19c-64 0 -109 -32 -109 -84
c0 -33 27 -57 70 -57zM163 -10c-92 0 -156 60 -156 144c0 124 101 193 231 193c59 0 106 -9 151 -24l2 7c3 12 6 24 6 40c0 37 -25 63 -101 63c-52 0 -104 -13 -143 -29l-24 120c56 23 123 38 199 38c145 0 217 -60 217 -165c0 -28 -5 -54 -12 -81l-79 -296h-147l16 62
c-43 -47 -96 -72 -160 -72zM391 593c-116 0 -161 76 -147 154v5h99c-1 -32 21 -60 68 -60c36 0 75 28 102 60h110c-46 -97 -140 -159 -232 -159z" />
    <glyph glyph-name="uni1EB8" unicode="&#x1eb8;" horiz-adv-x="665" 
d="M152 -199l35 132h143l-35 -132h-143zM12 0l188 700h523l-37 -137h-370l-38 -143h325l-37 -135h-325l-40 -148h376l-37 -137h-528z" />
    <glyph glyph-name="uni1EB9" unicode="&#x1eb9;" horiz-adv-x="607" 
d="M157 -199l35 132h143l-35 -132h-143zM197 310h233c3 11 5 23 5 35c0 44 -25 79 -88 79c-69 0 -125 -46 -150 -114zM551 215h-367c5 -64 42 -105 122 -105c40 0 75 12 119 43l70 -94c-48 -40 -114 -71 -206 -71c-155 0 -248 90 -248 238c0 156 126 320 318 320
c140 0 219 -90 219 -209c0 -39 -10 -81 -27 -122z" />
    <glyph glyph-name="uni1EBA" unicode="&#x1eba;" horiz-adv-x="665" 
d="M428 764l26 95c43 7 63 14 90 46c4 13 3 25 -18 28c-21 1 -42 -9 -66 -40l-62 40c57 69 111 83 156 82c69 -1 101 -46 81 -106c-23 -57 -72 -89 -111 -104l-20 -41h-76zM12 0l188 700h523l-37 -137h-370l-38 -143h325l-37 -135h-325l-40 -148h376l-37 -137h-528z" />
    <glyph glyph-name="uni1EBB" unicode="&#x1ebb;" horiz-adv-x="607" 
d="M357 594l26 95c43 7 63 14 90 46c4 13 3 25 -18 28c-21 1 -42 -9 -66 -40l-62 40c57 69 111 83 156 82c69 -1 101 -46 81 -106c-23 -57 -72 -89 -111 -104l-20 -41h-76zM197 310h233c3 11 5 23 5 35c0 44 -25 79 -88 79c-69 0 -125 -46 -150 -114zM551 215h-367
c5 -64 42 -105 122 -105c40 0 75 12 119 43l70 -94c-48 -40 -114 -71 -206 -71c-155 0 -248 90 -248 238c0 156 126 320 318 320c140 0 219 -90 219 -209c0 -39 -10 -81 -27 -122z" />
    <glyph glyph-name="uni1EC2" unicode="&#x1ec2;" horiz-adv-x="665" 
d="M637 873l24 88c41 7 61 14 86 43c4 12 3 23 -17 26c-20 1 -40 -9 -63 -37l-59 37c57 66 103 73 149 76c65 -1 96 -43 77 -98c-21 -53 -69 -84 -106 -97l-19 -38h-72zM274 755l165 157h144l81 -157h-110l-61 66l-97 -66h-122zM12 0l188 700h523l-37 -137h-370l-38 -143
h325l-37 -135h-325l-40 -148h376l-37 -137h-528z" />
    <glyph glyph-name="uni1EC3" unicode="&#x1ec3;" horiz-adv-x="607" 
d="M546 713l24 88c41 7 61 14 86 43c4 12 3 23 -17 26c-20 1 -40 -9 -63 -37l-59 37c57 66 103 73 149 76c65 -1 96 -43 77 -98c-21 -53 -69 -84 -106 -97l-19 -38h-72zM183 595l165 157h144l81 -157h-110l-61 66l-97 -66h-122zM197 310h233c3 11 5 23 5 35
c0 44 -25 79 -88 79c-69 0 -125 -46 -150 -114zM551 215h-367c5 -64 42 -105 122 -105c40 0 75 12 119 43l70 -94c-48 -40 -114 -71 -206 -71c-155 0 -248 90 -248 238c0 156 126 320 318 320c140 0 219 -90 219 -209c0 -39 -10 -81 -27 -122z" />
    <glyph glyph-name="uni1EC8" unicode="&#x1ec8;" horiz-adv-x="336" 
d="M259 764l26 95c43 7 63 14 90 46c4 13 3 25 -18 28c-21 1 -42 -9 -66 -40l-62 40c57 69 111 83 156 82c69 -1 101 -46 81 -106c-23 -57 -72 -89 -111 -104l-20 -41h-76zM19 0l188 700h154l-188 -700h-154z" />
    <glyph glyph-name="uni1EC9" unicode="&#x1ec9;" horiz-adv-x="302" 
d="M3 0l144 536h152l-144 -536h-152zM199 594l26 95c43 7 63 14 90 46c4 13 3 25 -18 28c-21 1 -42 -9 -66 -40l-62 40c57 69 111 83 156 82c69 -1 101 -46 81 -106c-23 -57 -72 -89 -111 -104l-20 -41h-76z" />
    <glyph glyph-name="uni1ECA" unicode="&#x1eca;" horiz-adv-x="336" 
d="M-26 -199l35 132h143l-35 -132h-143zM19 0l188 700h154l-188 -700h-154z" />
    <glyph glyph-name="uni1ECB" unicode="&#x1ecb;" horiz-adv-x="302" 
d="M-43 -199l35 132h143l-35 -132h-143zM3 0l144 536h152l-144 -536h-152zM159 595l37 135h160l-37 -135h-160z" />
    <glyph glyph-name="uni1ECC" unicode="&#x1ecc;" 
d="M255 -199l35 132h143l-35 -132h-143zM405 130c147 0 243 141 243 262c0 104 -62 178 -178 178c-147 0 -243 -141 -243 -262c0 -104 62 -178 178 -178zM387 -12c-192 0 -320 134 -320 310c0 208 170 414 421 414c192 0 320 -134 320 -310c0 -208 -170 -414 -421 -414z" />
    <glyph glyph-name="uni1ECD" unicode="&#x1ecd;" horiz-adv-x="652" 
d="M163 -199l35 132h143l-35 -132h-143zM307 118c93 0 154 100 154 176c0 79 -47 122 -116 122c-93 0 -154 -100 -154 -176c0 -79 47 -122 116 -122zM300 -12c-159 0 -258 104 -258 248c0 160 137 310 310 310c159 0 258 -104 258 -248c0 -160 -139 -310 -310 -310z" />
    <glyph glyph-name="uni1ECE" unicode="&#x1ece;" 
d="M495 764l26 95c43 7 63 14 90 46c4 13 3 25 -18 28c-21 1 -42 -9 -66 -40l-62 40c57 69 111 83 156 82c69 -1 101 -46 81 -106c-23 -57 -72 -89 -111 -104l-20 -41h-76zM405 130c147 0 243 141 243 262c0 104 -62 178 -178 178c-147 0 -243 -141 -243 -262
c0 -104 62 -178 178 -178zM387 -12c-192 0 -320 134 -320 310c0 208 170 414 421 414c192 0 320 -134 320 -310c0 -208 -170 -414 -421 -414z" />
    <glyph glyph-name="uni1ECF" unicode="&#x1ecf;" horiz-adv-x="652" 
d="M366 594l26 95c43 7 63 14 90 46c4 13 3 25 -18 28c-21 1 -42 -9 -66 -40l-62 40c57 69 111 83 156 82c69 -1 101 -46 81 -106c-23 -57 -72 -89 -111 -104l-20 -41h-76zM307 118c93 0 154 100 154 176c0 79 -47 122 -116 122c-93 0 -154 -100 -154 -176
c0 -79 47 -122 116 -122zM300 -12c-159 0 -258 104 -258 248c0 160 137 310 310 310c159 0 258 -104 258 -248c0 -160 -139 -310 -310 -310z" />
    <glyph glyph-name="uni1ED4" unicode="&#x1ed4;" 
d="M682 873l24 88c41 7 61 14 86 43c4 12 3 23 -17 26c-20 1 -40 -9 -63 -37l-59 37c57 66 103 73 149 76c65 -1 96 -43 77 -98c-21 -53 -69 -84 -106 -97l-19 -38h-72zM319 755l165 157h144l81 -157h-110l-61 66l-97 -66h-122zM405 130c147 0 243 141 243 262
c0 104 -62 178 -178 178c-147 0 -243 -141 -243 -262c0 -104 62 -178 178 -178zM387 -12c-192 0 -320 134 -320 310c0 208 170 414 421 414c192 0 320 -134 320 -310c0 -208 -170 -414 -421 -414z" />
    <glyph glyph-name="uni1ED5" unicode="&#x1ed5;" horiz-adv-x="652" 
d="M551 713l24 88c41 7 61 14 86 43c4 12 3 23 -17 26c-20 1 -40 -9 -63 -37l-59 37c57 66 103 73 149 76c65 -1 96 -43 77 -98c-21 -53 -69 -84 -106 -97l-19 -38h-72zM188 595l165 157h144l81 -157h-110l-61 66l-97 -66h-122zM307 118c93 0 154 100 154 176
c0 79 -47 122 -116 122c-93 0 -154 -100 -154 -176c0 -79 47 -122 116 -122zM300 -12c-159 0 -258 104 -258 248c0 160 137 310 310 310c159 0 258 -104 258 -248c0 -160 -139 -310 -310 -310z" />
    <glyph glyph-name="uni1EDE" unicode="&#x1ede;" 
d="M495 764l26 95c43 7 63 14 90 46c4 13 3 25 -18 28c-21 1 -42 -9 -66 -40l-62 40c57 69 111 83 156 82c69 -1 101 -46 81 -106c-23 -57 -72 -89 -111 -104l-20 -41h-76zM387 -12c-192 0 -320 134 -320 310c0 208 170 414 421 414c48 0 92 -8 131 -24c12 -5 23 -10 34 -16
c56 3 75 9 80 28c8 15 14 44 -1 100h143c2 -35 2 -58 0 -71c-1 -13 -5 -29 -12 -50c-15 -41 -43 -75 -86 -100c-5 -3 -10 -5 -16 -8c9 -15 17 -30 24 -47c15 -37 23 -78 23 -122c0 -208 -170 -414 -421 -414zM405 130c147 0 243 141 243 262c0 104 -62 178 -178 178
c-147 0 -243 -141 -243 -262c0 -104 62 -178 178 -178z" />
    <glyph glyph-name="uni1EDF" unicode="&#x1edf;" horiz-adv-x="652" 
d="M366 594l26 95c43 7 63 14 90 46c4 13 3 25 -18 28c-21 1 -42 -9 -66 -40l-62 40c57 69 111 83 156 82c69 -1 101 -46 81 -106c-23 -57 -72 -89 -111 -104l-20 -41h-76zM300 -12c-159 0 -258 104 -258 248c0 160 137 310 310 310c40 0 76 -6 107 -19c16 -6 31 -13 44 -22
c21 2 36 5 45 8c11 4 18 11 21 20c8 15 14 44 -1 100h143c2 -35 2 -58 0 -71c-1 -13 -5 -29 -12 -50c-15 -41 -43 -75 -86 -100c-7 -4 -15 -8 -23 -12c1 -1 1 -2 2 -3c12 -30 18 -63 18 -99c0 -160 -139 -310 -310 -310zM307 118c93 0 154 100 154 176
c0 79 -47 122 -116 122c-93 0 -154 -100 -154 -176c0 -79 47 -122 116 -122z" />
    <glyph glyph-name="uni1EE2" unicode="&#x1ee2;" 
d="M255 -199l35 132h143l-35 -132h-143zM387 -12c-192 0 -320 134 -320 310c0 208 170 414 421 414c48 0 92 -8 131 -24c12 -5 23 -10 34 -16c56 3 75 9 80 28c8 15 14 44 -1 100h143c2 -35 2 -58 0 -71c-1 -13 -5 -29 -12 -50c-15 -41 -43 -75 -86 -100
c-5 -3 -10 -5 -16 -8c9 -15 17 -30 24 -47c15 -37 23 -78 23 -122c0 -208 -170 -414 -421 -414zM405 130c147 0 243 141 243 262c0 104 -62 178 -178 178c-147 0 -243 -141 -243 -262c0 -104 62 -178 178 -178z" />
    <glyph glyph-name="uni1EE3" unicode="&#x1ee3;" horiz-adv-x="652" 
d="M163 -199l35 132h143l-35 -132h-143zM300 -12c-159 0 -258 104 -258 248c0 160 137 310 310 310c40 0 76 -6 107 -19c16 -6 31 -13 44 -22c21 2 36 5 45 8c11 4 18 11 21 20c8 15 14 44 -1 100h143c2 -35 2 -58 0 -71c-1 -13 -5 -29 -12 -50c-15 -41 -43 -75 -86 -100
c-7 -4 -15 -8 -23 -12c1 -1 1 -2 2 -3c12 -30 18 -63 18 -99c0 -160 -139 -310 -310 -310zM307 118c93 0 154 100 154 176c0 79 -47 122 -116 122c-93 0 -154 -100 -154 -176c0 -79 47 -122 116 -122z" />
    <glyph glyph-name="uni1EE4" unicode="&#x1ee4;" horiz-adv-x="764" 
d="M205 -199l35 132h143l-35 -132h-143zM343 -11c-163 0 -262 87 -262 236c0 35 6 72 17 112l97 363h154l-101 -377c-7 -24 -11 -47 -11 -76c0 -69 42 -116 122 -116c45 0 83 15 114 44c31 31 53 74 68 130l106 395h154l-112 -417c-24 -91 -60 -160 -108 -208
c-57 -57 -134 -86 -238 -86z" />
    <glyph glyph-name="uni1EE5" unicode="&#x1ee5;" horiz-adv-x="622" 
d="M125 -199l35 132h143l-35 -132h-143zM199 -10c-96 0 -158 59 -158 156c0 31 9 67 18 102l77 288h152l-79 -294c-4 -15 -7 -35 -7 -48c0 -43 27 -66 74 -66c60 0 99 43 116 107l81 301h152l-143 -536h-152l15 56c-39 -35 -86 -66 -146 -66z" />
    <glyph glyph-name="uni1EE6" unicode="&#x1ee6;" horiz-adv-x="764" 
d="M471 764l26 95c43 7 63 14 90 46c4 13 3 25 -18 28c-21 1 -42 -9 -66 -40l-62 40c57 69 111 83 156 82c69 -1 101 -46 81 -106c-23 -57 -72 -89 -111 -104l-20 -41h-76zM343 -11c-163 0 -262 87 -262 236c0 35 6 72 17 112l97 363h154l-101 -377c-7 -24 -11 -47 -11 -76
c0 -69 42 -116 122 -116c45 0 83 15 114 44c31 31 53 74 68 130l106 395h154l-112 -417c-24 -91 -60 -160 -108 -208c-57 -57 -134 -86 -238 -86z" />
    <glyph glyph-name="uni1EE7" unicode="&#x1ee7;" horiz-adv-x="622" 
d="M352 594l26 95c43 7 63 14 90 46c4 13 3 25 -18 28c-21 1 -42 -9 -66 -40l-62 40c57 69 111 83 156 82c69 -1 101 -46 81 -106c-23 -57 -72 -89 -111 -104l-20 -41h-76zM199 -10c-96 0 -158 59 -158 156c0 31 9 67 18 102l77 288h152l-79 -294c-4 -15 -7 -35 -7 -48
c0 -43 27 -66 74 -66c60 0 99 43 116 107l81 301h152l-143 -536h-152l15 56c-39 -35 -86 -66 -146 -66z" />
    <glyph glyph-name="uni1EEC" unicode="&#x1eec;" horiz-adv-x="804" 
d="M471 764l26 95c43 7 63 14 90 46c4 13 3 25 -18 28c-21 1 -42 -9 -66 -40l-62 40c57 69 111 83 156 82c69 -1 101 -46 81 -106c-23 -57 -72 -89 -111 -104l-20 -41h-76zM781 824h143c2 -35 2 -58 0 -71c-1 -13 -5 -29 -12 -50c-15 -41 -43 -75 -86 -100
c-17 -10 -37 -18 -58 -25l-79 -295c-24 -91 -60 -160 -108 -208c-57 -57 -134 -86 -238 -86c-163 0 -262 87 -262 236c0 35 6 72 17 112l97 363h154l-101 -377c-7 -24 -11 -47 -11 -76c0 -69 42 -116 122 -116c45 0 83 15 114 44c31 31 53 74 68 130l106 395h98
c7 1 12 3 16 4c11 4 18 11 21 20c8 15 14 44 -1 100z" />
    <glyph glyph-name="uni1EED" unicode="&#x1eed;" horiz-adv-x="663" 
d="M352 594l26 95c43 7 63 14 90 46c4 13 3 25 -18 28c-21 1 -42 -9 -66 -40l-62 40c57 69 111 83 156 82c69 -1 101 -46 81 -106c-23 -57 -72 -89 -111 -104l-20 -41h-76zM199 -10c-96 0 -158 59 -158 156c0 31 9 67 18 102l77 288h152l-79 -294c-4 -15 -7 -35 -7 -48
c0 -43 27 -66 74 -66c60 0 99 43 116 107l81 301h87c14 1 24 3 31 6c11 4 18 11 21 20c8 15 14 44 -1 100h143c2 -35 2 -58 0 -71c-1 -13 -5 -29 -12 -50c-15 -41 -43 -75 -86 -100c-19 -11 -40 -19 -64 -26l-110 -415h-152l15 56c-39 -35 -86 -66 -146 -66z" />
    <glyph glyph-name="uni1EF0" unicode="&#x1ef0;" horiz-adv-x="804" 
d="M205 -199l35 132h143l-35 -132h-143zM781 824h143c2 -35 2 -58 0 -71c-1 -13 -5 -29 -12 -50c-15 -41 -43 -75 -86 -100c-17 -10 -37 -18 -58 -25l-79 -295c-24 -91 -60 -160 -108 -208c-57 -57 -134 -86 -238 -86c-163 0 -262 87 -262 236c0 35 6 72 17 112l97 363h154
l-101 -377c-7 -24 -11 -47 -11 -76c0 -69 42 -116 122 -116c45 0 83 15 114 44c31 31 53 74 68 130l106 395h98c7 1 12 3 16 4c11 4 18 11 21 20c8 15 14 44 -1 100z" />
    <glyph glyph-name="uni1EF1" unicode="&#x1ef1;" horiz-adv-x="663" 
d="M125 -199l35 132h143l-35 -132h-143zM199 -10c-96 0 -158 59 -158 156c0 31 9 67 18 102l77 288h152l-79 -294c-4 -15 -7 -35 -7 -48c0 -43 27 -66 74 -66c60 0 99 43 116 107l81 301h87c14 1 24 3 31 6c11 4 18 11 21 20c8 15 14 44 -1 100h143c2 -35 2 -58 0 -71
c-1 -13 -5 -29 -12 -50c-15 -41 -43 -75 -86 -100c-19 -11 -40 -19 -64 -26l-110 -415h-152l15 56c-39 -35 -86 -66 -146 -66z" />
    <glyph glyph-name="uni1EF4" unicode="&#x1ef4;" horiz-adv-x="650" 
d="M125 -199l35 132h143l-35 -132h-143zM169 0l74 276l-145 424h171l82 -290l240 290h186l-383 -438l-71 -262h-154z" />
    <glyph glyph-name="uni1EF5" unicode="&#x1ef5;" horiz-adv-x="592" 
d="M308 -199l35 132h143l-35 -132h-143zM85 -163c-56 0 -92 14 -125 37l81 110c16 -12 39 -21 59 -21c23 0 38 6 59 33l-66 540h155l25 -364l201 364h164l-332 -549c-69 -109 -130 -150 -221 -150z" />
    <glyph glyph-name="uni1EF6" unicode="&#x1ef6;" horiz-adv-x="650" 
d="M387 764l26 95c43 7 63 14 90 46c4 13 3 25 -18 28c-21 1 -42 -9 -66 -40l-62 40c57 69 111 83 156 82c69 -1 101 -46 81 -106c-23 -57 -72 -89 -111 -104l-20 -41h-76zM169 0l74 276l-145 424h171l82 -290l240 290h186l-383 -438l-71 -262h-154z" />
    <glyph glyph-name="uni1EF7" unicode="&#x1ef7;" horiz-adv-x="592" 
d="M330 594l26 95c43 7 63 14 90 46c4 13 3 25 -18 28c-21 1 -42 -9 -66 -40l-62 40c57 69 111 83 156 82c69 -1 101 -46 81 -106c-23 -57 -72 -89 -111 -104l-20 -41h-76zM85 -163c-56 0 -92 14 -125 37l81 110c16 -12 39 -21 59 -21c23 0 38 6 59 33l-66 540h155l25 -364
l201 364h164l-332 -549c-69 -109 -130 -150 -221 -150z" />
    <glyph glyph-name="uni1EA4" unicode="&#x1ea4;" horiz-adv-x="765" 
d="M681 873l161 177l128 -57l-161 -120h-128zM315 755l165 157h144l81 -157h-110l-61 66l-97 -66h-122zM307 293h186l-32 231zM-57 0l489 705h148l111 -705h-158l-22 157h-296l-106 -157h-166z" />
    <glyph glyph-name="uni1EA5" unicode="&#x1ea5;" horiz-adv-x="588" 
d="M545 713l161 177l128 -57l-161 -120h-128zM179 595l165 157h144l81 -157h-110l-61 66l-97 -66h-122zM228 94c63 0 119 49 135 108l4 14c-27 11 -63 19 -100 19c-64 0 -109 -32 -109 -84c0 -33 27 -57 70 -57zM163 -10c-92 0 -156 60 -156 144c0 124 101 193 231 193
c59 0 106 -9 151 -24l2 7c3 12 6 24 6 40c0 37 -25 63 -101 63c-52 0 -104 -13 -143 -29l-24 120c56 23 123 38 199 38c145 0 217 -60 217 -165c0 -28 -5 -54 -12 -81l-79 -296h-147l16 62c-43 -47 -96 -72 -160 -72z" />
    <glyph glyph-name="uni1EA6" unicode="&#x1ea6;" horiz-adv-x="765" 
d="M708 873l-95 120l134 57l65 -177h-104zM315 755l165 157h144l81 -157h-110l-61 66l-97 -66h-122zM307 293h186l-32 231zM-57 0l489 705h148l111 -705h-158l-22 157h-296l-106 -157h-166z" />
    <glyph glyph-name="uni1EA7" unicode="&#x1ea7;" horiz-adv-x="588" 
d="M572 713l-95 120l134 57l65 -177h-104zM179 595l165 157h144l81 -157h-110l-61 66l-97 -66h-122zM228 94c63 0 119 49 135 108l4 14c-27 11 -63 19 -100 19c-64 0 -109 -32 -109 -84c0 -33 27 -57 70 -57zM163 -10c-92 0 -156 60 -156 144c0 124 101 193 231 193
c59 0 106 -9 151 -24l2 7c3 12 6 24 6 40c0 37 -25 63 -101 63c-52 0 -104 -13 -143 -29l-24 120c56 23 123 38 199 38c145 0 217 -60 217 -165c0 -28 -5 -54 -12 -81l-79 -296h-147l16 62c-43 -47 -96 -72 -160 -72z" />
    <glyph glyph-name="uni1EAA" unicode="&#x1eaa;" horiz-adv-x="765" 
d="M446 945l-70 37c31 72 78 122 134 122c31 0 50 -11 70 -27c24 -17 32 -24 47 -24c28 0 45 23 62 54l70 -36c-31 -72 -78 -122 -134 -122c-31 0 -49 10 -70 26c-24 17 -32 24 -47 24c-28 0 -45 -22 -62 -54zM315 755l165 157h144l81 -157h-110l-61 66l-97 -66h-122z
M307 293h186l-32 231zM-57 0l489 705h148l111 -705h-158l-22 157h-296l-106 -157h-166z" />
    <glyph glyph-name="uni1EAB" unicode="&#x1eab;" horiz-adv-x="588" 
d="M310 785l-70 37c31 72 78 122 134 122c31 0 50 -11 70 -27c24 -17 32 -24 47 -24c28 0 45 23 62 54l70 -36c-31 -72 -78 -122 -134 -122c-31 0 -49 10 -70 26c-24 17 -32 24 -47 24c-28 0 -45 -22 -62 -54zM179 595l165 157h144l81 -157h-110l-61 66l-97 -66h-122z
M228 94c63 0 119 49 135 108l4 14c-27 11 -63 19 -100 19c-64 0 -109 -32 -109 -84c0 -33 27 -57 70 -57zM163 -10c-92 0 -156 60 -156 144c0 124 101 193 231 193c59 0 106 -9 151 -24l2 7c3 12 6 24 6 40c0 37 -25 63 -101 63c-52 0 -104 -13 -143 -29l-24 120
c56 23 123 38 199 38c145 0 217 -60 217 -165c0 -28 -5 -54 -12 -81l-79 -296h-147l16 62c-43 -47 -96 -72 -160 -72z" />
    <glyph glyph-name="uni1EAC" unicode="&#x1eac;" horiz-adv-x="765" 
d="M206 -199l35 132h143l-35 -132h-143zM315 755l165 157h144l81 -157h-110l-61 66l-97 -66h-122zM307 293h186l-32 231zM-57 0l489 705h148l111 -705h-158l-22 157h-296l-106 -157h-166z" />
    <glyph glyph-name="uni1EAD" unicode="&#x1ead;" horiz-adv-x="588" 
d="M108 -199l35 132h143l-35 -132h-143zM179 595l165 157h144l81 -157h-110l-61 66l-97 -66h-122zM228 94c63 0 119 49 135 108l4 14c-27 11 -63 19 -100 19c-64 0 -109 -32 -109 -84c0 -33 27 -57 70 -57zM163 -10c-92 0 -156 60 -156 144c0 124 101 193 231 193
c59 0 106 -9 151 -24l2 7c3 12 6 24 6 40c0 37 -25 63 -101 63c-52 0 -104 -13 -143 -29l-24 120c56 23 123 38 199 38c145 0 217 -60 217 -165c0 -28 -5 -54 -12 -81l-79 -296h-147l16 62c-43 -47 -96 -72 -160 -72z" />
    <glyph glyph-name="uni1EAE" unicode="&#x1eae;" horiz-adv-x="765" 
d="M485 912l154 177l128 -57l-161 -120h-121zM515 753c-116 0 -161 76 -147 154v5h99c-1 -32 21 -60 68 -60c36 0 75 28 102 60h110c-46 -97 -140 -159 -232 -159zM307 293h186l-32 231zM-57 0l489 705h148l111 -705h-158l-22 157h-296l-106 -157h-166z" />
    <glyph glyph-name="uni1EAF" unicode="&#x1eaf;" horiz-adv-x="588" 
d="M361 752l154 177l128 -57l-161 -120h-121zM228 94c63 0 119 49 135 108l4 14c-27 11 -63 19 -100 19c-64 0 -109 -32 -109 -84c0 -33 27 -57 70 -57zM163 -10c-92 0 -156 60 -156 144c0 124 101 193 231 193c59 0 106 -9 151 -24l2 7c3 12 6 24 6 40c0 37 -25 63 -101 63
c-52 0 -104 -13 -143 -29l-24 120c56 23 123 38 199 38c145 0 217 -60 217 -165c0 -28 -5 -54 -12 -81l-79 -296h-147l16 62c-43 -47 -96 -72 -160 -72zM391 593c-116 0 -161 76 -147 154v5h99c-1 -32 21 -60 68 -60c36 0 75 28 102 60h110c-46 -97 -140 -159 -232 -159z
" />
    <glyph glyph-name="uni1EB0" unicode="&#x1eb0;" horiz-adv-x="765" 
d="M506 912l-102 120l134 57l65 -177h-97zM515 753c-116 0 -161 76 -147 154v5h99c-1 -32 21 -60 68 -60c36 0 75 28 102 60h110c-46 -97 -140 -159 -232 -159zM307 293h186l-32 231zM-57 0l489 705h148l111 -705h-158l-22 157h-296l-106 -157h-166z" />
    <glyph glyph-name="uni1EB1" unicode="&#x1eb1;" horiz-adv-x="588" 
d="M382 752l-102 120l134 57l65 -177h-97zM228 94c63 0 119 49 135 108l4 14c-27 11 -63 19 -100 19c-64 0 -109 -32 -109 -84c0 -33 27 -57 70 -57zM163 -10c-92 0 -156 60 -156 144c0 124 101 193 231 193c59 0 106 -9 151 -24l2 7c3 12 6 24 6 40c0 37 -25 63 -101 63
c-52 0 -104 -13 -143 -29l-24 120c56 23 123 38 199 38c145 0 217 -60 217 -165c0 -28 -5 -54 -12 -81l-79 -296h-147l16 62c-43 -47 -96 -72 -160 -72zM391 593c-116 0 -161 76 -147 154v5h99c-1 -32 21 -60 68 -60c36 0 75 28 102 60h110c-46 -97 -140 -159 -232 -159z
" />
    <glyph glyph-name="uni1EB4" unicode="&#x1eb4;" horiz-adv-x="765" 
d="M452 945l-70 37c31 72 78 122 134 122c31 0 50 -11 70 -27c24 -17 32 -24 47 -24c28 0 45 23 62 54l70 -36c-31 -72 -78 -122 -134 -122c-31 0 -49 10 -70 26c-24 17 -32 24 -47 24c-28 0 -45 -22 -62 -54zM515 753c-116 0 -161 76 -147 154v5h99c-1 -32 21 -60 68 -60
c36 0 75 28 102 60h110c-46 -97 -140 -159 -232 -159zM307 293h186l-32 231zM-57 0l489 705h148l111 -705h-158l-22 157h-296l-106 -157h-166z" />
    <glyph glyph-name="uni1EB5" unicode="&#x1eb5;" horiz-adv-x="588" 
d="M329 786l-70 37c31 72 78 122 134 122c31 0 50 -11 70 -27c24 -17 32 -24 47 -24c28 0 45 23 62 54l70 -36c-31 -72 -78 -122 -134 -122c-31 0 -49 10 -70 26c-24 17 -32 24 -47 24c-28 0 -45 -22 -62 -54zM228 94c63 0 119 49 135 108l4 14c-27 11 -63 19 -100 19
c-64 0 -109 -32 -109 -84c0 -33 27 -57 70 -57zM163 -10c-92 0 -156 60 -156 144c0 124 101 193 231 193c59 0 106 -9 151 -24l2 7c3 12 6 24 6 40c0 37 -25 63 -101 63c-52 0 -104 -13 -143 -29l-24 120c56 23 123 38 199 38c145 0 217 -60 217 -165c0 -28 -5 -54 -12 -81
l-79 -296h-147l16 62c-43 -47 -96 -72 -160 -72zM391 593c-116 0 -161 76 -147 154v5h99c-1 -32 21 -60 68 -60c36 0 75 28 102 60h110c-46 -97 -140 -159 -232 -159z" />
    <glyph glyph-name="uni1EB6" unicode="&#x1eb6;" horiz-adv-x="765" 
d="M206 -199l35 132h143l-35 -132h-143zM515 753c-116 0 -161 76 -147 154v5h99c-1 -32 21 -60 68 -60c36 0 75 28 102 60h110c-46 -97 -140 -159 -232 -159zM307 293h186l-32 231zM-57 0l489 705h148l111 -705h-158l-22 157h-296l-106 -157h-166z" />
    <glyph glyph-name="uni1EB7" unicode="&#x1eb7;" horiz-adv-x="588" 
d="M108 -199l35 132h143l-35 -132h-143zM228 94c63 0 119 49 135 108l4 14c-27 11 -63 19 -100 19c-64 0 -109 -32 -109 -84c0 -33 27 -57 70 -57zM163 -10c-92 0 -156 60 -156 144c0 124 101 193 231 193c59 0 106 -9 151 -24l2 7c3 12 6 24 6 40c0 37 -25 63 -101 63
c-52 0 -104 -13 -143 -29l-24 120c56 23 123 38 199 38c145 0 217 -60 217 -165c0 -28 -5 -54 -12 -81l-79 -296h-147l16 62c-43 -47 -96 -72 -160 -72zM391 593c-116 0 -161 76 -147 154v5h99c-1 -32 21 -60 68 -60c36 0 75 28 102 60h110c-46 -97 -140 -159 -232 -159z
" />
    <glyph glyph-name="uni1EBC" unicode="&#x1ebc;" horiz-adv-x="665" 
d="M356 754l-70 37c31 72 78 122 134 122c31 0 50 -11 70 -27c24 -17 32 -24 47 -24c28 0 45 23 62 54l70 -36c-31 -72 -78 -122 -134 -122c-31 0 -49 10 -70 26c-24 17 -32 24 -47 24c-28 0 -45 -22 -62 -54zM12 0l188 700h523l-37 -137h-370l-38 -143h325l-37 -135h-325
l-40 -148h376l-37 -137h-528z" />
    <glyph glyph-name="uni1EBD" unicode="&#x1ebd;" horiz-adv-x="607" 
d="M279 596l-70 37c31 72 78 122 134 122c31 0 50 -11 70 -27c24 -17 32 -24 47 -24c28 0 45 23 62 54l70 -36c-31 -72 -78 -122 -134 -122c-31 0 -49 10 -70 26c-24 17 -32 24 -47 24c-28 0 -45 -22 -62 -54zM197 310h233c3 11 5 23 5 35c0 44 -25 79 -88 79
c-69 0 -125 -46 -150 -114zM551 215h-367c5 -64 42 -105 122 -105c40 0 75 12 119 43l70 -94c-48 -40 -114 -71 -206 -71c-155 0 -248 90 -248 238c0 156 126 320 318 320c140 0 219 -90 219 -209c0 -39 -10 -81 -27 -122z" />
    <glyph glyph-name="uni1EBE" unicode="&#x1ebe;" horiz-adv-x="665" 
d="M641 873l161 177l128 -57l-161 -120h-128zM274 755l165 157h144l81 -157h-110l-61 66l-97 -66h-122zM12 0l188 700h523l-37 -137h-370l-38 -143h325l-37 -135h-325l-40 -148h376l-37 -137h-528z" />
    <glyph glyph-name="uni1EBF" unicode="&#x1ebf;" horiz-adv-x="607" 
d="M549 713l161 177l128 -57l-161 -120h-128zM183 595l165 157h144l81 -157h-110l-61 66l-97 -66h-122zM197 310h233c3 11 5 23 5 35c0 44 -25 79 -88 79c-69 0 -125 -46 -150 -114zM551 215h-367c5 -64 42 -105 122 -105c40 0 75 12 119 43l70 -94
c-48 -40 -114 -71 -206 -71c-155 0 -248 90 -248 238c0 156 126 320 318 320c140 0 219 -90 219 -209c0 -39 -10 -81 -27 -122z" />
    <glyph glyph-name="uni1EC0" unicode="&#x1ec0;" horiz-adv-x="665" 
d="M667 873l-95 120l134 57l65 -177h-104zM274 755l165 157h144l81 -157h-110l-61 66l-97 -66h-122zM12 0l188 700h523l-37 -137h-370l-38 -143h325l-37 -135h-325l-40 -148h376l-37 -137h-528z" />
    <glyph glyph-name="uni1EC1" unicode="&#x1ec1;" horiz-adv-x="607" 
d="M576 713l-95 120l134 57l65 -177h-104zM183 595l165 157h144l81 -157h-110l-61 66l-97 -66h-122zM197 310h233c3 11 5 23 5 35c0 44 -25 79 -88 79c-69 0 -125 -46 -150 -114zM551 215h-367c5 -64 42 -105 122 -105c40 0 75 12 119 43l70 -94c-48 -40 -114 -71 -206 -71
c-155 0 -248 90 -248 238c0 156 126 320 318 320c140 0 219 -90 219 -209c0 -39 -10 -81 -27 -122z" />
    <glyph glyph-name="uni1EC4" unicode="&#x1ec4;" horiz-adv-x="665" 
d="M405 945l-70 37c31 72 78 122 134 122c31 0 50 -11 70 -27c24 -17 32 -24 47 -24c28 0 45 23 62 54l70 -36c-31 -72 -78 -122 -134 -122c-31 0 -49 10 -70 26c-24 17 -32 24 -47 24c-28 0 -45 -22 -62 -54zM274 755l165 157h144l81 -157h-110l-61 66l-97 -66h-122zM12 0
l188 700h523l-37 -137h-370l-38 -143h325l-37 -135h-325l-40 -148h376l-37 -137h-528z" />
    <glyph glyph-name="uni1EC5" unicode="&#x1ec5;" horiz-adv-x="607" 
d="M314 785l-70 37c31 72 78 122 134 122c31 0 50 -11 70 -27c24 -17 32 -24 47 -24c28 0 45 23 62 54l70 -36c-31 -72 -78 -122 -134 -122c-31 0 -49 10 -70 26c-24 17 -32 24 -47 24c-28 0 -45 -22 -62 -54zM183 595l165 157h144l81 -157h-110l-61 66l-97 -66h-122z
M197 310h233c3 11 5 23 5 35c0 44 -25 79 -88 79c-69 0 -125 -46 -150 -114zM551 215h-367c5 -64 42 -105 122 -105c40 0 75 12 119 43l70 -94c-48 -40 -114 -71 -206 -71c-155 0 -248 90 -248 238c0 156 126 320 318 320c140 0 219 -90 219 -209c0 -39 -10 -81 -27 -122z
" />
    <glyph glyph-name="uni1EC6" unicode="&#x1ec6;" horiz-adv-x="665" 
d="M152 -199l35 132h143l-35 -132h-143zM274 755l165 157h144l81 -157h-110l-61 66l-97 -66h-122zM12 0l188 700h523l-37 -137h-370l-38 -143h325l-37 -135h-325l-40 -148h376l-37 -137h-528z" />
    <glyph glyph-name="uni1EC7" unicode="&#x1ec7;" horiz-adv-x="607" 
d="M157 -199l35 132h143l-35 -132h-143zM183 595l165 157h144l81 -157h-110l-61 66l-97 -66h-122zM197 310h233c3 11 5 23 5 35c0 44 -25 79 -88 79c-69 0 -125 -46 -150 -114zM551 215h-367c5 -64 42 -105 122 -105c40 0 75 12 119 43l70 -94c-48 -40 -114 -71 -206 -71
c-155 0 -248 90 -248 238c0 156 126 320 318 320c140 0 219 -90 219 -209c0 -39 -10 -81 -27 -122z" />
    <glyph glyph-name="uni1ED0" unicode="&#x1ed0;" 
d="M685 873l161 177l128 -57l-161 -120h-128zM319 755l165 157h144l81 -157h-110l-61 66l-97 -66h-122zM405 130c147 0 243 141 243 262c0 104 -62 178 -178 178c-147 0 -243 -141 -243 -262c0 -104 62 -178 178 -178zM387 -12c-192 0 -320 134 -320 310
c0 208 170 414 421 414c192 0 320 -134 320 -310c0 -208 -170 -414 -421 -414z" />
    <glyph glyph-name="uni1ED1" unicode="&#x1ed1;" horiz-adv-x="652" 
d="M554 713l161 177l128 -57l-161 -120h-128zM188 595l165 157h144l81 -157h-110l-61 66l-97 -66h-122zM307 118c93 0 154 100 154 176c0 79 -47 122 -116 122c-93 0 -154 -100 -154 -176c0 -79 47 -122 116 -122zM300 -12c-159 0 -258 104 -258 248c0 160 137 310 310 310
c159 0 258 -104 258 -248c0 -160 -139 -310 -310 -310z" />
    <glyph glyph-name="uni1ED2" unicode="&#x1ed2;" 
d="M712 873l-95 120l134 57l65 -177h-104zM319 755l165 157h144l81 -157h-110l-61 66l-97 -66h-122zM405 130c147 0 243 141 243 262c0 104 -62 178 -178 178c-147 0 -243 -141 -243 -262c0 -104 62 -178 178 -178zM387 -12c-192 0 -320 134 -320 310c0 208 170 414 421 414
c192 0 320 -134 320 -310c0 -208 -170 -414 -421 -414z" />
    <glyph glyph-name="uni1ED3" unicode="&#x1ed3;" horiz-adv-x="652" 
d="M581 713l-95 120l134 57l65 -177h-104zM188 595l165 157h144l81 -157h-110l-61 66l-97 -66h-122zM307 118c93 0 154 100 154 176c0 79 -47 122 -116 122c-93 0 -154 -100 -154 -176c0 -79 47 -122 116 -122zM300 -12c-159 0 -258 104 -258 248c0 160 137 310 310 310
c159 0 258 -104 258 -248c0 -160 -139 -310 -310 -310z" />
    <glyph glyph-name="uni1ED6" unicode="&#x1ed6;" 
d="M450 945l-70 37c31 72 78 122 134 122c31 0 50 -11 70 -27c24 -17 32 -24 47 -24c28 0 45 23 62 54l70 -36c-31 -72 -78 -122 -134 -122c-31 0 -49 10 -70 26c-24 17 -32 24 -47 24c-28 0 -45 -22 -62 -54zM319 755l165 157h144l81 -157h-110l-61 66l-97 -66h-122z
M405 130c147 0 243 141 243 262c0 104 -62 178 -178 178c-147 0 -243 -141 -243 -262c0 -104 62 -178 178 -178zM387 -12c-192 0 -320 134 -320 310c0 208 170 414 421 414c192 0 320 -134 320 -310c0 -208 -170 -414 -421 -414z" />
    <glyph glyph-name="uni1ED7" unicode="&#x1ed7;" horiz-adv-x="652" 
d="M319 785l-70 37c31 72 78 122 134 122c31 0 50 -11 70 -27c24 -17 32 -24 47 -24c28 0 45 23 62 54l70 -36c-31 -72 -78 -122 -134 -122c-31 0 -49 10 -70 26c-24 17 -32 24 -47 24c-28 0 -45 -22 -62 -54zM188 595l165 157h144l81 -157h-110l-61 66l-97 -66h-122z
M307 118c93 0 154 100 154 176c0 79 -47 122 -116 122c-93 0 -154 -100 -154 -176c0 -79 47 -122 116 -122zM300 -12c-159 0 -258 104 -258 248c0 160 137 310 310 310c159 0 258 -104 258 -248c0 -160 -139 -310 -310 -310z" />
    <glyph glyph-name="uni1ED8" unicode="&#x1ed8;" 
d="M255 -199l35 132h143l-35 -132h-143zM319 755l165 157h144l81 -157h-110l-61 66l-97 -66h-122zM405 130c147 0 243 141 243 262c0 104 -62 178 -178 178c-147 0 -243 -141 -243 -262c0 -104 62 -178 178 -178zM387 -12c-192 0 -320 134 -320 310c0 208 170 414 421 414
c192 0 320 -134 320 -310c0 -208 -170 -414 -421 -414z" />
    <glyph glyph-name="uni1ED9" unicode="&#x1ed9;" horiz-adv-x="652" 
d="M163 -199l35 132h143l-35 -132h-143zM188 595l165 157h144l81 -157h-110l-61 66l-97 -66h-122zM307 118c93 0 154 100 154 176c0 79 -47 122 -116 122c-93 0 -154 -100 -154 -176c0 -79 47 -122 116 -122zM300 -12c-159 0 -258 104 -258 248c0 160 137 310 310 310
c159 0 258 -104 258 -248c0 -160 -139 -310 -310 -310z" />
    <glyph glyph-name="uni1EDA" unicode="&#x1eda;" 
d="M414 755l161 177l128 -57l-161 -120h-128zM387 -12c-192 0 -320 134 -320 310c0 208 170 414 421 414c48 0 92 -8 131 -24c12 -5 23 -10 34 -16c56 3 75 9 80 28c8 15 14 44 -1 100h143c2 -35 2 -58 0 -71c-1 -13 -5 -29 -12 -50c-15 -41 -43 -75 -86 -100
c-5 -3 -10 -5 -16 -8c9 -15 17 -30 24 -47c15 -37 23 -78 23 -122c0 -208 -170 -414 -421 -414zM405 130c147 0 243 141 243 262c0 104 -62 178 -178 178c-147 0 -243 -141 -243 -262c0 -104 62 -178 178 -178z" />
    <glyph glyph-name="uni1EDB" unicode="&#x1edb;" horiz-adv-x="652" 
d="M287 595l161 177l128 -57l-161 -120h-128zM300 -12c-159 0 -258 104 -258 248c0 160 137 310 310 310c40 0 76 -6 107 -19c16 -6 31 -13 44 -22c21 2 36 5 45 8c11 4 18 11 21 20c8 15 14 44 -1 100h143c2 -35 2 -58 0 -71c-1 -13 -5 -29 -12 -50
c-15 -41 -43 -75 -86 -100c-7 -4 -15 -8 -23 -12c1 -1 1 -2 2 -3c12 -30 18 -63 18 -99c0 -160 -139 -310 -310 -310zM307 118c93 0 154 100 154 176c0 79 -47 122 -116 122c-93 0 -154 -100 -154 -176c0 -79 47 -122 116 -122z" />
    <glyph glyph-name="uni1EDC" unicode="&#x1edc;" 
d="M472 755l-95 120l134 57l65 -177h-104zM387 -12c-192 0 -320 134 -320 310c0 208 170 414 421 414c48 0 92 -8 131 -24c12 -5 23 -10 34 -16c56 3 75 9 80 28c8 15 14 44 -1 100h143c2 -35 2 -58 0 -71c-1 -13 -5 -29 -12 -50c-15 -41 -43 -75 -86 -100
c-5 -3 -10 -5 -16 -8c9 -15 17 -30 24 -47c15 -37 23 -78 23 -122c0 -208 -170 -414 -421 -414zM405 130c147 0 243 141 243 262c0 104 -62 178 -178 178c-147 0 -243 -141 -243 -262c0 -104 62 -178 178 -178z" />
    <glyph glyph-name="uni1EDD" unicode="&#x1edd;" horiz-adv-x="652" 
d="M350 595l-95 120l134 57l65 -177h-104zM300 -12c-159 0 -258 104 -258 248c0 160 137 310 310 310c40 0 76 -6 107 -19c16 -6 31 -13 44 -22c21 2 36 5 45 8c11 4 18 11 21 20c8 15 14 44 -1 100h143c2 -35 2 -58 0 -71c-1 -13 -5 -29 -12 -50c-15 -41 -43 -75 -86 -100
c-7 -4 -15 -8 -23 -12c1 -1 1 -2 2 -3c12 -30 18 -63 18 -99c0 -160 -139 -310 -310 -310zM307 118c93 0 154 100 154 176c0 79 -47 122 -116 122c-93 0 -154 -100 -154 -176c0 -79 47 -122 116 -122z" />
    <glyph glyph-name="uni1EE0" unicode="&#x1ee0;" 
d="M409 754l-70 37c31 72 78 122 134 122c31 0 50 -11 70 -27c24 -17 32 -24 47 -24c28 0 45 23 62 54l70 -36c-31 -72 -78 -122 -134 -122c-31 0 -49 10 -70 26c-24 17 -32 24 -47 24c-28 0 -45 -22 -62 -54zM387 -12c-192 0 -320 134 -320 310c0 208 170 414 421 414
c48 0 92 -8 131 -24c12 -5 23 -10 34 -16c56 3 75 9 80 28c8 15 14 44 -1 100h143c2 -35 2 -58 0 -71c-1 -13 -5 -29 -12 -50c-15 -41 -43 -75 -86 -100c-5 -3 -10 -5 -16 -8c9 -15 17 -30 24 -47c15 -37 23 -78 23 -122c0 -208 -170 -414 -421 -414zM405 130
c147 0 243 141 243 262c0 104 -62 178 -178 178c-147 0 -243 -141 -243 -262c0 -104 62 -178 178 -178z" />
    <glyph glyph-name="uni1EE1" unicode="&#x1ee1;" horiz-adv-x="652" 
d="M277 596l-70 37c31 72 78 122 134 122c31 0 50 -11 70 -27c24 -17 32 -24 47 -24c28 0 45 23 62 54l70 -36c-31 -72 -78 -122 -134 -122c-31 0 -49 10 -70 26c-24 17 -32 24 -47 24c-28 0 -45 -22 -62 -54zM300 -12c-159 0 -258 104 -258 248c0 160 137 310 310 310
c40 0 76 -6 107 -19c16 -6 31 -13 44 -22c21 2 36 5 45 8c11 4 18 11 21 20c8 15 14 44 -1 100h143c2 -35 2 -58 0 -71c-1 -13 -5 -29 -12 -50c-15 -41 -43 -75 -86 -100c-7 -4 -15 -8 -23 -12c1 -1 1 -2 2 -3c12 -30 18 -63 18 -99c0 -160 -139 -310 -310 -310zM307 118
c93 0 154 100 154 176c0 79 -47 122 -116 122c-93 0 -154 -100 -154 -176c0 -79 47 -122 116 -122z" />
    <glyph glyph-name="uni1EE8" unicode="&#x1ee8;" horiz-adv-x="804" 
d="M418 755l161 177l128 -57l-161 -120h-128zM781 824h143c2 -35 2 -58 0 -71c-1 -13 -5 -29 -12 -50c-15 -41 -43 -75 -86 -100c-17 -10 -37 -18 -58 -25l-79 -295c-24 -91 -60 -160 -108 -208c-57 -57 -134 -86 -238 -86c-163 0 -262 87 -262 236c0 35 6 72 17 112l97 363
h154l-101 -377c-7 -24 -11 -47 -11 -76c0 -69 42 -116 122 -116c45 0 83 15 114 44c31 31 53 74 68 130l106 395h98c7 1 12 3 16 4c11 4 18 11 21 20c8 15 14 44 -1 100z" />
    <glyph glyph-name="uni1EE9" unicode="&#x1ee9;" horiz-adv-x="663" 
d="M299 595l161 177l128 -57l-161 -120h-128zM199 -10c-96 0 -158 59 -158 156c0 31 9 67 18 102l77 288h152l-79 -294c-4 -15 -7 -35 -7 -48c0 -43 27 -66 74 -66c60 0 99 43 116 107l81 301h87c14 1 24 3 31 6c11 4 18 11 21 20c8 15 14 44 -1 100h143c2 -35 2 -58 0 -71
c-1 -13 -5 -29 -12 -50c-15 -41 -43 -75 -86 -100c-19 -11 -40 -19 -64 -26l-110 -415h-152l15 56c-39 -35 -86 -66 -146 -66z" />
    <glyph glyph-name="uni1EEA" unicode="&#x1eea;" horiz-adv-x="804" 
d="M463 755l-95 120l134 57l65 -177h-104zM781 824h143c2 -35 2 -58 0 -71c-1 -13 -5 -29 -12 -50c-15 -41 -43 -75 -86 -100c-17 -10 -37 -18 -58 -25l-79 -295c-24 -91 -60 -160 -108 -208c-57 -57 -134 -86 -238 -86c-163 0 -262 87 -262 236c0 35 6 72 17 112l97 363
h154l-101 -377c-7 -24 -11 -47 -11 -76c0 -69 42 -116 122 -116c45 0 83 15 114 44c31 31 53 74 68 130l106 395h98c7 1 12 3 16 4c11 4 18 11 21 20c8 15 14 44 -1 100z" />
    <glyph glyph-name="uni1EEB" unicode="&#x1eeb;" horiz-adv-x="663" 
d="M368 595l-95 120l134 57l65 -177h-104zM199 -10c-96 0 -158 59 -158 156c0 31 9 67 18 102l77 288h152l-79 -294c-4 -15 -7 -35 -7 -48c0 -43 27 -66 74 -66c60 0 99 43 116 107l81 301h87c14 1 24 3 31 6c11 4 18 11 21 20c8 15 14 44 -1 100h143c2 -35 2 -58 0 -71
c-1 -13 -5 -29 -12 -50c-15 -41 -43 -75 -86 -100c-19 -11 -40 -19 -64 -26l-110 -415h-152l15 56c-39 -35 -86 -66 -146 -66z" />
    <glyph glyph-name="uni1EEE" unicode="&#x1eee;" horiz-adv-x="804" 
d="M387 754l-70 37c31 72 78 122 134 122c31 0 50 -11 70 -27c24 -17 32 -24 47 -24c28 0 45 23 62 54l70 -36c-31 -72 -78 -122 -134 -122c-31 0 -49 10 -70 26c-24 17 -32 24 -47 24c-28 0 -45 -22 -62 -54zM781 824h143c2 -35 2 -58 0 -71c-1 -13 -5 -29 -12 -50
c-15 -41 -43 -75 -86 -100c-17 -10 -37 -18 -58 -25l-79 -295c-24 -91 -60 -160 -108 -208c-57 -57 -134 -86 -238 -86c-163 0 -262 87 -262 236c0 35 6 72 17 112l97 363h154l-101 -377c-7 -24 -11 -47 -11 -76c0 -69 42 -116 122 -116c45 0 83 15 114 44
c31 31 53 74 68 130l106 395h98c7 1 12 3 16 4c11 4 18 11 21 20c8 15 14 44 -1 100z" />
    <glyph glyph-name="uni1EEF" unicode="&#x1eef;" horiz-adv-x="663" 
d="M276 596l-70 37c31 72 78 122 134 122c31 0 50 -11 70 -27c24 -17 32 -24 47 -24c28 0 45 23 62 54l70 -36c-31 -72 -78 -122 -134 -122c-31 0 -49 10 -70 26c-24 17 -32 24 -47 24c-28 0 -45 -22 -62 -54zM199 -10c-96 0 -158 59 -158 156c0 31 9 67 18 102l77 288h152
l-79 -294c-4 -15 -7 -35 -7 -48c0 -43 27 -66 74 -66c60 0 99 43 116 107l81 301h87c14 1 24 3 31 6c11 4 18 11 21 20c8 15 14 44 -1 100h143c2 -35 2 -58 0 -71c-1 -13 -5 -29 -12 -50c-15 -41 -43 -75 -86 -100c-19 -11 -40 -19 -64 -26l-110 -415h-152l15 56
c-39 -35 -86 -66 -146 -66z" />
    <glyph glyph-name="Ygrave" unicode="&#x1ef2;" horiz-adv-x="650" 
d="M394 755l-95 120l134 57l65 -177h-104zM169 0l74 276l-145 424h171l82 -290l240 290h186l-383 -438l-71 -262h-154z" />
    <glyph glyph-name="ygrave" unicode="&#x1ef3;" horiz-adv-x="592" 
d="M332 595l-95 120l134 57l65 -177h-104zM85 -163c-56 0 -92 14 -125 37l81 110c16 -12 39 -21 59 -21c23 0 38 6 59 33l-66 540h155l25 -364l201 364h164l-332 -549c-69 -109 -130 -150 -221 -150z" />
    <glyph glyph-name="uni1EF8" unicode="&#x1ef8;" horiz-adv-x="650" 
d="M325 754l-70 37c31 72 78 122 134 122c31 0 50 -11 70 -27c24 -17 32 -24 47 -24c28 0 45 23 62 54l70 -36c-31 -72 -78 -122 -134 -122c-31 0 -49 10 -70 26c-24 17 -32 24 -47 24c-28 0 -45 -22 -62 -54zM169 0l74 276l-145 424h171l82 -290l240 290h186l-383 -438
l-71 -262h-154z" />
    <glyph glyph-name="uni1EF9" unicode="&#x1ef9;" horiz-adv-x="592" 
d="M255 596l-70 37c31 72 78 122 134 122c31 0 50 -11 70 -27c24 -17 32 -24 47 -24c28 0 45 23 62 54l70 -36c-31 -72 -78 -122 -134 -122c-31 0 -49 10 -70 26c-24 17 -32 24 -47 24c-28 0 -45 -22 -62 -54zM85 -163c-56 0 -92 14 -125 37l81 110c16 -12 39 -21 59 -21
c23 0 38 6 59 33l-66 540h155l25 -364l201 364h164l-332 -549c-69 -109 -130 -150 -221 -150z" />
    </font>
</defs>
</svg>
