<svg xmlns="http://www.w3.org/2000/svg" version="1.1" xmlns:xlink="http://www.w3.org/1999/xlink" xmlns:svgjs="http://svgjs.dev/svgjs" width="1500" height="1500" viewBox="0 0 1500 1500"><rect width="1500" height="1500" fill="#ffffff"></rect><g transform="matrix(0.6666666666666666,0,0,0.6666666666666666,249.39393939393938,696.3945644106018)"><svg viewBox="0 0 396 42" data-background-color="#ffffff" preserveAspectRatio="xMidYMid meet" height="159" width="1500" xmlns="http://www.w3.org/2000/svg" xmlns:xlink="http://www.w3.org/1999/xlink"><g id="tight-bounds" transform="matrix(1,0,0,1,0.2400000000000091,0.23988957315776815)"><svg viewBox="0 0 395.52 41.520220853684435" height="41.520220853684435" width="395.52"><g><svg viewBox="0 0 395.52 41.520220853684435" height="41.520220853684435" width="395.52"><g><svg viewBox="0 0 395.52 41.520220853684435" height="41.520220853684435" width="395.52"><g id="textblocktransform"><svg viewBox="0 0 395.52 41.520220853684435" height="41.520220853684435" width="395.52" id="textblock"><g><svg viewBox="0 0 395.52 41.520220853684435" height="41.520220853684435" width="395.52"><g transform="matrix(1,0,0,1,0,0)"><svg width="395.52" viewBox="3.25 -35.45 344.87 36.21" height="41.520220853684435" data-palette-color="#2a2c35"><path d="M10.25-13.99L10.25 0 3.25 0 3.25-35.01 27.76-35.01 27.76-28 10.25-28 10.25-21 20.75-21 20.75-13.99 10.25-13.99ZM37.18-13.99L51.19-13.99 51.19-21Q51.19-22.44 50.64-23.72 50.1-25 49.14-25.95 48.19-26.9 46.91-27.45 45.63-28 44.19-28L44.19-28Q42.75-28 41.46-27.45 40.18-26.9 39.23-25.95 38.28-25 37.73-23.72 37.18-22.44 37.18-21L37.18-21 37.18-13.99ZM58.2-21L58.2 0 51.19 0 51.19-7.01 37.18-7.01 37.18 0 30.2 0 30.2-21Q30.2-23.9 31.3-26.45 32.39-29 34.29-30.91 36.18-32.81 38.73-33.91 41.28-35.01 44.19-35.01L44.19-35.01Q47.09-35.01 49.64-33.91 52.19-32.81 54.1-30.91 56-29 57.1-26.45 58.2-23.9 58.2-21L58.2-21ZM62.23-24.51L62.23-24.51Q62.23-26.68 63.06-28.59 63.89-30.49 65.31-31.92 66.74-33.35 68.65-34.18 70.55-35.01 72.72-35.01L72.72-35.01 88.79-35.01 88.79-28 72.72-28Q71.99-28 71.36-27.73 70.72-27.47 70.25-26.99 69.77-26.51 69.5-25.88 69.23-25.24 69.23-24.51L69.23-24.51Q69.23-23.78 69.5-23.13 69.77-22.49 70.25-22.01 70.72-21.53 71.36-21.26 71.99-21 72.72-21L72.72-21 79.73-21Q81.9-21 83.82-20.18 85.74-19.36 87.17-17.93 88.59-16.5 89.41-14.59 90.23-12.67 90.23-10.5L90.23-10.5Q90.23-8.33 89.41-6.42 88.59-4.52 87.17-3.09 85.74-1.66 83.82-0.83 81.9 0 79.73 0L79.73 0 64.18 0 64.18-7.01 79.73-7.01Q80.46-7.01 81.1-7.28 81.73-7.54 82.21-8.02 82.69-8.5 82.95-9.13 83.22-9.77 83.22-10.5L83.22-10.5Q83.22-11.23 82.95-11.87 82.69-12.5 82.21-12.98 81.73-13.45 81.1-13.72 80.46-13.99 79.73-13.99L79.73-13.99 72.72-13.99Q70.55-13.99 68.65-14.82 66.74-15.65 65.31-17.08 63.89-18.51 63.06-20.42 62.23-22.34 62.23-24.51ZM101.82-13.99L101.82 0 94.82 0 94.82-35.01 101.82-35.01 101.82-21 115.81-21 115.81-35.01 122.82-35.01 122.82 0 115.81 0 115.81-13.99 101.82-13.99ZM136.32-35.01L136.32 0 129.31 0 129.31-35.01 136.32-35.01ZM177.11-17.36L177.11-17.36Q177.11-14.87 176.46-12.56 175.82-10.25 174.65-8.24 173.47-6.23 171.81-4.57 170.15-2.91 168.15-1.72 166.15-0.54 163.83 0.11 161.51 0.76 159.02 0.76L159.02 0.76Q156.53 0.76 154.22 0.11 151.92-0.54 149.9-1.72 147.89-2.91 146.23-4.57 144.57-6.23 143.38-8.24 142.2-10.25 141.55-12.56 140.91-14.87 140.91-17.36L140.91-17.36Q140.91-19.85 141.55-22.17 142.2-24.49 143.38-26.49 144.57-28.49 146.23-30.15 147.89-31.81 149.9-32.98 151.92-34.16 154.22-34.8 156.53-35.45 159.02-35.45L159.02-35.45Q161.51-35.45 163.83-34.8 166.15-34.16 168.15-32.98 170.15-31.81 171.81-30.15 173.47-28.49 174.65-26.49 175.82-24.49 176.46-22.17 177.11-19.85 177.11-17.36ZM170.15-17.36L170.15-17.36Q170.15-19.65 169.27-21.69 168.4-23.73 166.89-25.23 165.39-26.73 163.35-27.61 161.32-28.49 159.02-28.49L159.02-28.49Q156.7-28.49 154.68-27.61 152.65-26.73 151.13-25.23 149.62-23.73 148.74-21.69 147.86-19.65 147.86-17.36L147.86-17.36Q147.86-15.06 148.74-13.05 149.62-11.04 151.13-9.52 152.65-8.01 154.68-7.13 156.7-6.25 159.02-6.25L159.02-6.25Q161.32-6.25 163.35-7.13 165.39-8.01 166.89-9.52 168.4-11.04 169.27-13.05 170.15-15.06 170.15-17.36ZM209.7-35.01L209.7 0 202.21 0 188.71-23.05 188.71 0 181.7 0 181.7-35.01 189.19-35.01 202.69-11.94 202.69-35.01 209.7-35.01ZM214.14-24.51L214.14-24.51Q214.14-26.68 214.97-28.59 215.8-30.49 217.23-31.92 218.66-33.35 220.56-34.18 222.47-35.01 224.64-35.01L224.64-35.01 240.71-35.01 240.71-28 224.64-28Q223.91-28 223.27-27.73 222.64-27.47 222.16-26.99 221.69-26.51 221.42-25.88 221.15-25.24 221.15-24.51L221.15-24.51Q221.15-23.78 221.42-23.13 221.69-22.49 222.16-22.01 222.64-21.53 223.27-21.26 223.91-21 224.64-21L224.64-21 231.65-21Q233.82-21 235.74-20.18 237.65-19.36 239.08-17.93 240.51-16.5 241.33-14.59 242.15-12.67 242.15-10.5L242.15-10.5Q242.15-8.33 241.33-6.42 240.51-4.52 239.08-3.09 237.65-1.66 235.74-0.83 233.82 0 231.65 0L231.65 0 216.1 0 216.1-7.01 231.65-7.01Q232.38-7.01 233.01-7.28 233.65-7.54 234.13-8.02 234.6-8.5 234.87-9.13 235.14-9.77 235.14-10.5L235.14-10.5Q235.14-11.23 234.87-11.87 234.6-12.5 234.13-12.98 233.65-13.45 233.01-13.72 232.38-13.99 231.65-13.99L231.65-13.99 224.64-13.99Q222.47-13.99 220.56-14.82 218.66-15.65 217.23-17.08 215.8-18.51 214.97-20.42 214.14-22.34 214.14-24.51ZM253.74-13.99L253.74 0 246.73 0 246.73-35.01 253.74-35.01 253.74-21 267.73-21 267.73-35.01 274.74-35.01 274.74 0 267.73 0 267.73-13.99 253.74-13.99ZM315.53-17.36L315.53-17.36Q315.53-14.87 314.88-12.56 314.24-10.25 313.06-8.24 311.89-6.23 310.23-4.57 308.57-2.91 306.57-1.72 304.57-0.54 302.25 0.11 299.93 0.76 297.44 0.76L297.44 0.76Q294.95 0.76 292.64 0.11 290.33-0.54 288.32-1.72 286.31-2.91 284.65-4.57 282.99-6.23 281.8-8.24 280.62-10.25 279.97-12.56 279.32-14.87 279.32-17.36L279.32-17.36Q279.32-19.85 279.97-22.17 280.62-24.49 281.8-26.49 282.99-28.49 284.65-30.15 286.31-31.81 288.32-32.98 290.33-34.16 292.64-34.8 294.95-35.45 297.44-35.45L297.44-35.45Q299.93-35.45 302.25-34.8 304.57-34.16 306.57-32.98 308.57-31.81 310.23-30.15 311.89-28.49 313.06-26.49 314.24-24.49 314.88-22.17 315.53-19.85 315.53-17.36ZM308.57-17.36L308.57-17.36Q308.57-19.65 307.69-21.69 306.81-23.73 305.31-25.23 303.81-26.73 301.77-27.61 299.73-28.49 297.44-28.49L297.44-28.49Q295.12-28.49 293.09-27.61 291.07-26.73 289.55-25.23 288.04-23.73 287.16-21.69 286.28-19.65 286.28-17.36L286.28-17.36Q286.28-15.06 287.16-13.05 288.04-11.04 289.55-9.52 291.07-8.01 293.09-7.13 295.12-6.25 297.44-6.25L297.44-6.25Q299.73-6.25 301.77-7.13 303.81-8.01 305.31-9.52 306.81-11.04 307.69-13.05 308.57-15.06 308.57-17.36ZM334.13-28L327.12-28 327.12-13.99 334.13-13.99Q335.57-13.99 336.84-14.54 338.11-15.09 339.06-16.04 340.01-16.99 340.56-18.27 341.11-19.56 341.11-21L341.11-21Q341.11-22.44 340.56-23.72 340.01-25 339.06-25.95 338.11-26.9 336.84-27.45 335.57-28 334.13-28L334.13-28ZM327.12-7.01L327.12 0 320.12 0 320.12-35.01 334.13-35.01Q336.06-35.01 337.84-34.51 339.62-34.01 341.17-33.09 342.72-32.18 344.01-30.9 345.29-29.61 346.2-28.05 347.12-26.49 347.62-24.71 348.12-22.92 348.12-21L348.12-21Q348.12-18.12 347.02-15.56 345.92-13.01 344.02-11.11 342.11-9.2 339.56-8.11 337.01-7.01 334.13-7.01L334.13-7.01 327.12-7.01Z" opacity="1" transform="matrix(1,0,0,1,0,0)" fill="#000000" class="wordmark-text-0" data-fill-palette-color="primary" id="text-0"></path></svg></g></svg></g></svg></g></svg></g></svg></g><defs></defs></svg><rect width="395.52" height="41.520220853684435" fill="none" stroke="none" visibility="hidden"></rect></g></svg></g></svg>