<?xml version="1.0" encoding="utf-8"?>
<!-- Generator: Adobe Illustrator 27.4.0, SVG Export Plug-In . SVG Version: 6.00 Build 0)  -->
<svg version="1.1" id="textblock" xmlns:svgjs="http://svgjs.dev/svgjs"
	 xmlns="http://www.w3.org/2000/svg" xmlns:xlink="http://www.w3.org/1999/xlink" x="0px" y="0px" viewBox="0 0 314 358"
	 style="enable-background:new 0 0 314 358;" xml:space="preserve">
<style type="text/css">
	.st0{fill:#EA2025;}
	.st1{fill:#BD212D;}
	.st2{fill:#231F20;}
	.st3{fill:none;stroke:#FFFFFF;stroke-width:3;}
	.st4{fill:#BF2130;}
	.st5{fill:#BF212E;}
	.st6{fill:#D72129;}
	.st7{fill:#F1E5DF;}
	.st8{fill:#FFFFFF;}
</style>
<g>
	<path class="st0" d="M233.2,339.3c-16,0.3-31.9-0.9-47.8-1.5c-42.5-1.6-85-3.2-127.5-4.8c-1.8-0.1-3.6-0.4-5.4-0.6
		c2.9-1.2,6-0.3,8.5-0.5c1.1-0.1,0.1-1.1,0.4-0.5c0.1,0.2,0,0.3-0.3,0.3c-3.7,0.1-7.5,0.7-11.1-0.4c-2.5-2.3-1.7-5.3-1.7-8
		c0-44.8,0-89.5,0-134.3c0-35.3,0-70.5,0-105.8c0-1.8,0-3.7,0.1-5.5c0.2-3.6,2.1-5.4,5.7-5.6c2.3-0.1,4.7-0.1,7-0.1
		c12.6-0.1,25.2-0.3,37.7,0.3c7.6,0.4,9.5,2.9,7,8.9c-1.9,1-5.2,0.9-4.8,4c0.4,2.6,3.3,2.8,5.6,3.2c4.7,0.7,9.4,1.5,13.8-1.2
		c-0.4-1,2.2-1.3,0.5-2.7c-4.4-3.6-4.3-3.7-0.5-8.6c2-1.9,4.5-2,7-1.9c6.1,0.3,12.2,0.5,18.3,1.5c5.9,1,11.9,0.2,17.9,0.4
		c12.9,0.5,25.9-0.2,38.8,1c9.3,0.9,11.1,2.4,10.2,11.6c-0.1,2.3-4.2,3.2-2.5,5.8c1.6,2.5,4.7,1.9,7.4,1.9c3.4,0,7,0.5,10.1-1.6
		c0.9-1,0.4-1.6-0.5-2.3c-5.3-3.8-6-6.4-3.4-12.6c4.4-2.9,9.5-2.4,14-1.3c10.4,2.5,20.9,1.4,31.3,1.1c6-0.2,8.6,1.6,9,7.7
		c0.1,1.2,0,2.3,0,3.5c0,78.8,0,157.5,0,236.3c0,13.5,0,13.8-13.5,13.3C254.1,339.7,243.6,340.2,233.2,339.3z"/>
	<path class="st1" d="M49.9,330.8c4,0,8,0,12,0c0,0.4,0,0.8,0,1.2c-3.4,0-6.8,0-10.1,0c-7.6,0.5-14.6-3-21.9-4.2
		c-1.7-0.3-1.6-1.9-1.6-3.2c0-3.2,0-6.3,0-9.5c0-81.4,0-162.8-0.1-244.2c0-3.8,0.7-5.2,4.9-5c24.1,1.1,48.2,2,72.3,2.7
		c3.8,0.1,4.3,1.7,3.1,4.5c-1.2,2.5,0.9,6.6-3.6,7.6c0-6.9-0.1-6.5-9.2-7.2c-11.6-1-23.2-0.2-34.8-0.6c-3.3-1.8-6.8-0.8-10.3-0.8
		c-1.7,0-2.6,1.3-2.7,3c-0.1,1.5-0.1,3-0.1,4.5c0,81.3,0,162.7,0,244C47.9,326.1,46.8,329.1,49.9,330.8z"/>
	<g>
		<path class="st2" d="M223.2,81.7c-0.2,4.6-0.3,8.9,5.7,10.5c4.2,1.1,0.8,2.4-0.6,3.4c-4.6,1.8-9.2,1.7-14,1
			c-1.5-0.2-3-0.8-3.4-2.4c-0.5-1.8,0.7-2.8,2.1-3.4c2.2-0.9,3.1-2.2,2.2-4.6c-1.4-3.9-2.1-8-3-12.1c-4.9-13.1-10.4-25.5-16.9-34.5
			C186,33.4,177.1,29,157,27.9c1.8-0.8-13,4.9-19.3,11c-8.3,9.8-13.1,19.3-16.2,31.4c-0.9,2.4-0.6,5.2-2.3,7.3
			c-1.4,3.1-2.5,6.1,2.9,6c0.8,0,3.7,0.9,3.5,1.9c-0.5,1.7-5.1,4.9-3.9,5.4c1.6,0.7-7.5-0.6-7.2-0.6c0.5,0-6.3-0.5-11.7-5.3
			c1-0.7,1.5-1.4,2.1-1.4c6.4,0.2,6.5-4.6,7.3-8.9c2.3-12.2,6.1-23.8,12.4-34.6c15.8-26.9,45.9-32.2,70.2-12.5
			c11.7,9.6,18.7,22.2,23.6,36.3c1.1,3.1,2,6.3,3,9.5C223.4,76.1,223.1,79,223.2,81.7z"/>
		<path class="st3" d="M223.2,81.7c-0.2,4.6-0.3,8.9,5.7,10.5c4.2,1.1,0.8,2.4-0.6,3.4c-4.6,1.8-9.2,1.7-14,1
			c-1.5-0.2-3-0.8-3.4-2.4c-0.5-1.8,0.7-2.8,2.1-3.4c2.2-0.9,3.1-2.2,2.2-4.6c-1.4-3.9-2.1-8-3-12.1c-4.9-13.1-10.4-25.5-16.9-34.5
			C186,33.4,177.1,29,157,27.9c1.8-0.8-13,4.9-19.3,11c-8.3,9.8-13.1,19.3-16.2,31.4c-0.9,2.4-0.6,5.2-2.3,7.3
			c-1.4,3.1-2.5,6.1,2.9,6c0.8,0,3.7,0.9,3.5,1.9c-0.5,1.7-5.1,4.9-3.9,5.4c1.6,0.7-7.5-0.6-7.2-0.6c0.5,0-6.3-0.5-11.7-5.3
			c1-0.7,1.5-1.4,2.1-1.4c6.4,0.2,6.5-4.6,7.3-8.9c2.3-12.2,6.1-23.8,12.4-34.6c15.8-26.9,45.9-32.2,70.2-12.5
			c11.7,9.6,18.7,22.2,23.6,36.3c1.1,3.1,2,6.3,3,9.5C223.4,76.1,223.1,79,223.2,81.7z"/>
	</g>
	<path class="st4" d="M224.8,81c-1.3-2.5-1.9-5.2-1.8-8c16.2,0.6,32.4,1.2,48.6,1.7c4.8,0.1,4.8,4.2,5.8,7.2c0.6,1.8,0.2,4,0.2,6
		c0,82.4,0,164.8,0,247c0,6.4,0,6.4-6.5,5.6c-5.1-0.8-10.3,0.5-15.3-0.7c-7.2,0.1-14.5,0.2-21.6-1c12.1,0,24.1-0.2,36.2,0
		c3.8,0.1,5.1-1.4,5.8-4.8c0.5-2.8,1-5.5,1-8.4c0-78.3,0-156.5,0-234.7c0-2.5,0.3-5-1.1-7.3c-1.4-2.5-2.7-3.3-6.1-3.2
		c-10.2,0.1-20.5,1.9-30.9-1.1C234.6,78.3,229.1,76.9,224.8,81z"/>
	<path class="st0" d="M254.9,339.9c5.3,0.4,10.7-0.9,15.9,0.7C265.5,340.7,260.1,341,254.9,339.9z"/>
	<path class="st5" d="M120.4,76.9c-0.4-2.8,0.2-5.4,1.2-8c1.4-1,3-1.3,4.6-1.2c17.3,0.8,34.5,1.6,51.9,1.8c7.7,0.1,15.3,0.9,23,0.9
		c9.4,0,11.7,2.3,12.3,12c0.1,0.8,0.2,1.7,0.1,2.5c-0.4,1.7,1.4,4.9-2.8,4.2c0-1.7,0.1-3.3,0.1-5c-0.1-4.1-1.8-5.9-6.2-6.3
		c-16.1-1.6-32.3-0.9-48.3-1.1c-9.2-0.1-18.1-1.9-27.3-1.8C126,74.9,123,74.9,120.4,76.9z"/>
	<path class="st6" d="M49.9,330.8c-1.7,0.1-3-0.2-3-2.3c0-1.3,0-2.7,0-4c0-82.2,0-164.5,0-246.7c0-6.8,0-7,7.1-6.7
		c2.3,0.1,5.5-1.9,6.9,1.9c-12,0.1-12,0.1-12,12.3c0,79.6,0,159.2,0,238.8C48.9,326.3,48.5,328.7,49.9,330.8z"/>
	<path class="st7" d="M210.7,89c3.9,0.4,1.4-1.9,1.3-3.2c1.1-0.9,3.2,1.3,3.9-1.1c1.4,3.2,2,6.1-3,6.4c-0.9,0.1-2.2,0.4-2.2,1.6
		c0,1.6,1.5,1.6,2.5,1.9c4.9,1.3,9.8,0.8,14.8,0.2c-5.2,3.4-10.8,2.1-16.3,1.5c-1.9-0.2-4.5-0.7-4.8-3.4
		C206.7,90.1,209.4,90.3,210.7,89z"/>
</g>
<g>
	<path class="st8" d="M140.1,318.6c0.4-4.5,1-9.1,1.3-13.6c1.1-22.1-3.4-43.2-9.3-64c-2.1-7.3-2-7.3,3.6-11.4
		c3.6-2.5,7.2-5.1,10.8-8.6c-3.8,0-7.6-0.1-11.3,0.1c-2.5,0.1-5.1,0.5-7.4,1.4c-2.6,1-3.7-0.2-4.5-2.5c-3.4-9.9-4.8-9.4,4.2-15.7
		c7-4.8,14.6-8.3,22.7-12.3c-7.7-0.8-14.2,1.3-20.9,3.1c-3.4,1-6.7,2.1-10.1,3.1c-2.1,0.7-3.1,0.4-3.6-2.7c-0.8-5.3,0.7-9,4.3-12.4
		c7.3-6.9,15.2-12.5,22.8-19c0.7-0.6,1.5-1.2,2.1-1.8c6.7-6.1,6.9-7.9,1.8-15.9c-0.7-1.2-1.5-2.4-2.3-3.7c1.5-1.5,3.2-0.3,4.9-1.1
		c-1.3-2.7-4.2-3.3-5.9-6c3.5-1.3,6.8-2.4,10-3.7c6.4-2.6,12.4-6.3,18.4-9.8c1.3-0.7,3-2.2,4.2-0.9c1.1,1.2,0.5,3.3,0.2,5
		c-1.8,9.5-4.9,18.7-7.3,28c-1.1,4.2-1.1,8.1,0.1,12.3c2.2,7.6,4.7,15.1,5.7,23.1c1.1,9.1-1.5,17.4-4.7,25.6
		c3.2-13.9,0.4-26.9-4.3-39.5c-3.7-9.9-1.6-19.4-0.3-29.1c0.5-4,1.1-8,1.5-12.1c0.1-1.6,0.1-3.3-3-1.3c-2.2,1.4-4.7,2.4-7.2,3
		c-2.8,0.7-4,1.6-2.6,3.7c0.7,1,1.3,2,1.8,3.1c0.5,1.3,2.2,2.6,1.2,3.9c-0.7,0.9-2.4,0-3.6-0.5c-0.3-0.1-0.7-0.1-0.9-0.1
		c-0.1,0.2-0.3,0.5-0.3,0.6c2.9,7.8,0.3,13.8-5.6,18.7c-4.8,4-9.4,8.3-13.9,13c-1.2,1.3-2.6,2.3-3.7,3.7c-1.3,1.6-1.4,3.8-0.7,5.6
		c0.7,1.9,2.1,0.2,3.2,0.1c9.4-1.8,18.8-1.9,28.2-1.6c3,0.1,4.4,2.6,6.9,4.3c-4.1,1.6-7.7,2.9-11.1,4.3c-6.3,2.5-12.3,6.1-17.9,10.4
		c-2.8,2.2-4.9,3-4.2,5.9c0.5,2.1,1.8,2,3.4,2.1c4.2,0.1,8.3,0.4,12.5,0.7c3.2,0.2,6.9,5.3,6.7,8.8c-0.1,1.4-0.9,1.4-1.8,1.7
		c-4.4,1.6-8.5,3.9-12,7.4c-1.6,1.6-2.3,3.1-1.7,5.7c3.4,15.7,6.5,31.6,6.1,48C146.3,297.1,144.6,308.2,140.1,318.6z"/>
	<path class="st8" d="M168.9,83.1c-4.9,4.2-8,9.6-10.1,15.9c-0.3,0.8-0.6,1.6-0.7,2.5c-0.4,3.1-1.7,6.8,1.6,8.6
		c3,1.6,5.1-0.9,6.7-3.7c0.4-0.7,1-1,2.1-2.2c-1.8,7-4.9,11.9-9.9,15.1c-4.7,3-8.9,1.4-11-4.3c-3.2-8.8-1.6-17,3.1-24.5
		C155.3,83.4,161.8,82.3,168.9,83.1z"/>
</g>
</svg>
